<svg width="60" height="60" viewBox="0 0 60 60" fill="none" xmlns="http://www.w3.org/2000/svg">
<circle cx="30" cy="30" r="30" fill="#0F393B"/>
<path d="M35.612 41.8H24.188C20.7703 41.8 18 39.0297 18 35.612V24.188C18 20.7703 20.7703 18 24.188 18H35.612C39.0297 18 41.8 20.7703 41.8 24.188V35.612C41.8 39.0292 39.0297 41.8 35.612 41.8Z" stroke="#F5F5F5" stroke-width="2" stroke-miterlimit="10"/>
<path d="M34.9473 34.9495C37.7356 32.1612 37.7356 27.6405 34.9473 24.8523C32.159 22.064 27.6384 22.064 24.8501 24.8523C22.0618 27.6405 22.0618 32.1612 24.8501 34.9495C27.6384 37.7378 32.159 37.7378 34.9473 34.9495Z" stroke="#F5F5F5" stroke-width="2" stroke-miterlimit="10"/>
<path d="M38.7856 22.502C38.7856 23.1483 38.2619 23.672 37.6156 23.672C36.9693 23.672 36.4456 23.1483 36.4456 22.502C36.4456 21.8557 36.9693 21.332 37.6156 21.332C38.2614 21.332 38.7856 21.8557 38.7856 22.502Z" fill="#F5F5F5"/>
</svg>
