<svg width="62" height="48" viewBox="0 0 62 48" fill="none" xmlns="http://www.w3.org/2000/svg">
<path d="M0 25.5V0H48.5V48H22.5C12.9 48 0 34 0 25.5Z" fill="#D8E7DA"/>
<circle cx="38.5" cy="24.5" r="22" stroke="#2F9564" stroke-width="3"/>
<path d="M32 21.6667C29.0545 21.6667 26.6667 24.0545 26.6667 27C26.6667 29.9455 29.0545 32.3333 32 32.3333C34.9455 32.3333 37.3333 29.9455 37.3333 27C37.3333 24.0545 34.9455 21.6667 32 21.6667ZM31 3V27H33V3H31Z" fill="#2F9564"/>
<path d="M48 15.6667C45.0545 15.6667 42.6667 18.0545 42.6667 21C42.6667 23.9455 45.0545 26.3333 48 26.3333C50.9455 26.3333 53.3333 23.9455 53.3333 21C53.3333 18.0545 50.9455 15.6667 48 15.6667ZM47 21V45H49V21H47Z" fill="#2F9564"/>
</svg>
