<svg width="64" height="49" viewBox="0 0 64 49" fill="none" xmlns="http://www.w3.org/2000/svg">
<path d="M0 25.5V0H48.5V48H22.5C12.9 48 0 34 0 25.5Z" fill="#F4E3D6"/>
<path d="M63.2883 23.4829C63.2789 22.5165 62.4878 21.7406 61.5214 21.75L45.7721 21.903C44.8056 21.9124 44.0298 22.7034 44.0392 23.6699C44.0486 24.6363 44.8396 25.4122 45.8061 25.4028L59.8054 25.2668L59.9414 39.2662C59.9508 40.2326 60.7419 41.0085 61.7083 40.9991C62.6748 40.9897 63.4506 40.1986 63.4412 39.2322L63.2883 23.4829ZM39.2494 48.7254L62.7877 24.7253L60.289 22.2746L36.7506 46.2746L39.2494 48.7254Z" fill="#EA7F4A"/>
<path d="M19.2504 28.4643C19.2306 29.4306 19.998 30.2299 20.9643 30.2496L36.711 30.571C37.6773 30.5907 38.4766 29.8234 38.4964 28.8571C38.5161 27.8908 37.7487 27.0914 36.7824 27.0717L22.7853 26.7861L23.071 12.789C23.0907 11.8227 22.3234 11.0234 21.3571 11.0036C20.3908 10.9839 19.5914 11.7513 19.5717 12.7176L19.2504 28.4643ZM44.7881 3.23757L19.7881 27.2376L22.2119 29.7624L47.2119 5.76243L44.7881 3.23757Z" fill="#EA7F4A"/>
</svg>
