<svg width="150" height="104" viewBox="0 0 150 104" fill="none" xmlns="http://www.w3.org/2000/svg">
<circle cx="66" cy="52" r="52" fill="#D9EBD1"/>
<rect y="36" width="121" height="33" fill="#D9EBD1"/>
<path d="M114 70C92 117.5 33 108.5 19 70" stroke="#166F5E" stroke-width="3"/>
<path d="M18.5 34C40.5 -13.5 99.5 -4.50001 113.5 34" stroke="#166F5E" stroke-width="3"/>
<path d="M9 52.5H21.5" stroke="#166F5E" stroke-width="3"/>
<path d="M149.061 54.0607C149.646 53.4749 149.646 52.5251 149.061 51.9393L139.515 42.3934C138.929 41.8076 137.979 41.8076 137.393 42.3934C136.808 42.9792 136.808 43.9289 137.393 44.5147L145.879 53L137.393 61.4853C136.808 62.0711 136.808 63.0208 137.393 63.6066C137.979 64.1924 138.929 64.1924 139.515 63.6066L149.061 54.0607ZM113 54.5L148 54.5L148 51.5L113 51.5L113 54.5Z" fill="#166F5E"/>
<path d="M35.692 48V35.4H38.032V48H35.692ZM36.772 42.834V40.71H43.27V42.834H36.772ZM36.772 37.56V35.4H44.044V37.56H36.772ZM46.089 48V38.514H48.267L48.303 41.538L47.997 40.854C48.129 40.374 48.357 39.942 48.681 39.558C49.005 39.174 49.377 38.874 49.797 38.658C50.229 38.43 50.679 38.316 51.147 38.316C51.351 38.316 51.543 38.334 51.723 38.37C51.915 38.406 52.071 38.448 52.191 38.496L51.597 40.926C51.465 40.854 51.303 40.794 51.111 40.746C50.919 40.698 50.727 40.674 50.535 40.674C50.235 40.674 49.947 40.734 49.671 40.854C49.407 40.962 49.173 41.118 48.969 41.322C48.765 41.526 48.603 41.766 48.483 42.042C48.375 42.306 48.321 42.606 48.321 42.942V48H46.089ZM57.7068 48.18C56.7108 48.18 55.8288 47.97 55.0608 47.55C54.3048 47.13 53.7108 46.56 53.2788 45.84C52.8588 45.108 52.6488 44.274 52.6488 43.338C52.6488 42.594 52.7688 41.916 53.0088 41.304C53.2488 40.692 53.5788 40.164 53.9988 39.72C54.4308 39.264 54.9408 38.916 55.5288 38.676C56.1288 38.424 56.7828 38.298 57.4908 38.298C58.1148 38.298 58.6968 38.418 59.2368 38.658C59.7768 38.898 60.2448 39.228 60.6408 39.648C61.0368 40.056 61.3368 40.548 61.5408 41.124C61.7568 41.688 61.8588 42.306 61.8468 42.978L61.8288 43.752H54.1428L53.7288 42.24H59.9748L59.6868 42.546V42.15C59.6508 41.778 59.5308 41.454 59.3268 41.178C59.1228 40.89 58.8588 40.668 58.5348 40.512C58.2228 40.344 57.8748 40.26 57.4908 40.26C56.9028 40.26 56.4048 40.374 55.9968 40.602C55.6008 40.83 55.3008 41.16 55.0968 41.592C54.8928 42.012 54.7908 42.54 54.7908 43.176C54.7908 43.788 54.9168 44.322 55.1688 44.778C55.4328 45.234 55.7988 45.588 56.2668 45.84C56.7468 46.08 57.3048 46.2 57.9408 46.2C58.3848 46.2 58.7928 46.128 59.1648 45.984C59.5368 45.84 59.9388 45.582 60.3708 45.21L61.4688 46.74C61.1448 47.04 60.7728 47.298 60.3528 47.514C59.9448 47.718 59.5128 47.88 59.0568 48C58.6008 48.12 58.1508 48.18 57.7068 48.18ZM68.2537 48.18C67.2577 48.18 66.3757 47.97 65.6077 47.55C64.8517 47.13 64.2577 46.56 63.8257 45.84C63.4057 45.108 63.1957 44.274 63.1957 43.338C63.1957 42.594 63.3157 41.916 63.5557 41.304C63.7957 40.692 64.1257 40.164 64.5457 39.72C64.9777 39.264 65.4877 38.916 66.0757 38.676C66.6757 38.424 67.3297 38.298 68.0377 38.298C68.6617 38.298 69.2437 38.418 69.7837 38.658C70.3237 38.898 70.7917 39.228 71.1877 39.648C71.5837 40.056 71.8837 40.548 72.0877 41.124C72.3037 41.688 72.4057 42.306 72.3937 42.978L72.3757 43.752H64.6897L64.2757 42.24H70.5217L70.2337 42.546V42.15C70.1977 41.778 70.0777 41.454 69.8737 41.178C69.6697 40.89 69.4057 40.668 69.0817 40.512C68.7697 40.344 68.4217 40.26 68.0377 40.26C67.4497 40.26 66.9517 40.374 66.5437 40.602C66.1477 40.83 65.8477 41.16 65.6437 41.592C65.4397 42.012 65.3377 42.54 65.3377 43.176C65.3377 43.788 65.4637 44.322 65.7157 44.778C65.9797 45.234 66.3457 45.588 66.8137 45.84C67.2937 46.08 67.8517 46.2 68.4877 46.2C68.9317 46.2 69.3397 46.128 69.7117 45.984C70.0837 45.84 70.4857 45.582 70.9177 45.21L72.0157 46.74C71.6917 47.04 71.3197 47.298 70.8997 47.514C70.4917 47.718 70.0597 47.88 69.6037 48C69.1477 48.12 68.6977 48.18 68.2537 48.18ZM34.288 68L39.202 55.4H41.398L46.276 68H43.846L41.146 60.836C41.086 60.692 41.002 60.464 40.894 60.152C40.798 59.84 40.69 59.504 40.57 59.144C40.45 58.772 40.342 58.43 40.246 58.118C40.15 57.794 40.078 57.56 40.03 57.416L40.48 57.398C40.408 57.638 40.324 57.908 40.228 58.208C40.132 58.508 40.03 58.82 39.922 59.144C39.814 59.468 39.706 59.78 39.598 60.08C39.502 60.38 39.412 60.65 39.328 60.89L36.628 68H34.288ZM36.52 65.12L37.33 63.086H43.072L43.936 65.12H36.52ZM51.5808 68.18C50.6928 68.18 49.8948 67.964 49.1868 67.532C48.4788 67.1 47.9208 66.512 47.5128 65.768C47.1048 65.024 46.9008 64.184 46.9008 63.248C46.9008 62.312 47.1048 61.472 47.5128 60.728C47.9208 59.984 48.4788 59.396 49.1868 58.964C49.8948 58.532 50.6928 58.316 51.5808 58.316C52.4328 58.316 53.2068 58.478 53.9028 58.802C54.5988 59.126 55.1388 59.576 55.5228 60.152L54.2988 61.628C54.1188 61.376 53.8908 61.148 53.6148 60.944C53.3388 60.74 53.0448 60.578 52.7328 60.458C52.4208 60.338 52.1088 60.278 51.7968 60.278C51.2688 60.278 50.7948 60.41 50.3748 60.674C49.9668 60.926 49.6428 61.28 49.4028 61.736C49.1628 62.18 49.0428 62.684 49.0428 63.248C49.0428 63.812 49.1628 64.316 49.4028 64.76C49.6548 65.204 49.9908 65.558 50.4108 65.822C50.8308 66.086 51.2988 66.218 51.8148 66.218C52.1268 66.218 52.4268 66.17 52.7148 66.074C53.0148 65.966 53.2968 65.816 53.5608 65.624C53.8248 65.432 54.0708 65.192 54.2988 64.904L55.5228 66.398C55.1148 66.926 54.5508 67.358 53.8308 67.694C53.1228 68.018 52.3728 68.18 51.5808 68.18ZM61.2839 68.18C60.3959 68.18 59.5979 67.964 58.8899 67.532C58.1819 67.1 57.6239 66.512 57.2159 65.768C56.8079 65.024 56.6039 64.184 56.6039 63.248C56.6039 62.312 56.8079 61.472 57.2159 60.728C57.6239 59.984 58.1819 59.396 58.8899 58.964C59.5979 58.532 60.3959 58.316 61.2839 58.316C62.1359 58.316 62.9099 58.478 63.6059 58.802C64.3019 59.126 64.8419 59.576 65.2259 60.152L64.0019 61.628C63.8219 61.376 63.5939 61.148 63.3179 60.944C63.0419 60.74 62.7479 60.578 62.4359 60.458C62.1239 60.338 61.8119 60.278 61.4999 60.278C60.9719 60.278 60.4979 60.41 60.0779 60.674C59.6699 60.926 59.3459 61.28 59.1059 61.736C58.8659 62.18 58.7459 62.684 58.7459 63.248C58.7459 63.812 58.8659 64.316 59.1059 64.76C59.3579 65.204 59.6939 65.558 60.1139 65.822C60.5339 66.086 61.0019 66.218 61.5179 66.218C61.8299 66.218 62.1299 66.17 62.4179 66.074C62.7179 65.966 62.9999 65.816 63.2639 65.624C63.5279 65.432 63.7739 65.192 64.0019 64.904L65.2259 66.398C64.8179 66.926 64.2539 67.358 63.5339 67.694C62.8259 68.018 62.0759 68.18 61.2839 68.18ZM71.257 68.18C70.309 68.18 69.463 67.97 68.719 67.55C67.975 67.118 67.387 66.53 66.955 65.786C66.523 65.042 66.307 64.196 66.307 63.248C66.307 62.3 66.523 61.454 66.955 60.71C67.387 59.966 67.975 59.384 68.719 58.964C69.463 58.532 70.309 58.316 71.257 58.316C72.193 58.316 73.033 58.532 73.777 58.964C74.521 59.384 75.103 59.966 75.523 60.71C75.955 61.454 76.171 62.3 76.171 63.248C76.171 64.196 75.955 65.042 75.523 65.786C75.103 66.53 74.521 67.118 73.777 67.55C73.033 67.97 72.193 68.18 71.257 68.18ZM71.257 66.218C71.773 66.218 72.229 66.086 72.625 65.822C73.033 65.558 73.351 65.204 73.579 64.76C73.819 64.316 73.933 63.812 73.921 63.248C73.933 62.672 73.819 62.162 73.579 61.718C73.351 61.274 73.033 60.926 72.625 60.674C72.229 60.41 71.773 60.278 71.257 60.278C70.741 60.278 70.273 60.41 69.853 60.674C69.445 60.926 69.127 61.28 68.899 61.736C68.671 62.18 68.557 62.684 68.557 63.248C68.557 63.812 68.671 64.316 68.899 64.76C69.127 65.204 69.445 65.558 69.853 65.822C70.273 66.086 70.741 66.218 71.257 66.218ZM81.4455 68.18C80.7615 68.18 80.1675 68.03 79.6635 67.73C79.1595 67.418 78.7755 66.98 78.5115 66.416C78.2475 65.84 78.1155 65.156 78.1155 64.364V58.514H80.3295V63.896C80.3295 64.4 80.4075 64.832 80.5635 65.192C80.7195 65.54 80.9475 65.81 81.2475 66.002C81.5475 66.194 81.9075 66.29 82.3275 66.29C82.6395 66.29 82.9215 66.242 83.1735 66.146C83.4375 66.038 83.6655 65.894 83.8575 65.714C84.0495 65.522 84.1995 65.3 84.3075 65.048C84.4155 64.784 84.4695 64.502 84.4695 64.202V58.514H86.6835V68H84.5235L84.4875 66.02L84.8835 65.804C84.7395 66.26 84.4935 66.668 84.1455 67.028C83.8095 67.376 83.4075 67.658 82.9395 67.874C82.4715 68.078 81.9735 68.18 81.4455 68.18ZM89.2784 68V58.514H91.4384L91.4744 60.458L91.0604 60.674C91.1804 60.242 91.4144 59.852 91.7624 59.504C92.1104 59.144 92.5244 58.856 93.0044 58.64C93.4844 58.424 93.9764 58.316 94.4804 58.316C95.2004 58.316 95.8004 58.46 96.2804 58.748C96.7724 59.036 97.1384 59.468 97.3784 60.044C97.6304 60.62 97.7564 61.34 97.7564 62.204V68H95.5424V62.366C95.5424 61.886 95.4764 61.49 95.3444 61.178C95.2124 60.854 95.0084 60.62 94.7324 60.476C94.4564 60.32 94.1204 60.248 93.7244 60.26C93.4004 60.26 93.1004 60.314 92.8244 60.422C92.5604 60.518 92.3264 60.662 92.1224 60.854C91.9304 61.034 91.7744 61.244 91.6544 61.484C91.5464 61.724 91.4924 61.988 91.4924 62.276V68H90.3944C90.1784 68 89.9744 68 89.7824 68C89.6024 68 89.4344 68 89.2784 68ZM101.273 68V56.102H103.487V68H101.273ZM99.4012 60.566V58.514H105.557V60.566H99.4012Z" fill="#166F5E"/>
</svg>
