<svg width="62" height="48" viewBox="0 0 62 48" fill="none" xmlns="http://www.w3.org/2000/svg">
<path d="M0 25.5V0H48.5V48H22.5C12.9 48 0 34 0 25.5Z" fill="#F8ECD1"/>
<path d="M54.7711 9.70705C53.4589 9.34769 51.8771 8.92735 49.9919 8.42504C44.5398 6.98041 41.099 6.16596 39.4968 5.80005V42.3276C42.134 42.3276 44.6851 41.5545 46.8672 40.0889C52.9191 36.0527 54.6927 33.0618 54.1714 27.7705C53.3601 19.5362 53.9139 13.6757 54.7711 9.70705Z" fill="#FFC85B"/>
<path d="M39.4962 48C43.1976 48 46.785 46.9095 49.8708 44.8471C56.3586 40.5211 60.5055 35.8646 59.656 27.2034C58.1558 11.9879 61.782 6.19689 61.819 6.13984L62 5.86181L61.6877 5.76737C61.661 5.7595 58.9199 4.93587 51.3634 2.92992C43.3672 0.809204 39.5816 0.017705 39.544 0.00983593L39.4968 0L39.4496 0.00983593C39.412 0.017705 35.6328 0.809204 27.6302 2.92992C20.0801 4.93587 17.339 5.7595 17.3123 5.76737L17 5.86181L17.181 6.14049C17.218 6.19754 20.8442 11.9885 19.344 27.2034C18.4945 35.8646 22.6414 40.5211 29.1292 44.8471C32.2144 46.9101 35.7992 48 39.4962 48ZM61.2556 6.15165C60.5323 7.48742 57.8282 13.5348 59.1806 27.2532C60.0059 35.6666 55.9513 40.2063 49.6108 44.4347C46.6027 46.4452 43.1052 47.5082 39.4962 47.5082C35.8916 47.5082 32.3966 46.4452 29.3885 44.4347C23.048 40.2063 18.9935 35.6659 19.8188 27.2525C21.1712 13.5348 18.4671 7.48742 17.7437 6.15165C18.6302 5.89197 21.5835 5.04407 27.7494 3.40599C35.2587 1.41578 39.038 0.59936 39.4968 0.501653C39.9557 0.598704 43.7419 1.41578 51.2442 3.40599C57.4146 5.04473 60.3691 5.89263 61.2556 6.15165ZM39.4962 45.0832C42.6496 45.0832 45.7035 44.1547 48.3286 42.3979C54.2542 38.445 57.5459 34.7393 56.8347 27.4945C55.8647 17.6582 56.9245 11.4659 57.985 8.00285L58.0602 7.75759L57.8193 7.69071C56.1973 7.24283 53.8629 6.60543 50.6585 5.75098C43.7317 3.91945 40.1864 3.13321 39.5465 2.99419L39.4968 2.98304L39.4477 2.99419C38.8136 3.13189 35.2989 3.91093 28.3427 5.75033C25.1307 6.60543 22.8033 7.24283 21.1807 7.69071L20.9398 7.75759L21.015 8.00285C22.0755 11.4659 23.1366 17.6588 22.1654 27.4939C21.4535 34.7387 24.7452 38.4443 30.6714 42.3972C33.2952 44.1553 36.3466 45.0832 39.4962 45.0832ZM57.4554 8.10121C56.407 11.6515 55.4033 17.8523 56.3592 27.545C57.0462 34.54 53.8393 38.1368 48.0685 41.9861C45.5212 43.691 42.5571 44.592 39.4968 44.592C36.4403 44.592 33.4788 43.691 30.9321 41.9861C25.1607 38.1368 21.9538 34.54 22.6408 27.545C23.5974 17.8536 22.593 11.6521 21.5446 8.10187C23.1525 7.65858 25.4073 7.04216 28.4619 6.22903C35.2454 4.43488 38.7473 3.6519 39.4968 3.48796C40.2527 3.65256 43.7833 4.44275 50.5387 6.22903C53.5863 7.04151 55.8468 7.65792 57.4554 8.10121Z" fill="#FFC85B"/>
</svg>
