<?xml version="1.0" encoding="utf-8"?>
<!-- Generator: Adobe Illustrator 27.5.0, SVG Export Plug-In . SVG Version: 6.00 Build 0)  -->
<svg version="1.1" xmlns="http://www.w3.org/2000/svg" xmlns:xlink="http://www.w3.org/1999/xlink"
	x="0px" y="0px"
	viewBox="0 0 500 500" style="enable-background:new 0 0 500 500;" xml:space="preserve">
<g id="BACKGROUND">
	<rect x="0.177" y="-0.285" style="fill-rule:evenodd;clip-rule:evenodd;fill:#0000;" width="499.823" height="500.161"/>
</g>
<g id="OBJECTS">
	<g id="_x31_">
		<g>
			<g>
				<g>
					<path style="fill-rule:evenodd;clip-rule:evenodd;fill:#969696;" d="M300.33,178.874c0,4.644,0,9.22,0,13.913
						c-0.668,0-1.322,0-2.213,0c0-4.065,0-8.105,0-12.216c-26.348,0-52.459,0-78.779,0c0,4.993,0,9.936,0,15.063
						c-0.908-0.185-1.561-0.317-2.274-0.461c0-5.448,0-10.826,0-16.298C244.776,178.874,272.435,178.874,300.33,178.874z"/>
				</g>
				<g>
					<g>
						<path style="fill-rule:evenodd;clip-rule:evenodd;fill:#969696;" d="M217.064,284.346c0-4.645,0-9.222,0-13.914
							c0.667,0,1.322,0,2.212,0c0,4.065,0,8.105,0,12.216c26.347,0,52.458,0.001,78.78,0.001c0-4.992,0-9.938,0-15.063
							c0.906,0.185,1.561,0.316,2.273,0.461c0,5.448,0,10.826,0,16.299C272.619,284.346,244.959,284.346,217.064,284.346z"/>
					</g>
				</g>
			</g>
			<polygon style="fill-rule:evenodd;clip-rule:evenodd;fill:none;" points="315.236,266.098 197.848,266.098 197.848,199.071 
				314.972,198.53 			"/>
			<text transform="matrix(1 0 0 1 215.206 213.5034)"><tspan x="0" y="0" style="font-family:'Quicksand-Bold'; font-size:21.3902px;">ONLINE</tspan><tspan x="-8.891" y="25.668" style="font-family:'Quicksand-Bold'; font-size:21.3902px;">PAYMENT </tspan><tspan x="-12.027" y="51.336" style="font-family:'Quicksand-Bold'; font-size:21.3902px;">CONCEPT</tspan></text>
		</g>
	</g>
	<g id="_x32_">
		<g>
			<path style="fill-rule:evenodd;clip-rule:evenodd;" d="M44.218,78.172c-1.174,0-2.245,0.012-3.314-0.002
				c-4.2-0.055-8.408,0.027-12.598-0.215c-6.129-0.354-6.048-1.354-6.135-6.19c-0.089-4.899-0.021-9.802,0.008-14.702
				c0.004-0.694,0.11-1.4,0.27-2.076c0.614-2.588,1.758-3.503,4.444-3.471c5.522,0.066,11.043,0.176,16.564,0.267
				c0.385,0.006,0.77,0,1.376,0c0.057-0.728,0.147-1.393,0.157-2.06c0.04-2.955,0.001-5.914,0.101-8.867
				c0.079-2.319,0.307-2.532,2.605-2.585c14.463-0.333,28.926-0.66,43.391-0.948c12.367-0.248,24.734-0.482,37.103-0.642
				c5.133-0.065,10.269,0.075,15.404,0.138c0.768,0.009,1.533,0.103,2.246,0.153c1.116,3.753,0.25,62.353-1,68.528
				c-14.08,0.402-28.198,0.806-42.454,1.213c0,4.458,0,8.853,0,13.358c3.121,0.322,6.149,0.519,9.135,0.982
				c2.057,0.318,4.132,0.815,6.063,1.575c2.703,1.065,3.712,2.844,3.937,6.145c-0.674,0.043-1.349,0.123-2.023,0.124
				c-16.028,0.019-32.056,0.029-48.083,0.039c-0.467,0-0.938,0.018-1.399-0.035c-0.882-0.101-1.184-0.626-0.983-1.474
				c0.558-2.35,1.859-4.054,4.155-4.97c3.004-1.198,6.17-1.543,9.344-1.856c1.775-0.176,3.556-0.308,5.392-0.464
				c0-4.503,0-8.888,0-13.474c-1.044-0.046-1.873-0.111-2.701-0.114c-12.059-0.039-24.119-0.063-36.179-0.106
				c-4.498-0.016-4.483-0.037-4.506-4.568c-0.037-7.234-0.092-14.468-0.152-21.703C44.378,79.567,44.285,78.962,44.218,78.172z
				 M46.163,104.574c5.343,0.96,91.67,0.386,97.936-0.646c-0.413-21.971,1.34-43.967,0.767-66.226
				c-16.6,0.324-32.923,0.786-49.248,0.922c-16.374,0.139-32.74,0.334-49.33,0.991C46.53,61.424,45.368,82.926,46.163,104.574z
				 M44.75,63.254c-2.686-0.551-19.365-0.446-21.141,0.116c0,2.986-0.063,6.01,0.016,9.03c0.089,3.438,0.465,3.773,3.914,4.11
				c0.155,0.014,0.31,0.025,0.466,0.028c4.978,0.081,9.955,0.166,14.934,0.229c0.43,0.006,0.864-0.136,1.378-0.224
				C44.466,72.001,44.608,67.605,44.75,63.254z M70.413,127.41c16.678,0,33.159,0,49.765,0c-0.574-2.212-2.036-3.371-3.883-3.849
				c-2.618-0.675-5.291-1.251-7.976-1.531c-8.671-0.906-17.366-0.911-26.039-0.008c-2.685,0.279-5.365,0.829-7.979,1.513
				C72.479,124.009,70.912,125.066,70.413,127.41z M100.532,119.988c0-4.568,0-8.931,0-13.301c-3.8,0-7.41,0-11.169,0
				c-0.161,4.522-0.039,8.888,0.303,13.301C93.383,119.988,96.859,119.988,100.532,119.988z M44.611,61.685c0-1.642,0-3.058,0-4.469
				c-7.087,0-13.963,0-20.836,0c0,1.585,0,3.005,0,4.469C30.792,61.685,37.613,61.685,44.611,61.685z M23.913,55.821
				c7.031,0,13.892,0,20.833,0c0-0.978,0-1.778,0-2.572c-0.381-0.096-0.602-0.198-0.821-0.2c-5.823-0.038-11.644-0.092-17.464-0.078
				C24.718,52.976,24.37,53.433,23.913,55.821z"/>
			<path style="fill-rule:evenodd;clip-rule:evenodd;fill:#4E616F;" d="M46.163,104.574c-0.795-21.648,0.367-43.149,0.125-64.958
				c16.589-0.657,32.956-0.853,49.33-0.991c16.325-0.137,32.648-0.598,49.248-0.922c0.574,22.259-1.18,44.255-0.767,66.226
				C137.833,104.96,51.506,105.533,46.163,104.574z M140.357,42.507c-1.153-0.06-2.379-0.191-3.605-0.179
				c-22.938,0.235-45.876,0.467-68.814,0.749c-4.974,0.061-9.946,0.298-14.918,0.48c-1.781,0.064-2.013,0.273-2.207,2.002
				c-0.112,1.001-0.105,2.018-0.118,3.027c-0.072,6.143-0.148,12.285-0.198,18.428C50.412,77.51,50.318,88.005,50.29,98.5
				c-0.006,2.231,0.349,2.493,2.64,2.533c3.577,0.065,7.154,0.064,10.731,0.11c24.81,0.322,49.613,0.079,74.41-0.741
				c0.452-0.016,0.901-0.076,1.313-0.111C140.359,96.639,141.238,46.143,140.357,42.507z"/>
			<path style="fill-rule:evenodd;clip-rule:evenodd;fill:#75CCE1;" d="M44.75,63.254c-0.142,4.352-0.284,8.747-0.432,13.289
				c-0.514,0.088-0.947,0.23-1.378,0.224c-4.979-0.063-9.957-0.148-14.934-0.229c-0.156-0.003-0.312-0.014-0.466-0.028
				c-3.449-0.337-3.825-0.672-3.914-4.11c-0.079-3.02-0.016-6.044-0.016-9.03C25.384,62.808,42.064,62.703,44.75,63.254z"/>
			<path style="fill-rule:evenodd;clip-rule:evenodd;fill:#4E616F;" d="M70.413,127.41c0.499-2.344,2.066-3.4,3.887-3.875
				c2.614-0.684,5.294-1.233,7.979-1.513c8.673-0.903,17.368-0.899,26.039,0.008c2.685,0.28,5.358,0.856,7.976,1.531
				c1.848,0.478,3.31,1.637,3.883,3.849C103.572,127.41,87.091,127.41,70.413,127.41z"/>
			<path style="fill-rule:evenodd;clip-rule:evenodd;fill:#4E616F;" d="M100.532,119.988c-3.673,0-7.149,0-10.866,0
				c-0.342-4.413-0.464-8.779-0.303-13.301c3.759,0,7.369,0,11.169,0C100.532,111.058,100.532,115.42,100.532,119.988z"/>
			<path style="fill-rule:evenodd;clip-rule:evenodd;fill:#4E616F;" d="M44.611,61.685c-6.998,0-13.819,0-20.836,0
				c0-1.463,0-2.883,0-4.469c6.873,0,13.749,0,20.836,0C44.611,58.626,44.611,60.043,44.611,61.685z"/>
			<path style="fill-rule:evenodd;clip-rule:evenodd;fill:#75CCE1;" d="M23.913,55.821c0.457-2.388,0.805-2.845,2.548-2.85
				c5.82-0.014,11.642,0.04,17.464,0.078c0.219,0.002,0.439,0.104,0.821,0.2c0,0.793,0,1.594,0,2.572
				C37.805,55.821,30.944,55.821,23.913,55.821z"/>
			<path style="fill-rule:evenodd;clip-rule:evenodd;" d="M140.357,42.507c0.881,3.635,0.002,54.131-0.973,57.784
				c-0.412,0.035-0.861,0.096-1.313,0.111c-24.797,0.82-49.601,1.063-74.41,0.741c-3.577-0.046-7.154-0.046-10.731-0.11
				c-2.291-0.041-2.646-0.302-2.64-2.533c0.028-10.495,0.122-20.99,0.207-31.484c0.049-6.143,0.125-12.285,0.198-18.428
				c0.012-1.01,0.005-2.026,0.118-3.027c0.194-1.729,0.425-1.938,2.207-2.002c4.972-0.182,9.944-0.419,14.918-0.48
				c22.938-0.282,45.877-0.515,68.814-0.749C137.977,42.316,139.204,42.447,140.357,42.507z M51.761,99.717
				c0.982,0.058,1.667,0.129,2.354,0.135c27.61,0.21,55.22,0.272,82.821-0.637c0.583-0.019,1.164-0.155,1.791-0.242
				c0.268-18.368,0.534-36.554,0.792-54.741c0.003-0.29-0.101-0.582-0.15-0.843c-5.66-0.527-84.146,0.905-87.484,1.637
				C52.051,63.132,51.074,81.291,51.761,99.717z"/>
			<path style="fill-rule:evenodd;clip-rule:evenodd;fill:#84B091;" d="M51.761,99.717c-0.688-18.426,0.29-36.584,0.124-54.691
				c3.338-0.731,81.824-2.164,87.484-1.637c0.048,0.261,0.153,0.553,0.15,0.843c-0.258,18.187-0.523,36.373-0.792,54.741
				c-0.627,0.087-1.208,0.223-1.791,0.242c-27.601,0.91-55.211,0.847-82.821,0.637C53.429,99.846,52.744,99.774,51.761,99.717z"/>
		</g>
		<g>
			<polygon style="fill-rule:evenodd;clip-rule:evenodd;fill:none;" points="127,91.991 62.291,91.991 62.291,56.252 127,55.698 			
				"/>
			<text transform="matrix(1 0 0 1 69.6021 64.7985)"><tspan x="0" y="0" style="fill:#FFFFFF; font-family:'Quicksand-Bold'; font-size:13px;">ONLINE</tspan><tspan x="-5.434" y="15.6" style="fill:#FFFFFF; font-family:'Quicksand-Bold'; font-size:13px;">PAYMENT</tspan></text>
		</g>
	</g>
	<g id="_x33_">
		<g>
			<path style="fill-rule:evenodd;clip-rule:evenodd;" d="M251.34,86.462c-0.664,0.252-1.093,0.397-1.508,0.575
				c-12.004,5.154-24.006,10.31-36.008,15.468c-1.997,0.857-3.977,1.768-5.999,2.565c-1.775,0.699-3.621,0.793-5.503,0.368
				c-2.436-0.548-4.227-1.839-5.255-4.167c-5.755-13.015-11.532-26.02-17.287-39.034c-1.634-3.696-0.43-7.717,3.135-10.236
				c1.197-0.845,2.536-1.522,3.876-2.128c9.778-4.411,19.557-8.82,29.369-13.154c6.899-3.047,13.859-5.956,20.776-8.963
				c3.78-1.643,7.515-3.386,11.293-5.03c2.722-1.186,5.464-2.225,8.562-1.507c2.701,0.626,4.589,2.061,5.694,4.648
				c3.695,8.652,7.447,17.281,11.186,25.917c0.398,0.919,0.845,1.818,1.305,2.803c0.854,0.046,1.623,0.104,2.393,0.128
				c16.719,0.512,33.438,1.022,50.158,1.527c1.711,0.051,3.427,0.003,5.132,0.111c2.034,0.129,3.989,0.567,5.741,1.726
				c2.604,1.723,3.956,4.017,3.841,7.228c-0.475,13.296-0.884,26.594-1.315,39.892c-0.019,0.544-0.019,1.089-0.025,1.634
				c-0.065,4.792-2.762,7.897-7.583,8.39c-2.699,0.275-5.44,0.308-8.155,0.22c-19.908-0.636-39.814-1.333-59.72-2.004
				c-2.099-0.07-4.206-0.009-6.297-0.177c-2.915-0.234-5.404-1.418-7.16-3.849c-0.939-1.3-1.322-2.762-1.249-4.395
				c0.237-5.363,0.411-10.729,0.6-16.095C251.363,88.169,251.34,87.415,251.34,86.462z M296.987,56.401
				c-11.051-0.22-21.859-0.446-32.667-0.641c-1.474-0.027-2.965-0.006-4.423,0.181c-3.889,0.497-6.303,3.022-6.701,6.906
				c-0.088,0.848-0.06,1.709-0.076,2.564c-0.113,6.065-0.186,12.131-0.346,18.195c-0.186,6.996-0.402,13.992-0.696,20.985
				c-0.119,2.84,1.115,4.82,3.526,6.041c1.222,0.617,2.613,0.99,3.971,1.222c1.523,0.26,3.096,0.281,4.649,0.33
				c20.285,0.631,40.571,1.265,60.858,1.845c2.714,0.078,5.456,0.035,8.15-0.263c4.024-0.445,6.238-3.005,6.367-7
				c0.422-13.057,0.829-26.115,1.234-39.173c0.031-1.009,0.049-2.023-0.01-3.031c-0.13-2.16-1.147-3.81-2.928-5.049
				c-1.871-1.303-3.995-1.705-6.186-1.792C320.057,57.256,308.4,56.831,296.987,56.401z M264.529,34.042
				c-26.822,11.889-53.36,23.65-79.988,35.453c3.457,7.753,6.802,15.256,10.231,22.951c19.088-8.473,38.019-16.875,57.149-25.367
				c0-1.703-0.028-3.331,0.008-4.956c0.051-2.331,1.084-4.185,2.92-5.582c1.641-1.249,3.464-2.107,5.573-2.099
				c3.419,0.013,6.838,0.08,10.257,0.121c0.81,0.009,1.618,0.001,2.768,0.001C270.397,47.548,267.528,40.946,264.529,34.042z
				 M184.021,68.483c26.795-11.891,53.324-23.664,80.033-35.517c-0.83-1.992-1.547-3.775-2.317-5.535
				c-0.31-0.708-0.701-1.386-1.118-2.038c-0.974-1.522-2.386-2.366-4.154-2.737c-2.67-0.559-5.09,0.246-7.45,1.285
				c-20.476,9.009-40.944,18.033-61.403,27.078c-1.272,0.563-2.514,1.248-3.657,2.038c-3.061,2.115-4.172,5.232-2.951,8.546
				C181.831,63.852,182.922,66.004,184.021,68.483z M251.566,85.024c0-5.391,0-10.791,0-16.5
				c-18.885,8.366-37.583,16.648-56.413,24.989c1.175,2.689,2.196,5.117,3.294,7.509c0.772,1.684,2.218,2.677,3.982,2.893
				c1.511,0.185,3.107,0.137,4.603-0.147c1.428-0.271,2.798-0.92,4.151-1.503c12.63-5.441,25.249-10.907,37.876-16.354
				C249.76,85.608,250.501,85.397,251.566,85.024z"/>
			<path style="fill-rule:evenodd;clip-rule:evenodd;fill:#F0F0F0;" d="M296.987,56.401c11.413,0.429,23.069,0.855,34.725,1.318
				c2.19,0.087,4.315,0.489,6.186,1.792c1.78,1.239,2.798,2.889,2.928,5.049c0.059,1.007,0.041,2.022,0.01,3.031
				c-0.405,13.058-0.813,26.116-1.234,39.173c-0.129,3.996-2.343,6.555-6.367,7c-2.694,0.298-5.436,0.341-8.15,0.263
				c-20.287-0.58-40.573-1.214-60.858-1.845c-1.554-0.048-3.126-0.069-4.649-0.33c-1.357-0.232-2.749-0.604-3.971-1.222
				c-2.411-1.221-3.645-3.201-3.526-6.041c0.294-6.993,0.511-13.989,0.696-20.985c0.159-6.064,0.232-12.129,0.346-18.195
				c0.017-0.855-0.012-1.716,0.076-2.564c0.398-3.884,2.813-6.409,6.701-6.906c1.458-0.187,2.949-0.208,4.423-0.181
				C275.128,55.955,285.936,56.181,296.987,56.401z M296.74,71.05c-2.574-1.17-4.761-2.383-7.089-3.181
				c-8.852-3.035-20.908,1.752-22.777,12.542c-0.973,5.611-0.285,10.892,3.535,15.374c5.066,5.945,14.395,7.714,21.81,4.196
				c1.521-0.722,2.957-1.627,4.396-2.427c9.739,7.065,20.222,4.4,25.605-1.379c5.55-5.958,5.807-16.62,0.669-22.836
				C316.689,65.836,306.651,65.014,296.74,71.05z"/>
			<path style="fill-rule:evenodd;clip-rule:evenodd;fill:#F0F0F0;" d="M264.529,34.042c2.999,6.904,5.868,13.506,8.918,20.522
				c-1.149,0-1.958,0.008-2.768-0.001c-3.419-0.041-6.838-0.108-10.257-0.121c-2.109-0.008-3.933,0.85-5.573,2.099
				c-1.836,1.397-2.869,3.251-2.92,5.582c-0.036,1.625-0.008,3.253-0.008,4.956c-19.13,8.492-38.061,16.895-57.149,25.367
				c-3.429-7.695-6.774-15.198-10.231-22.951C211.169,57.692,237.707,45.931,264.529,34.042z"/>
			<path style="fill-rule:evenodd;clip-rule:evenodd;fill:#0061B2;" d="M184.021,68.483c-1.099-2.479-2.19-4.631-3.018-6.879
				c-1.221-3.313-0.109-6.431,2.951-8.546c1.143-0.791,2.385-1.476,3.657-2.038c20.458-9.045,40.927-18.069,61.403-27.078
				c2.36-1.039,4.78-1.845,7.45-1.285c1.768,0.371,3.181,1.215,4.154,2.737c0.417,0.652,0.809,1.33,1.118,2.038
				c0.771,1.76,1.487,3.542,2.317,5.535C237.345,44.819,210.816,56.592,184.021,68.483z"/>
			<path style="fill-rule:evenodd;clip-rule:evenodd;fill:#F7B425;" d="M251.566,85.024c-1.065,0.373-1.806,0.584-2.507,0.886
				c-12.626,5.448-25.246,10.913-37.876,16.354c-1.353,0.583-2.724,1.232-4.151,1.503c-1.496,0.284-3.091,0.333-4.603,0.147
				c-1.764-0.217-3.21-1.209-3.982-2.893c-1.097-2.392-2.119-4.819-3.294-7.509c18.829-8.341,37.528-16.624,56.413-24.989
				C251.566,74.233,251.566,79.634,251.566,85.024z"/>
			<path style="fill-rule:evenodd;clip-rule:evenodd;" d="M296.74,71.05c9.911-6.036,19.949-5.213,26.149,2.288
				c5.138,6.217,4.881,16.878-0.669,22.836c-5.384,5.78-15.866,8.444-25.605,1.379c-1.439,0.8-2.875,1.706-4.396,2.427
				c-7.415,3.518-16.743,1.749-21.81-4.196c-3.82-4.482-4.508-9.762-3.535-15.374c1.869-10.79,13.926-15.578,22.777-12.542
				C291.979,68.666,294.166,69.88,296.74,71.05z M300.001,80.084c-0.585-7.237-9.021-12.46-16.453-11.931
				c-9.581,0.682-16.171,6.367-15.965,16.679c0.212,10.608,7.797,15.407,16.142,15.798c7.615,0.356,15.596-5.039,15.893-11.035
				c-3.801,0-7.591,0.017-11.38-0.007c-2.098-0.014-4.194-0.105-6.292-0.144c-1.239-0.023-1.855-0.618-1.852-1.869
				c0.005-1.63-0.061-3.263-0.005-4.89c0.075-2.145,0.272-2.365,2.475-2.435c3.339-0.107,6.68-0.13,10.021-0.163
				C295.05,80.064,297.518,80.084,300.001,80.084z M297.661,96.709c8.499,7.015,19.648,3.636,24.186-1.745
				c5.387-6.389,4.644-17.548-1.68-22.806c-6.627-5.51-16.922-5.336-22.336-0.02c1.377,2.673,2.709,5.258,4.184,8.118
				c2.898,0,6.004,0.006,9.109-0.004c1.172-0.004,2.015,0.428,2.05,1.698c0.054,1.94,0.051,3.882-0.001,5.821
				c-0.03,1.113-0.699,1.655-1.822,1.674c-1.398,0.023-2.795,0.106-4.193,0.123c-1.928,0.022-3.857,0.006-5.457,0.006
				C300.265,92.107,299.015,94.317,297.661,96.709z M312.291,81.042c-10.514-0.423-20.819-0.425-31.308,0.001
				c-0.318,2.631-0.398,5.034,0.068,7.641c10.497,0.381,20.796,0.451,31.239-0.041C312.291,86.062,312.291,83.763,312.291,81.042z"
				/>
			<path style="fill-rule:evenodd;clip-rule:evenodd;fill:#E7031A;" d="M300.001,80.084c-2.483,0-4.951-0.019-7.417,0.004
				c-3.341,0.033-6.682,0.056-10.021,0.163c-2.202,0.07-2.399,0.29-2.475,2.435c-0.056,1.627,0.01,3.26,0.005,4.89
				c-0.004,1.251,0.612,1.846,1.852,1.869c2.098,0.038,4.194,0.129,6.292,0.144c3.789,0.024,7.579,0.007,11.38,0.007
				c-0.297,5.996-8.277,11.391-15.893,11.035c-8.345-0.391-15.93-5.189-16.142-15.798c-0.206-10.312,6.384-15.997,15.965-16.679
				C290.98,67.623,299.416,72.847,300.001,80.084z"/>
			<path style="fill-rule:evenodd;clip-rule:evenodd;fill:#F69418;" d="M297.661,96.709c1.353-2.392,2.603-4.602,4.039-7.136
				c1.6,0,3.529,0.016,5.457-0.006c1.398-0.016,2.795-0.1,4.193-0.123c1.123-0.019,1.792-0.561,1.822-1.674
				c0.052-1.939,0.055-3.881,0.001-5.821c-0.035-1.27-0.878-1.702-2.05-1.698c-3.105,0.01-6.211,0.004-9.109,0.004
				c-1.475-2.859-2.807-5.444-4.184-8.118c5.414-5.316,15.709-5.49,22.336,0.02c6.323,5.258,7.066,16.418,1.68,22.806
				C317.31,100.345,306.16,103.724,297.661,96.709z"/>
			<path style="fill-rule:evenodd;clip-rule:evenodd;fill:#FFFFFF;" d="M312.291,81.042c0,2.721,0,5.02,0,7.601
				c-10.443,0.492-20.742,0.422-31.239,0.041c-0.467-2.607-0.387-5.009-0.068-7.641C291.472,80.617,301.777,80.619,312.291,81.042z"
				/>
		</g>
	</g>
	<g id="_x34_">
		<g>
			<g>
				<path style="fill-rule:evenodd;clip-rule:evenodd;" d="M420.781,206.62c0.009-5.545,0.261-10.931,2.132-16.467
					c3.432,2.745,7.157,3.009,11.034,2.837c3.986-0.178,7.448-1.447,10.203-4.467c6.814,5.655,13.984,5.927,21.622,1.991
					c1.166,2.085,1.323,4.432,1.629,6.697c1.653,12.29-1.371,23.586-7.399,34.234c-0.558,0.983-1.164,2.108-1.206,3.19
					c-0.407,10.489-0.716,20.982-1.008,31.476c-0.048,1.705,0.182,3.416,0.186,5.125c0.005,2.51-0.647,3.223-3.144,3.303
					c-2.408,0.076-4.822-0.016-7.233-0.002c-9.878,0.059-19.757,0.228-29.635,0.158c-7.853-0.055-15.701-0.428-23.554-0.605
					c-10.025-0.23-20.054-0.412-30.082-0.607c-0.776-0.014-1.557,0.055-2.333,0.022c-1.96-0.084-2.417-0.545-2.428-2.576
					c-0.025-4.9-0.143-9.807,0.012-14.702c0.351-11.115,0.889-22.225,1.251-33.339c0.12-3.727,0.017-7.466-0.125-11.194
					c-0.154-4.109,0.407-4.86,4.52-4.833c7.155,0.047,14.311,0.303,21.466,0.279c11.042-0.036,22.085-0.235,33.127-0.369
					C420.04,206.768,420.263,206.702,420.781,206.62z M360.786,272.185c1.359,0,2.508-0.017,3.655,0.002
					c9.87,0.17,19.742,0.301,29.611,0.541c5.903,0.141,11.801,0.629,17.703,0.652c10.652,0.045,21.305-0.188,31.957-0.213
					c3.651-0.008,7.302,0.293,10.954,0.387c1.777,0.047,2.056-0.234,2.059-1.996c0.001-1.941-0.215-3.887-0.168-5.826
					c0.229-9.245,0.516-18.49,0.769-27.736c0.016-0.56-0.092-1.122-0.187-2.186c-3.906,4.966-7.662,9.366-12.763,12.653
					c-1.728-1.344-3.401-2.48-4.888-3.827c-5.301-4.802-9.598-10.425-12.711-16.841c-1.207-2.484-2.364-4.196-5.428-3.569
					c-0.728,0.149-1.54-0.163-2.313-0.171c-8.164-0.094-16.329-0.234-24.494-0.234c-10.108,0.002-20.217,0.124-30.325,0.203
					c-0.674,0.006-1.348,0.091-2.195,0.151C361.583,240.212,360.555,256.087,360.786,272.185z M420.646,207.957
					c-3.776,0-7.573-0.096-11.363,0.017c-14.921,0.445-29.84,0.74-44.76-0.024c-2.384-0.122-2.631,0.135-2.59,2.648
					c0.058,3.651,0.141,7.303,0.228,10.956c0.009,0.453,0.104,0.904,0.159,1.354c19.969,0.166,39.842,0.333,59.716,0.492
					c0.694,0.006,1.389-0.074,2.082-0.123c0.066-0.005,0.139-0.062,0.188-0.113c0.052-0.055,0.079-0.133,0.036-0.057
					C423.122,218.105,421.931,213.218,420.646,207.957z M423.751,192.243c-5.672,20.538,6.419,45.319,20.796,54.55
					c17.211-12.747,25.482-37.345,20.357-54.453c-7.352,3.467-14.386,2.844-20.508-1.814
					C439.558,195.291,428.682,195.616,423.751,192.243z"/>
				<path style="fill-rule:evenodd;clip-rule:evenodd;fill:#F0F0F0;" d="M360.786,272.185c-0.231-16.099,0.797-31.974,1.237-48.01
					c0.848-0.061,1.522-0.145,2.195-0.151c10.108-0.079,20.217-0.201,30.325-0.203c8.165,0,16.33,0.141,24.494,0.234
					c0.772,0.008,1.584,0.32,2.313,0.171c3.064-0.627,4.221,1.085,5.428,3.569c3.113,6.416,7.41,12.039,12.711,16.841
					c1.486,1.347,3.16,2.483,4.888,3.827c5.1-3.287,8.856-7.688,12.763-12.653c0.095,1.063,0.202,1.626,0.187,2.186
					c-0.253,9.246-0.54,18.491-0.769,27.736c-0.047,1.94,0.169,3.885,0.168,5.826c-0.003,1.762-0.281,2.043-2.059,1.996
					c-3.652-0.094-7.303-0.395-10.954-0.387c-10.652,0.025-21.305,0.258-31.957,0.213c-5.902-0.023-11.8-0.512-17.703-0.652
					c-9.869-0.24-19.741-0.371-29.611-0.541C363.294,272.168,362.145,272.185,360.786,272.185z M386.185,261.416
					c0.04,0.322-0.011,0.793,0.123,0.854c1.163,0.52,2.358,0.965,3.544,1.432c0.434,0.908-0.435,2.189,0.748,2.928
					c0.192-0.088,0.435-0.131,0.453-0.219c0.2-0.967,0.364-1.939,0.549-2.963c0.319-0.074,0.612-0.141,0.905-0.213
					c3.425-0.83,4.654-3.111,3.571-6.465c-0.471-1.459-1.452-2.319-2.785-2.934c-1.62-0.746-3.327-1.387-4.788-2.379
					c-2.801-1.902-2.403-4.678,0.715-6.064c2.07-0.92,4.218-0.929,6.405-0.705c0.402,0.041,0.815-0.031,1.491-0.066
					c-0.978-1.48-2.43-1.026-3.451-1.564c-0.563-0.731,0.328-2.063-1.21-2.643c-0.219,0.976-0.412,1.829-0.609,2.704
					c-1.204,0.398-2.434,0.673-3.546,1.197c-3.243,1.527-4.421,5.173-1.179,7.882c0.764,0.639,1.664,1.136,2.554,1.601
					c1.1,0.573,2.284,0.99,3.38,1.57c1.435,0.758,2.148,2.491,1.826,4.179c-0.263,1.375-1.26,2.209-3.118,2.232
					C390.007,261.801,388.244,261.563,386.185,261.416z M401.105,264.943c0.986,0.908,1.866,0.66,2.647,0.662
					c13.843,0.029,27.685,0.041,41.529,0.051c1.322,0,2.646-0.006,3.965-0.074c0.372-0.02,0.732-0.272,1.346-0.514
					c-2.298-0.703-37.04-0.996-47.763-0.486C402.356,264.603,401.891,264.773,401.105,264.943z M401.414,258.854
					c0.179,0.304,0.225,0.503,0.323,0.534c0.288,0.09,0.597,0.156,0.897,0.154c12.256-0.053,24.513-0.115,36.768-0.184
					c0.046,0,0.114-0.088,0.128-0.145c0.018-0.07-0.008-0.152-0.014-0.23c-2.02-0.589-28.945-0.923-36.879-0.442
					C402.243,258.565,401.857,258.737,401.414,258.854z"/>
				<path style="fill-rule:evenodd;clip-rule:evenodd;fill:#4E616F;" d="M420.646,207.957c1.284,5.261,2.476,10.148,3.696,15.149
					c0.043-0.076,0.016,0.002-0.036,0.057c-0.05,0.052-0.122,0.108-0.188,0.113c-0.693,0.049-1.388,0.129-2.082,0.123
					c-19.874-0.159-39.747-0.326-59.716-0.492c-0.055-0.449-0.15-0.9-0.159-1.354c-0.087-3.652-0.17-7.305-0.228-10.956
					c-0.041-2.513,0.206-2.77,2.59-2.648c14.92,0.764,29.839,0.469,44.76,0.024C413.073,207.861,416.87,207.957,420.646,207.957z
					 M383.582,219.411c2.503-0.002,3.988-1.396,4.03-3.785c0.044-2.414-1.655-4.257-3.928-4.261c-2.4-0.004-4.337,1.992-4.367,4.503
					C379.293,218.041,380.942,219.413,383.582,219.411z M370.458,219.411c2.516,0.012,4.011-1.357,4.081-3.736
					c0.07-2.411-1.615-4.285-3.88-4.309c-2.41-0.027-4.349,1.93-4.414,4.454C366.19,218.001,367.828,219.398,370.458,219.411z
					 M396.262,219.409c2.634,0.045,4.175-1.371,4.186-3.852c0.012-2.329-1.589-4.118-3.751-4.192
					c-2.456-0.084-4.375,1.776-4.469,4.334C392.144,217.993,393.634,219.362,396.262,219.409z"/>
				<path style="fill-rule:evenodd;clip-rule:evenodd;fill:#0061B2;" d="M423.751,192.243c4.931,3.373,15.807,3.048,20.645-1.717
					c6.122,4.659,13.156,5.282,20.508,1.814c5.125,17.107-3.147,41.706-20.357,54.453
					C430.17,237.561,418.079,212.78,423.751,192.243z M427.156,195.926c-0.291,1.266-0.557,2.306-0.766,3.358
					c-1.367,6.887-0.603,13.623,1.53,20.241c2.722,8.441,7.6,15.432,14.43,21.054c2.048,1.685,2.239,1.653,4.152-0.007
					c7.033-6.102,12.146-13.454,14.729-22.493c1.941-6.789,2.383-13.601,0.71-20.497c-0.134-0.553-0.407-1.072-0.599-1.561
					c-6.174,3.033-11.833,2.786-17.129-1.578c-2.293,2.257-4.914,3.409-8.023,3.477
					C432.234,198.004,432.235,198.042,427.156,195.926z"/>
				<path style="fill-rule:evenodd;clip-rule:evenodd;" d="M386.185,261.416c2.059,0.147,3.821,0.385,5.578,0.363
					c1.858-0.023,2.855-0.857,3.118-2.232c0.322-1.688-0.392-3.421-1.826-4.179c-1.096-0.58-2.28-0.997-3.38-1.57
					c-0.89-0.465-1.79-0.962-2.554-1.601c-3.242-2.709-2.065-6.354,1.179-7.882c1.112-0.524,2.342-0.799,3.546-1.197
					c0.197-0.875,0.391-1.729,0.609-2.704c1.538,0.579,0.647,1.911,1.21,2.643c1.022,0.537,2.473,0.084,3.451,1.564
					c-0.676,0.035-1.089,0.107-1.491,0.066c-2.188-0.224-4.335-0.215-6.405,0.705c-3.118,1.387-3.516,4.162-0.715,6.064
					c1.461,0.992,3.168,1.633,4.788,2.379c1.333,0.615,2.315,1.475,2.785,2.934c1.083,3.353-0.147,5.635-3.571,6.465
					c-0.293,0.072-0.586,0.139-0.905,0.213c-0.184,1.023-0.349,1.996-0.549,2.963c-0.018,0.088-0.261,0.131-0.453,0.219
					c-1.184-0.738-0.314-2.02-0.748-2.928c-1.185-0.467-2.381-0.912-3.544-1.432C386.175,262.209,386.226,261.738,386.185,261.416z"
					/>
				<path style="fill-rule:evenodd;clip-rule:evenodd;" d="M401.105,264.943c0.785-0.17,1.251-0.34,1.724-0.361
					c10.723-0.51,45.465-0.217,47.763,0.486c-0.613,0.242-0.974,0.494-1.346,0.514c-1.319,0.068-2.643,0.074-3.965,0.074
					c-13.844-0.01-27.687-0.022-41.529-0.051C402.972,265.603,402.092,265.852,401.105,264.943z"/>
				<path style="fill-rule:evenodd;clip-rule:evenodd;" d="M401.414,258.854c0.443-0.117,0.829-0.289,1.225-0.313
					c7.934-0.48,34.858-0.146,36.879,0.442c0.006,0.078,0.032,0.16,0.014,0.23c-0.014,0.057-0.082,0.145-0.128,0.145
					c-12.256,0.068-24.513,0.131-36.768,0.184c-0.301,0.002-0.609-0.065-0.897-0.154
					C401.639,259.357,401.593,259.158,401.414,258.854z"/>
				<path style="fill-rule:evenodd;clip-rule:evenodd;" d="M383.582,219.411c-2.64,0.002-4.289-1.37-4.265-3.543
					c0.03-2.512,1.967-4.507,4.367-4.503c2.272,0.004,3.972,1.847,3.928,4.261C387.57,218.016,386.085,219.409,383.582,219.411z
					 M383.539,212.472c-1.612-0.015-2.991,1.428-3.049,3.19c-0.054,1.663,1.114,2.658,3.099,2.638
					c1.888-0.021,2.898-1.137,2.873-3.174C386.443,213.579,385.243,212.488,383.539,212.472z"/>
				<path style="fill-rule:evenodd;clip-rule:evenodd;" d="M370.458,219.411c-2.63-0.014-4.268-1.41-4.213-3.592
					c0.065-2.523,2.004-4.48,4.414-4.454c2.265,0.024,3.95,1.898,3.88,4.309C374.469,218.054,372.974,219.423,370.458,219.411z
					 M373.384,215.212c0.018-1.572-1.125-2.676-2.833-2.738c-1.683-0.061-3.166,1.514-3.143,3.336
					c0.02,1.553,1.133,2.469,3.021,2.488C372.339,218.318,373.361,217.251,373.384,215.212z"/>
				<path style="fill-rule:evenodd;clip-rule:evenodd;" d="M396.262,219.409c-2.628-0.047-4.118-1.416-4.033-3.709
					c0.094-2.559,2.013-4.419,4.469-4.334c2.162,0.074,3.763,1.863,3.751,4.192C400.436,218.038,398.895,219.454,396.262,219.409z
					 M399.296,215.138c-0.031-1.584-1.182-2.638-2.909-2.662c-1.631-0.023-3.182,1.676-3.113,3.411
					c0.058,1.485,1.282,2.427,3.137,2.411C398.32,218.282,399.337,217.17,399.296,215.138z"/>
				<path style="fill-rule:evenodd;clip-rule:evenodd;" d="M427.156,195.926c5.079,2.116,5.078,2.079,9.035,1.993
					c3.109-0.067,5.73-1.22,8.023-3.477c5.296,4.363,10.955,4.611,17.129,1.578c0.191,0.489,0.465,1.008,0.599,1.561
					c1.673,6.897,1.231,13.708-0.71,20.497c-2.583,9.039-7.696,16.392-14.729,22.493c-1.913,1.66-2.105,1.691-4.152,0.007
					c-6.83-5.622-11.708-12.612-14.43-21.054c-2.133-6.617-2.898-13.354-1.53-20.241C426.6,198.232,426.865,197.192,427.156,195.926
					z M460.78,197.42c-5.74,2.33-11.254,2.472-16.419-1.5c-5.139,3.95-10.648,3.86-16.397,1.502
					c-4.505,14.845,4.101,35.311,16.487,43.39C457.412,231.583,464.986,211.975,460.78,197.42z"/>
				<path style="fill-rule:evenodd;clip-rule:evenodd;fill:#FFE159;" d="M383.539,212.472c1.704,0.017,2.904,1.107,2.923,2.654
					c0.025,2.037-0.985,3.153-2.873,3.174c-1.984,0.02-3.152-0.975-3.099-2.638C380.548,213.899,381.927,212.457,383.539,212.472z"
					/>
				<path style="fill-rule:evenodd;clip-rule:evenodd;fill:#E7031A;" d="M373.384,215.212c-0.022,2.039-1.045,3.107-2.954,3.086
					c-1.889-0.02-3.001-0.936-3.021-2.488c-0.023-1.822,1.46-3.396,3.143-3.336C372.259,212.536,373.401,213.64,373.384,215.212z"/>
				<path style="fill-rule:evenodd;clip-rule:evenodd;fill:#CAE093;" d="M399.296,215.138c0.041,2.032-0.976,3.145-2.886,3.16
					c-1.854,0.016-3.079-0.926-3.137-2.411c-0.068-1.735,1.483-3.435,3.113-3.411C398.114,212.5,399.265,213.554,399.296,215.138z"
					/>
				<path style="fill-rule:evenodd;clip-rule:evenodd;fill:#FFE159;" d="M460.78,197.42c4.206,14.555-3.368,34.163-16.329,43.392
					c-12.387-8.078-20.992-28.545-16.487-43.39c5.749,2.358,11.259,2.448,16.397-1.502
					C449.526,199.892,455.04,199.749,460.78,197.42z"/>
			</g>
			<polygon style="fill-rule:evenodd;clip-rule:evenodd;fill:none;" points="445.23,279.33 391.721,279.33 391.721,249.777 
				445.23,249.319 			"/>
			<text transform="matrix(1 0 0 1 403.1846 256.8438)" style="font-family:'Quicksand-Bold'; font-size:10.7498px;">2.500</text>
		</g>
		<path style="fill-rule:evenodd;clip-rule:evenodd;fill:#FBA93D;" d="M444.451,240.811c-12.387-8.078-20.992-28.545-16.487-43.39
			c5.749,2.358,11.259,2.448,16.397-1.502"/>
	</g>
	<g id="_x35_">
		<g>
			<g>
				<path style="fill-rule:evenodd;clip-rule:evenodd;" d="M126.396,201.355c2.683,0,5.16-0.014,7.638,0.004
					c2.1,0.015,4.199,0.094,6.298,0.097c3.427,0.004,5.84,1.483,6.208,5.851c0.442,5.256,0.344,10.564,0.35,15.85
					c0.003,2.711-1.598,4.777-4.184,5.496c-1.628,0.452-3.343,0.738-5.03,0.803c-2.872,0.108-5.753-0.018-8.629-0.043
					c-0.762-0.005-1.524-0.001-2.592-0.001c0,0.993,0.006,1.818,0,2.643c-0.099,13.998-0.209,27.997-0.289,41.995
					c-0.015,2.592-0.576,4.887-2.615,6.713c-1.288,1.154-2.713,1.826-4.401,1.855c-10.572,0.186-21.144,0.424-31.718,0.473
					c-5.593,0.025-11.189-0.27-16.782-0.473c-3.334-0.121-6.219-2.711-6.762-6.006c-0.176-1.068-0.32-2.16-0.32-3.242
					c-0.018-26.287-0.019-52.573-0.009-78.86c0.001-2.772,0.372-5.396,2.669-7.41c1.302-1.142,2.718-1.828,4.4-1.859
					c10.496-0.196,20.99-0.44,31.485-0.489c5.593-0.026,11.188,0.296,16.783,0.477c3.781,0.123,6.78,2.886,7.12,6.702
					c0.207,2.32,0.184,4.661,0.269,6.992C126.311,199.68,126.352,200.438,126.396,201.355z M118.93,201.362
					c0.632-3.727-1.104-6.334-4.583-6.516c-6.827-0.358-13.668-0.63-20.504-0.64c-6.136-0.009-12.276,0.313-18.407,0.629
					c-2.684,0.138-4.377,1.896-4.819,4.54c-0.089,0.533-0.112,1.083-0.113,1.625c-0.004,20.218-0.006,40.438,0.004,60.657
					c0,0.695,0.056,1.402,0.199,2.082c0.485,2.311,2.098,3.834,4.436,4.137c1.308,0.17,2.632,0.234,3.95,0.275
					c3.263,0.1,6.529,0.234,9.793,0.219c7.927-0.039,15.855-0.15,23.783-0.252c0.695-0.008,1.436-0.033,2.074-0.271
					c0.987-0.367,1.997-0.805,2.832-1.432c1.605-1.207,1.695-3.072,1.703-4.875c0.041-10.107,0.054-20.216,0.062-30.324
					c0-0.564-0.138-1.126-0.285-2.259c-0.905,0.909-1.484,1.379-1.926,1.955c-1.563,2.034-3.042,4.133-4.624,6.15
					c-0.955,1.217-1.965,2.411-3.104,3.446c-0.544,0.494-1.446,0.593-2.555,1.009c0-1.196-0.089-1.954,0.02-2.683
					c0.196-1.305,0.5-2.594,0.778-3.885c0.382-1.774,0.781-3.545,1.204-5.456c-2.751,0-5.238,0.111-7.709-0.036
					c-1.92-0.114-3.851-0.425-5.721-0.876c-2.521-0.609-3.813-2.6-3.873-4.962c-0.135-5.36-0.201-10.748,0.214-16.086
					c0.35-4.504,2.728-6.112,6.487-6.087c3.577,0.023,7.153-0.064,10.73-0.082C112.304,201.35,115.635,201.362,118.93,201.362z
					 M125.164,201.382c0-3.033,0.148-5.833-0.036-8.61c-0.253-3.846-2.504-6.181-6.386-6.409c-6.595-0.386-13.206-0.703-19.81-0.716
					c-8.629-0.017-17.261,0.281-25.892,0.469c-1.007,0.023-2.048,0.075-3.005,0.353c-1.011,0.292-2.045,0.727-2.884,1.35
					c-2.383,1.768-2.675,4.403-2.679,7.117c-0.021,15.792-0.061,31.584-0.064,47.376c-0.003,10.268,0.037,20.538,0.071,30.805
					c0.008,2.539,0.408,4.883,2.427,6.791c1.792,1.695,3.96,1.715,6.099,1.803c6.138,0.248,12.281,0.514,18.422,0.494
					c8.553-0.027,17.105-0.305,25.657-0.488c0.698-0.016,1.392-0.166,2.09-0.201c1.745-0.088,3.051-0.938,4.234-2.174
					c1.535-1.602,1.79-3.564,1.825-5.613c0.08-4.82,0.191-9.643,0.196-14.463c0.009-9.258-0.044-18.515-0.082-27.773
					c-0.003-0.601-0.092-1.203-0.15-1.908c-1.486,0-2.856,0-4.432,0c-0.038,0.822-0.102,1.581-0.104,2.341
					c-0.017,6.457-0.001,12.914-0.039,19.371c-0.024,4.045-0.034,8.094-0.215,12.133c-0.159,3.529-2.551,5.699-6.042,5.783
					c-2.875,0.068-5.751,0.23-8.626,0.219c-10.186-0.043-20.372-0.146-30.557-0.221c-2.176-0.014-3.775-1.164-4.716-2.932
					c-0.623-1.17-0.884-2.664-0.888-4.016c-0.052-20.615-0.038-41.229-0.029-61.845c0-0.697,0.033-1.405,0.153-2.091
					c0.471-2.689,2.773-4.728,5.517-4.819c4.819-0.16,9.641-0.379,14.46-0.361c8.32,0.031,16.64,0.207,24.959,0.361
					c3.001,0.055,5.305,2.158,5.727,5.121c0.128,0.896,0.183,1.803,0.275,2.753C122.199,201.382,123.575,201.382,125.164,201.382z
					 M108.047,239.41c0.22,0.1,0.439,0.199,0.659,0.299c0.963-1.184,1.95-2.351,2.884-3.558c1.714-2.213,3.391-4.454,5.094-6.675
					c0.534-0.695,1.137-1.197,2.135-1.184c5.756,0.074,11.514,0.165,17.267,0.097c2.075-0.025,4.187-0.295,6.203-0.779
					c2.185-0.526,3.419-2.228,3.417-4.427c-0.004-4.901,0.044-9.811-0.227-14.701c-0.297-5.345-2.641-5.896-6.07-5.914
					c-8.635-0.044-17.271-0.209-25.906-0.226c-5.133-0.01-10.268,0.11-15.398,0.279c-3.366,0.11-5.041,1.715-5.184,5.054
					c-0.214,5.051-0.299,10.11-0.346,15.165c-0.022,2.463,1.23,4.186,3.585,4.813c1.708,0.454,3.505,0.67,5.276,0.771
					c2.406,0.137,4.824,0.006,7.232,0.102c1.317,0.052,1.604,0.527,1.359,1.824c-0.13,0.686-0.375,1.349-0.521,2.032
					C109.009,234.722,108.532,237.066,108.047,239.41z"/>
				<path style="fill-rule:evenodd;clip-rule:evenodd;fill:#CAE093;" d="M118.93,201.362c-3.294,0-6.625-0.012-9.956,0.004
					c-3.577,0.017-7.153,0.105-10.73,0.082c-3.76-0.025-6.138,1.583-6.487,6.087c-0.415,5.338-0.349,10.726-0.214,16.086
					c0.06,2.362,1.352,4.353,3.873,4.962c1.871,0.451,3.801,0.762,5.721,0.876c2.471,0.147,4.958,0.036,7.709,0.036
					c-0.423,1.911-0.822,3.681-1.204,5.456c-0.278,1.291-0.582,2.58-0.778,3.885c-0.109,0.729-0.02,1.486-0.02,2.683
					c1.109-0.416,2.01-0.515,2.555-1.009c1.139-1.035,2.15-2.229,3.104-3.446c1.582-2.017,3.062-4.116,4.624-6.15
					c0.442-0.576,1.021-1.046,1.926-1.955c0.147,1.133,0.285,1.696,0.285,2.259c-0.007,10.107-0.021,20.216-0.062,30.324
					c-0.008,1.803-0.097,3.668-1.703,4.875c-0.835,0.627-1.845,1.065-2.832,1.432c-0.638,0.238-1.378,0.264-2.074,0.271
					c-7.928,0.102-15.855,0.213-23.783,0.252c-3.264,0.016-6.53-0.119-9.793-0.219c-1.318-0.041-2.643-0.105-3.95-0.275
					c-2.338-0.303-3.951-1.826-4.436-4.137c-0.143-0.68-0.199-1.387-0.199-2.082c-0.01-20.219-0.008-40.439-0.004-60.657
					c0.001-0.542,0.024-1.093,0.113-1.625c0.442-2.644,2.135-4.402,4.819-4.54c6.131-0.315,12.271-0.638,18.407-0.629
					c6.836,0.01,13.677,0.281,20.504,0.64C117.826,195.029,119.562,197.636,118.93,201.362z"/>
				<path style="fill-rule:evenodd;clip-rule:evenodd;fill:#4E616F;" d="M125.164,201.382c-1.589,0-2.965,0-4.526,0
					c-0.092-0.95-0.147-1.857-0.275-2.753c-0.422-2.963-2.726-5.065-5.727-5.121c-8.319-0.154-16.639-0.33-24.959-0.361
					c-4.819-0.018-9.64,0.201-14.46,0.361c-2.744,0.091-5.045,2.13-5.517,4.819c-0.12,0.686-0.153,1.394-0.153,2.091
					c-0.008,20.616-0.023,41.23,0.029,61.845c0.004,1.352,0.264,2.846,0.888,4.016c0.942,1.768,2.54,2.918,4.716,2.932
					c10.186,0.074,20.371,0.178,30.557,0.221c2.876,0.012,5.751-0.15,8.626-0.219c3.491-0.084,5.883-2.254,6.042-5.783
					c0.181-4.039,0.191-8.088,0.215-12.133c0.038-6.457,0.022-12.914,0.039-19.371c0.002-0.76,0.066-1.52,0.104-2.341
					c1.576,0,2.946,0,4.432,0c0.058,0.705,0.147,1.307,0.15,1.908c0.037,9.258,0.09,18.515,0.082,27.773
					c-0.005,4.82-0.116,9.643-0.196,14.463c-0.034,2.049-0.29,4.012-1.825,5.613c-1.183,1.236-2.489,2.086-4.234,2.174
					c-0.698,0.035-1.392,0.186-2.09,0.201c-8.551,0.184-17.104,0.461-25.657,0.488c-6.141,0.02-12.284-0.246-18.422-0.494
					c-2.139-0.088-4.307-0.107-6.099-1.803c-2.019-1.908-2.418-4.252-2.427-6.791c-0.034-10.268-0.074-20.537-0.071-30.805
					c0.003-15.792,0.043-31.585,0.064-47.376c0.004-2.714,0.296-5.349,2.679-7.117c0.839-0.623,1.873-1.058,2.884-1.35
					c0.957-0.277,1.998-0.33,3.005-0.353c8.63-0.188,17.262-0.486,25.892-0.469c6.604,0.013,13.214,0.33,19.81,0.716
					c3.882,0.228,6.132,2.563,6.386,6.409C125.313,195.549,125.164,198.349,125.164,201.382z M95.007,273.037
					c-0.001,0.023-0.001,0.045-0.002,0.068c-2.87,0-5.746-0.105-8.609,0.043c-1.526,0.078-1.921,0.73-1.922,2.105
					c0,1.352,0.439,1.877,1.92,2.145c0.607,0.107,1.237,0.117,1.856,0.117c4.349,0.012,8.698,0.018,13.047-0.004
					c0.771-0.004,1.552-0.076,2.307-0.227c0.938-0.188,1.446-0.771,1.481-1.799c0.056-1.607-0.472-2.322-2.394-2.418
					C100.135,272.941,97.568,273.037,95.007,273.037z"/>
				<path style="fill-rule:evenodd;clip-rule:evenodd;fill:#FFFFFF;" d="M108.047,239.41c0.485-2.344,0.961-4.688,1.459-7.027
					c0.146-0.684,0.39-1.347,0.521-2.032c0.245-1.297-0.042-1.772-1.359-1.824c-2.408-0.096-4.827,0.035-7.232-0.102
					c-1.771-0.101-3.568-0.316-5.276-0.771c-2.355-0.627-3.608-2.349-3.585-4.813c0.047-5.056,0.131-10.114,0.346-15.165
					c0.143-3.339,1.818-4.943,5.184-5.054c5.131-0.169,10.266-0.29,15.398-0.279c8.635,0.017,17.271,0.182,25.906,0.226
					c3.429,0.018,5.773,0.569,6.07,5.914c0.271,4.89,0.223,9.8,0.227,14.701c0.002,2.199-1.232,3.901-3.417,4.427
					c-2.016,0.484-4.127,0.754-6.203,0.779c-5.754,0.068-11.512-0.023-17.267-0.097c-0.998-0.014-1.601,0.488-2.135,1.184
					c-1.703,2.221-3.38,4.462-5.094,6.675c-0.934,1.207-1.92,2.374-2.884,3.558C108.486,239.609,108.267,239.509,108.047,239.41z"/>
				<path style="fill-rule:evenodd;clip-rule:evenodd;" d="M95.007,273.037c2.561,0,5.128-0.096,7.683,0.031
					c1.922,0.096,2.45,0.811,2.394,2.418c-0.035,1.027-0.543,1.611-1.481,1.799c-0.754,0.15-1.536,0.223-2.307,0.227
					c-4.349,0.022-8.698,0.016-13.047,0.004c-0.619,0-1.249-0.01-1.856-0.117c-1.48-0.268-1.92-0.793-1.92-2.145
					c0.001-1.375,0.396-2.027,1.922-2.105c2.863-0.148,5.739-0.043,8.609-0.043C95.006,273.082,95.006,273.06,95.007,273.037z
					 M94.505,276.555c0,0.004,0,0.006,0,0.008c2.404,0,4.809,0.029,7.213-0.008c1.996-0.029,2.522-0.344,2.413-1.379
					c-0.162-1.531-1.429-1.195-2.343-1.205c-4.652-0.053-9.306-0.033-13.959-0.029c-0.462,0-0.93,0.043-1.389,0.113
					c-0.716,0.109-1.195,0.553-0.997,1.272c0.118,0.428,0.537,0.904,0.942,1.084c0.464,0.207,1.064,0.137,1.604,0.139
					C90.162,276.56,92.333,276.555,94.505,276.555z"/>
				<path style="fill-rule:evenodd;clip-rule:evenodd;fill:#3A4851;" d="M94.505,276.555c-2.172,0-4.343,0.006-6.515-0.006
					c-0.54-0.002-1.14,0.068-1.604-0.139c-0.406-0.18-0.825-0.656-0.942-1.084c-0.198-0.719,0.281-1.162,0.997-1.272
					c0.459-0.07,0.926-0.113,1.389-0.113c4.653-0.004,9.307-0.023,13.959,0.029c0.914,0.01,2.181-0.326,2.343,1.205
					c0.109,1.035-0.417,1.35-2.413,1.379c-2.404,0.037-4.809,0.008-7.213,0.008C94.505,276.56,94.505,276.559,94.505,276.555z"/>
			</g>
			<g>
				<polygon style="fill-rule:evenodd;clip-rule:evenodd;fill:none;" points="139.199,225.758 99.476,225.758 99.476,209.401 
					139.199,208.96 				"/>
				<text transform="matrix(1 0 0 1 103.6449 220.8851)" style="font-family:'Quicksand-Bold'; font-size:17.0359px;">PAY</text>
			</g>
		</g>
	</g>
	<g id="_x36_">
		<g>
			<path style="fill-rule:evenodd;clip-rule:evenodd;" d="M422.949,61.647c2.182-1.282,4.132-2.556,6.193-3.616
				c8.245-4.239,16.679-4.396,25.255-1.032c4.736,1.858,8.739,4.645,11.874,8.722c2.446,3.182,3.599,6.844,4.552,10.63
				c1.752,6.972,0.565,13.654-2.415,19.977c-2.618,5.559-7.167,9.268-12.775,11.75c-11.042,4.887-21.354,3.256-31.158-3.314
				c-0.388-0.26-0.755-0.547-1.14-0.826c-2.222,1.283-4.349,2.703-6.633,3.795c-11.154,5.322-21.787,3.885-31.752-2.982
				c-5.457-3.76-8.281-9.326-9.576-15.749c-1.372-6.801-0.554-13.362,2.363-19.577c2.577-5.491,6.971-9.242,12.466-11.761
				c11.056-5.069,21.464-3.562,31.393,3.01C422.049,60.973,422.479,61.308,422.949,61.647z M428.658,96.87
				c1.947,2.082,4.314,3.232,6.786,4.162c7.237,2.727,14.086,1.646,20.442-2.5c6.816-4.446,8.678-13.796,7.129-20.559
				c-1.166-5.095-3.649-9.231-8.229-11.892c-4.638-2.695-9.615-3.955-14.984-2.951c-4.169,0.78-8.013,2.292-11.26,5.331
				C433.096,77.983,433.071,87.444,428.658,96.87z M401.313,108.997c7.898,0.002,13.195-1.711,18.006-4.746
				c5.075-3.201,8.171-7.877,9.761-13.71c1.979-7.266,1.31-14.297-2.094-20.834c-4.464-8.571-12.389-12.078-21.569-13.077
				c-5.143-0.56-10.049,0.701-14.714,2.833c-5.358,2.447-9.518,6.211-11.799,11.708c-2.214,5.335-3.105,10.905-1.931,16.662
				c0.797,3.905,1.898,7.687,4.434,10.906C387.031,105.887,394.69,108.616,401.313,108.997z M427.781,67.08
				c0.563-0.389,0.997-0.688,1.43-0.99c6.064-4.209,12.62-5.89,19.891-3.861c6.66,1.857,11.773,5.596,14.295,12.229
				c0.738,1.94,1.247,4.051,1.392,6.117c0.527,7.578-1.49,14.296-7.903,18.894c-8.463,6.07-18.454,5.832-27.109,0.186
				c-0.627-0.408-1.232-0.854-1.905-1.324c-1.161,1.443-2.214,2.752-3.351,4.168c4.865,3.834,10.218,5.914,16.164,6.438
				c5.239,0.461,10.218-0.68,14.949-2.877c6.154-2.859,10.525-7.391,12.577-13.948c1.457-4.66,2.083-9.41,1.083-14.27
				c-0.787-3.831-1.812-7.569-4.247-10.748c-5.176-6.757-12.272-9.813-20.527-10.494c-5.001-0.411-9.741,0.811-14.251,2.892
				c-2.02,0.932-4.083,1.876-5.656,3.734C425.673,64.517,426.689,65.753,427.781,67.08z"/>
			<path style="fill-rule:evenodd;clip-rule:evenodd;fill:#FFE159;" d="M428.658,96.87c4.413-9.425,4.438-18.886-0.116-28.409
				c3.247-3.039,7.091-4.551,11.26-5.331c5.369-1.004,10.347,0.255,14.984,2.951c4.58,2.661,7.063,6.797,8.229,11.892
				c1.549,6.763-0.313,16.113-7.129,20.559c-6.356,4.146-13.205,5.227-20.442,2.5C432.973,100.102,430.605,98.952,428.658,96.87z
				 M447.016,95.69c2.8-0.891,4.831-2.584,6.094-5.143c1.723-3.489,0.582-7.112-2.388-8.697c-2.12-1.131-4.27-2.203-6.362-3.383
				c-1.507-0.849-2.001-1.95-1.606-3.253c0.416-1.374,1.595-1.682,2.775-1.649c1.218,0.034,2.452,0.264,3.635,0.578
				c1.936,0.514,2.146,0.465,2.986-1.429c0.063-0.142,0.13-0.282,0.189-0.426c0.826-2.01,0.599-2.54-1.563-3.133
				c-1.177-0.323-2.404-0.462-3.565-0.676c-0.558-2.306-0.666-2.419-2.194-2.399c-1.767,0.023-2.026,0.294-2.488,2.631
				c-0.398,0.164-0.821,0.352-1.255,0.513c-2.642,0.984-4.197,2.847-4.551,5.66c-0.359,2.866,0.533,5.251,2.977,6.864
				c1.284,0.848,2.723,1.463,4.093,2.18c0.892,0.465,1.821,0.864,2.671,1.396c1.128,0.707,1.806,1.724,1.542,3.126
				c-0.23,1.222-1.37,2.098-2.918,2.269c-1.818,0.202-3.55-0.131-5.205-0.916c-0.738-0.351-1.502-0.647-2.496-1.071
				c-0.61,1.613-1.121,2.963-1.652,4.367c1.885,2.136,4.513,2.044,6.803,2.644c0.554,2.74,1.461,3.203,4.311,2.209
				C446.895,97.295,446.947,96.606,447.016,95.69z"/>
			<path style="fill-rule:evenodd;clip-rule:evenodd;fill:#FBA93D;" d="M401.313,108.997c-6.622-0.381-14.281-3.109-19.906-10.258
				c-2.535-3.219-3.637-7.001-4.434-10.906c-1.175-5.757-0.283-11.327,1.931-16.662c2.28-5.497,6.44-9.26,11.799-11.708
				c4.665-2.132,9.57-3.393,14.714-2.833c9.181,0.998,17.105,4.506,21.569,13.077c3.403,6.537,4.073,13.568,2.094,20.834
				c-1.59,5.832-4.686,10.508-9.761,13.71C414.508,107.286,409.211,108.998,401.313,108.997z M401.246,103.854
				c6.914,0.131,11.329-1.484,15.301-4.23c5.547-3.836,7.865-9.506,8.192-15.994c0.243-4.822-0.653-9.599-3.736-13.429
				c-5.993-7.446-13.908-10.271-23.238-8.094c-7.988,1.863-13.688,6.524-15.591,14.878c-1.576,6.918-0.782,13.498,3.773,19.182
				C390.344,101.653,396.477,103.545,401.246,103.854z"/>
			<path style="fill-rule:evenodd;clip-rule:evenodd;fill:#FBA93D;" d="M427.781,67.08c-1.092-1.327-2.108-2.563-3.17-3.854
				c1.573-1.858,3.637-2.802,5.656-3.734c4.51-2.08,9.25-3.303,14.251-2.892c8.256,0.68,15.352,3.736,20.527,10.494
				c2.435,3.179,3.46,6.917,4.247,10.748c1,4.859,0.374,9.609-1.083,14.27c-2.052,6.557-6.423,11.088-12.577,13.948
				c-4.731,2.197-9.71,3.338-14.949,2.877c-5.946-0.523-11.299-2.604-16.164-6.438c1.137-1.416,2.19-2.725,3.351-4.168
				c0.674,0.471,1.278,0.916,1.905,1.324c8.655,5.646,18.646,5.885,27.109-0.186c6.413-4.598,8.431-11.316,7.903-18.894
				c-0.145-2.066-0.653-4.177-1.392-6.117c-2.521-6.633-7.635-10.373-14.295-12.229c-7.271-2.028-13.827-0.348-19.891,3.861
				C428.778,66.391,428.344,66.69,427.781,67.08z"/>
			<path style="fill-rule:evenodd;clip-rule:evenodd;" d="M447.016,95.69c-0.068,0.916-0.121,1.605-0.169,2.26
				c-2.85,0.994-3.757,0.531-4.311-2.209c-2.29-0.6-4.918-0.508-6.803-2.644c0.531-1.404,1.042-2.754,1.652-4.367
				c0.994,0.424,1.758,0.721,2.496,1.071c1.655,0.785,3.387,1.118,5.205,0.916c1.548-0.171,2.688-1.047,2.918-2.269
				c0.264-1.402-0.414-2.419-1.542-3.126c-0.85-0.531-1.779-0.931-2.671-1.396c-1.37-0.717-2.809-1.332-4.093-2.18
				c-2.443-1.613-3.336-3.998-2.977-6.864c0.354-2.813,1.909-4.676,4.551-5.66c0.434-0.162,0.857-0.349,1.255-0.513
				c0.462-2.338,0.722-2.608,2.488-2.631c1.528-0.02,1.637,0.094,2.194,2.399c1.16,0.214,2.388,0.354,3.565,0.676
				c2.161,0.594,2.389,1.123,1.563,3.133c-0.059,0.144-0.126,0.284-0.189,0.426c-0.841,1.894-1.05,1.942-2.986,1.429
				c-1.183-0.313-2.417-0.543-3.635-0.578c-1.181-0.033-2.359,0.275-2.775,1.649c-0.395,1.304,0.1,2.405,1.606,3.253
				c2.092,1.18,4.242,2.252,6.362,3.383c2.97,1.585,4.11,5.208,2.388,8.697C451.847,93.105,449.815,94.799,447.016,95.69z
				 M446.194,95.016c3.155-0.727,5.375-2.525,6.445-5.533c1.078-3.033,0.139-5.618-2.191-6.88c-1.636-0.885-3.286-1.739-4.908-2.646
				c-0.942-0.527-1.92-1.038-2.741-1.723c-0.975-0.811-1.208-1.999-0.873-3.196c0.345-1.234,1.268-2.045,2.525-2.086
				c1.528-0.05,3.065,0.146,4.595,0.291c0.583,0.055,1.152,0.26,1.844,0.425c0.46-1.109,0.857-2.064,1.395-3.356
				c-2.149-0.444-3.94-0.815-5.844-1.207c-0.156-0.674-0.324-1.396-0.517-2.219c-0.803,0.054-1.474,0.1-2.145,0.145
				c-0.215,0.87-0.397,1.607-0.59,2.394c-0.488,0.147-0.927,0.279-1.364,0.413c-5.421,1.651-5.563,8.66-1.932,11.203
				c1.254,0.878,2.706,1.475,4.074,2.189c1.096,0.571,2.265,1.028,3.283,1.714c1.25,0.841,1.8,2.12,1.539,3.646
				c-0.251,1.479-1.276,2.391-2.627,2.639c-1.334,0.245-2.775,0.282-4.11,0.057c-1.416-0.238-2.763-0.895-4.296-1.422
				c-0.38,1.034-0.744,2.026-1.116,3.04c2.024,1.794,4.602,1.52,6.814,2.272c0.114,0.787,0.213,1.463,0.335,2.299
				c0.775,0,1.492,0,2.221,0C446.077,96.585,446.134,95.823,446.194,95.016z"/>
			<path style="fill-rule:evenodd;clip-rule:evenodd;" d="M401.246,103.854c-4.77-0.309-10.902-2.201-15.299-7.688
				c-4.556-5.684-5.35-12.264-3.773-19.182c1.903-8.354,7.603-13.015,15.591-14.878c9.33-2.176,17.245,0.648,23.238,8.094
				c3.083,3.83,3.979,8.607,3.736,13.429c-0.327,6.487-2.646,12.158-8.192,15.994C412.575,102.37,408.16,103.985,401.246,103.854z
				 M402.764,102.524c5.818-0.199,10.849-1.738,14.841-5.551c5.516-5.268,6.611-11.912,5.183-19.134
				c-1.001-5.064-3.611-9.09-8.1-11.724c-4.632-2.718-9.621-4-14.998-2.99c-8.319,1.563-14.91,6.088-16.485,15.459
				c-1.123,6.684-0.06,12.936,4.903,17.956C392.199,100.678,397.39,102.325,402.764,102.524z"/>
			<path style="fill-rule:evenodd;clip-rule:evenodd;fill:#FBA93D;" d="M446.194,95.016c-0.06,0.807-0.117,1.568-0.184,2.459
				c-0.728,0-1.445,0-2.221,0c-0.122-0.836-0.221-1.512-0.335-2.299c-2.213-0.752-4.79-0.479-6.814-2.272
				c0.372-1.014,0.736-2.006,1.116-3.04c1.533,0.527,2.88,1.184,4.296,1.422c1.335,0.226,2.776,0.188,4.11-0.057
				c1.351-0.248,2.376-1.159,2.627-2.639c0.261-1.526-0.289-2.806-1.539-3.646c-1.019-0.686-2.188-1.142-3.283-1.714
				c-1.368-0.715-2.82-1.312-4.074-2.189c-3.631-2.543-3.489-9.551,1.932-11.203c0.438-0.134,0.876-0.266,1.364-0.413
				c0.193-0.787,0.375-1.524,0.59-2.394c0.671-0.046,1.342-0.091,2.145-0.145c0.192,0.822,0.36,1.545,0.517,2.219
				c1.903,0.393,3.694,0.763,5.844,1.207c-0.538,1.292-0.935,2.248-1.395,3.356c-0.691-0.164-1.261-0.37-1.844-0.425
				c-1.529-0.145-3.066-0.341-4.595-0.291c-1.257,0.041-2.181,0.852-2.525,2.086c-0.335,1.197-0.102,2.385,0.873,3.196
				c0.821,0.685,1.799,1.195,2.741,1.723c1.622,0.906,3.272,1.761,4.908,2.646c2.33,1.262,3.27,3.847,2.191,6.88
				C451.569,92.491,449.35,94.29,446.194,95.016z"/>
			<path style="fill-rule:evenodd;clip-rule:evenodd;fill:#FFE159;" d="M402.764,102.524c-5.374-0.199-10.565-1.846-14.656-5.984
				c-4.963-5.02-6.026-11.272-4.903-17.956c1.575-9.371,8.166-13.896,16.485-15.459c5.377-1.011,10.366,0.271,14.998,2.99
				c4.488,2.634,7.099,6.66,8.1,11.724c1.429,7.223,0.333,13.866-5.183,19.134C413.612,100.786,408.582,102.325,402.764,102.524z
				 M410.001,67.589c-7.752-1.399-14.229,1.356-17.959,7.451c-2.627,4.292-2.197,11.049,0.692,15.264
				c4.12,6.009,11.572,7.974,17.052,6.572c0.139-1.854,0.203-3.729-0.409-5.557c-1.77-0.116-3.414-0.073-4.994-0.369
				c-1.622-0.305-3.169-0.962-4.342-2.162c0.042-0.172,0.084-0.346,0.125-0.518c2.041,0,4.081,0,6.28,0
				c0.063-1.613,0.551-2.963-0.511-4.496c-2.885,0-5.883,0-8.964,0c0.047-0.71,0.075-1.146,0.119-1.802c3.102,0,6.105,0,9.103,0
				c0.532-1.556,0.653-2.878-0.111-4.451c-2.526,0-5.11,0-7.956,0c2.935-4.788,7.385-4.76,11.874-4.543
				C410.001,71.038,410.001,69.364,410.001,67.589z"/>
			<path style="fill-rule:evenodd;clip-rule:evenodd;" d="M410.001,67.589c0,1.775,0,3.449,0,5.389
				c-4.489-0.217-8.939-0.245-11.874,4.543c2.846,0,5.43,0,7.956,0c0.765,1.573,0.644,2.895,0.111,4.451c-2.998,0-6.002,0-9.103,0
				c-0.044,0.655-0.072,1.092-0.119,1.802c3.081,0,6.079,0,8.964,0c1.062,1.533,0.573,2.883,0.511,4.496c-2.199,0-4.239,0-6.28,0
				c-0.041,0.172-0.083,0.346-0.125,0.518c1.173,1.2,2.72,1.857,4.342,2.162c1.58,0.296,3.225,0.253,4.994,0.369
				c0.612,1.828,0.548,3.704,0.409,5.557c-5.48,1.402-12.932-0.563-17.052-6.572c-2.89-4.215-3.319-10.973-0.692-15.264
				C395.772,68.945,402.249,66.189,410.001,67.589z M408.826,92.444c-6.738-0.51-9.317-1.707-10.734-5.074c2.545,0,4.978,0,7.575,0
				c-0.042-0.96-0.071-1.621-0.112-2.538c-2.396,0-4.634,0.012-6.87-0.003c-2.491-0.016-2.648-0.17-2.694-2.618
				c-0.005-0.288,0.139-0.579,0.292-1.17c3.057,0,6.124,0,9.244,0c0-0.977,0-1.626,0-2.543c-2.964,0-5.784,0-8.536,0
				c-0.07-0.343-0.108-0.42-0.098-0.489c0.027-0.15,0.051-0.313,0.125-0.444c2.02-3.532,5.095-5.338,9.129-5.545
				c0.979-0.05,1.96-0.039,2.888-0.055c0-1.362,0-2.421,0-3.447c-6.738-1.194-12.624,1.438-16.172,6.953
				c-2.127,3.308-2.161,10.747,0.719,14.402c3.857,4.89,10.066,7.505,15.399,6.058C408.931,94.827,408.882,93.693,408.826,92.444z"
				/>
			<path style="fill-rule:evenodd;clip-rule:evenodd;fill:#FBA93D;" d="M408.826,92.444c0.056,1.249,0.104,2.382,0.154,3.486
				c-5.333,1.447-11.542-1.168-15.399-6.058c-2.88-3.655-2.846-11.095-0.719-14.402c3.548-5.514,9.434-8.147,16.172-6.953
				c0,1.026,0,2.085,0,3.447c-0.928,0.016-1.909,0.005-2.888,0.055c-4.034,0.207-7.109,2.013-9.129,5.545
				c-0.074,0.131-0.098,0.294-0.125,0.444c-0.011,0.069,0.027,0.146,0.098,0.489c2.752,0,5.572,0,8.536,0c0,0.917,0,1.566,0,2.543
				c-3.12,0-6.188,0-9.244,0c-0.153,0.591-0.297,0.882-0.292,1.17c0.046,2.448,0.203,2.603,2.694,2.618
				c2.236,0.015,4.475,0.003,6.87,0.003c0.041,0.917,0.07,1.578,0.112,2.538c-2.597,0-5.03,0-7.575,0
				C399.509,90.737,402.088,91.935,408.826,92.444z"/>
		</g>
	</g>
	<g id="_x37_">
		<g>
			<path style="fill-rule:evenodd;clip-rule:evenodd;" d="M109.002,388.685c1.82-1.992,4.068-2.816,6.665-2.787
				c2.531,0.027,4.14,1.109,4.833,3.555c0.4,1.412,0.58,2.887,0.895,4.522c0.299-0.363,0.599-0.645,0.802-0.984
				c1.365-2.301,3.51-2.941,5.99-2.783c2.526,0.16,4.626,1.215,5.405,3.723c0.661,2.129,1.225,4.398,1.211,6.604
				c-0.042,7.385-0.359,14.771-0.577,22.156c-0.207,6.998-0.534,13.998-0.566,20.998c-0.01,2.252-0.907,3.387-2.755,4.31
				c-7.187,3.59-14.699,4.184-22.504,2.758c-3.634-0.664-7.021-1.949-10.332-3.523c-1.642-0.779-2.444-1.869-2.39-3.816
				c0.129-4.582,0.042-9.17,0.042-13.631c-2.653-1.645-5.061-3.063-7.389-4.602c-2.522-1.666-5.067-3.322-7.422-5.209
				c-2.264-1.813-3.83-4.275-5.068-6.883c-0.815-1.717-0.594-3.498,0.331-5.156c2.17-3.885,6.733-5.525,10.842-3.771
				c1.773,0.756,3.423,1.805,5.122,2.73c0.585,0.32,1.15,0.674,2.144,1.258c-0.301-6.203-0.581-11.979-0.869-17.869
				c-0.553,0.051-1.014,0.037-1.445,0.143c-5.551,1.357-10.819,0.115-15.951-1.873c-2.311-0.895-4.54-2.053-6.693-3.291
				c-4.58-2.629-7.796-6.613-10.433-11.088C52.374,363.117,54.32,348.469,63,339.09c6.783-7.328,15.297-10.787,25.105-10.99
				c2.799-0.057,5.709,0.744,8.419,1.617c9.859,3.174,17.114,9.354,20.95,19.139c1.643,4.191,1.972,8.602,1.661,13.082
				c-0.495,7.117-3.195,13.27-8.164,18.344c-1.645,1.68-2.553,3.422-2.325,5.76c0.075,0.766,0.012,1.547,0.012,2.318
				C108.772,388.469,108.888,388.576,109.002,388.685z M108.242,409.688c-0.16-0.016-0.319-0.031-0.478-0.047
				c-0.074-0.34-0.21-0.68-0.214-1.02c-0.086-7.775-0.151-15.553-0.233-23.33c-0.03-2.877,0.06-5.766-0.207-8.621
				c-0.131-1.402-0.871-2.779-1.503-4.086c-0.229-0.475-0.9-0.9-1.445-1.029c-3.271-0.768-6.287,0.77-7.613,3.906
				c-0.48,1.135-0.943,2.361-1.01,3.568c-0.285,5.119-0.516,10.244-0.569,15.371c-0.033,3.182,0.329,6.367,0.438,9.553
				c0.071,2.049,0.007,4.102,0.002,6.625c-1.623-1.008-2.768-1.775-3.962-2.451c-1.752-0.99-3.511-1.975-5.32-2.854
				c-1.545-0.752-3.212-0.725-4.772-0.078c-3.188,1.32-6.271,4.496-3.727,8.686c2.305,3.795,5.464,6.725,9.224,9.041
				c2.78,1.715,5.535,3.467,8.317,5.176c1.238,0.76,1.763,1.773,1.76,3.264c-0.009,3.967,0.189,7.934,0.17,11.898
				c-0.007,1.387,0.528,2.164,1.703,2.721c3.171,1.506,6.421,2.709,9.898,3.355c7.405,1.379,14.525,0.809,21.379-2.521
				c1.629-0.793,2.234-1.789,2.263-3.592c0.111-7.076,0.407-14.15,0.582-21.227c0.18-7.309,0.374-14.617,0.394-21.926
				c0.006-1.824-0.516-3.682-1.009-5.467c-0.478-1.73-1.838-2.609-3.589-2.93c-2.859-0.521-4.873,0.492-6.016,3.148
				c-0.678,1.572-1.11,3.186-1.118,4.955c-0.015,3.145-0.235,6.289-0.369,9.434c-0.213,0.018-0.426,0.035-0.639,0.053
				c-0.123-0.795-0.333-1.584-0.355-2.381c-0.06-2.176,0.059-4.359-0.075-6.529c-0.205-3.324-0.517-6.644-0.876-9.957
				c-0.152-1.397-0.922-2.484-2.325-2.951c-3.084-1.023-6.783,0.783-7.693,3.936c-0.444,1.537-0.547,3.207-0.584,4.822
				c-0.088,3.885-0.033,7.773-0.076,11.66C108.591,408.473,108.366,409.08,108.242,409.688z M93.536,382.051
				c0.531-2.299,0.802-4.57,1.584-6.648c2.041-5.43,7.661-6.951,12.171-3.451c1.64-1.826,2.786-4.248,3.384-7.484
				c0.849-4.594,0.702-9.146-1.122-13.508c-3.067-7.33-8.788-11.658-16.195-13.988c-2.764-0.869-5.604-1.484-8.497-0.936
				c-6.406,1.215-12.159,3.686-16.498,8.832c-3.841,4.555-5.661,9.828-5.376,15.707c0.122,2.512,0.698,5.115,1.626,7.455
				c2.996,7.555,8.888,11.908,16.494,14.254C85.342,383.59,89.491,383.674,93.536,382.051z M93.794,383.213
				c-1.285,0.242-2.256,0.502-3.243,0.592c-1.771,0.164-3.601,0.535-5.324,0.273c-6.863-1.045-13.009-3.629-17.573-9.143
				c-5.411-6.533-7.117-13.996-4.669-22.072c3.264-10.766,12.178-16.887,22.866-17.691c7.928-0.598,14.658,2.701,20.148,8.475
				c7.053,7.418,7.6,18.693,3.738,26.287c-1.161,2.281-2.113,4.334-1.202,6.934c0.361,1.031,0.219,2.24,0.334,3.715
				c3.907-3.471,6.542-7.395,7.824-11.881c2.245-7.85,2.076-15.717-2.068-23.055c-2.591-4.588-5.904-8.594-10.629-11.18
				c-1.908-1.043-3.85-2.06-5.867-2.855c-3.919-1.545-7.986-2.99-12.232-2.426c-8.699,1.154-16.498,4.326-22.411,11.195
				c-5.945,6.906-8.192,14.857-6.78,23.828c1.319,8.379,5.715,14.902,12.652,19.578c4.402,2.967,9.361,4.914,14.657,5.758
				c3.177,0.506,6.335,0.383,9.54-0.865C93.634,386.879,93.71,385.129,93.794,383.213z"/>
			<path style="fill-rule:evenodd;clip-rule:evenodd;fill:#FFFFFF;" d="M108.242,409.688c0.124-0.607,0.349-1.215,0.355-1.824
				c0.043-3.887-0.012-7.775,0.076-11.66c0.037-1.615,0.14-3.285,0.584-4.822c0.91-3.152,4.609-4.959,7.693-3.936
				c1.402,0.467,2.173,1.555,2.325,2.951c0.359,3.313,0.671,6.633,0.876,9.957c0.134,2.17,0.015,4.354,0.075,6.529
				c0.022,0.797,0.232,1.586,0.355,2.381c0.213-0.018,0.426-0.035,0.639-0.053c0.134-3.145,0.354-6.289,0.369-9.434
				c0.008-1.77,0.44-3.383,1.118-4.955c1.143-2.656,3.157-3.67,6.016-3.148c1.751,0.32,3.111,1.199,3.589,2.93
				c0.493,1.785,1.015,3.643,1.009,5.467c-0.02,7.309-0.214,14.617-0.394,21.926c-0.175,7.076-0.47,14.15-0.582,21.227
				c-0.028,1.803-0.634,2.799-2.263,3.592c-6.855,3.33-13.974,3.9-21.379,2.521c-3.477-0.646-6.727-1.85-9.898-3.355
				c-1.175-0.557-1.71-1.334-1.703-2.721c0.019-3.965-0.179-7.932-0.17-11.898c0.003-1.49-0.522-2.504-1.76-3.264
				c-2.783-1.709-5.538-3.461-8.317-5.176c-3.76-2.316-6.919-5.246-9.224-9.041c-2.544-4.189,0.538-7.365,3.727-8.686
				c1.56-0.647,3.227-0.674,4.772,0.078c1.809,0.879,3.568,1.863,5.32,2.854c1.195,0.676,2.34,1.443,3.962,2.451
				c0.005-2.523,0.069-4.576-0.002-6.625c-0.109-3.185-0.471-6.371-0.438-9.553c0.053-5.127,0.284-10.252,0.569-15.371
				c0.067-1.207,0.53-2.434,1.01-3.568c1.326-3.137,4.341-4.674,7.613-3.906c0.544,0.129,1.216,0.555,1.445,1.029
				c0.632,1.307,1.372,2.684,1.503,4.086c0.267,2.855,0.177,5.744,0.207,8.621c0.082,7.777,0.147,15.555,0.233,23.33
				c0.004,0.34,0.14,0.68,0.214,1.02C107.923,409.656,108.082,409.672,108.242,409.688z"/>
			<path style="fill-rule:evenodd;clip-rule:evenodd;fill:#FFE159;" d="M93.536,382.051c-4.045,1.623-8.193,1.539-12.429,0.232
				c-7.605-2.346-13.497-6.699-16.494-14.254c-0.928-2.34-1.505-4.943-1.626-7.455c-0.285-5.879,1.535-11.152,5.376-15.707
				c4.338-5.146,10.092-7.617,16.498-8.832c2.894-0.549,5.733,0.066,8.497,0.936c7.407,2.33,13.128,6.658,16.195,13.988
				c1.824,4.361,1.971,8.914,1.122,13.508c-0.598,3.236-1.744,5.658-3.384,7.484c-4.51-3.5-10.13-1.979-12.171,3.451
				C94.337,377.48,94.067,379.752,93.536,382.051z M84.088,346.25c-0.653,0.254-1.169,0.428-1.663,0.65
				c-4.945,2.221-5.816,8.666-1.537,12.039c1.316,1.037,2.95,1.676,4.446,2.48c0.886,0.477,1.838,0.844,2.667,1.4
				c1.41,0.945,1.923,2.148,1.503,3.336c-0.503,1.424-1.647,1.971-3.068,2.088c-1.744,0.143-3.394-0.188-4.974-0.932
				c-0.744-0.35-1.511-0.648-2.516-1.072c-0.612,1.65-1.135,3.057-1.637,4.41c2.018,2.037,4.523,2.043,6.773,2.578
				c0.577,2.76,1.423,3.199,4.316,2.25c0.063-0.725,0.128-1.482,0.197-2.279c2.754-0.887,4.809-2.564,6.062-5.127
				c1.682-3.438,0.85-6.674-2.372-8.68c-2.033-1.268-4.254-2.23-6.347-3.408c-1.519-0.854-2.011-1.93-1.631-3.244
				c0.401-1.385,1.58-1.711,2.757-1.668c1.293,0.051,2.59,0.342,3.855,0.65c1.652,0.402,1.965,0.305,2.695-1.266
				c0.131-0.281,0.256-0.566,0.37-0.855c0.694-1.764,0.468-2.33-1.402-2.873c-1.248-0.361-2.555-0.514-3.797-0.752
				c-0.581-2.309-0.671-2.406-2.187-2.393C84.807,343.598,84.553,343.859,84.088,346.25z"/>
			<path style="fill-rule:evenodd;clip-rule:evenodd;fill:#FBA93D;" d="M93.794,383.213c-0.083,1.916-0.16,3.666-0.239,5.467
				c-3.205,1.248-6.363,1.371-9.54,0.865c-5.296-0.844-10.255-2.791-14.657-5.758c-6.937-4.676-11.333-11.199-12.652-19.578
				c-1.412-8.971,0.835-16.922,6.78-23.828c5.913-6.869,13.712-10.041,22.411-11.195c4.246-0.564,8.313,0.881,12.232,2.426
				c2.018,0.795,3.959,1.813,5.867,2.855c4.725,2.586,8.039,6.592,10.629,11.18c4.144,7.338,4.313,15.205,2.068,23.055
				c-1.283,4.486-3.918,8.41-7.824,11.881c-0.115-1.475,0.027-2.684-0.334-3.715c-0.911-2.6,0.041-4.652,1.202-6.934
				c3.861-7.594,3.315-18.869-3.738-26.287c-5.49-5.774-12.22-9.072-20.148-8.475c-10.688,0.805-19.602,6.926-22.866,17.691
				c-2.448,8.076-0.742,15.539,4.669,22.072c4.564,5.514,10.71,8.098,17.573,9.143c1.723,0.262,3.552-0.109,5.324-0.273
				C91.538,383.715,92.509,383.455,93.794,383.213z"/>
			<path style="fill-rule:evenodd;clip-rule:evenodd;" d="M84.088,346.25c0.464-2.391,0.718-2.652,2.512-2.666
				c1.515-0.014,1.605,0.084,2.187,2.393c1.243,0.238,2.55,0.391,3.797,0.752c1.87,0.543,2.096,1.109,1.402,2.873
				c-0.114,0.289-0.239,0.574-0.37,0.855c-0.73,1.57-1.043,1.668-2.695,1.266c-1.265-0.309-2.562-0.6-3.855-0.65
				c-1.177-0.043-2.356,0.283-2.757,1.668c-0.38,1.314,0.112,2.391,1.631,3.244c2.093,1.178,4.313,2.141,6.347,3.408
				c3.222,2.006,4.054,5.242,2.372,8.68c-1.253,2.563-3.308,4.24-6.062,5.127c-0.069,0.797-0.135,1.555-0.197,2.279
				c-2.893,0.949-3.739,0.51-4.316-2.25c-2.251-0.535-4.755-0.541-6.773-2.578c0.502-1.353,1.024-2.76,1.637-4.41
				c1.004,0.424,1.772,0.723,2.516,1.072c1.58,0.744,3.23,1.074,4.974,0.932c1.421-0.117,2.565-0.664,3.068-2.088
				c0.42-1.188-0.093-2.391-1.503-3.336c-0.829-0.557-1.782-0.924-2.667-1.4c-1.496-0.805-3.13-1.443-4.446-2.48
				c-4.279-3.373-3.408-9.818,1.537-12.039C82.92,346.678,83.436,346.504,84.088,346.25z M78.195,370.435
				c2.044,1.748,4.622,1.479,6.82,2.246c0.117,0.793,0.216,1.467,0.341,2.301c0.777,0,1.493,0,2.213,0
				c0.069-0.9,0.129-1.662,0.189-2.455c3.154-0.744,5.386-2.529,6.445-5.549c1.087-3.094,0.101-5.625-2.201-6.875
				c-1.634-0.885-3.287-1.738-4.908-2.644c-0.942-0.527-1.919-1.039-2.74-1.725c-0.974-0.815-1.202-2.002-0.864-3.199
				c0.348-1.23,1.274-2.039,2.532-2.078c1.527-0.049,3.064,0.152,4.593,0.295c0.583,0.057,1.152,0.258,1.84,0.418
				c0.459-1.107,0.856-2.064,1.264-3.049c-0.541-0.279-0.797-0.484-1.085-0.547c-1.506-0.33-3.019-0.623-4.627-0.947
				c-0.163-0.697-0.33-1.42-0.521-2.24c-0.812,0.057-1.483,0.105-2.249,0.16c0.023,1.688-0.713,2.471-2.264,3.051
				c-4.341,1.621-5.482,7.047-2.159,10.291c1.232,1.201,2.966,1.902,4.506,2.771c1.143,0.641,2.412,1.078,3.498,1.797
				c1.254,0.83,1.797,2.123,1.532,3.648c-0.256,1.477-1.285,2.387-2.634,2.633c-1.336,0.242-2.776,0.277-4.111,0.051
				c-1.415-0.24-2.759-0.895-4.29-1.422C78.935,368.41,78.572,369.402,78.195,370.435z"/>
			<path style="fill-rule:evenodd;clip-rule:evenodd;fill:#FBA93D;" d="M78.195,370.435c0.377-1.033,0.74-2.025,1.121-3.068
				c1.531,0.527,2.875,1.182,4.29,1.422c1.335,0.227,2.775,0.191,4.111-0.051c1.35-0.246,2.378-1.156,2.634-2.633
				c0.265-1.525-0.278-2.818-1.532-3.648c-1.086-0.719-2.355-1.156-3.498-1.797c-1.54-0.869-3.273-1.57-4.506-2.771
				c-3.324-3.244-2.183-8.67,2.159-10.291c1.55-0.58,2.287-1.363,2.264-3.051c0.766-0.055,1.437-0.104,2.249-0.16
				c0.191,0.82,0.359,1.543,0.521,2.24c1.608,0.324,3.121,0.617,4.627,0.947c0.288,0.063,0.544,0.268,1.085,0.547
				c-0.408,0.984-0.805,1.941-1.264,3.049c-0.688-0.16-1.257-0.361-1.84-0.418c-1.529-0.143-3.066-0.344-4.593-0.295
				c-1.258,0.039-2.184,0.848-2.532,2.078c-0.338,1.197-0.11,2.385,0.864,3.199c0.821,0.685,1.797,1.197,2.74,1.725
				c1.621,0.906,3.274,1.76,4.908,2.644c2.302,1.25,3.288,3.781,2.201,6.875c-1.059,3.02-3.29,4.805-6.445,5.549
				c-0.06,0.793-0.12,1.555-0.189,2.455c-0.721,0-1.436,0-2.213,0c-0.124-0.834-0.224-1.508-0.341-2.301
				C82.816,371.914,80.239,372.184,78.195,370.435z"/>
		</g>
	</g>
	<g id="_x38_">
		<g>
			<path style="fill-rule:evenodd;clip-rule:evenodd;" d="M292.723,390.286c0,15.871-0.013,31.744,0.016,47.617
				c0.004,1.828-0.288,3.545-1.057,5.201c-1.22,2.625-3.158,4.484-5.993,5.1c-2.419,0.525-4.905,0.967-7.371,1.021
				c-9.488,0.201-18.979,0.285-28.47,0.305c-6.066,0.014-12.136-0.096-18.199-0.291c-2.396-0.078-4.792-0.457-7.165-0.842
				c-4.795-0.779-7.458-4.941-7.809-9.244c-0.138-1.701-0.083-3.422-0.082-5.133c0.013-29.488,0.026-58.977,0.061-88.467
				c0.002-1.939,0.021-3.904,0.311-5.814c0.699-4.623,3.409-7.426,8.007-8.195c2.751-0.461,5.556-0.805,8.34-0.82
				c14.235-0.08,28.471-0.076,42.707-0.002c2.707,0.014,5.42,0.406,8.114,0.756c5.397,0.699,8.265,4.662,8.524,9.789
				c0.09,1.785,0.051,3.578,0.052,5.369c0.003,14.551,0.002,29.1,0.002,43.65C292.715,390.286,292.719,390.286,292.723,390.286z
				 M217.843,389.968c0.02,0,0.04,0,0.061,0c0,13.924-0.003,27.848,0.002,41.771c0.001,2.412-0.058,4.826,0.076,7.23
				c0.256,4.645,2.755,7.512,7.285,8.381c1.979,0.379,3.997,0.73,6.003,0.775c7.231,0.164,14.465,0.258,21.697,0.258
				c7.932-0.002,15.864-0.086,23.794-0.248c2.397-0.049,4.791-0.434,7.176-0.736c4.61-0.586,7.193-3.926,7.451-8.219
				c0.144-2.404,0.157-4.816,0.16-7.225c0.035-28.082,0.063-56.162,0.072-84.242c0.001-2.33-0.041-4.672-0.251-6.99
				c-0.408-4.518-2.713-7.102-7.108-8.033c-1.667-0.353-3.377-0.642-5.075-0.688c-7.617-0.195-15.236-0.396-22.854-0.4
				c-8.164-0.004-16.327,0.176-24.489,0.355c-2.089,0.047-4.196,0.264-6.253,0.635c-4.893,0.881-7.41,3.846-7.63,8.842
				c-0.096,2.174-0.11,4.353-0.111,6.531C217.838,361.966,217.843,375.968,217.843,389.968z"/>
			<path style="fill-rule:evenodd;clip-rule:evenodd;fill:#4E616F;" d="M217.843,389.968c0-14-0.005-28.002,0.005-42.002
				c0.001-2.178,0.015-4.357,0.111-6.531c0.221-4.996,2.737-7.961,7.63-8.842c2.057-0.371,4.163-0.588,6.253-0.635
				c8.162-0.18,16.325-0.359,24.489-0.355c7.618,0.004,15.237,0.205,22.854,0.4c1.698,0.045,3.408,0.334,5.075,0.688
				c4.396,0.932,6.7,3.516,7.108,8.033c0.21,2.318,0.252,4.66,0.251,6.99c-0.009,28.08-0.037,56.16-0.072,84.242
				c-0.003,2.408-0.017,4.82-0.16,7.225c-0.258,4.293-2.841,7.633-7.451,8.219c-2.385,0.303-4.779,0.688-7.176,0.736
				c-7.93,0.162-15.862,0.246-23.794,0.248c-7.232,0-14.466-0.094-21.697-0.258c-2.006-0.045-4.023-0.397-6.003-0.775
				c-4.53-0.869-7.028-3.736-7.285-8.381c-0.134-2.404-0.074-4.818-0.076-7.23c-0.005-13.924-0.002-27.848-0.002-41.771
				C217.883,389.968,217.863,389.968,217.843,389.968z M287.048,385.909c-0.003,0-0.006,0-0.009,0
				c0-11.516,0.001-23.029-0.001-34.545c-0.001-1.166,0.03-2.338-0.038-3.502c-0.242-4.123-2.485-6.848-6.544-7.666
				c-2.122-0.428-4.314-0.695-6.476-0.705c-12.601-0.064-25.202-0.08-37.803,0.01c-2.465,0.018-4.963,0.398-7.379,0.924
				c-2.708,0.588-4.505,2.428-5.223,5.119c-0.336,1.258-0.467,2.604-0.47,3.91c-0.042,15.018-0.048,30.033-0.052,45.049
				c-0.002,9.648-0.014,19.297,0.031,28.943c0.02,4.262,2.499,7.256,6.686,8.004c2.287,0.406,4.627,0.705,6.946,0.717
				c12.213,0.07,24.427,0.061,36.641,0.006c2.089-0.008,4.175-0.363,6.263-0.559c5.009-0.467,7.521-4.715,7.477-8.826
				C286.964,410.497,287.048,398.202,287.048,385.909z M254.798,445.403c3.096,0.047,5.368-2.07,5.475-5.094
				c0.105-3.031-2.169-5.432-5.136-5.42c-3.109,0.014-5.845,2.395-5.891,5.127C249.189,443.452,251.145,445.353,254.798,445.403z"/>
			<path style="fill-rule:evenodd;clip-rule:evenodd;" d="M287.048,385.909c0,12.293-0.084,24.588,0.049,36.879
				c0.044,4.111-2.468,8.359-7.477,8.826c-2.088,0.195-4.174,0.551-6.263,0.559c-12.214,0.055-24.428,0.064-36.641-0.006
				c-2.319-0.012-4.659-0.311-6.946-0.717c-4.188-0.748-6.666-3.742-6.686-8.004c-0.045-9.646-0.033-19.295-0.031-28.943
				c0.004-15.016,0.01-30.031,0.052-45.049c0.003-1.307,0.135-2.652,0.47-3.91c0.717-2.691,2.515-4.531,5.223-5.119
				c2.416-0.525,4.915-0.906,7.379-0.924c12.601-0.09,25.202-0.074,37.803-0.01c2.162,0.01,4.354,0.277,6.476,0.705
				c4.059,0.818,6.302,3.543,6.544,7.666c0.068,1.164,0.037,2.336,0.038,3.502c0.002,11.516,0.001,23.029,0.001,34.545
				C287.042,385.909,287.045,385.909,287.048,385.909z M285.925,385.899c0.024,0,0.05,0,0.075,0c0-10.891,0.011-21.779-0.01-32.67
				c-0.004-1.941-0.049-3.893-0.236-5.822c-0.327-3.385-2.159-5.443-5.475-6.063c-2.055-0.383-4.161-0.676-6.245-0.685
				c-12.676-0.063-25.353-0.063-38.029,0c-2.084,0.012-4.19,0.31-6.244,0.699c-3.195,0.604-5.046,2.66-5.383,5.893
				c-0.202,1.928-0.255,3.881-0.254,5.82c0.012,21.703,0.043,43.406,0.086,65.107c0.004,2.176-0.026,4.367,0.22,6.52
				c0.322,2.813,1.955,4.738,4.742,5.412c1.803,0.435,3.67,0.773,5.518,0.828c6.295,0.185,12.595,0.305,18.893,0.305
				c6.92,0,13.841-0.094,20.757-0.283c2.235-0.061,4.497-0.383,6.679-0.881c2.685-0.613,4.211-2.52,4.668-5.223
				c0.156-0.918,0.228-1.857,0.23-2.787C285.929,410.013,285.925,397.956,285.925,385.899z"/>
			<path style="fill-rule:evenodd;clip-rule:evenodd;" d="M254.798,445.403c-3.652-0.051-5.609-1.951-5.552-5.387
				c0.046-2.732,2.782-5.113,5.891-5.127c2.967-0.012,5.241,2.389,5.136,5.42C260.166,443.333,257.894,445.45,254.798,445.403z
				 M254.668,444.034c1.969,0.389,4.314-1.545,4.297-3.836c-0.015-2.168-1.571-3.914-3.668-3.998
				c-2.392-0.094-4.77,1.756-4.789,3.725C250.482,442.618,251.855,443.976,254.668,444.034z"/>
			<path style="fill-rule:evenodd;clip-rule:evenodd;fill:#F0F0F0;" d="M285.925,385.899c0,12.057,0.004,24.113-0.01,36.17
				c-0.002,0.93-0.074,1.869-0.23,2.787c-0.457,2.703-1.983,4.609-4.668,5.223c-2.182,0.498-4.443,0.82-6.679,0.881
				c-6.916,0.189-13.837,0.283-20.757,0.283c-6.298,0-12.597-0.119-18.893-0.305c-1.848-0.055-3.714-0.393-5.518-0.828
				c-2.787-0.674-4.42-2.6-4.742-5.412c-0.246-2.152-0.216-4.344-0.22-6.52c-0.043-21.701-0.073-43.404-0.086-65.107
				c-0.001-1.939,0.052-3.893,0.254-5.82c0.337-3.232,2.188-5.289,5.383-5.893c2.054-0.389,4.16-0.688,6.244-0.699
				c12.677-0.063,25.354-0.063,38.029,0c2.084,0.01,4.19,0.303,6.245,0.685c3.315,0.619,5.147,2.678,5.475,6.063
				c0.188,1.93,0.232,3.881,0.236,5.822c0.02,10.891,0.01,21.779,0.01,32.67C285.975,385.899,285.949,385.899,285.925,385.899z
				 M235.43,421.022c2.521,0.846,36.653,1.592,40.842,0.885c0.201-24.078,0.918-48.203,0.297-72.498
				c-13.649-0.221-27.109-0.438-40.604-0.658C235.787,373.026,235.609,396.956,235.43,421.022z"/>
			<path style="fill-rule:evenodd;clip-rule:evenodd;fill:#4E616F;" d="M254.668,444.034c-2.813-0.059-4.186-1.416-4.16-4.109
				c0.02-1.969,2.397-3.818,4.789-3.725c2.097,0.084,3.653,1.83,3.668,3.998C258.982,442.489,256.637,444.423,254.668,444.034z"/>
			<path style="fill-rule:evenodd;clip-rule:evenodd;" d="M235.43,421.022c0.179-24.066,0.356-47.996,0.536-72.271
				c13.494,0.221,26.954,0.438,40.604,0.658c0.621,24.295-0.096,48.42-0.297,72.498C272.083,422.614,237.951,421.868,235.43,421.022
				z M275.677,350.403c-13.014-0.219-25.874-0.438-38.746-0.654c-0.146,23.652-0.288,47.107-0.433,70.738
				c12.94,0.504,25.726,0.795,38.771,0.637C275.435,397.497,276.142,374.052,275.677,350.403z"/>
			<path style="fill-rule:evenodd;clip-rule:evenodd;fill:#6B9B64;" d="M275.677,350.403c0.465,23.648-0.241,47.094-0.408,70.721
				c-13.045,0.158-25.83-0.133-38.771-0.637c0.146-23.631,0.288-47.086,0.433-70.738
				C249.803,349.966,262.663,350.185,275.677,350.403z M273.327,358.765c-2.267-0.506-4.17-1.199-5.045-3.107
				c-0.696-1.518-1.783-1.691-3.189-1.68c-5.989,0.055-11.98,0.057-17.97,0.088c-0.457,0.002-0.914,0.076-1.411,0.121
				c-1.167,2.355-3.03,3.897-5.409,4.74c-0.324,17.688-0.645,35.242-0.971,53.025c2.955,0.406,4.867,1.963,5.89,4.508
				c0.64,0.1,1.174,0.252,1.708,0.254c6.301,0.029,12.602,0.053,18.902,0.008c0.508-0.004,1.243-0.397,1.478-0.824
				c1.151-2.102,2.96-3.334,5.099-4.145C272.714,394.12,273.018,376.565,273.327,358.765z"/>
			<path style="fill-rule:evenodd;clip-rule:evenodd;" d="M273.327,358.765c-0.31,17.801-0.613,35.355-0.919,52.988
				c-2.139,0.811-3.947,2.043-5.099,4.145c-0.234,0.428-0.97,0.82-1.478,0.824c-6.301,0.045-12.602,0.021-18.902-0.008
				c-0.534-0.002-1.068-0.154-1.708-0.254c-1.023-2.545-2.935-4.102-5.89-4.508c0.326-17.783,0.646-35.338,0.971-53.025
				c2.379-0.844,4.243-2.385,5.409-4.74c0.497-0.045,0.954-0.119,1.411-0.121c5.991-0.031,11.981-0.033,17.97-0.088
				c1.406-0.012,2.493,0.162,3.189,1.68C269.157,357.565,271.06,358.259,273.327,358.765z M266.993,354.993
				c-6.98,0-13.734,0-19.841,0c-2.244,1.912-4.047,3.447-6.016,5.127c-0.288,16.756-0.583,33.857-0.879,51.086
				c2.454,0.506,4.098,1.783,5.165,3.861c0.217,0.42,0.968,0.797,1.476,0.803c6.373,0.053,12.749,0.035,19.162,0.035
				c1.307-2.275,3.061-3.955,5.588-4.871c-0.172-17.193,0.786-34.35,0.688-51.672C269.565,358.952,268.032,357.278,266.993,354.993z
				"/>
			<path style="fill-rule:evenodd;clip-rule:evenodd;fill:#CAE093;" d="M266.993,354.993c1.039,2.285,2.572,3.959,5.343,4.369
				c0.098,17.322-0.86,34.478-0.688,51.672c-2.526,0.916-4.281,2.596-5.588,4.871c-6.413,0-12.789,0.018-19.162-0.035
				c-0.507-0.006-1.259-0.383-1.476-0.803c-1.067-2.078-2.711-3.355-5.165-3.861c0.296-17.229,0.591-34.33,0.879-51.086
				c1.969-1.68,3.772-3.215,6.016-5.127C253.259,354.993,260.013,354.993,266.993,354.993z M256.12,394.599
				c4.886-0.066,8.368-2.553,9.161-6.963c0.563-3.133,0.388-6.359-2.156-8.67c-3.242-2.943-7.109-3.244-11.118-1.728
				c-3.957,1.496-5.106,4.768-5.035,8.603c0.081,4.408,2.033,7.012,6.402,8.315C254.256,394.417,255.202,394.456,256.12,394.599z"/>
			<path style="fill-rule:evenodd;clip-rule:evenodd;" d="M256.12,394.599c-0.918-0.143-1.864-0.182-2.746-0.443
				c-4.37-1.303-6.321-3.906-6.402-8.315c-0.071-3.836,1.078-7.107,5.035-8.603c4.009-1.516,7.876-1.215,11.118,1.728
				c2.544,2.311,2.72,5.537,2.156,8.67C264.488,392.046,261.006,394.532,256.12,394.599z M264.383,385.573
				c-0.115-5.256-3.196-8.406-8.286-8.178c-4.596,0.209-8.279,2.338-8.041,8.672c0.178,4.75,3.319,7.535,8.532,7.435
				C261.467,393.409,264.486,390.337,264.383,385.573z"/>
			<path style="fill-rule:evenodd;clip-rule:evenodd;fill:#6B9B64;" d="M264.383,385.573c0.104,4.764-2.916,7.836-7.795,7.93
				c-5.213,0.1-8.354-2.685-8.532-7.435c-0.238-6.334,3.445-8.463,8.041-8.672C261.186,377.167,264.268,380.317,264.383,385.573z"/>
		</g>
	</g>
	<g id="_x39_">
		<g>
			<path style="fill-rule:evenodd;clip-rule:evenodd;" d="M471.08,355.318c0.672,14.818,0.13,29.475-0.422,44.416
				c-18.717,0.41-37.415,0.088-56.263,0.246c0,0.777-0.017,1.307,0.006,1.832c0.02,0.453,0.086,0.904,0.148,1.522
				c2.655,0,5.186,0,8.012,0c0.125,1.82,0.237,3.476,0.358,5.25c1.605,0,3.137,0.066,4.66-0.016c1.983-0.107,2.147-0.057,2.43,1.852
				c0.205,1.383,0.328,2.775,0.506,4.311c2.225,0.647,4.563-0.004,7.139,0.324c0.117,0.842,0.3,1.719,0.355,2.605
				c0.354,5.664,0.68,11.33,1.016,16.996c0.02,0.31,0.056,0.619,0.068,0.93c0.123,2.932-0.142,3.285-2.922,3.949
				c-0.298,0.07-0.588,0.18-1.063,0.326c0,1.363,0,2.742,0,4.309c-1.032,0.176-1.907,0.324-3.091,0.525c0,1.98,0,3.961,0,6.008
				c-0.837,0.082-1.361,0.18-1.886,0.18c-4.899,0.01-9.801,0.01-14.702,0.002c-3.405-0.006-3.444-0.051-3.708-3.521
				c-0.023-0.301-0.092-0.598-0.151-0.98c-0.328-0.074-0.615-0.203-0.902-0.197c-1.304,0.02-1.73-0.721-1.852-1.896
				c-0.143-1.379-0.414-2.746-0.647-4.227c-1.225-0.139-2.438-0.277-3.772-0.432c-0.183-1.045-0.353-2.02-0.549-3.143
				c-0.667-0.18-1.392-0.373-2.111-0.566c-3.435-6.828-7.241-13.471-10.339-20.785c0.876-0.139,1.449-0.303,2.022-0.307
				c2.1-0.016,4.202,0.088,6.299,0.012c1.176-0.041,1.867,0.402,2.417,1.397c0.638,1.15,1.404,2.228,2.14,3.377
				c0.679-1.693,0.412-14.811-0.357-19.291c-9.153,0-18.304,0.051-27.452-0.016c-9.17-0.066-18.339-0.25-27.855-0.387
				c0.194-14.52,0.386-29.002,0.583-43.797c0.794,0,1.54-0.002,2.286,0c10.733,0.039,21.468,0.158,32.2,0.1
				c25.823-0.139,51.647-0.35,77.469-0.559c2.486-0.019,4.971-0.236,7.456-0.342C469.366,355.291,470.131,355.318,471.08,355.318z
				 M404.218,398.994c0-2.064-0.04-3.764,0.011-5.461c0.051-1.68-0.044-3.398,0.782-5.145c2.168,0,4.258-0.022,6.348,0.008
				c1.557,0.021,1.841,0.297,2.095,1.873c0.074,0.459,0.068,0.93,0.117,1.395c0.243,2.299,0.492,4.596,0.732,6.832
				c3.806,0.547,53.008,0.26,55.245-0.305c0.65-13.85,0.805-27.719,0.487-41.342c-40.11,0.143-79.912,0.283-119.783,0.424
				c-0.179,13.916-0.356,27.775-0.534,41.721C367.89,398.994,385.838,398.994,404.218,398.994z M392.899,415.947
				c3.288,6.48,6.465,12.744,9.674,19.066c3.061-0.5,2.255,2.072,2.791,3.613c1.396,0.09,2.675,0.172,3.936,0.254
				c0.294,2.145,0.552,4.035,0.794,5.805c2.757,0.65,2.748,0.65,2.925,3.274c0.035,0.516,0.176,1.023,0.271,1.553
				c5.851,0,11.567,0,17.557,0c0-2.049,0-3.957,0-5.945c1.142-0.168,2.029-0.299,2.802-0.412c0.14-0.191,0.221-0.252,0.225-0.314
				c0.046-0.775,0.083-1.549,0.118-2.324c0.082-1.855,0.167-1.941,1.966-2.174c0.728-0.094,1.45-0.23,2.056-0.328
				c-0.519-7.393-1.018-14.492-1.514-21.572c-1.996,0-3.9,0-5.854,0c-0.405,2.309,0.391,4.555-0.55,6.711
				c-1.124-4.326-0.404-8.865-1.487-13.18c-1.937,0-3.762,0-5.534,0c0,3.324,0.001,6.492-0.001,9.66c0,0.881,0.398,1.842-0.68,2.801
				c-1.201-5.939-0.726-11.766-0.982-17.566c-2.389,0-4.588,0-6.93,0c0,0.934-0.02,1.703,0.004,2.471
				c0.102,3.42,0.235,6.84,0.311,10.262c0.017,0.775,0.324,1.668-0.72,2.592c-1.526-10.268-0.266-20.445-2.033-30.406
				c-2.149,0-4.198,0-6.338,0c-0.07,0.703-0.167,1.232-0.17,1.764c-0.022,4.666-0.083,9.334-0.02,14
				c0.064,4.742,0.277,9.483,0.374,14.225c0.019,0.943,0.193,2.033-1.104,2.793c-1.425-2.248-2.818-4.447-4.194-6.619
				C398.05,415.947,395.663,415.947,392.899,415.947z"/>
			<path style="fill-rule:evenodd;clip-rule:evenodd;fill:#CAE093;" d="M404.218,398.994c-18.38,0-36.328,0-54.5,0
				c0.179-13.945,0.355-27.805,0.534-41.721c39.871-0.141,79.673-0.281,119.783-0.424c0.317,13.623,0.163,27.492-0.487,41.342
				c-2.237,0.564-51.439,0.852-55.245,0.305c-0.24-2.236-0.489-4.533-0.732-6.832c-0.049-0.465-0.043-0.936-0.117-1.395
				c-0.254-1.576-0.538-1.852-2.095-1.873c-2.09-0.029-4.18-0.008-6.348-0.008c-0.826,1.746-0.731,3.465-0.782,5.145
				C404.178,395.23,404.218,396.93,404.218,398.994z"/>
			<path style="fill-rule:evenodd;clip-rule:evenodd;fill:#FFFFFF;" d="M392.899,415.947c2.764,0,5.15,0,7.693,0
				c1.376,2.172,2.77,4.371,4.194,6.619c1.297-0.76,1.122-1.85,1.104-2.793c-0.097-4.742-0.31-9.482-0.374-14.225
				c-0.064-4.666-0.002-9.334,0.02-14c0.003-0.531,0.1-1.06,0.17-1.764c2.14,0,4.188,0,6.338,0
				c1.768,9.961,0.507,20.139,2.033,30.406c1.044-0.924,0.736-1.816,0.72-2.592c-0.076-3.422-0.21-6.842-0.311-10.262
				c-0.023-0.768-0.004-1.537-0.004-2.471c2.342,0,4.541,0,6.93,0c0.257,5.801-0.219,11.627,0.982,17.566
				c1.077-0.959,0.68-1.92,0.68-2.801c0.002-3.168,0.001-6.336,0.001-9.66c1.772,0,3.598,0,5.534,0
				c1.083,4.314,0.363,8.854,1.487,13.18c0.94-2.156,0.145-4.402,0.55-6.711c1.953,0,3.857,0,5.854,0
				c0.496,7.08,0.995,14.18,1.514,21.572c-0.605,0.098-1.328,0.234-2.056,0.328c-1.799,0.232-1.884,0.318-1.966,2.174
				c-0.035,0.775-0.072,1.549-0.118,2.324c-0.004,0.063-0.085,0.123-0.225,0.314c-0.772,0.113-1.66,0.244-2.802,0.412
				c0,1.988,0,3.896,0,5.945c-5.989,0-11.706,0-17.557,0c-0.096-0.529-0.236-1.037-0.271-1.553
				c-0.177-2.623-0.168-2.623-2.925-3.274c-0.242-1.77-0.5-3.66-0.794-5.805c-1.261-0.082-2.54-0.164-3.936-0.254
				c-0.536-1.541,0.27-4.113-2.791-3.613C399.364,428.691,396.188,422.428,392.899,415.947z"/>
		</g>
		<g>
			<polygon style="fill-rule:evenodd;clip-rule:evenodd;fill:none;" points="469.502,388.468 354.815,388.468 354.815,367.93 
				470.532,367.376 			"/>
			<text transform="matrix(1 0 0 1 362.1602 382.3507)" style="font-family:'Quicksand-Bold'; font-size:21.3902px;">PAYMENT </text>
		</g>
	</g>
</g>
</svg>