<?xml version="1.0" encoding="utf-8"?>
<!-- Generator: Adobe Illustrator 27.5.0, SVG Export Plug-In . SVG Version: 6.00 Build 0)  -->
<svg version="1.1" xmlns="http://www.w3.org/2000/svg" xmlns:xlink="http://www.w3.org/1999/xlink"
	x="0px" y="0px"
	viewBox="0 0 500 500" style="enable-background:new 0 0 500 500;" xml:space="preserve">
<g id="BACKGROUND">
	<rect x="0.079" style="fill:#0000;" width="500" height="500"/>
</g>
<g id="OBJECTS">
	<g>
		<g>
			<path style="fill:#EFAC37;" d="M414.787,212.523c-3.316-9.555-9.45-18.005-18.272-23.483
				c-28.213-17.518-72.724-9.897-83.175,25.777c-9.124,31.141,12.962,64.19,44.467,65.743c17.325,0.854,36.451-4.703,48.334-18.366
				C417.843,248.739,420.502,228.991,414.787,212.523z"/>
			<g>
				<path style="fill:#FCC772;" d="M373.584,180.63c-3.708-0.564-7.485-0.805-11.228-0.713c-1.156,0.029-2.07,0.989-2.042,2.145
					c0.028,1.156,0.955,2.071,2.144,2.042c3.495-0.087,7.028,0.137,10.496,0.666c0.106,0.016,0.213,0.024,0.318,0.024
					c1.017,0,1.909-0.743,2.067-1.779C375.513,181.872,374.727,180.804,373.584,180.63z"/>
				<path style="fill:#FCC772;" d="M414.777,212.54c-3.531-10.179-9.902-18.357-18.424-23.648c-2.93-1.82-6.095-3.4-9.405-4.695
					c-1.077-0.421-2.291,0.11-2.712,1.187c-0.421,1.077,0.109,2.292,1.187,2.713c3.072,1.203,6.007,2.667,8.722,4.354
					c7.696,4.778,13.462,12.2,16.676,21.463c4.587,13.216,3.13,28.546-3.801,40.008c-0.599,0.99-0.282,2.277,0.708,2.876
					c0.339,0.205,0.713,0.303,1.082,0.303c0.708,0,1.401-0.36,1.793-1.011C418.275,243.399,419.835,227.119,414.777,212.54z"/>
			</g>
			<path style="fill:#E5931C;" d="M402.791,216.767c-2.525-7.276-7.197-13.712-13.915-17.884
				c-21.486-13.341-55.384-7.537-63.344,19.63c-6.948,23.716,9.872,48.885,33.865,50.068c13.194,0.65,27.76-3.582,36.81-13.987
				C405.118,244.348,407.143,229.309,402.791,216.767z"/>
			<rect x="363.919" y="163.369" style="fill:#FFFFFF;" width="1" height="7.945"/>
			<rect x="358.6" y="167.341" style="fill:#FFFFFF;" width="1" height="7.945"/>
			<rect x="369.149" y="168.5" style="fill:#FFFFFF;" width="1" height="5.627"/>
			<path style="fill:#FCC772;" d="M378.273,228.064c3.162-2.642,4.744-5.437,4.744-8.384c0-3.942-1.105-6.867-3.315-8.774
				c-0.997-0.866-2.654-1.614-4.972-2.242c-0.102-0.028-0.222-0.051-0.329-0.078l-0.219-5.384l-6.706,0.517l-0.363,4.061
				c-1.059-0.037-2.2-0.056-3.418-0.057l-0.184-4.521l-6.706,0.517l-0.358,4.003h-7.616l-0.65,5.394
				c0.606,0.824,1.797,1.56,3.575,2.21v29.7c-1.82,0.694-3.012,1.409-3.575,2.145l0.65,5.394h7.649l0.324,3.626l6.706,0.517
				l0.168-4.143h3.473l0.325,3.626l6.706,0.517l0.207-5.088c2.275-0.584,4.173-1.423,5.671-2.532
				c2.837-2.101,4.256-5.318,4.256-9.651C384.317,233.892,382.302,230.101,378.273,228.064z M369.174,215.066
				c1.083,0.174,2.036,0.673,2.86,1.495c0.822,0.824,1.235,2.047,1.235,3.672c0,1.624-0.585,3.001-1.755,4.127
				c-1.169,1.127-2.859,1.69-5.069,1.69h-5.33v-11.243h3.38C366.531,214.807,368.09,214.894,369.174,215.066z M372.294,244.182
				c-1.518,0.867-3.748,1.3-6.695,1.3h-4.484v-12.348h5.784c2.729,0,4.689,0.499,5.882,1.495c1.192,0.997,1.787,2.622,1.787,4.875
				C374.568,241.756,373.81,243.316,372.294,244.182z"/>
			<path style="fill:#D16D00;" d="M362.125,269.148c-0.914,0-1.83-0.022-2.752-0.068c-11.189-0.552-21.518-6.366-28.336-15.951
				c-7.277-10.231-9.459-22.899-5.984-34.757c4.042-13.796,15.084-23.305,30.294-26.09l0.18,0.983
				c-14.824,2.715-25.582,11.968-29.515,25.388c-3.387,11.561-1.258,23.916,5.841,33.895c6.64,9.335,16.689,14.996,27.569,15.532
				c14.646,0.727,28.256-4.442,36.408-13.815c4.031-4.634,6.796-10.484,7.995-16.918l0.982,0.184
				c-1.231,6.608-4.075,12.622-8.224,17.391C388.748,263.932,376.014,269.148,362.125,269.148z"/>
			<path style="fill:#FFFFFF;" d="M313.376,258.034c0.337,0,0.587,1.372,0.587,1.372s1.468,0.001,1.52,0.159
				c0.052,0.158-1.122,1.029-1.122,1.029s0.458,1.358,0.317,1.448c-0.142,0.09-1.302-0.706-1.302-0.706s-1.134,0.818-1.302,0.706
				c-0.169-0.112,0.243-1.421,0.243-1.421s-1.117-0.897-1.048-1.056c0.069-0.159,1.392-0.152,1.392-0.152
				S313.038,258.034,313.376,258.034z"/>
			<polygon style="fill:#FFFFFF;" points="388.075,264.325 390.26,272.388 399.013,274.573 390.26,276.757 388.075,282.66 
				385.891,276.757 379.988,274.573 385.891,272.388 			"/>
			<polygon style="fill:#FFFFFF;" points="397.86,186.542 399.627,193.064 406.707,194.831 399.627,196.597 397.86,201.372 
				396.093,196.597 391.319,194.831 396.093,193.064 			"/>
			<polygon style="fill:#FFFFFF;" points="373.543,283.273 374.604,287.19 378.857,288.252 374.604,289.313 373.543,292.181 
				372.481,289.313 369.613,288.252 372.481,287.19 			"/>
		</g>
		<g>
			<path style="fill:#7DB6F9;" d="M339.985,442.957H163.67c-9.107,0-16.49-7.383-16.49-16.49V73.968
				c0-9.107,6.027-15.737,16.49-16.49c58.772-4.015,117.543-4.015,176.314,0c12.47,0.918,16.49,6.777,16.49,16.49v352.499
				C356.474,435.574,349.092,442.957,339.985,442.957z"/>
			<rect x="154.822" y="93.543" style="fill:#FFFFFF;" width="194.011" height="313.349"/>
			<rect x="154.359" y="93.543" style="fill:#162E4C;" width="1" height="313.349"/>
			<rect x="143.526" y="103.741" style="fill:#7DB6F9;" width="3.547" height="26.457"/>
			<rect x="143.526" y="138.032" style="fill:#7DB6F9;" width="3.547" height="26.457"/>
			<rect x="146.573" y="103.741" style="fill:#162E4C;" width="1" height="26.458"/>
			<rect x="146.573" y="138.032" style="fill:#162E4C;" width="1" height="26.458"/>
			<path style="fill:#162E4C;" d="M267.038,78.4h-30.421c-1.689,0-3.062-1.374-3.062-3.062s1.373-3.062,3.062-3.062h30.421
				c1.688,0,3.062,1.373,3.062,3.062S268.726,78.4,267.038,78.4z M236.617,73.276c-1.137,0-2.062,0.925-2.062,2.062
				s0.925,2.062,2.062,2.062h30.421c1.137,0,2.062-0.925,2.062-2.062s-0.925-2.062-2.062-2.062H236.617z"/>
			<path style="fill:#162E4C;" d="M256.997,434.933h-10.338c-2.887,0-5.234-2.348-5.234-5.234v-10.337
				c0-2.886,2.348-5.234,5.234-5.234h10.338c2.886,0,5.233,2.348,5.233,5.234v10.337
				C262.23,432.585,259.883,434.933,256.997,434.933z M246.659,415.127c-2.335,0-4.234,1.899-4.234,4.234v10.337
				c0,2.335,1.899,4.234,4.234,4.234h10.338c2.334,0,4.233-1.899,4.233-4.234v-10.337c0-2.335-1.899-4.234-4.233-4.234H246.659z"/>
		</g>
		<g>
			<path style="fill:#EFAC37;" d="M474.92,343.932c-3.316-9.555-9.45-18.005-18.272-23.483
				c-28.213-17.518-72.724-9.897-83.175,25.776c-9.124,31.141,12.962,64.19,44.467,65.743c17.325,0.854,36.451-4.703,48.334-18.366
				C477.976,380.149,480.635,360.401,474.92,343.932z"/>
			<g>
				<path style="fill:#FCC772;" d="M433.718,312.04c-3.708-0.564-7.485-0.805-11.228-0.713c-1.156,0.029-2.07,0.989-2.042,2.145
					c0.028,1.156,0.955,2.071,2.144,2.042c3.495-0.087,7.028,0.137,10.496,0.666c0.106,0.016,0.213,0.025,0.318,0.025
					c1.017,0,1.909-0.743,2.067-1.78C435.647,313.282,434.861,312.214,433.718,312.04z"/>
				<path style="fill:#FCC772;" d="M474.91,343.949c-3.531-10.179-9.902-18.357-18.424-23.648c-2.93-1.82-6.095-3.4-9.405-4.695
					c-1.077-0.421-2.291,0.11-2.713,1.186c-0.421,1.077,0.109,2.292,1.187,2.713c3.072,1.203,6.007,2.668,8.722,4.354
					c7.696,4.778,13.462,12.2,16.676,21.463c4.587,13.216,3.13,28.546-3.801,40.007c-0.599,0.99-0.282,2.277,0.707,2.876
					c0.339,0.205,0.713,0.303,1.082,0.303c0.709,0,1.401-0.36,1.793-1.011C478.409,374.809,479.969,358.529,474.91,343.949z"/>
			</g>
			<path style="fill:#E5931C;" d="M462.925,348.177c-2.525-7.276-7.197-13.712-13.915-17.884
				c-21.486-13.341-55.384-7.537-63.344,19.63c-6.948,23.716,9.872,48.885,33.865,50.068c13.194,0.65,27.76-3.582,36.81-13.987
				C465.252,375.758,467.277,360.719,462.925,348.177z"/>
			<rect x="424.052" y="294.778" style="fill:#FFFFFF;" width="1" height="7.945"/>
			<rect x="418.734" y="298.751" style="fill:#FFFFFF;" width="1" height="7.945"/>
			<rect x="429.283" y="299.91" style="fill:#FFFFFF;" width="1" height="5.627"/>
			<path style="fill:#FCC772;" d="M438.407,359.474c3.162-2.642,4.744-5.437,4.744-8.384c0-3.942-1.105-6.867-3.315-8.774
				c-0.997-0.866-2.654-1.614-4.972-2.242c-0.102-0.028-0.222-0.051-0.329-0.078l-0.219-5.384l-6.706,0.517l-0.363,4.061
				c-1.059-0.037-2.2-0.056-3.419-0.057l-0.184-4.521l-6.706,0.517l-0.358,4.003h-7.616l-0.65,5.394
				c0.606,0.823,1.797,1.56,3.575,2.21v29.7c-1.82,0.694-3.012,1.409-3.575,2.145l0.65,5.394h7.649l0.324,3.626l6.706,0.517
				l0.168-4.143h3.473l0.325,3.626l6.706,0.517l0.207-5.088c2.275-0.584,4.173-1.423,5.671-2.532
				c2.837-2.101,4.256-5.318,4.256-9.651C444.45,365.302,442.435,361.511,438.407,359.474z M429.308,346.476
				c1.082,0.174,2.036,0.672,2.859,1.495c0.822,0.824,1.235,2.047,1.235,3.672c0,1.624-0.585,3-1.755,4.127
				c-1.169,1.127-2.86,1.69-5.069,1.69h-5.329v-11.243h3.38C426.664,346.216,428.224,346.303,429.308,346.476z M432.427,375.592
				c-1.518,0.867-3.748,1.3-6.695,1.3h-4.484v-12.348h5.784c2.729,0,4.689,0.499,5.882,1.495c1.192,0.997,1.787,2.622,1.787,4.875
				C434.702,373.166,433.944,374.726,432.427,375.592z"/>
			<path style="fill:#D16D00;" d="M422.258,400.558c-0.914,0-1.83-0.022-2.752-0.068c-11.189-0.552-21.518-6.366-28.336-15.951
				c-7.277-10.231-9.459-22.9-5.984-34.757c4.041-13.795,15.082-23.305,30.293-26.09l0.18,0.983
				c-14.825,2.715-25.582,11.968-29.514,25.388c-3.387,11.561-1.259,23.917,5.841,33.896c6.64,9.334,16.689,14.996,27.569,15.532
				c14.642,0.727,28.256-4.442,36.408-13.815c4.03-4.634,6.795-10.484,7.995-16.918l0.982,0.184
				c-1.232,6.608-4.076,12.622-8.224,17.391C448.882,395.342,436.148,400.558,422.258,400.558z"/>
			<polygon style="fill:#FFFFFF;" points="462.138,318.118 464.323,326.181 473.076,328.366 464.323,330.55 462.138,336.453 
				459.954,330.55 454.051,328.366 459.954,326.181 			"/>
			<polygon style="fill:#FFFFFF;" points="389.49,394.109 391.207,400.45 398.091,402.168 391.207,403.885 389.49,408.527 
				387.772,403.885 383.13,402.168 387.772,400.45 			"/>
			<polygon style="fill:#FFFFFF;" points="370.725,379.832 371.758,383.647 375.901,384.681 371.758,385.715 370.725,388.508 
				369.691,385.715 366.897,384.681 369.691,383.647 			"/>
		</g>
		<g>
			<g>
				<path style="fill:#EFAC37;" d="M147.808,441.825c-4.344,1.291-90.168,1.713-94.605,0c-3.196-1.095-3.38-19.349,0-19.869
					c5.621-1.5,90.785-1.475,94.605,0C150.399,423.067,151.395,441.173,147.808,441.825z"/>
				<g>
					<rect x="57.368" y="425.099" style="fill:#D16D00;" width="1" height="13.598"/>
					<rect x="63.044" y="425.099" style="fill:#D16D00;" width="1" height="13.598"/>
					<rect x="68.719" y="425.099" style="fill:#D16D00;" width="1" height="13.598"/>
					<rect x="74.396" y="425.099" style="fill:#D16D00;" width="1" height="13.598"/>
					<rect x="80.072" y="425.099" style="fill:#D16D00;" width="1" height="13.598"/>
					<rect x="85.748" y="425.099" style="fill:#D16D00;" width="1" height="13.598"/>
					<rect x="91.424" y="425.099" style="fill:#D16D00;" width="1" height="13.598"/>
					<rect x="97.1" y="425.099" style="fill:#D16D00;" width="1" height="13.598"/>
					<rect x="102.776" y="425.099" style="fill:#D16D00;" width="1" height="13.598"/>
					<rect x="108.453" y="425.099" style="fill:#D16D00;" width="1" height="13.598"/>
					<rect x="114.129" y="425.099" style="fill:#D16D00;" width="1" height="13.598"/>
					<rect x="119.804" y="425.099" style="fill:#D16D00;" width="1" height="13.598"/>
					<rect x="125.481" y="425.099" style="fill:#D16D00;" width="1" height="13.598"/>
					<rect x="131.157" y="425.099" style="fill:#D16D00;" width="1" height="13.598"/>
					<rect x="136.834" y="425.099" style="fill:#D16D00;" width="1" height="13.598"/>
					<rect x="142.509" y="425.099" style="fill:#D16D00;" width="1" height="13.598"/>
				</g>
			</g>
			<g>
				<path style="fill:#EFAC37;" d="M249.496,441.825c-4.344,1.291-90.168,1.713-94.605,0c-3.196-1.095-3.38-19.349,0-19.869
					c5.621-1.5,90.785-1.475,94.605,0C252.087,423.067,253.082,441.173,249.496,441.825z"/>
				<g>
					<rect x="159.055" y="425.099" style="fill:#D16D00;" width="1" height="13.598"/>
					<rect x="164.731" y="425.099" style="fill:#D16D00;" width="1" height="13.598"/>
					<rect x="170.408" y="425.099" style="fill:#D16D00;" width="1" height="13.598"/>
					<rect x="176.084" y="425.099" style="fill:#D16D00;" width="1" height="13.598"/>
					<rect x="181.759" y="425.099" style="fill:#D16D00;" width="1" height="13.598"/>
					<rect x="187.436" y="425.099" style="fill:#D16D00;" width="1" height="13.598"/>
					<rect x="193.112" y="425.099" style="fill:#D16D00;" width="1" height="13.598"/>
					<rect x="198.788" y="425.099" style="fill:#D16D00;" width="1" height="13.598"/>
					<rect x="204.464" y="425.099" style="fill:#D16D00;" width="1" height="13.598"/>
					<rect x="210.14" y="425.099" style="fill:#D16D00;" width="1" height="13.598"/>
					<rect x="215.816" y="425.099" style="fill:#D16D00;" width="1" height="13.598"/>
					<rect x="221.493" y="425.099" style="fill:#D16D00;" width="1" height="13.598"/>
					<rect x="227.169" y="425.099" style="fill:#D16D00;" width="1" height="13.598"/>
					<rect x="232.844" y="425.099" style="fill:#D16D00;" width="1" height="13.598"/>
					<rect x="238.521" y="425.099" style="fill:#D16D00;" width="1" height="13.598"/>
					<rect x="244.197" y="425.099" style="fill:#D16D00;" width="1" height="13.598"/>
				</g>
			</g>
			<g>
				<path style="fill:#EFAC37;" d="M203.854,421.077c-4.344,1.291-90.168,1.713-94.605,0c-3.196-1.095-3.38-19.349,0-19.869
					c5.621-1.5,90.785-1.475,94.605,0C206.445,402.319,207.441,420.426,203.854,421.077z"/>
				<g>
					<rect x="113.414" y="404.352" style="fill:#D16D00;" width="1" height="13.598"/>
					<rect x="119.09" y="404.352" style="fill:#D16D00;" width="1" height="13.598"/>
					<rect x="124.765" y="404.352" style="fill:#D16D00;" width="1" height="13.598"/>
					<rect x="130.442" y="404.352" style="fill:#D16D00;" width="1" height="13.598"/>
					<rect x="136.118" y="404.352" style="fill:#D16D00;" width="1" height="13.598"/>
					<rect x="141.795" y="404.352" style="fill:#D16D00;" width="1" height="13.598"/>
					<rect x="147.47" y="404.352" style="fill:#D16D00;" width="1" height="13.598"/>
					<rect x="153.146" y="404.352" style="fill:#D16D00;" width="1" height="13.598"/>
					<rect x="158.823" y="404.352" style="fill:#D16D00;" width="1" height="13.598"/>
					<rect x="164.499" y="404.352" style="fill:#D16D00;" width="1" height="13.598"/>
					<rect x="170.174" y="404.352" style="fill:#D16D00;" width="1" height="13.598"/>
					<rect x="175.851" y="404.352" style="fill:#D16D00;" width="1" height="13.598"/>
					<rect x="181.527" y="404.352" style="fill:#D16D00;" width="1" height="13.598"/>
					<rect x="187.203" y="404.352" style="fill:#D16D00;" width="1" height="13.598"/>
					<rect x="192.88" y="404.352" style="fill:#D16D00;" width="1" height="13.598"/>
					<rect x="198.555" y="404.352" style="fill:#D16D00;" width="1" height="13.598"/>
				</g>
			</g>
			<path style="fill:#D16D00;" d="M147.837,422.599c-0.001,0-0.554-0.37-2.225-0.477c-1.898-0.121-36.422-0.776-36.771-0.782l0.02-1
				c1.424,0.027,34.896,0.662,36.815,0.784c1.987,0.127,2.671,0.602,2.787,0.695L147.837,422.599L147.837,422.599z"/>
			<path style="fill:#D16D00;" d="M154.38,422.608l-0.614-0.789c0.117-0.094,0.801-0.568,2.788-0.695
				c0.503-0.032,12.711-0.784,47.991-0.784v1c-35.249,0-47.426,0.75-47.927,0.782C154.935,422.23,154.385,422.605,154.38,422.608z"
				/>
			<polygon style="fill:#FFFFFF;" points="101.851,398.513 104.036,406.576 112.789,408.76 104.036,410.945 101.851,416.848 
				99.667,410.945 93.764,408.76 99.667,406.576 			"/>
			<polygon style="fill:#FFFFFF;" points="249.158,416.568 250.575,421.796 256.25,423.212 250.575,424.629 249.158,428.456 
				247.742,424.629 243.915,423.212 247.742,421.796 			"/>
			<polygon style="fill:#FFFFFF;" points="88.623,416.182 89.638,419.928 93.705,420.943 89.638,421.957 88.623,424.7 
				87.608,421.957 84.866,420.943 87.608,419.928 			"/>
		</g>
		<rect x="21.196" y="442.457" style="fill:#162E4C;" width="457.608" height="1"/>
		<g>
			<polygon style="fill:#162E4C;" points="166.874,236.667 166.182,235.944 184.179,218.741 214.192,225.266 220.338,207.654 
				259.801,207.654 278.94,188.337 295.459,218.708 311.753,214.686 317.36,199.345 336.808,179.652 337.519,180.355 
				318.148,199.97 312.51,215.528 294.949,219.864 278.704,189.996 260.217,208.654 221.048,208.654 214.844,226.431 
				184.486,219.831 			"/>
			<polygon style="fill:#162E4C;" points="337.96,185.597 336.96,185.597 336.96,180.398 331.732,180.398 331.732,179.398 
				337.96,179.398 			"/>
		</g>
		<g>
			<g>
				<g>
					<path style="fill:#E8615B;" d="M238.516,383.104c-2.765,1.291-57.398,1.713-60.222,0c-3.17-1.922-3.599-18.361,0-19.869
						c3.578-1.5,57.791-1.475,60.222,0C241.575,365.091,241.88,381.534,238.516,383.104z"/>
					
						<text transform="matrix(1 0 0 1 193.7604 377.5069)" style="fill:#FFFFFF; font-family:'BowlbyOneSC-Regular'; font-size:12.5635px;">BUY</text>
				</g>
				<g>
					<path style="fill:#476B9E;" d="M325.492,383.104c-2.765,1.291-57.398,1.713-60.222,0c-3.17-1.922-3.599-18.361,0-19.869
						c3.578-1.5,57.791-1.475,60.222,0C328.552,365.091,328.856,381.534,325.492,383.104z"/>
					
						<text transform="matrix(1 0 0 1 278.8013 377.5069)" style="fill:#FFFFFF; font-family:'BowlbyOneSC-Regular'; font-size:12.5635px;">SELL</text>
				</g>
			</g>
			<g>
				<path style="fill:#476B9E;" d="M321.064,175.384c-1.123,1.124-137.45,0.713-138.238,0c-0.788-0.713-1.774-41.398,0-42.923
					c1.774-1.525,137.341-0.768,138.238,0C321.96,133.229,322.186,174.26,321.064,175.384z"/>
				<g>
					<path style="fill:#EFAC37;" d="M307.859,153.83c0.222-6.531-0.74-13.1-2.862-19.217c-3.315-9.554-9.45-18.005-18.272-23.483
						c-28.213-17.518-72.724-9.897-83.175,25.776c-1.654,5.645-2.269,11.352-2.002,16.923H307.859z"/>
					<g>
						<path style="fill:#FCC772;" d="M263.794,102.721c-3.708-0.564-7.485-0.805-11.228-0.713c-1.156,0.029-2.07,0.989-2.042,2.145
							c0.028,1.156,0.955,2.071,2.144,2.042c3.495-0.087,7.028,0.138,10.496,0.666c0.106,0.016,0.213,0.024,0.318,0.024
							c1.017,0,1.909-0.743,2.067-1.78C265.723,103.963,264.937,102.895,263.794,102.721z"/>
						<path style="fill:#FCC772;" d="M275.632,110.187c3.072,1.203,6.007,2.667,8.722,4.354c7.696,4.778,13.462,12.2,16.676,21.463
							c1.981,5.708,2.829,11.811,2.601,17.826h4.244c0.215-6.435-0.728-12.972-2.889-19.199
							c-3.531-10.179-9.902-18.357-18.424-23.648c-2.93-1.82-6.095-3.399-9.405-4.695c-1.077-0.421-2.291,0.111-2.712,1.187
							C274.023,108.551,274.554,109.766,275.632,110.187z"/>
					</g>
					<path style="fill:#E5931C;" d="M295.167,153.83c0.215-5.085-0.513-10.209-2.166-14.972
						c-2.525-7.277-7.197-13.712-13.915-17.884c-21.486-13.341-55.384-7.537-63.344,19.631c-1.293,4.413-1.76,8.876-1.514,13.226
						H295.167z"/>
					<rect x="254.129" y="85.46" style="fill:#162E4C;" width="1" height="7.945"/>
					<rect x="248.81" y="89.432" style="fill:#162E4C;" width="1" height="7.945"/>
					<rect x="259.359" y="90.59" style="fill:#162E4C;" width="1" height="5.628"/>
					<path style="fill:#FCC772;" d="M241.967,137.417v16.413h30.607c-0.99-1.55-2.338-2.788-4.091-3.675
						c3.162-2.642,4.744-5.437,4.744-8.384c0-3.942-1.105-6.867-3.315-8.774c-0.997-0.867-2.654-1.614-4.972-2.242
						c-0.102-0.028-0.222-0.051-0.329-0.078l-0.219-5.384l-6.706,0.517l-0.363,4.061c-1.059-0.037-2.2-0.056-3.418-0.057
						l-0.184-4.521l-6.706,0.517l-0.358,4.003h-7.616l-0.65,5.394C238.998,136.031,240.189,136.767,241.967,137.417z
						 M251.325,136.897h3.38c2.036,0,3.595,0.087,4.679,0.26c1.082,0.174,2.036,0.673,2.859,1.495
						c0.822,0.823,1.235,2.047,1.235,3.672c0,1.624-0.585,3-1.755,4.127c-1.169,1.127-2.86,1.69-5.069,1.69h-5.33V136.897z"/>
					<path style="fill:#D16D00;" d="M213.665,152.06c-0.213-18.724,12.901-34.221,31.892-37.687l0.18,0.983
						c-18.502,3.377-31.278,18.465-31.071,36.692L213.665,152.06z"/>
				</g>
				<rect x="193.76" y="153.33" style="fill:#162E4C;" width="118.371" height="1"/>
			</g>
			<g>
				<rect x="166.528" y="321.409" style="fill:#7DB6F9;" width="13.424" height="18.083"/>
				<rect x="166.528" y="267.57" style="fill:#B3D6FF;" width="13.424" height="53.839"/>
				<rect x="188.987" y="232.767" style="fill:#B3D6FF;" width="13.424" height="63.666"/>
				<rect x="211.446" y="240.168" style="fill:#B3D6FF;" width="13.424" height="8.023"/>
				<rect x="233.905" y="278.459" style="fill:#B3D6FF;" width="13.424" height="46.844"/>
				<rect x="278.822" y="252.795" style="fill:#B3D6FF;" width="13.424" height="15.851"/>
				<rect x="301.281" y="283.273" style="fill:#B3D6FF;" width="13.424" height="32.932"/>
				<rect x="323.74" y="220.428" style="fill:#B3D6FF;" width="13.424" height="79.481"/>
				<rect x="256.363" y="226.891" style="fill:#B3D6FF;" width="13.424" height="78.647"/>
				<rect x="188.987" y="296.433" style="fill:#7DB6F9;" width="13.424" height="43.059"/>
				<rect x="211.446" y="248.191" style="fill:#7DB6F9;" width="13.424" height="91.301"/>
				<rect x="233.905" y="325.303" style="fill:#7DB6F9;" width="13.424" height="14.189"/>
				<rect x="256.363" y="305.537" style="fill:#7DB6F9;" width="13.424" height="33.955"/>
				<rect x="278.822" y="268.646" style="fill:#7DB6F9;" width="13.424" height="70.846"/>
				<rect x="301.281" y="316.204" style="fill:#7DB6F9;" width="13.424" height="23.288"/>
				<rect x="323.74" y="299.91" style="fill:#7DB6F9;" width="13.424" height="39.583"/>
				<rect x="160.763" y="338.992" style="fill:#162E4C;" width="182.165" height="1"/>
			</g>
			<g>
				<g>
					<path style="fill:#E8615B;" d="M188.906,218.536c-0.233-0.653-0.665-1.23-1.287-1.604c-1.987-1.197-5.121-0.676-5.857,1.761
						c-0.643,2.127,0.913,4.385,3.131,4.491c1.22,0.058,2.567-0.321,3.403-1.255C189.121,221.01,189.308,219.661,188.906,218.536z"
						/>
					<path style="fill:#FFFFFF;" d="M186.922,219.217c-0.103-0.287-0.293-0.541-0.566-0.706c-0.874-0.527-2.254-0.298-2.578,0.775
						c-0.283,0.936,0.402,1.93,1.378,1.977c0.537,0.026,1.13-0.141,1.498-0.552C187.017,220.306,187.099,219.712,186.922,219.217z"
						/>
				</g>
				<g>
					<path style="fill:#E8615B;" d="M217.953,224.522c-0.233-0.653-0.665-1.23-1.287-1.604c-1.987-1.197-5.121-0.676-5.857,1.761
						c-0.643,2.128,0.913,4.385,3.131,4.491c1.22,0.058,2.567-0.321,3.403-1.255C218.168,226.996,218.356,225.647,217.953,224.522z"
						/>
					<path style="fill:#FFFFFF;" d="M215.97,225.203c-0.103-0.287-0.293-0.541-0.566-0.706c-0.874-0.527-2.254-0.298-2.578,0.775
						c-0.283,0.936,0.402,1.93,1.378,1.977c0.537,0.026,1.13-0.141,1.498-0.552C216.065,226.292,216.147,225.698,215.97,225.203z"/>
				</g>
				<g>
					<path style="fill:#E8615B;" d="M224.422,206.938c-0.233-0.653-0.665-1.23-1.287-1.604c-1.987-1.197-5.121-0.676-5.857,1.761
						c-0.642,2.128,0.913,4.385,3.131,4.491c1.22,0.058,2.567-0.321,3.403-1.255C224.637,209.413,224.825,208.064,224.422,206.938z"
						/>
					<path style="fill:#FFFFFF;" d="M222.439,207.619c-0.103-0.287-0.293-0.541-0.566-0.706c-0.874-0.527-2.254-0.298-2.578,0.775
						c-0.283,0.936,0.402,1.93,1.378,1.977c0.537,0.026,1.13-0.141,1.498-0.552C222.533,208.708,222.616,208.115,222.439,207.619z"
						/>
				</g>
				<g>
					<path style="fill:#E8615B;" d="M263.653,206.938c-0.233-0.653-0.665-1.23-1.287-1.604c-1.987-1.197-5.121-0.676-5.857,1.761
						c-0.642,2.128,0.913,4.385,3.131,4.491c1.22,0.058,2.567-0.321,3.403-1.255C263.868,209.413,264.055,208.064,263.653,206.938z"
						/>
					<path style="fill:#FFFFFF;" d="M261.669,207.619c-0.103-0.287-0.293-0.541-0.566-0.706c-0.874-0.527-2.254-0.298-2.578,0.775
						c-0.283,0.936,0.402,1.93,1.378,1.977c0.537,0.026,1.13-0.141,1.498-0.552C261.764,208.708,261.847,208.115,261.669,207.619z"
						/>
				</g>
				<g>
					<path style="fill:#E8615B;" d="M282.069,188.804c-0.233-0.653-0.665-1.23-1.287-1.604c-1.987-1.197-5.121-0.676-5.857,1.761
						c-0.642,2.128,0.913,4.385,3.131,4.491c1.22,0.058,2.567-0.321,3.403-1.255C282.285,191.279,282.472,189.929,282.069,188.804z"
						/>
					<path style="fill:#FFFFFF;" d="M280.086,189.485c-0.103-0.287-0.293-0.541-0.566-0.706c-0.874-0.527-2.254-0.298-2.578,0.775
						c-0.283,0.936,0.402,1.93,1.378,1.977c0.537,0.026,1.13-0.141,1.498-0.552C280.181,190.574,280.263,189.98,280.086,189.485z"/>
				</g>
				<g>
					<path style="fill:#E8615B;" d="M298.836,217.837c-0.233-0.653-0.665-1.23-1.287-1.604c-1.987-1.197-5.121-0.676-5.857,1.761
						c-0.642,2.127,0.913,4.385,3.131,4.491c1.22,0.058,2.567-0.321,3.403-1.255C299.052,220.311,299.239,218.962,298.836,217.837z"
						/>
					<path style="fill:#FFFFFF;" d="M296.853,218.518c-0.103-0.287-0.293-0.541-0.566-0.706c-0.874-0.527-2.254-0.298-2.578,0.775
						c-0.283,0.936,0.402,1.93,1.378,1.977c0.537,0.026,1.13-0.141,1.498-0.552C296.948,219.607,297.03,219.013,296.853,218.518z"/>
				</g>
				<g>
					<path style="fill:#E8615B;" d="M315.765,213.658c-0.234-0.653-0.665-1.23-1.287-1.604c-1.987-1.197-5.121-0.676-5.857,1.761
						c-0.642,2.128,0.913,4.385,3.131,4.491c1.22,0.058,2.567-0.321,3.403-1.255C315.98,216.132,316.167,214.783,315.765,213.658z"
						/>
					<path style="fill:#FFFFFF;" d="M313.781,214.339c-0.103-0.287-0.293-0.541-0.566-0.706c-0.874-0.527-2.254-0.298-2.578,0.775
						c-0.283,0.936,0.402,1.93,1.378,1.977c0.537,0.026,1.13-0.141,1.498-0.552C313.876,215.428,313.958,214.834,313.781,214.339z"
						/>
				</g>
				<g>
					<path style="fill:#E8615B;" d="M321.161,198.549c-0.233-0.653-0.665-1.23-1.287-1.604c-1.987-1.197-5.121-0.676-5.857,1.761
						c-0.642,2.127,0.913,4.385,3.131,4.491c1.22,0.058,2.567-0.321,3.403-1.255C321.376,201.023,321.563,199.674,321.161,198.549z"
						/>
					<path style="fill:#FFFFFF;" d="M319.177,199.23c-0.103-0.287-0.293-0.541-0.566-0.706c-0.874-0.527-2.254-0.298-2.578,0.775
						c-0.283,0.936,0.402,1.93,1.378,1.977c0.537,0.026,1.13-0.141,1.498-0.552C319.272,200.319,319.354,199.725,319.177,199.23z"/>
				</g>
			</g>
		</g>
		<g>
			<path style="fill:#EFAC37;" d="M167.734,265.285c-3.316-9.554-9.45-18.005-18.272-23.483
				c-28.213-17.518-72.724-9.897-83.175,25.776c-9.124,31.141,12.962,64.19,44.467,65.743c17.325,0.854,36.451-4.703,48.334-18.366
				C170.79,301.502,173.449,281.754,167.734,265.285z"/>
			<g>
				<path style="fill:#FCC772;" d="M126.531,233.393c-3.708-0.564-7.485-0.805-11.228-0.713c-1.156,0.029-2.07,0.989-2.042,2.145
					c0.028,1.156,0.955,2.071,2.144,2.042c3.495-0.087,7.028,0.137,10.496,0.666c0.106,0.016,0.213,0.024,0.318,0.024
					c1.017,0,1.909-0.743,2.067-1.779C128.461,234.635,127.674,233.567,126.531,233.393z"/>
				<path style="fill:#FCC772;" d="M167.724,265.303c-3.532-10.179-9.902-18.357-18.424-23.648c-2.93-1.82-6.095-3.4-9.405-4.695
					c-1.077-0.421-2.291,0.111-2.712,1.187c-0.421,1.077,0.109,2.292,1.187,2.713c3.072,1.203,6.007,2.668,8.722,4.353
					c7.696,4.778,13.462,12.2,16.676,21.463c4.587,13.216,3.13,28.546-3.801,40.007c-0.599,0.99-0.282,2.277,0.708,2.876
					c0.339,0.205,0.713,0.303,1.082,0.303c0.708,0,1.401-0.36,1.793-1.011C171.222,296.162,172.783,279.882,167.724,265.303z"/>
			</g>
			<path style="fill:#E5931C;" d="M155.738,269.53c-2.525-7.276-7.197-13.712-13.915-17.884
				c-21.486-13.341-55.384-7.537-63.344,19.63c-6.948,23.716,9.872,48.885,33.865,50.068c13.194,0.651,27.76-3.582,36.81-13.987
				C158.065,297.111,160.091,282.072,155.738,269.53z"/>
			<rect x="116.866" y="216.132" style="fill:#FFFFFF;" width="1" height="7.945"/>
			<rect x="111.548" y="220.105" style="fill:#FFFFFF;" width="1" height="7.945"/>
			<rect x="122.096" y="221.263" style="fill:#FFFFFF;" width="1" height="5.628"/>
			<path style="fill:#FCC772;" d="M131.22,280.828c3.162-2.642,4.744-5.437,4.744-8.384c0-3.942-1.105-6.867-3.315-8.774
				c-0.997-0.866-2.654-1.614-4.972-2.242c-0.102-0.028-0.222-0.051-0.329-0.078l-0.219-5.384l-6.706,0.517l-0.363,4.061
				c-1.059-0.037-2.2-0.056-3.418-0.057l-0.184-4.52l-6.706,0.517l-0.358,4.003h-7.616l-0.65,5.394
				c0.606,0.823,1.797,1.56,3.575,2.21v29.7c-1.82,0.694-3.012,1.408-3.575,2.145l0.65,5.394h7.649l0.325,3.626l6.706,0.517
				l0.168-4.143h3.473l0.324,3.626l6.706,0.517l0.207-5.088c2.275-0.584,4.173-1.423,5.671-2.532
				c2.837-2.101,4.256-5.318,4.256-9.651C137.264,286.655,135.249,282.864,131.22,280.828z M122.121,267.829
				c1.082,0.174,2.036,0.672,2.86,1.495c0.822,0.824,1.235,2.047,1.235,3.672c0,1.624-0.585,3-1.755,4.127
				c-1.169,1.127-2.86,1.69-5.069,1.69h-5.329V267.57h3.38C119.478,267.57,121.037,267.657,122.121,267.829z M125.241,296.945
				c-1.518,0.867-3.748,1.3-6.695,1.3h-4.484v-12.348h5.784c2.729,0,4.689,0.499,5.882,1.495c1.192,0.997,1.787,2.622,1.787,4.875
				C127.515,294.519,126.757,296.079,125.241,296.945z"/>
			<path style="fill:#D16D00;" d="M115.072,321.912c-0.914,0-1.83-0.022-2.752-0.068c-11.189-0.552-21.518-6.366-28.336-15.952
				c-7.277-10.231-9.459-22.899-5.984-34.756c4.041-13.796,15.083-23.305,30.294-26.09l0.18,0.983
				c-14.825,2.714-25.583,11.968-29.515,25.388c-3.387,11.561-1.258,23.915,5.84,33.895c6.64,9.335,16.689,14.996,27.57,15.533
				c14.647,0.727,28.256-4.442,36.408-13.815c4.03-4.635,6.795-10.485,7.995-16.918l0.982,0.184
				c-1.232,6.608-4.076,12.622-8.224,17.391C141.695,316.695,128.962,321.911,115.072,321.912z"/>
			<polygon style="fill:#FFFFFF;" points="73.29,242.137 75.787,251.356 85.795,253.854 75.787,256.351 73.29,263.1 70.793,256.351 
				64.044,253.854 70.793,251.356 			"/>
			<polygon style="fill:#FFFFFF;" points="130.423,328.259 132.033,334.205 138.489,335.816 132.033,337.427 130.423,341.78 
				128.812,337.427 124.459,335.816 128.812,334.205 			"/>
			<polygon style="fill:#FFFFFF;" points="115.015,336.941 116.168,341.198 120.789,342.351 116.168,343.504 115.015,346.62 
				113.862,343.504 110.746,342.351 113.862,341.198 			"/>
		</g>
	</g>
</g>
</svg>