<svg width="796" height="605" viewBox="0 0 796 605" fill="none" xmlns="http://www.w3.org/2000/svg">
<path d="M796 239.5C796 281.729 796 302.835 796 340.096C776.986 352.06 754.36 359 730.078 359C662.656 359 608 305.498 608 239.5C608 173.502 662.656 120 730.078 120C754.36 120 776.986 126.94 796 138.904C796 175.567 796 197.271 796 239.5Z" fill="#ECB340"/>
<path d="M321.5 605C284.572 605 266.115 605 233.531 605C223.069 588.211 217 568.233 217 546.792C217 487.26 263.786 439 321.5 439C379.214 439 426 487.26 426 546.792C426 568.233 419.931 588.211 409.469 605C377.408 605 358.428 605 321.5 605Z" fill="#ECB340"/>
<path d="M796 605C665.688 605 576.828 605 553 605C577.989 486.803 671.2 399 782.367 399C786.766 399 791.661 399.327 796 399.599C796 452.487 796 605 796 605Z" fill="#2F9564"/>
<path d="M586 243.803C586 359.501 546.427 396.632 454.785 423C343.413 423 379.805 423 324.023 423C323.569 379.968 323.569 321.601 323.569 243.803C323.569 162.774 320.038 98.8369 323.569 49C453.925 49 473.009 59.7626 473.009 59.7626C533.93 82.9022 586 120.188 586 243.803Z" fill="#EA7F4A"/>
<path d="M249.613 39.5635C268.603 102.297 173 101.398 173 101.398C169.027 132.863 110.561 142.424 111.282 96.959C111.282 96.959 88.2648 98.528 82.9556 84.3794C75.517 64.556 89.6652 48.7709 114.75 55.1642C147.689 3.33468 194.841 5.03119 194.253 28.7603C204.039 21.7747 240.523 9.53379 249.613 39.5635Z" stroke="#166E5E" stroke-width="3"/>
<path d="M132.434 65.2304C133.157 66.9477 133.463 68.5501 133.35 70.0374C133.235 71.5195 132.766 72.8121 131.942 73.9154C131.122 75.0113 130.012 75.8372 128.613 76.3929C127.208 76.9508 125.815 77.119 124.433 76.8976C123.055 76.6689 121.788 76.0625 120.634 75.0785C119.479 74.0945 118.541 72.7465 117.82 71.0344C117.096 69.317 116.791 67.7173 116.907 66.2352C117.019 64.7479 117.486 63.4563 118.306 62.3604C119.13 61.2571 120.244 60.4265 121.648 59.8687C123.048 59.3129 124.437 59.1494 125.815 59.3782C127.197 59.5996 128.465 60.2023 129.62 61.1862C130.772 62.165 131.71 63.513 132.434 65.2304ZM130.01 66.193C129.458 64.8841 128.78 63.8668 127.975 63.1414C127.173 62.4086 126.305 61.9586 125.372 61.7915C124.441 61.617 123.511 61.7143 122.582 62.0834C121.647 62.4546 120.911 63.019 120.373 63.7765C119.834 64.5287 119.54 65.4401 119.491 66.5105C119.446 67.5736 119.7 68.7597 120.251 70.0686C120.803 71.3776 121.48 72.3984 122.282 73.1312C123.087 73.8567 123.955 74.3066 124.885 74.4811C125.813 74.6504 126.745 74.5494 127.679 74.1782C128.609 73.8091 129.343 73.2484 129.883 72.4961C130.426 71.7365 130.72 70.8252 130.765 69.7621C130.813 68.6917 130.561 67.502 130.01 66.193ZM139.391 57.7733L140.185 59.6582L133.31 62.3887L132.515 60.5038L139.391 57.7733ZM139.484 71.8185L133.811 58.3572C133.493 57.6032 133.396 56.9115 133.519 56.282C133.64 55.6472 133.923 55.0977 134.369 54.6335C134.812 54.1641 135.356 53.8015 136 53.5456C136.475 53.3569 136.898 53.2346 137.269 53.179C137.638 53.118 137.918 53.0865 138.108 53.0843L138.354 55.2051C138.23 55.2177 138.072 55.2377 137.88 55.265C137.686 55.2871 137.465 55.3475 137.217 55.446C136.641 55.6746 136.289 55.9796 136.16 56.3609C136.036 56.7401 136.087 57.1967 136.312 57.7307L141.853 70.8779L139.484 71.8185ZM151.735 56.3089L149.747 57.5383C149.543 57.3017 149.291 57.0992 148.992 56.9307C148.698 56.7601 148.354 56.6613 147.961 56.6342C147.567 56.6072 147.125 56.6912 146.634 56.8862C145.963 57.1526 145.466 57.5241 145.143 58.0008C144.818 58.4723 144.753 58.941 144.95 59.407C145.12 59.8101 145.407 60.075 145.812 60.2015C146.216 60.3281 146.787 60.3367 147.524 60.2274L149.642 59.8997C150.87 59.7116 151.871 59.7756 152.645 60.0915C153.419 60.4075 153.986 60.9922 154.346 61.8456C154.65 62.5681 154.71 63.296 154.526 64.0293C154.345 64.7552 153.947 65.4267 153.332 66.0439C152.722 66.659 151.926 67.1616 150.944 67.5517C149.581 68.0928 148.348 68.2462 147.245 68.0121C146.139 67.7728 145.264 67.1579 144.618 66.1674L146.762 64.9127C147.153 65.4477 147.635 65.779 148.207 65.9065C148.776 66.0288 149.417 65.9483 150.13 65.6652C150.906 65.3569 151.46 64.9508 151.79 64.4469C152.118 63.9377 152.183 63.4501 151.987 62.9841C151.828 62.6072 151.552 62.347 151.159 62.2037C150.771 62.0583 150.259 62.0355 149.623 62.1353L147.374 62.5055C146.131 62.6999 145.119 62.6249 144.339 62.2807C143.565 61.9344 142.996 61.3319 142.634 60.4732C142.334 59.7612 142.272 59.0584 142.449 58.365C142.625 57.6715 143.004 57.0351 143.586 56.4556C144.165 55.8709 144.912 55.3971 145.825 55.0343C147.14 54.5121 148.294 54.3838 149.288 54.6494C150.279 54.9097 151.095 55.4629 151.735 56.3089ZM160.326 68.8222L153.335 52.2352L155.648 51.3166L156.472 53.2722L156.67 53.1935C156.702 52.8877 156.777 52.5184 156.897 52.0858C157.017 51.6532 157.255 51.2226 157.61 50.7941C157.964 50.3603 158.518 49.9935 159.273 49.6936C160.255 49.3035 161.236 49.2015 162.214 49.3874C163.192 49.5734 164.096 50.0427 164.925 50.7954C165.759 51.546 166.451 52.5731 167 53.8769C167.55 55.1806 167.802 56.3855 167.756 57.4915C167.709 58.5923 167.408 59.5461 166.854 60.3528C166.298 61.1543 165.529 61.7501 164.547 62.1402C163.807 62.4338 163.151 62.5509 162.577 62.4914C162.009 62.4299 161.523 62.2866 161.12 62.0616C160.717 61.8366 160.39 61.6242 160.139 61.4242L159.997 61.4809L162.694 67.8816L160.326 68.8222ZM158.198 57.3451C158.556 58.1933 158.993 58.8875 159.511 59.4277C160.028 59.9679 160.598 60.3253 161.22 60.5C161.84 60.6693 162.491 60.6188 163.172 60.3482C163.879 60.0672 164.392 59.6464 164.711 59.086C165.027 58.5202 165.171 57.8671 165.143 57.1267C165.12 56.3841 164.938 55.6096 164.598 54.8033C164.263 54.0075 163.84 53.341 163.33 52.804C162.826 52.2648 162.256 51.9074 161.621 51.7317C160.991 51.554 160.32 51.6066 159.607 51.8898C158.92 52.1624 158.414 52.5685 158.086 53.108C157.764 53.6455 157.614 54.2766 157.636 55.0014C157.658 55.7261 157.845 56.5074 158.198 57.3451ZM175.839 57.692C175.068 57.9982 174.312 58.1336 173.569 58.0984C172.825 58.0579 172.156 57.8377 171.562 57.4379C170.973 57.036 170.512 56.4397 170.179 55.6491C169.892 54.9684 169.788 54.3558 169.867 53.8111C169.946 53.2664 170.155 52.7767 170.496 52.3419C170.837 51.9071 171.257 51.5141 171.756 51.163C172.255 50.8119 172.778 50.488 173.325 50.1914C174.019 49.8182 174.581 49.5152 175.014 49.2825C175.443 49.0446 175.735 48.8219 175.888 48.6144C176.041 48.407 176.058 48.1619 175.939 47.8791L175.915 47.8242C175.626 47.1383 175.207 46.6844 174.657 46.4626C174.113 46.2388 173.458 46.2789 172.692 46.583C171.895 46.8996 171.34 47.3246 171.029 47.8579C170.72 48.3838 170.568 48.8934 170.573 49.3867L168.135 49.768C168.09 48.9302 168.226 48.1854 168.544 47.5338C168.864 46.8749 169.314 46.3112 169.893 45.8427C170.47 45.369 171.125 44.9864 171.86 44.6949C172.345 44.502 172.884 44.3551 173.477 44.2543C174.072 44.1461 174.671 44.1469 175.272 44.2566C175.878 44.3642 176.451 44.6347 176.991 45.068C177.529 45.4962 177.984 46.15 178.355 47.0297L181.731 55.0405L179.418 55.959L178.723 54.3097L178.628 54.3475C178.602 54.712 178.499 55.1017 178.316 55.5165C178.133 55.9313 177.842 56.331 177.443 56.7156C177.045 57.1002 176.51 57.4256 175.839 57.692ZM175.56 55.6026C176.214 55.3426 176.72 54.992 177.077 54.5509C177.439 54.1077 177.654 53.631 177.722 53.1209C177.794 52.6035 177.729 52.1065 177.529 51.6301L176.873 50.075C176.824 50.1924 176.693 50.3359 176.481 50.5057C176.272 50.6681 176.026 50.8363 175.742 51.0103C175.455 51.1791 175.176 51.3421 174.903 51.4993C174.628 51.6513 174.398 51.7792 174.214 51.883C173.779 52.123 173.4 52.3866 173.077 52.6738C172.759 52.9588 172.541 53.2747 172.422 53.6214C172.306 53.9608 172.337 54.3399 172.513 54.7588C172.758 55.34 173.16 55.6938 173.719 55.8203C174.275 55.9415 174.889 55.869 175.56 55.6026ZM190.113 51.9958C188.935 52.4635 187.81 52.6017 186.737 52.4105C185.667 52.212 184.707 51.7344 183.858 50.9775C183.009 50.2207 182.329 49.2375 181.82 48.028C181.303 46.8028 181.08 45.6294 181.15 44.5076C181.217 43.3806 181.562 42.3849 182.184 41.5205C182.806 40.6562 183.69 39.9965 184.836 39.5414C185.76 39.1744 186.656 39.0174 187.522 39.0704C188.387 39.1181 189.169 39.3576 189.869 39.7888C190.574 40.2179 191.139 40.8215 191.566 41.5995L189.261 42.5149C188.896 41.9997 188.4 41.6282 187.774 41.4001C187.153 41.17 186.465 41.2049 185.71 41.5048C185.05 41.7669 184.544 42.1693 184.193 42.712C183.846 43.2474 183.668 43.8864 183.661 44.629C183.651 45.3663 183.827 46.1643 184.189 47.023C184.559 47.9026 185.014 48.6083 185.553 49.1402C186.091 49.672 186.68 50.0158 187.319 50.1715C187.963 50.3252 188.62 50.2688 189.291 50.0025C189.74 49.8242 190.112 49.5816 190.408 49.2746C190.707 48.9602 190.916 48.5993 191.034 48.1918C191.157 47.7823 191.177 47.3403 191.094 46.8658L193.399 45.9504C193.644 46.7641 193.681 47.5622 193.512 48.3447C193.342 49.1271 192.972 49.8364 192.402 50.4724C191.837 51.1063 191.074 51.6141 190.113 51.9958ZM202.887 46.9224C201.688 47.3985 200.549 47.5546 199.469 47.3906C198.392 47.2194 197.423 46.7637 196.563 46.0236C195.705 45.2762 195.013 44.2768 194.485 43.0254C193.965 41.7898 193.738 40.6084 193.805 39.4814C193.878 38.3523 194.223 37.3566 194.84 36.4944C195.462 35.63 196.338 34.9734 197.468 34.5246C198.154 34.252 198.867 34.1003 199.606 34.0696C200.345 34.0389 201.073 34.1627 201.788 34.4409C202.503 34.7192 203.171 35.1844 203.791 35.8367C204.409 36.4837 204.948 37.3543 205.409 38.4486L205.76 39.2811L196.089 43.1221L195.347 41.3628L202.698 38.4435C202.438 37.8257 202.08 37.3289 201.626 36.9531C201.169 36.5721 200.653 36.3341 200.077 36.239C199.506 36.1419 198.914 36.2149 198.301 36.4582C197.636 36.7225 197.123 37.1155 196.764 37.6372C196.407 38.1516 196.204 38.7215 196.153 39.3468C196.105 39.9648 196.208 40.5748 196.462 41.1769L197.041 42.5513C197.381 43.3577 197.813 43.9869 198.336 44.4391C198.865 44.8893 199.451 45.1608 200.094 45.2537C200.735 45.3414 201.402 45.2479 202.093 44.9731C202.542 44.7949 202.925 44.5695 203.242 44.297C203.556 44.0193 203.794 43.6987 203.955 43.3352C204.116 42.9717 204.189 42.5732 204.172 42.1396L206.583 41.6498C206.679 42.3756 206.599 43.0769 206.341 43.7536C206.087 44.423 205.669 45.0322 205.087 45.5813C204.507 46.1231 203.774 46.5701 202.887 46.9224ZM160.508 81.8208C160.154 81.4051 159.768 81.0602 159.351 80.786C158.936 80.5044 158.496 80.3004 158.029 80.1739C157.561 80.0421 157.07 79.9958 156.556 80.0348C156.048 80.0716 155.524 80.197 154.985 80.411C154.072 80.7738 153.346 81.3339 152.809 82.0914C152.271 82.8489 151.978 83.7629 151.93 84.8333C151.885 85.8964 152.136 87.0772 152.683 88.3757C153.233 89.6794 153.911 90.6966 154.718 91.4273C155.526 92.158 156.4 92.6085 157.341 92.7788C158.282 92.949 159.227 92.8454 160.178 92.468C161.06 92.1177 161.753 91.6346 162.258 91.0185C162.768 90.4003 163.066 89.6953 163.151 88.9034C163.24 88.1042 163.097 87.2622 162.724 86.3774L163.408 86.2435L158.766 88.0869L157.922 86.0842L164.298 83.5519L165.07 85.3818C165.639 86.7326 165.843 88.0208 165.681 89.2463C165.523 90.4645 165.047 91.5456 164.256 92.4896C163.469 93.4316 162.421 94.1626 161.111 94.6827C159.643 95.2657 158.214 95.4423 156.822 95.2126C155.436 94.9807 154.175 94.3722 153.038 93.3872C151.9 92.3969 150.973 91.0536 150.258 89.3572C149.718 88.0744 149.412 86.8512 149.34 85.6876C149.269 84.524 149.408 83.4572 149.758 82.4872C150.11 81.5098 150.648 80.6575 151.371 79.9303C152.097 79.1958 152.985 78.6198 154.036 78.2025C154.913 77.8544 155.783 77.6586 156.646 77.6153C157.515 77.5698 158.344 77.6653 159.134 77.9016C159.929 78.1359 160.659 78.5 161.323 78.9941C161.986 79.4829 162.551 80.0927 163.019 80.8236L160.508 81.8208ZM166.274 73.5991L173.052 89.6836L170.684 90.6242L163.905 74.5397L166.274 73.5991ZM181.466 86.6263C180.325 87.0793 179.221 87.2155 178.152 87.0348C177.084 86.8541 176.118 86.3911 175.255 85.6457C174.392 84.9004 173.698 83.9047 173.173 82.6586C172.646 81.4072 172.42 80.2196 172.495 79.0957C172.57 77.9719 172.923 76.9819 173.555 76.1259C174.186 75.2699 175.073 74.6155 176.213 74.1625C177.354 73.7095 178.458 73.5733 179.527 73.754C180.596 73.9347 181.562 74.4003 182.427 75.1509C183.292 75.9015 183.989 76.9024 184.516 78.1538C185.041 79.3999 185.265 80.5823 185.188 81.7009C185.111 82.8195 184.756 83.8069 184.125 84.6628C183.493 85.5188 182.607 86.1733 181.466 86.6263ZM180.643 84.6519C181.383 84.3583 181.913 83.9213 182.236 83.3409C182.558 82.7605 182.7 82.1022 182.661 81.3659C182.627 80.6275 182.447 79.8709 182.121 79.096C181.796 78.3263 181.379 77.6667 180.87 77.117C180.364 76.5601 179.786 76.1817 179.134 75.982C178.483 75.7822 177.788 75.8291 177.049 76.1227C176.304 76.4184 175.769 76.8602 175.443 77.4479C175.123 78.0335 174.981 78.6981 175.017 79.4418C175.056 80.178 175.238 80.931 175.562 81.7007C175.889 82.4756 176.304 83.1389 176.808 83.6906C177.317 84.2403 177.896 84.6123 178.545 84.8068C179.199 84.9992 179.899 84.9476 180.643 84.6519ZM189.869 83.0051L183.09 66.9206L185.458 65.9801L187.977 71.9567L188.12 71.9001C188.151 71.5943 188.227 71.225 188.346 70.7924C188.466 70.3598 188.704 69.9292 189.059 69.5007C189.413 69.0669 189.967 68.7001 190.722 68.4002C191.705 68.0101 192.685 67.908 193.663 68.094C194.642 68.28 195.545 68.7493 196.374 69.502C197.208 70.2526 197.9 71.2797 198.449 72.5834C198.999 73.8872 199.251 75.092 199.205 76.1981C199.158 77.2989 198.857 78.2527 198.303 79.0594C197.747 79.8609 196.978 80.4567 195.996 80.8467C195.256 81.1404 194.6 81.2574 194.026 81.198C193.458 81.1365 192.972 80.9932 192.569 80.7682C192.166 80.5432 191.839 80.3308 191.588 80.1308L191.39 80.2095L192.181 82.0865L189.869 83.0051ZM189.647 76.0517C190.005 76.8999 190.442 77.5941 190.96 78.1343C191.477 78.6745 192.047 79.0319 192.669 79.2065C193.289 79.3759 193.94 79.3254 194.621 79.0548C195.329 78.7738 195.842 78.353 196.16 77.7925C196.477 77.2268 196.621 76.5737 196.592 75.8332C196.569 75.0907 196.387 74.3162 196.047 73.5099C195.712 72.7141 195.289 72.0476 194.779 71.5105C194.275 70.9714 193.705 70.614 193.07 70.4383C192.44 70.2606 191.769 70.3132 191.056 70.5964C190.37 70.869 189.863 71.2751 189.535 71.8146C189.213 72.3521 189.063 72.9832 189.085 73.708C189.107 74.4327 189.294 75.214 189.647 76.0517ZM207.294 76.3962C206.523 76.7024 205.767 76.8379 205.024 76.8026C204.28 76.7621 203.611 76.5419 203.017 76.1421C202.428 75.7402 201.967 75.1439 201.634 74.3533C201.347 73.6727 201.243 73.06 201.322 72.5153C201.401 71.9707 201.61 71.4809 201.951 71.0461C202.292 70.6113 202.712 70.2183 203.211 69.8672C203.71 69.5161 204.233 69.1923 204.78 68.8956C205.474 68.5224 206.037 68.2195 206.469 67.9868C206.898 67.7488 207.19 67.5261 207.343 67.3186C207.496 67.1112 207.513 66.8661 207.394 66.5834L207.37 66.5284C207.081 65.8425 206.662 65.3887 206.112 65.1669C205.568 64.943 204.913 64.9831 204.147 65.2872C203.35 65.6039 202.795 66.0288 202.484 66.5621C202.175 67.088 202.023 67.5976 202.028 68.0909L199.59 68.4723C199.545 67.6344 199.681 66.8896 199.999 66.238C200.319 65.5791 200.769 65.0154 201.348 64.547C201.925 64.0733 202.581 63.6907 203.315 63.3992C203.8 63.2062 204.34 63.0593 204.932 62.9585C205.528 62.8504 206.126 62.8511 206.727 62.9608C207.333 63.0684 207.906 63.3389 208.447 63.7723C208.985 64.2004 209.439 64.8543 209.81 65.7339L213.186 73.7447L210.873 74.6633L210.178 73.014L210.083 73.0517C210.058 73.4162 209.954 73.8059 209.771 74.2207C209.588 74.6356 209.297 75.0353 208.899 75.4198C208.5 75.8044 207.965 76.1299 207.294 76.3962ZM207.015 74.3068C207.67 74.0468 208.175 73.6962 208.532 73.2551C208.894 72.8119 209.109 72.3352 209.177 71.8251C209.249 71.3077 209.185 70.8108 208.984 70.3343L208.328 68.7793C208.279 68.8966 208.149 69.0401 207.937 69.2099C207.728 69.3724 207.481 69.5406 207.197 69.7146C206.91 69.8833 206.631 70.0463 206.358 70.2036C206.083 70.3556 205.853 70.4834 205.669 70.5872C205.234 70.8273 204.855 71.0909 204.532 71.378C204.214 71.663 203.996 71.9789 203.877 72.3256C203.761 72.665 203.792 73.0442 203.968 73.463C204.213 74.0442 204.615 74.398 205.174 74.5245C205.73 74.6457 206.344 74.5732 207.015 74.3068ZM211.93 55.4669L218.709 71.5513L216.34 72.4919L209.561 56.4074L211.93 55.4669Z" fill="#166E5E"/>
<path d="M128.172 405.464C91.9824 418.41 78.5386 403.611 70.2475 382.24C61.9563 360.87 100.553 327.797 108.5 349.5C118.807 377.649 54.0481 384.701 41.5635 370.5C22.7825 349.137 47.5 298.5 74.588 302.187C107.083 306.61 59.701 356.02 19.3961 339.049C8.25805 334.359 5.14909 324.609 1.99776 305.508C1.6118 306.1 3.13262 311.542 3.13262 311.542M128.172 405.464L124.928 396.162L140.651 401L131.632 415.387L128.172 405.464Z" stroke="#F0B43A" stroke-width="3"/>
<path d="M144.539 400.028L131.865 415.412L124.693 398.174L144.539 400.028Z" fill="#F0B43A"/>
<path d="M149 393.5C138.92 398.085 134.56 398.066 124 394.5C126.304 401.428 128 415.5 125.5 422.5C142 412 147.24 400.462 149 393.5Z" fill="#F0B43A"/>
</svg>
