<svg width="100%" height="100%" viewBox="0 0 362 344" fill="none" xmlns="http://www.w3.org/2000/svg">
  <path
    d="M245 90C245 68.0906 245 57.14 245 37.8078C255.215 31.6006 267.37 28 280.416 28C316.637 28 346 55.7584 346 90C346 124.242 316.637 152 280.416 152C267.37 152 255.215 148.399 245 142.192C245 123.17 245 111.909 245 90Z"
    fill="#EA7F4A" />
  <path
    d="M63.5 344C41.0605 344 29.845 344 10.0451 344C3.68767 333.988 1.15967e-05 322.073 1.15967e-05 309.286C1.15967e-05 273.782 28.4299 245 63.5 245C98.5701 245 127 273.782 127 309.286C127 322.073 123.312 333.988 116.955 344C97.4725 344 85.9395 344 63.5 344Z"
    fill="#EA7F4A" />
  <path
    d="M361.321 344C272.807 344 212.449 344 196.264 344C213.238 262.607 276.551 202.144 352.061 202.144C355.049 202.144 358.373 202.369 361.321 202.556C361.321 238.976 361.321 344 361.321 344Z"
    fill="#ECB340" />
  <path
    d="M134.319 180.796C212.906 180.796 238.127 153.546 256.038 90.4386C256.038 13.7452 256.038 38.8056 256.038 0.393242C226.808 0.0807469 187.163 0.393242 134.319 0.393249C79.2804 0.393256 35.5 0.0807066 2 0.0808105C2 89.8464 9.31046 102.988 9.31046 102.988C25.0279 144.94 50.3539 180.796 134.319 180.796Z"
    fill="#2F9564" />
</svg>