<svg width="100%" height="100%" viewBox="0 0 157 43" fill="none" xmlns="http://www.w3.org/2000/svg">
<path d="M21.9355 21.5005L28.268 15.5278L0.252594 0L21.9355 21.5005Z" fill="url(#paint0_linear_119_208)"/>
<path d="M0.252594 0V43L21.9354 21.4997L0.252594 0Z" fill="url(#paint1_linear_119_208)"/>
<path d="M36 21.6577L28.241 15.5273L21.9355 21.4996L27.7957 27.472L36 21.6577Z" fill="url(#paint2_linear_119_208)"/>
<path d="M21.9355 21.4996L0.252675 42.9998L27.7957 27.4721L21.9355 21.4996Z" fill="url(#paint3_linear_119_208)"/>
<path d="M54.58 28.6V31.92C54.38 32.1733 54.1 32.4333 53.74 32.7C53.3933 32.9667 52.9733 33.2133 52.48 33.44C52 33.6667 51.4733 33.8533 50.9 34C50.34 34.1333 49.7467 34.2 49.12 34.2C48.04 34.2 47.06 34.0267 46.18 33.68C45.3 33.3333 44.54 32.84 43.9 32.2C43.2733 31.5467 42.7867 30.7733 42.44 29.88C42.1067 28.9867 41.94 27.9933 41.94 26.9C41.94 25.8333 42.1133 24.8533 42.46 23.96C42.82 23.0667 43.3133 22.2933 43.94 21.64C44.58 20.9867 45.32 20.4867 46.16 20.14C47 19.78 47.9 19.6 48.86 19.6C49.74 19.6 50.5133 19.74 51.18 20.02C51.8467 20.2867 52.4 20.6733 52.84 21.18C53.2933 21.6733 53.62 22.26 53.82 22.94H53.1L53.42 19.8H54.62V24.08H53.28C53.0667 23.4267 52.76 22.86 52.36 22.38C51.9733 21.9 51.4867 21.5267 50.9 21.26C50.3267 20.98 49.6467 20.84 48.86 20.84C48.1533 20.84 47.5 20.9867 46.9 21.28C46.3 21.56 45.78 21.9667 45.34 22.5C44.9 23.0333 44.5533 23.6733 44.3 24.42C44.06 25.1533 43.94 25.98 43.94 26.9C43.94 27.8333 44.0533 28.68 44.28 29.44C44.52 30.1867 44.8667 30.82 45.32 31.34C45.7733 31.86 46.32 32.26 46.96 32.54C47.6 32.82 48.3267 32.96 49.14 32.96C49.8333 32.96 50.4267 32.88 50.92 32.72C51.4133 32.5467 51.8133 32.3533 52.12 32.14C52.4267 31.9267 52.6467 31.76 52.78 31.64V28.6C52.78 28.3067 52.62 28.1133 52.3 28.02C51.98 27.9267 51.5733 27.88 51.08 27.88H50.86V26.94H56.16V27.88H56.08C55.6533 27.88 55.2933 27.9267 55 28.02C54.72 28.1133 54.58 28.3067 54.58 28.6ZM68.3366 28.92C68.3366 29.9467 68.1099 30.86 67.6566 31.66C67.2166 32.46 66.6032 33.0867 65.8166 33.54C65.0299 33.98 64.1299 34.2 63.1166 34.2C62.1032 34.2 61.2032 33.98 60.4166 33.54C59.6299 33.0867 59.0099 32.46 58.5566 31.66C58.1166 30.86 57.8966 29.9467 57.8966 28.92C57.8966 28.1467 58.0232 27.44 58.2766 26.8C58.5299 26.1467 58.8899 25.5867 59.3566 25.12C59.8366 24.6533 60.3899 24.2933 61.0166 24.04C61.6566 23.7733 62.3566 23.64 63.1166 23.64C63.8766 23.64 64.5699 23.7733 65.1966 24.04C65.8366 24.2933 66.3899 24.6533 66.8566 25.12C67.3366 25.5867 67.7032 26.1467 67.9566 26.8C68.2099 27.44 68.3366 28.1467 68.3366 28.92ZM59.7766 28.92C59.7766 29.7467 59.9099 30.4733 60.1766 31.1C60.4566 31.7267 60.8432 32.2133 61.3366 32.56C61.8432 32.8933 62.4366 33.06 63.1166 33.06C63.8099 33.06 64.4032 32.8933 64.8966 32.56C65.3899 32.2133 65.7699 31.7267 66.0366 31.1C66.3166 30.4733 66.4566 29.7467 66.4566 28.92C66.4566 28.08 66.3166 27.3533 66.0366 26.74C65.7699 26.1133 65.3899 25.6333 64.8966 25.3C64.4032 24.9533 63.8099 24.78 63.1166 24.78C62.4366 24.78 61.8432 24.9533 61.3366 25.3C60.8432 25.6333 60.4566 26.1133 60.1766 26.74C59.9099 27.3533 59.7766 28.08 59.7766 28.92ZM80.6217 28.92C80.6217 29.9467 80.3951 30.86 79.9417 31.66C79.5017 32.46 78.8884 33.0867 78.1017 33.54C77.3151 33.98 76.4151 34.2 75.4017 34.2C74.3884 34.2 73.4884 33.98 72.7017 33.54C71.9151 33.0867 71.2951 32.46 70.8417 31.66C70.4017 30.86 70.1817 29.9467 70.1817 28.92C70.1817 28.1467 70.3084 27.44 70.5617 26.8C70.8151 26.1467 71.1751 25.5867 71.6417 25.12C72.1217 24.6533 72.6751 24.2933 73.3017 24.04C73.9417 23.7733 74.6417 23.64 75.4017 23.64C76.1617 23.64 76.8551 23.7733 77.4817 24.04C78.1217 24.2933 78.6751 24.6533 79.1417 25.12C79.6217 25.5867 79.9884 26.1467 80.2417 26.8C80.4951 27.44 80.6217 28.1467 80.6217 28.92ZM72.0617 28.92C72.0617 29.7467 72.1951 30.4733 72.4617 31.1C72.7417 31.7267 73.1284 32.2133 73.6217 32.56C74.1284 32.8933 74.7217 33.06 75.4017 33.06C76.0951 33.06 76.6884 32.8933 77.1817 32.56C77.6751 32.2133 78.0551 31.7267 78.3217 31.1C78.6017 30.4733 78.7417 29.7467 78.7417 28.92C78.7417 28.08 78.6017 27.3533 78.3217 26.74C78.0551 26.1133 77.6751 25.6333 77.1817 25.3C76.6884 24.9533 76.0951 24.78 75.4017 24.78C74.7217 24.78 74.1284 24.9533 73.6217 25.3C73.1284 25.6333 72.7417 26.1133 72.4617 26.74C72.1951 27.3533 72.0617 28.08 72.0617 28.92ZM92.7092 25.26C92.1226 25.2067 91.6226 25.18 91.2092 25.18C90.7959 25.18 90.4492 25.22 90.1692 25.3C89.9026 25.38 89.6826 25.5333 89.5092 25.76L89.2492 25.46C89.4359 25.0733 89.6492 24.7467 89.8892 24.48C90.1426 24.2 90.4159 23.9733 90.7092 23.8C91.0026 23.6267 91.3159 23.5133 91.6492 23.46C91.9826 23.3933 92.3359 23.38 92.7092 23.42V25.26ZM86.8692 30.98C86.0959 30.98 85.4026 30.8333 84.7892 30.54C84.1892 30.2333 83.7159 29.8067 83.3692 29.26C83.0226 28.7133 82.8492 28.0733 82.8492 27.34C82.8492 26.6067 83.0226 25.9667 83.3692 25.42C83.7292 24.86 84.2092 24.4267 84.8092 24.12C85.4226 23.8 86.1092 23.64 86.8692 23.64C87.6426 23.64 88.3292 23.8 88.9292 24.12C89.5426 24.4267 90.0226 24.86 90.3692 25.42C90.7292 25.9667 90.9092 26.6067 90.9092 27.34C90.9092 28.0733 90.7292 28.7133 90.3692 29.26C90.0226 29.8067 89.5426 30.2333 88.9292 30.54C88.3292 30.8333 87.6426 30.98 86.8692 30.98ZM86.8692 29.82C87.3359 29.82 87.7359 29.7267 88.0692 29.54C88.4159 29.34 88.6826 29.06 88.8692 28.7C89.0559 28.3267 89.1492 27.8733 89.1492 27.34C89.1492 26.8067 89.0559 26.3533 88.8692 25.98C88.6826 25.5933 88.4159 25.3 88.0692 25.1C87.7359 24.9 87.3359 24.8 86.8692 24.8C86.4159 24.8 86.0159 24.9 85.6692 25.1C85.3359 25.3 85.0759 25.5933 84.8892 25.98C84.7026 26.3533 84.6092 26.8067 84.6092 27.34C84.6092 27.8733 84.7026 28.3267 84.8892 28.7C85.0759 29.06 85.3359 29.34 85.6692 29.54C86.0159 29.7267 86.4159 29.82 86.8692 29.82ZM86.5692 38.72C85.6759 38.72 84.8692 38.6333 84.1492 38.46C83.4292 38.3 82.8559 38.0267 82.4292 37.64C82.0159 37.2533 81.8092 36.74 81.8092 36.1C81.8092 35.78 81.8892 35.4867 82.0492 35.22C82.2226 34.9533 82.4759 34.7 82.8092 34.46C83.1426 34.2333 83.5692 34 84.0892 33.76L84.8292 34.28C84.4959 34.44 84.2226 34.6133 84.0092 34.8C83.7959 34.9867 83.6359 35.18 83.5292 35.38C83.4359 35.58 83.3892 35.7933 83.3892 36.02C83.3892 36.34 83.5026 36.6067 83.7292 36.82C83.9559 37.0467 84.3026 37.22 84.7692 37.34C85.2492 37.46 85.8559 37.52 86.5892 37.52H87.2892C87.9692 37.52 88.5692 37.4333 89.0892 37.26C89.6226 37.1 90.0359 36.8733 90.3292 36.58C90.6359 36.2867 90.7892 35.9533 90.7892 35.58C90.7892 35.1933 90.6426 34.9133 90.3492 34.74C90.0692 34.58 89.5359 34.5 88.7492 34.5H84.2692H84.1892C83.7626 34.2733 83.4226 34.06 83.1692 33.86C82.9159 33.6467 82.7359 33.4267 82.6292 33.2C82.5359 32.9733 82.4892 32.7333 82.4892 32.48C82.4892 32.16 82.5692 31.86 82.7292 31.58C82.8892 31.3 83.1292 31.0333 83.4492 30.78C83.7692 30.5133 84.1759 30.2667 84.6692 30.04L85.4292 30.58C85.1626 30.7133 84.9292 30.8533 84.7292 31C84.5292 31.1467 84.3759 31.3 84.2692 31.46C84.1759 31.62 84.1292 31.7933 84.1292 31.98C84.1292 32.26 84.2692 32.4667 84.5492 32.6C84.8426 32.72 85.2559 32.78 85.7892 32.78H88.7892C89.5892 32.78 90.2559 32.8733 90.7892 33.06C91.3359 33.2333 91.7492 33.5067 92.0292 33.88C92.3092 34.24 92.4492 34.7 92.4492 35.26C92.4492 36.0467 92.2092 36.6933 91.7292 37.2C91.2626 37.72 90.6359 38.1 89.8492 38.34C89.0759 38.5933 88.2292 38.72 87.3092 38.72H86.5692ZM96.9564 19.3V32.38C96.9564 32.6733 97.1097 32.8667 97.4164 32.96C97.7231 33.0533 98.1164 33.1 98.5964 33.1H98.6364V34H93.4964V33.1H93.5364C94.0164 33.1 94.4097 33.0533 94.7164 32.96C95.0231 32.8667 95.1764 32.6733 95.1764 32.38V21.16C95.1764 20.96 95.1231 20.8067 95.0164 20.7C94.9097 20.5933 94.7497 20.5067 94.5364 20.44C94.3231 20.3733 94.0431 20.3133 93.6964 20.26L93.4764 20.22V19.3H96.9564ZM101.728 29C101.728 29.64 101.808 30.2133 101.968 30.72C102.142 31.2267 102.382 31.6533 102.688 32C102.995 32.3467 103.355 32.6133 103.768 32.8C104.182 32.9733 104.628 33.06 105.108 33.06C105.655 33.06 106.122 32.9533 106.508 32.74C106.908 32.5267 107.242 32.2667 107.508 31.96C107.788 31.64 108.022 31.3267 108.208 31.02L109.148 31.86C108.895 32.2867 108.582 32.68 108.208 33.04C107.835 33.4 107.388 33.6867 106.868 33.9C106.362 34.1 105.762 34.2 105.068 34.2C104.095 34.2 103.215 33.9867 102.428 33.56C101.655 33.1333 101.042 32.5267 100.588 31.74C100.135 30.9533 99.9083 30.0267 99.9083 28.96C99.9083 27.9067 100.122 26.9867 100.548 26.2C100.975 25.4 101.548 24.7733 102.268 24.32C103.002 23.8667 103.815 23.64 104.708 23.64C105.442 23.64 106.082 23.76 106.628 24C107.188 24.24 107.655 24.6 108.028 25.08C108.415 25.5467 108.708 26.14 108.908 26.86C109.108 27.58 109.208 28.42 109.208 29.38H101.368V28.26H107.868L107.308 28.7C107.295 28.0333 107.235 27.4533 107.128 26.96C107.022 26.4667 106.862 26.06 106.648 25.74C106.435 25.42 106.168 25.18 105.848 25.02C105.528 24.86 105.148 24.78 104.708 24.78C104.295 24.78 103.908 24.88 103.548 25.08C103.188 25.2667 102.868 25.5467 102.588 25.92C102.322 26.28 102.108 26.72 101.948 27.24C101.802 27.76 101.728 28.3467 101.728 29ZM121.183 38.46H115.683V37.56H115.723C116.043 37.56 116.323 37.54 116.563 37.5C116.817 37.46 117.01 37.3867 117.143 37.28C117.29 37.1733 117.363 37.0267 117.363 36.84V25.7C117.363 25.5 117.31 25.3533 117.203 25.26C117.097 25.1533 116.93 25.0667 116.703 25C116.49 24.9333 116.217 24.8667 115.883 24.8L115.683 24.76V23.84H118.963V26.36L119.143 26.6V37.36C119.143 37.4 119.23 37.4333 119.403 37.46C119.577 37.5 119.777 37.5267 120.003 37.54C120.23 37.5533 120.43 37.56 120.603 37.56H121.183V38.46ZM122.403 34.2C121.87 34.2 121.397 34.1267 120.983 33.98C120.57 33.82 120.183 33.5867 119.823 33.28C119.477 32.96 119.137 32.5533 118.803 32.06V30.3C119.11 30.9133 119.437 31.4267 119.783 31.84C120.143 32.24 120.537 32.5467 120.963 32.76C121.39 32.96 121.85 33.06 122.343 33.06C122.823 33.06 123.25 32.96 123.623 32.76C123.997 32.56 124.303 32.2733 124.543 31.9C124.797 31.5267 124.983 31.0867 125.103 30.58C125.237 30.06 125.303 29.4867 125.303 28.86C125.303 28.2333 125.237 27.6733 125.103 27.18C124.983 26.6733 124.803 26.24 124.563 25.88C124.323 25.52 124.023 25.2467 123.663 25.06C123.303 24.8733 122.89 24.78 122.423 24.78C121.903 24.78 121.423 24.8933 120.983 25.12C120.557 25.3333 120.163 25.66 119.803 26.1C119.443 26.5267 119.11 27.0533 118.803 27.68V25.98C119.163 25.4467 119.523 25.0133 119.883 24.68C120.243 24.3333 120.637 24.0733 121.063 23.9C121.503 23.7267 121.997 23.64 122.543 23.64C123.477 23.64 124.29 23.86 124.983 24.3C125.677 24.7267 126.217 25.3333 126.603 26.12C126.99 26.8933 127.183 27.8067 127.183 28.86C127.183 29.9133 126.983 30.84 126.583 31.64C126.197 32.44 125.643 33.0667 124.923 33.52C124.203 33.9733 123.363 34.2 122.403 34.2ZM132.249 19.3V32.38C132.249 32.6733 132.403 32.8667 132.709 32.96C133.016 33.0533 133.409 33.1 133.889 33.1H133.929V34H128.789V33.1H128.829C129.309 33.1 129.703 33.0533 130.009 32.96C130.316 32.8667 130.469 32.6733 130.469 32.38V21.16C130.469 20.96 130.416 20.8067 130.309 20.7C130.203 20.5933 130.043 20.5067 129.829 20.44C129.616 20.3733 129.336 20.3133 128.989 20.26L128.769 20.22V19.3H132.249ZM141.981 27.84V28.84C141.315 28.9067 140.721 28.9933 140.201 29.1C139.681 29.2067 139.228 29.3333 138.841 29.48C138.468 29.6267 138.161 29.8 137.921 30C137.681 30.1867 137.501 30.4067 137.381 30.66C137.261 30.9133 137.201 31.1933 137.201 31.5C137.201 31.82 137.275 32.1 137.421 32.34C137.568 32.58 137.775 32.7667 138.041 32.9C138.308 33.0333 138.615 33.1 138.961 33.1C139.428 33.1 139.841 32.9867 140.201 32.76C140.575 32.5333 140.901 32.2133 141.181 31.8C141.475 31.3867 141.728 30.9 141.941 30.34V31.76C141.741 32.2533 141.475 32.6867 141.141 33.06C140.808 33.42 140.421 33.7 139.981 33.9C139.541 34.1 139.041 34.2 138.481 34.2C137.908 34.2 137.381 34.0933 136.901 33.88C136.435 33.6667 136.055 33.36 135.761 32.96C135.481 32.5467 135.341 32.0667 135.341 31.52C135.341 30.9733 135.481 30.5 135.761 30.1C136.041 29.6867 136.461 29.3333 137.021 29.04C137.581 28.7467 138.275 28.5067 139.101 28.32C139.928 28.12 140.888 27.96 141.981 27.84ZM141.641 34V31.86L141.441 31.8V27C141.441 26.44 141.361 26 141.201 25.68C141.055 25.3467 140.835 25.1133 140.541 24.98C140.248 24.8467 139.888 24.78 139.461 24.78C138.808 24.78 138.268 24.9133 137.841 25.18C137.428 25.4467 137.095 25.76 136.841 26.12C136.815 25.96 136.821 25.8133 136.861 25.68C136.901 25.5467 136.961 25.4267 137.041 25.32C137.121 25.2133 137.215 25.12 137.321 25.04C137.441 24.96 137.568 24.8933 137.701 24.84V26.9H135.961V24.84C136.161 24.68 136.428 24.5067 136.761 24.32C137.108 24.1333 137.521 23.9733 138.001 23.84C138.481 23.7067 139.008 23.64 139.581 23.64C140.048 23.64 140.495 23.6933 140.921 23.8C141.348 23.9067 141.735 24.0867 142.081 24.34C142.428 24.58 142.701 24.9067 142.901 25.32C143.101 25.72 143.201 26.22 143.201 26.82V32.38C143.201 32.5667 143.275 32.7133 143.421 32.82C143.568 32.9267 143.761 33 144.001 33.04C144.255 33.08 144.541 33.1 144.861 33.1V34H141.641ZM151.253 33.1L151.013 33.84L149.993 34.28L146.253 25.44C146.173 25.2533 146.067 25.1133 145.933 25.02C145.8 24.9133 145.633 24.84 145.433 24.8C145.233 24.76 145 24.74 144.733 24.74H144.713V23.84H149.713V24.74H149.673C149.407 24.74 149.133 24.7467 148.853 24.76C148.587 24.7733 148.36 24.7933 148.173 24.82C148 24.8333 147.913 24.8667 147.913 24.92L151.253 33.1ZM151.453 33.66C151.093 34.5133 150.733 35.2533 150.373 35.88C150.013 36.52 149.64 37.04 149.253 37.44C148.88 37.84 148.48 38.14 148.053 38.34C147.627 38.54 147.16 38.64 146.653 38.64C146.32 38.64 146.04 38.6 145.813 38.52C145.6 38.4533 145.42 38.3733 145.273 38.28V36.68C145.313 36.6933 145.393 36.7267 145.513 36.78C145.647 36.8467 145.807 36.9067 145.993 36.96C146.193 37.0133 146.407 37.04 146.633 37.04C146.94 37.04 147.247 36.9867 147.553 36.88C147.86 36.7867 148.173 36.5933 148.493 36.3C148.813 36.02 149.14 35.6067 149.473 35.06C149.807 34.5133 150.147 33.8 150.493 32.92L150.633 32.56L153.673 25.18C153.673 25.0867 153.593 25.0133 153.433 24.96C153.273 24.8933 153.067 24.84 152.813 24.8C152.56 24.76 152.3 24.74 152.033 24.74H151.973V23.84H156.333V24.74H156.313C156.113 24.74 155.92 24.7667 155.733 24.82C155.547 24.86 155.373 24.9467 155.213 25.08C155.053 25.2 154.92 25.3867 154.813 25.64L151.453 33.66Z" fill="#2F9564"/>
<path d="M42.442 11.956H44.353L44.458 12.439H42.344L42.442 11.956ZM43.345 9.345L43.464 9.373L42.239 13.307C42.239 13.335 42.2577 13.363 42.295 13.391C42.337 13.4143 42.3977 13.433 42.477 13.447C42.5563 13.461 42.6567 13.468 42.778 13.468H42.841V14H41.161V13.468H41.203C41.329 13.468 41.4363 13.44 41.525 13.384C41.6183 13.3233 41.693 13.202 41.749 13.02L43.023 8.96H44.255L45.55 13.02C45.6107 13.202 45.683 13.3233 45.767 13.384C45.8557 13.44 45.9653 13.468 46.096 13.468H46.131V14H43.989V13.468H44.059C44.1803 13.468 44.2807 13.4657 44.36 13.461C44.4393 13.4517 44.4977 13.4423 44.535 13.433C44.577 13.419 44.598 13.405 44.598 13.391L43.345 9.345ZM46.6619 14V13.468H46.7319C46.8299 13.468 46.9162 13.461 46.9909 13.447C47.0655 13.433 47.1239 13.4073 47.1659 13.37C47.2079 13.3327 47.2289 13.2813 47.2289 13.216V9.814C47.2289 9.744 47.2079 9.69267 47.1659 9.66C47.1239 9.62267 47.0655 9.597 46.9909 9.583C46.9162 9.569 46.8299 9.562 46.7319 9.562H46.6619V9.03H48.6079L50.8269 13.09L50.7219 13.118V9.632C50.7219 9.61333 50.6939 9.59933 50.6379 9.59C50.5865 9.58067 50.5235 9.57367 50.4489 9.569C50.3789 9.56433 50.3112 9.562 50.2459 9.562H50.1479V9.03H51.8559V9.562H51.7859C51.6925 9.562 51.6085 9.569 51.5339 9.583C51.4592 9.59233 51.4009 9.61333 51.3589 9.646C51.3169 9.67867 51.2959 9.73 51.2959 9.8V14H50.1829L47.6489 9.338L47.8029 9.373V13.398C47.8029 13.412 47.8285 13.426 47.8799 13.44C47.9359 13.4493 48.0012 13.4563 48.0759 13.461C48.1505 13.4657 48.2182 13.468 48.2789 13.468H48.3699V14H46.6619ZM52.5199 9.562V9.03H54.9839C55.3853 9.03 55.7469 9.079 56.0689 9.177C56.3909 9.275 56.6663 9.42433 56.8949 9.625C57.1236 9.82567 57.2963 10.08 57.4129 10.388C57.5343 10.696 57.5949 11.0623 57.5949 11.487C57.5949 11.907 57.5343 12.2757 57.4129 12.593C57.2963 12.9057 57.1236 13.167 56.8949 13.377C56.6663 13.5823 56.3909 13.7387 56.0689 13.846C55.7469 13.9487 55.3853 14 54.9839 14H52.5199V13.468H52.6039C52.7439 13.468 52.8606 13.4517 52.9539 13.419C53.0473 13.3863 53.0939 13.3187 53.0939 13.216V9.814C53.0939 9.71133 53.0473 9.64367 52.9539 9.611C52.8606 9.57833 52.7439 9.562 52.6039 9.562H52.5199ZM54.8859 9.562H54.1439V13.468H54.8859C55.1613 13.468 55.3993 13.4307 55.5999 13.356C55.8006 13.2767 55.9663 13.1577 56.0969 12.999C56.2323 12.8357 56.3326 12.6303 56.3979 12.383C56.4633 12.131 56.4959 11.8323 56.4959 11.487C56.4959 11.1417 56.4633 10.8477 56.3979 10.605C56.3326 10.3577 56.2323 10.1593 56.0969 10.01C55.9663 9.856 55.8006 9.744 55.5999 9.674C55.3993 9.59933 55.1613 9.562 54.8859 9.562ZM60.7456 11.76L61.6696 11.445L62.5726 13.041C62.6426 13.1577 62.7103 13.2487 62.7756 13.314C62.8456 13.3747 62.918 13.4167 62.9926 13.44C63.072 13.4587 63.1583 13.468 63.2516 13.468H63.3146V14H61.9146L60.7456 11.76ZM59.9476 13.398C59.9476 13.412 59.9616 13.4237 59.9896 13.433C60.0176 13.4377 60.0573 13.4447 60.1086 13.454C60.16 13.4587 60.2183 13.4633 60.2836 13.468C60.349 13.468 60.419 13.468 60.4936 13.468H60.6126V14H58.3236V13.468H58.4006C58.5453 13.468 58.6643 13.4517 58.7576 13.419C58.851 13.3863 58.8976 13.3187 58.8976 13.216V9.814C58.8976 9.71133 58.851 9.64367 58.7576 9.611C58.6643 9.57833 58.5453 9.562 58.4006 9.562H58.3236V9.03H61.0046C61.3826 9.03 61.7023 9.079 61.9636 9.177C62.2296 9.27033 62.4303 9.41733 62.5656 9.618C62.7056 9.814 62.7756 10.0613 62.7756 10.36C62.7756 10.6073 62.7196 10.8267 62.6076 11.018C62.4956 11.2047 62.3346 11.3587 62.1246 11.48C61.9193 11.6013 61.672 11.6923 61.3826 11.753C61.3546 11.7857 61.329 11.816 61.3056 11.844C61.287 11.8673 61.2706 11.8883 61.2566 11.907C61.2473 11.921 61.231 11.9373 61.2076 11.956H59.7936V11.452H60.8226C61.0233 11.452 61.1866 11.4123 61.3126 11.333C61.4433 11.249 61.539 11.1323 61.5996 10.983C61.6603 10.8337 61.6906 10.654 61.6906 10.444C61.6906 10.2433 61.6603 10.0777 61.5996 9.947C61.5436 9.81167 61.455 9.71133 61.3336 9.646C61.2123 9.576 61.0583 9.541 60.8716 9.541H59.9476V13.398ZM66.3957 14.175C66.0131 14.175 65.6654 14.119 65.3527 14.007C65.0401 13.895 64.7717 13.727 64.5477 13.503C64.3237 13.279 64.1511 13.0013 64.0297 12.67C63.9084 12.3387 63.8477 11.9537 63.8477 11.515C63.8477 11.0763 63.9084 10.6913 64.0297 10.36C64.1511 10.0287 64.3237 9.751 64.5477 9.527C64.7717 9.303 65.0401 9.135 65.3527 9.023C65.6654 8.911 66.0131 8.855 66.3957 8.855C66.7784 8.855 67.1261 8.911 67.4387 9.023C67.7514 9.135 68.0197 9.303 68.2437 9.527C68.4677 9.751 68.6404 10.0287 68.7617 10.36C68.8831 10.6913 68.9437 11.0763 68.9437 11.515C68.9437 11.9537 68.8831 12.3387 68.7617 12.67C68.6404 13.0013 68.4677 13.279 68.2437 13.503C68.0197 13.727 67.7514 13.895 67.4387 14.007C67.1261 14.119 66.7784 14.175 66.3957 14.175ZM66.3957 13.615C66.6384 13.615 66.8484 13.5753 67.0257 13.496C67.2077 13.4167 67.3571 13.2953 67.4737 13.132C67.5951 12.964 67.6861 12.747 67.7467 12.481C67.8074 12.2103 67.8377 11.8883 67.8377 11.515C67.8377 11.1417 67.8074 10.822 67.7467 10.556C67.6861 10.2853 67.5951 10.0683 67.4737 9.905C67.3571 9.737 67.2077 9.61333 67.0257 9.534C66.8484 9.45467 66.6384 9.415 66.3957 9.415C66.1531 9.415 65.9407 9.45467 65.7587 9.534C65.5814 9.61333 65.4321 9.737 65.3107 9.905C65.1894 10.0683 65.0984 10.2853 65.0377 10.556C64.9817 10.822 64.9537 11.1417 64.9537 11.515C64.9537 11.8883 64.9817 12.2103 65.0377 12.481C65.0984 12.747 65.1894 12.964 65.3107 13.132C65.4321 13.2953 65.5814 13.4167 65.7587 13.496C65.9407 13.5753 66.1531 13.615 66.3957 13.615ZM70.3083 13.216V9.814C70.3083 9.71133 70.2616 9.64367 70.1683 9.611C70.075 9.57833 69.956 9.562 69.8113 9.562H69.6713V9.03H71.9883V9.562H71.8483C71.7083 9.562 71.5916 9.57833 71.4983 9.611C71.405 9.64367 71.3583 9.71133 71.3583 9.814V13.216C71.3583 13.3187 71.405 13.3863 71.4983 13.419C71.5916 13.4517 71.7083 13.468 71.8483 13.468H71.9883V14H69.6713V13.468H69.8113C69.956 13.468 70.075 13.4517 70.1683 13.419C70.2616 13.3863 70.3083 13.3187 70.3083 13.216ZM72.6928 9.562V9.03H75.1568C75.5581 9.03 75.9198 9.079 76.2418 9.177C76.5638 9.275 76.8391 9.42433 77.0678 9.625C77.2964 9.82567 77.4691 10.08 77.5858 10.388C77.7071 10.696 77.7678 11.0623 77.7678 11.487C77.7678 11.907 77.7071 12.2757 77.5858 12.593C77.4691 12.9057 77.2964 13.167 77.0678 13.377C76.8391 13.5823 76.5638 13.7387 76.2418 13.846C75.9198 13.9487 75.5581 14 75.1568 14H72.6928V13.468H72.7768C72.9168 13.468 73.0334 13.4517 73.1268 13.419C73.2201 13.3863 73.2668 13.3187 73.2668 13.216V9.814C73.2668 9.71133 73.2201 9.64367 73.1268 9.611C73.0334 9.57833 72.9168 9.562 72.7768 9.562H72.6928ZM75.0588 9.562H74.3168V13.468H75.0588C75.3341 13.468 75.5721 13.4307 75.7728 13.356C75.9734 13.2767 76.1391 13.1577 76.2698 12.999C76.4051 12.8357 76.5054 12.6303 76.5708 12.383C76.6361 12.131 76.6688 11.8323 76.6688 11.487C76.6688 11.1417 76.6361 10.8477 76.5708 10.605C76.5054 10.3577 76.4051 10.1593 76.2698 10.01C76.1391 9.856 75.9734 9.744 75.7728 9.674C75.5721 9.59933 75.3341 9.562 75.0588 9.562ZM81.4547 11.956H83.3657L83.4707 12.439H81.3567L81.4547 11.956ZM82.3577 9.345L82.4767 9.373L81.2517 13.307C81.2517 13.335 81.2704 13.363 81.3077 13.391C81.3497 13.4143 81.4104 13.433 81.4897 13.447C81.569 13.461 81.6694 13.468 81.7907 13.468H81.8537V14H80.1737V13.468H80.2157C80.3417 13.468 80.449 13.44 80.5377 13.384C80.631 13.3233 80.7057 13.202 80.7617 13.02L82.0357 8.96H83.2677L84.5627 13.02C84.6234 13.202 84.6957 13.3233 84.7797 13.384C84.8684 13.44 84.978 13.468 85.1087 13.468H85.1437V14H83.0017V13.468H83.0717C83.193 13.468 83.2934 13.4657 83.3727 13.461C83.452 13.4517 83.5104 13.4423 83.5477 13.433C83.5897 13.419 83.6107 13.405 83.6107 13.391L82.3577 9.345ZM87.2845 13.398C87.2845 13.412 87.2985 13.4237 87.3265 13.433C87.3592 13.4377 87.3989 13.4447 87.4455 13.454C87.4969 13.4587 87.5552 13.4633 87.6205 13.468C87.6859 13.468 87.7559 13.468 87.8305 13.468H87.9845V14H85.6605V13.496H85.7375C85.8822 13.496 86.0012 13.4797 86.0945 13.447C86.1879 13.4143 86.2345 13.3467 86.2345 13.244V9.786C86.2345 9.68333 86.1879 9.61567 86.0945 9.583C86.0012 9.55033 85.8822 9.534 85.7375 9.534H85.6605V9.03H88.2995C88.8455 9.03 89.2725 9.15367 89.5805 9.401C89.8932 9.64833 90.0495 10.0217 90.0495 10.521C90.0495 10.857 89.9749 11.1417 89.8255 11.375C89.6762 11.6037 89.4685 11.7763 89.2025 11.893C88.9412 12.0097 88.6355 12.068 88.2855 12.068H87.0885V11.543H88.1455C88.3369 11.543 88.4955 11.508 88.6215 11.438C88.7475 11.3633 88.8409 11.2513 88.9015 11.102C88.9669 10.9527 88.9995 10.7637 88.9995 10.535C88.9995 10.311 88.9669 10.1267 88.9015 9.982C88.8409 9.83733 88.7475 9.73233 88.6215 9.667C88.5002 9.597 88.3462 9.562 88.1595 9.562H87.2845V13.398ZM92.2953 13.398C92.2953 13.412 92.3093 13.4237 92.3373 13.433C92.37 13.4377 92.4096 13.4447 92.4563 13.454C92.5076 13.4587 92.566 13.4633 92.6313 13.468C92.6966 13.468 92.7666 13.468 92.8413 13.468H92.9953V14H90.6713V13.496H90.7483C90.893 13.496 91.012 13.4797 91.1053 13.447C91.1986 13.4143 91.2453 13.3467 91.2453 13.244V9.786C91.2453 9.68333 91.1986 9.61567 91.1053 9.583C91.012 9.55033 90.893 9.534 90.7483 9.534H90.6713V9.03H93.3103C93.8563 9.03 94.2833 9.15367 94.5913 9.401C94.904 9.64833 95.0603 10.0217 95.0603 10.521C95.0603 10.857 94.9856 11.1417 94.8363 11.375C94.687 11.6037 94.4793 11.7763 94.2133 11.893C93.952 12.0097 93.6463 12.068 93.2963 12.068H92.0993V11.543H93.1563C93.3476 11.543 93.5063 11.508 93.6323 11.438C93.7583 11.3633 93.8516 11.2513 93.9123 11.102C93.9776 10.9527 94.0103 10.7637 94.0103 10.535C94.0103 10.311 93.9776 10.1267 93.9123 9.982C93.8516 9.83733 93.7583 9.73233 93.6323 9.667C93.511 9.597 93.357 9.562 93.1703 9.562H92.2953V13.398ZM100.165 14.175C99.7826 14.175 99.4349 14.119 99.1223 14.007C98.8096 13.895 98.5413 13.727 98.3173 13.503C98.0933 13.279 97.9206 13.0013 97.7993 12.67C97.6779 12.3387 97.6173 11.9537 97.6173 11.515C97.6173 11.0763 97.6779 10.6913 97.7993 10.36C97.9206 10.0287 98.0933 9.751 98.3173 9.527C98.5413 9.303 98.8096 9.135 99.1223 9.023C99.4349 8.911 99.7826 8.855 100.165 8.855C100.548 8.855 100.896 8.911 101.208 9.023C101.521 9.135 101.789 9.303 102.013 9.527C102.237 9.751 102.41 10.0287 102.531 10.36C102.653 10.6913 102.713 11.0763 102.713 11.515C102.713 11.9537 102.653 12.3387 102.531 12.67C102.41 13.0013 102.237 13.279 102.013 13.503C101.789 13.727 101.521 13.895 101.208 14.007C100.896 14.119 100.548 14.175 100.165 14.175ZM100.165 13.615C100.408 13.615 100.618 13.5753 100.795 13.496C100.977 13.4167 101.127 13.2953 101.243 13.132C101.365 12.964 101.456 12.747 101.516 12.481C101.577 12.2103 101.607 11.8883 101.607 11.515C101.607 11.1417 101.577 10.822 101.516 10.556C101.456 10.2853 101.365 10.0683 101.243 9.905C101.127 9.737 100.977 9.61333 100.795 9.534C100.618 9.45467 100.408 9.415 100.165 9.415C99.9226 9.415 99.7103 9.45467 99.5283 9.534C99.3509 9.61333 99.2016 9.737 99.0803 9.905C98.9589 10.0683 98.8679 10.2853 98.8073 10.556C98.7513 10.822 98.7233 11.1417 98.7233 11.515C98.7233 11.8883 98.7513 12.2103 98.8073 12.481C98.8679 12.747 98.9589 12.964 99.0803 13.132C99.2016 13.2953 99.3509 13.4167 99.5283 13.496C99.7103 13.5753 99.9226 13.615 100.165 13.615ZM103.455 14V13.468H103.525C103.623 13.468 103.709 13.461 103.784 13.447C103.858 13.433 103.917 13.4073 103.959 13.37C104.001 13.3327 104.022 13.2813 104.022 13.216V9.814C104.022 9.744 104.001 9.69267 103.959 9.66C103.917 9.62267 103.858 9.597 103.784 9.583C103.709 9.569 103.623 9.562 103.525 9.562H103.455V9.03H105.401L107.62 13.09L107.515 13.118V9.632C107.515 9.61333 107.487 9.59933 107.431 9.59C107.379 9.58067 107.316 9.57367 107.242 9.569C107.172 9.56433 107.104 9.562 107.039 9.562H106.941V9.03H108.649V9.562H108.579C108.485 9.562 108.401 9.569 108.327 9.583C108.252 9.59233 108.194 9.61333 108.152 9.646C108.11 9.67867 108.089 9.73 108.089 9.8V14H106.976L104.442 9.338L104.596 9.373V13.398C104.596 13.412 104.621 13.426 104.673 13.44C104.729 13.4493 104.794 13.4563 104.869 13.461C104.943 13.4657 105.011 13.468 105.072 13.468H105.163V14H103.455Z" fill="#2F9564"/>
<defs>
<linearGradient id="paint0_linear_119_208" x1="28.2679" y1="9.15464" x2="0.838613" y2="9.15464" gradientUnits="userSpaceOnUse">
<stop stop-color="#C3E19E"/>
<stop offset="1" stop-color="#7CCCA7"/>
</linearGradient>
<linearGradient id="paint1_linear_119_208" x1="10.8011" y1="43" x2="10.8011" y2="-0.000586935" gradientUnits="userSpaceOnUse">
<stop stop-color="#7CC1BB"/>
<stop offset="1" stop-color="#3586B2"/>
</linearGradient>
<linearGradient id="paint2_linear_119_208" x1="28.9677" y1="27.4719" x2="28.9677" y2="15.5273" gradientUnits="userSpaceOnUse">
<stop stop-color="#FCBA76"/>
<stop offset="1" stop-color="#F89679"/>
</linearGradient>
<linearGradient id="paint3_linear_119_208" x1="28.0807" y1="32.051" x2="0.964127" y2="32.3737" gradientUnits="userSpaceOnUse">
<stop stop-color="#D94453"/>
<stop offset="1" stop-color="#AC497E"/>
</linearGradient>
</defs>
</svg>
