<svg width="141" height="104" viewBox="0 0 141 104" fill="none" xmlns="http://www.w3.org/2000/svg">
<path d="M105 70C83 117.5 24 108.5 10 70" stroke="#166F5E" stroke-width="3"/>
<path d="M9.5 34C31.5 -13.5 90.5 -4.50001 104.5 34" stroke="#166F5E" stroke-width="3"/>
<path d="M0 52.5H12.5" stroke="#166F5E" stroke-width="3"/>
<path d="M140.061 54.0607C140.646 53.4749 140.646 52.5251 140.061 51.9393L130.515 42.3934C129.929 41.8076 128.979 41.8076 128.393 42.3934C127.808 42.9792 127.808 43.9289 128.393 44.5147L136.879 53L128.393 61.4853C127.808 62.0711 127.808 63.0208 128.393 63.6066C128.979 64.1924 129.929 64.1924 130.515 63.6066L140.061 54.0607ZM104 54.5L139 54.5L139 51.5L104 51.5L104 54.5Z" fill="#166F5E"/>
<path d="M26.692 48V35.4H29.032V48H26.692ZM27.772 42.834V40.71H34.27V42.834H27.772ZM27.772 37.56V35.4H35.044V37.56H27.772ZM37.089 48V38.514H39.267L39.303 41.538L38.997 40.854C39.129 40.374 39.357 39.942 39.681 39.558C40.005 39.174 40.377 38.874 40.797 38.658C41.229 38.43 41.679 38.316 42.147 38.316C42.351 38.316 42.543 38.334 42.723 38.37C42.915 38.406 43.071 38.448 43.191 38.496L42.597 40.926C42.465 40.854 42.303 40.794 42.111 40.746C41.919 40.698 41.727 40.674 41.535 40.674C41.235 40.674 40.947 40.734 40.671 40.854C40.407 40.962 40.173 41.118 39.969 41.322C39.765 41.526 39.603 41.766 39.483 42.042C39.375 42.306 39.321 42.606 39.321 42.942V48H37.089ZM48.7068 48.18C47.7108 48.18 46.8288 47.97 46.0608 47.55C45.3048 47.13 44.7108 46.56 44.2788 45.84C43.8588 45.108 43.6488 44.274 43.6488 43.338C43.6488 42.594 43.7688 41.916 44.0088 41.304C44.2488 40.692 44.5788 40.164 44.9988 39.72C45.4308 39.264 45.9408 38.916 46.5288 38.676C47.1288 38.424 47.7828 38.298 48.4908 38.298C49.1148 38.298 49.6968 38.418 50.2368 38.658C50.7768 38.898 51.2448 39.228 51.6408 39.648C52.0368 40.056 52.3368 40.548 52.5408 41.124C52.7568 41.688 52.8588 42.306 52.8468 42.978L52.8288 43.752H45.1428L44.7288 42.24H50.9748L50.6868 42.546V42.15C50.6508 41.778 50.5308 41.454 50.3268 41.178C50.1228 40.89 49.8588 40.668 49.5348 40.512C49.2228 40.344 48.8748 40.26 48.4908 40.26C47.9028 40.26 47.4048 40.374 46.9968 40.602C46.6008 40.83 46.3008 41.16 46.0968 41.592C45.8928 42.012 45.7908 42.54 45.7908 43.176C45.7908 43.788 45.9168 44.322 46.1688 44.778C46.4328 45.234 46.7988 45.588 47.2668 45.84C47.7468 46.08 48.3048 46.2 48.9408 46.2C49.3848 46.2 49.7928 46.128 50.1648 45.984C50.5368 45.84 50.9388 45.582 51.3708 45.21L52.4688 46.74C52.1448 47.04 51.7728 47.298 51.3528 47.514C50.9448 47.718 50.5128 47.88 50.0568 48C49.6008 48.12 49.1508 48.18 48.7068 48.18ZM59.2537 48.18C58.2577 48.18 57.3757 47.97 56.6077 47.55C55.8517 47.13 55.2577 46.56 54.8257 45.84C54.4057 45.108 54.1957 44.274 54.1957 43.338C54.1957 42.594 54.3157 41.916 54.5557 41.304C54.7957 40.692 55.1257 40.164 55.5457 39.72C55.9777 39.264 56.4877 38.916 57.0757 38.676C57.6757 38.424 58.3297 38.298 59.0377 38.298C59.6617 38.298 60.2437 38.418 60.7837 38.658C61.3237 38.898 61.7917 39.228 62.1877 39.648C62.5837 40.056 62.8837 40.548 63.0877 41.124C63.3037 41.688 63.4057 42.306 63.3937 42.978L63.3757 43.752H55.6897L55.2757 42.24H61.5217L61.2337 42.546V42.15C61.1977 41.778 61.0777 41.454 60.8737 41.178C60.6697 40.89 60.4057 40.668 60.0817 40.512C59.7697 40.344 59.4217 40.26 59.0377 40.26C58.4497 40.26 57.9517 40.374 57.5437 40.602C57.1477 40.83 56.8477 41.16 56.6437 41.592C56.4397 42.012 56.3377 42.54 56.3377 43.176C56.3377 43.788 56.4637 44.322 56.7157 44.778C56.9797 45.234 57.3457 45.588 57.8137 45.84C58.2937 46.08 58.8517 46.2 59.4877 46.2C59.9317 46.2 60.3397 46.128 60.7117 45.984C61.0837 45.84 61.4857 45.582 61.9177 45.21L63.0157 46.74C62.6917 47.04 62.3197 47.298 61.8997 47.514C61.4917 47.718 61.0597 47.88 60.6037 48C60.1477 48.12 59.6977 48.18 59.2537 48.18ZM25.288 68L30.202 55.4H32.398L37.276 68H34.846L32.146 60.836C32.086 60.692 32.002 60.464 31.894 60.152C31.798 59.84 31.69 59.504 31.57 59.144C31.45 58.772 31.342 58.43 31.246 58.118C31.15 57.794 31.078 57.56 31.03 57.416L31.48 57.398C31.408 57.638 31.324 57.908 31.228 58.208C31.132 58.508 31.03 58.82 30.922 59.144C30.814 59.468 30.706 59.78 30.598 60.08C30.502 60.38 30.412 60.65 30.328 60.89L27.628 68H25.288ZM27.52 65.12L28.33 63.086H34.072L34.936 65.12H27.52ZM42.5808 68.18C41.6928 68.18 40.8948 67.964 40.1868 67.532C39.4788 67.1 38.9208 66.512 38.5128 65.768C38.1048 65.024 37.9008 64.184 37.9008 63.248C37.9008 62.312 38.1048 61.472 38.5128 60.728C38.9208 59.984 39.4788 59.396 40.1868 58.964C40.8948 58.532 41.6928 58.316 42.5808 58.316C43.4328 58.316 44.2068 58.478 44.9028 58.802C45.5988 59.126 46.1388 59.576 46.5228 60.152L45.2988 61.628C45.1188 61.376 44.8908 61.148 44.6148 60.944C44.3388 60.74 44.0448 60.578 43.7328 60.458C43.4208 60.338 43.1088 60.278 42.7968 60.278C42.2688 60.278 41.7948 60.41 41.3748 60.674C40.9668 60.926 40.6428 61.28 40.4028 61.736C40.1628 62.18 40.0428 62.684 40.0428 63.248C40.0428 63.812 40.1628 64.316 40.4028 64.76C40.6548 65.204 40.9908 65.558 41.4108 65.822C41.8308 66.086 42.2988 66.218 42.8148 66.218C43.1268 66.218 43.4268 66.17 43.7148 66.074C44.0148 65.966 44.2968 65.816 44.5608 65.624C44.8248 65.432 45.0708 65.192 45.2988 64.904L46.5228 66.398C46.1148 66.926 45.5508 67.358 44.8308 67.694C44.1228 68.018 43.3728 68.18 42.5808 68.18ZM52.2839 68.18C51.3959 68.18 50.5979 67.964 49.8899 67.532C49.1819 67.1 48.6239 66.512 48.2159 65.768C47.8079 65.024 47.6039 64.184 47.6039 63.248C47.6039 62.312 47.8079 61.472 48.2159 60.728C48.6239 59.984 49.1819 59.396 49.8899 58.964C50.5979 58.532 51.3959 58.316 52.2839 58.316C53.1359 58.316 53.9099 58.478 54.6059 58.802C55.3019 59.126 55.8419 59.576 56.2259 60.152L55.0019 61.628C54.8219 61.376 54.5939 61.148 54.3179 60.944C54.0419 60.74 53.7479 60.578 53.4359 60.458C53.1239 60.338 52.8119 60.278 52.4999 60.278C51.9719 60.278 51.4979 60.41 51.0779 60.674C50.6699 60.926 50.3459 61.28 50.1059 61.736C49.8659 62.18 49.7459 62.684 49.7459 63.248C49.7459 63.812 49.8659 64.316 50.1059 64.76C50.3579 65.204 50.6939 65.558 51.1139 65.822C51.5339 66.086 52.0019 66.218 52.5179 66.218C52.8299 66.218 53.1299 66.17 53.4179 66.074C53.7179 65.966 53.9999 65.816 54.2639 65.624C54.5279 65.432 54.7739 65.192 55.0019 64.904L56.2259 66.398C55.8179 66.926 55.2539 67.358 54.5339 67.694C53.8259 68.018 53.0759 68.18 52.2839 68.18ZM62.257 68.18C61.309 68.18 60.463 67.97 59.719 67.55C58.975 67.118 58.387 66.53 57.955 65.786C57.523 65.042 57.307 64.196 57.307 63.248C57.307 62.3 57.523 61.454 57.955 60.71C58.387 59.966 58.975 59.384 59.719 58.964C60.463 58.532 61.309 58.316 62.257 58.316C63.193 58.316 64.033 58.532 64.777 58.964C65.521 59.384 66.103 59.966 66.523 60.71C66.955 61.454 67.171 62.3 67.171 63.248C67.171 64.196 66.955 65.042 66.523 65.786C66.103 66.53 65.521 67.118 64.777 67.55C64.033 67.97 63.193 68.18 62.257 68.18ZM62.257 66.218C62.773 66.218 63.229 66.086 63.625 65.822C64.033 65.558 64.351 65.204 64.579 64.76C64.819 64.316 64.933 63.812 64.921 63.248C64.933 62.672 64.819 62.162 64.579 61.718C64.351 61.274 64.033 60.926 63.625 60.674C63.229 60.41 62.773 60.278 62.257 60.278C61.741 60.278 61.273 60.41 60.853 60.674C60.445 60.926 60.127 61.28 59.899 61.736C59.671 62.18 59.557 62.684 59.557 63.248C59.557 63.812 59.671 64.316 59.899 64.76C60.127 65.204 60.445 65.558 60.853 65.822C61.273 66.086 61.741 66.218 62.257 66.218ZM72.4455 68.18C71.7615 68.18 71.1675 68.03 70.6635 67.73C70.1595 67.418 69.7755 66.98 69.5115 66.416C69.2475 65.84 69.1155 65.156 69.1155 64.364V58.514H71.3295V63.896C71.3295 64.4 71.4075 64.832 71.5635 65.192C71.7195 65.54 71.9475 65.81 72.2475 66.002C72.5475 66.194 72.9075 66.29 73.3275 66.29C73.6395 66.29 73.9215 66.242 74.1735 66.146C74.4375 66.038 74.6655 65.894 74.8575 65.714C75.0495 65.522 75.1995 65.3 75.3075 65.048C75.4155 64.784 75.4695 64.502 75.4695 64.202V58.514H77.6835V68H75.5235L75.4875 66.02L75.8835 65.804C75.7395 66.26 75.4935 66.668 75.1455 67.028C74.8095 67.376 74.4075 67.658 73.9395 67.874C73.4715 68.078 72.9735 68.18 72.4455 68.18ZM80.2784 68V58.514H82.4384L82.4744 60.458L82.0604 60.674C82.1804 60.242 82.4144 59.852 82.7624 59.504C83.1104 59.144 83.5244 58.856 84.0044 58.64C84.4844 58.424 84.9764 58.316 85.4804 58.316C86.2004 58.316 86.8004 58.46 87.2804 58.748C87.7724 59.036 88.1384 59.468 88.3784 60.044C88.6304 60.62 88.7564 61.34 88.7564 62.204V68H86.5424V62.366C86.5424 61.886 86.4764 61.49 86.3444 61.178C86.2124 60.854 86.0084 60.62 85.7324 60.476C85.4564 60.32 85.1204 60.248 84.7244 60.26C84.4004 60.26 84.1004 60.314 83.8244 60.422C83.5604 60.518 83.3264 60.662 83.1224 60.854C82.9304 61.034 82.7744 61.244 82.6544 61.484C82.5464 61.724 82.4924 61.988 82.4924 62.276V68H81.3944C81.1784 68 80.9744 68 80.7824 68C80.6024 68 80.4344 68 80.2784 68ZM92.2732 68V56.102H94.4872V68H92.2732ZM90.4012 60.566V58.514H96.5572V60.566H90.4012Z" fill="#166F5E"/>
</svg>
