<svg width="60" height="60" viewBox="0 0 60 60" fill="none" xmlns="http://www.w3.org/2000/svg">
<path d="M44.13 20.8596C44.13 20.8596 42.7863 21.8099 41.2126 21.4929C41.2126 21.4929 43.3891 20.1529 43.4979 18C42.708 20.2766 39.9142 20.0547 39.9142 20.0547L39.9254 20.0846C38.3865 18.1958 36.0788 18.1771 35.2584 18.2014C34.0508 18.2368 29.4509 18.7589 29.9152 25.7746C29.9152 25.7746 21.552 25.6354 17.3705 19.0839C15.9764 23.7068 19.4383 26.7734 19.4383 26.7734C17.7415 27.1407 16.5668 26.1133 16.5668 26.1133C17.4438 30.922 21.7615 31.9071 21.7615 31.9071C20.2121 32.7623 18.3089 32.1719 18.3089 32.1719C19.7726 35.9352 24.5024 36.1819 24.5024 36.1819C21.8305 39.4107 16 39.4107 16 39.4107C21.0902 42.3499 41.3916 43.368 41.3916 25.2165C41.3916 24.6546 41.3506 24.1524 41.2928 23.6763L41.3089 23.7192C41.3089 23.7192 43.4519 22.91 44.13 20.8596Z" fill="#0F393B"/>
<circle cx="30" cy="30" r="29" stroke="#0F393B" stroke-width="2"/>
</svg>
