<svg width="157" height="43" viewBox="0 0 157 43" fill="none" xmlns="http://www.w3.org/2000/svg">
<path d="M25.1458 7.19787C23.6691 8.88018 21.3771 9.82219 19.1251 9.72752C18.8122 9.71418 18.5435 9.49933 18.4662 9.20109C17.9101 7.05179 18.3766 4.65125 19.7474 2.88437C21.2098 0.99848 23.65 -0.100096 26.0537 0.0071972C26.3674 0.0211836 26.6361 0.235706 26.7142 0.534988C27.3139 2.82752 26.7217 5.40295 25.1458 7.19787Z" fill="white"/>
<path d="M34.3737 13.1212C32.68 11.1937 29.9658 10.3772 27.3757 10.3918C25.6081 10.4027 23.525 10.7859 21.3658 11.8844C19.6108 12.7773 17.5203 12.7773 15.766 11.8844C13.606 10.7858 11.5288 10.4027 9.76044 10.3918C7.17113 10.3772 4.45692 11.1937 2.76322 13.1212C0.537454 15.6544 -0.142366 19.3966 0.023871 23.4995C0.530808 35.963 8.3313 42.7676 12.768 42.7676C15.0033 42.7676 16.2691 41.7374 17.102 41.4581C18.0508 41.1404 19.0794 41.1397 20.029 41.4581C20.861 41.7374 22.1336 42.7676 24.3682 42.7676C27.0794 42.7676 31.0459 40.2276 33.8374 35.4088C34.4926 34.2776 35.5056 31.514 36 30.1351C30.913 30.1351 28.9565 25.2381 28.9565 21.8479C28.9565 18.1053 30.5217 13.1212 34.3737 13.1212ZM7.47478 14.1377C6.05229 15.0116 5.39017 16.5727 4.98004 18.1053C4.75464 18.9647 4.66672 19.8517 4.58025 20.7352C4.42875 22.3165 4.3534 23.8921 4.17828 25.4837C4.11839 25.9592 3.42896 25.9788 3.34249 25.5062C2.9575 23.1119 2.88135 19.6009 3.74893 17.3091C4.33273 15.7053 5.47369 14.0431 7.23832 13.5836C7.58119 13.5015 7.77481 13.9559 7.47478 14.1377Z" fill="white"/>
<path d="M7.47478 14.1377C6.05229 15.0116 5.39017 16.5727 4.98004 18.1053C4.75464 18.9647 4.66672 19.8517 4.58025 20.7352C4.42875 22.3165 4.3534 23.8921 4.17828 25.4837C4.11839 25.9592 3.42896 25.9788 3.34249 25.5062C2.9575 23.1119 2.88135 19.6009 3.74893 17.3091C4.33273 15.7053 5.47369 14.0431 7.23832 13.5836C7.58119 13.5015 7.77481 13.9559 7.47478 14.1377Z" fill="white"/>
<path d="M47.4148 14H44.1186V3.81818H47.5192C48.5168 3.81818 49.3736 4.02202 50.0895 4.42969C50.8054 4.83404 51.3539 5.41572 51.7351 6.17472C52.1196 6.9304 52.3118 7.83688 52.3118 8.89418C52.3118 9.95478 52.1179 10.8662 51.7301 11.6286C51.3456 12.3909 50.7888 12.9775 50.0597 13.3885C49.3305 13.7962 48.4489 14 47.4148 14ZM45.6548 12.6577H47.3303C48.1058 12.6577 48.7505 12.5118 49.2642 12.2202C49.7779 11.9252 50.1624 11.4993 50.4176 10.9425C50.6728 10.3823 50.8004 9.69957 50.8004 8.89418C50.8004 8.09541 50.6728 7.41761 50.4176 6.8608C50.1657 6.30398 49.7895 5.88139 49.2891 5.59304C48.7886 5.30469 48.1671 5.16051 47.4247 5.16051H45.6548V12.6577ZM57.3194 14.1541C56.6035 14.1541 55.9788 13.9901 55.4451 13.6619C54.9115 13.3338 54.4972 12.8748 54.2022 12.2848C53.9073 11.6948 53.7598 11.0054 53.7598 10.2166C53.7598 9.42448 53.9073 8.73177 54.2022 8.13849C54.4972 7.54522 54.9115 7.08452 55.4451 6.75639C55.9788 6.42827 56.6035 6.2642 57.3194 6.2642C58.0353 6.2642 58.6601 6.42827 59.1937 6.75639C59.7273 7.08452 60.1416 7.54522 60.4366 8.13849C60.7316 8.73177 60.8791 9.42448 60.8791 10.2166C60.8791 11.0054 60.7316 11.6948 60.4366 12.2848C60.1416 12.8748 59.7273 13.3338 59.1937 13.6619C58.6601 13.9901 58.0353 14.1541 57.3194 14.1541ZM57.3244 12.9062C57.7884 12.9062 58.1729 12.7836 58.4778 12.5384C58.7827 12.2931 59.0081 11.9666 59.1539 11.5589C59.3031 11.1513 59.3777 10.7022 59.3777 10.2116C59.3777 9.72443 59.3031 9.27699 59.1539 8.86932C59.0081 8.45833 58.7827 8.12855 58.4778 7.87997C58.1729 7.63139 57.7884 7.5071 57.3244 7.5071C56.8571 7.5071 56.4693 7.63139 56.161 7.87997C55.8561 8.12855 55.6291 8.45833 55.4799 8.86932C55.3341 9.27699 55.2612 9.72443 55.2612 10.2116C55.2612 10.7022 55.3341 11.1513 55.4799 11.5589C55.6291 11.9666 55.8561 12.2931 56.161 12.5384C56.4693 12.7836 56.8571 12.9062 57.3244 12.9062ZM63.9615 14L61.7143 6.36364H63.2505L64.747 11.9716H64.8216L66.323 6.36364H67.8592L69.3507 11.9467H69.4252L70.9118 6.36364H72.448L70.2058 14H68.6895L67.1383 8.48651H67.024L65.4728 14H63.9615ZM75.3452 9.46591V14H73.8587V6.36364H75.2855V7.60653H75.38C75.5556 7.20218 75.8307 6.87737 76.2053 6.6321C76.5831 6.38684 77.0587 6.2642 77.6321 6.2642C78.1525 6.2642 78.6082 6.37358 78.9993 6.59233C79.3904 6.80777 79.6937 7.12926 79.9091 7.55682C80.1245 7.98437 80.2322 8.51302 80.2322 9.14276V14H78.7457V9.32173C78.7457 8.76823 78.6016 8.3357 78.3132 8.02415C78.0249 7.70928 77.6288 7.55185 77.125 7.55185C76.7803 7.55185 76.4737 7.62642 76.2053 7.77557C75.9401 7.92472 75.7296 8.14347 75.5739 8.43182C75.4214 8.71686 75.3452 9.06155 75.3452 9.46591ZM83.7124 3.81818V14H82.2259V3.81818H83.7124ZM88.9288 14.1541C88.2129 14.1541 87.5881 13.9901 87.0545 13.6619C86.5209 13.3338 86.1066 12.8748 85.8116 12.2848C85.5166 11.6948 85.3691 11.0054 85.3691 10.2166C85.3691 9.42448 85.5166 8.73177 85.8116 8.13849C86.1066 7.54522 86.5209 7.08452 87.0545 6.75639C87.5881 6.42827 88.2129 6.2642 88.9288 6.2642C89.6447 6.2642 90.2695 6.42827 90.8031 6.75639C91.3367 7.08452 91.751 7.54522 92.046 8.13849C92.341 8.73177 92.4885 9.42448 92.4885 10.2166C92.4885 11.0054 92.341 11.6948 92.046 12.2848C91.751 12.8748 91.3367 13.3338 90.8031 13.6619C90.2695 13.9901 89.6447 14.1541 88.9288 14.1541ZM88.9338 12.9062C89.3978 12.9062 89.7823 12.7836 90.0872 12.5384C90.3921 12.2931 90.6175 11.9666 90.7633 11.5589C90.9125 11.1513 90.987 10.7022 90.987 10.2116C90.987 9.72443 90.9125 9.27699 90.7633 8.86932C90.6175 8.45833 90.3921 8.12855 90.0872 7.87997C89.7823 7.63139 89.3978 7.5071 88.9338 7.5071C88.4664 7.5071 88.0787 7.63139 87.7704 7.87997C87.4655 8.12855 87.2385 8.45833 87.0893 8.86932C86.9435 9.27699 86.8706 9.72443 86.8706 10.2116C86.8706 10.7022 86.9435 11.1513 87.0893 11.5589C87.2385 11.9666 87.4655 12.2931 87.7704 12.5384C88.0787 12.7836 88.4664 12.9062 88.9338 12.9062ZM96.37 14.169C95.8861 14.169 95.4486 14.0795 95.0575 13.9006C94.6664 13.7183 94.3565 13.4548 94.1278 13.1101C93.9025 12.7654 93.7898 12.3428 93.7898 11.8423C93.7898 11.4115 93.8726 11.0568 94.0384 10.7784C94.2041 10.5 94.4278 10.2796 94.7095 10.1172C94.9912 9.95478 95.3061 9.83215 95.6541 9.74929C96.0021 9.66643 96.3568 9.60346 96.718 9.56037C97.1754 9.50734 97.5466 9.46425 97.8317 9.43111C98.1167 9.39465 98.3239 9.33665 98.4531 9.2571C98.5824 9.17756 98.647 9.0483 98.647 8.86932V8.83452C98.647 8.40033 98.5244 8.06392 98.2791 7.82528C98.0372 7.58665 97.6759 7.46733 97.1953 7.46733C96.6948 7.46733 96.3004 7.57836 96.0121 7.80043C95.727 8.01918 95.5298 8.26278 95.4205 8.53125L94.0234 8.21307C94.1892 7.74905 94.4311 7.37453 94.7493 7.08949C95.0708 6.80114 95.4403 6.59233 95.858 6.46307C96.2756 6.33049 96.7147 6.2642 97.1754 6.2642C97.4804 6.2642 97.8035 6.30066 98.1449 6.37358C98.4896 6.44318 98.8111 6.57244 99.1094 6.76136C99.411 6.95028 99.6579 7.22041 99.8501 7.57173C100.042 7.91974 100.138 8.37216 100.138 8.92898V14H98.6868V12.956H98.6271C98.531 13.1482 98.3868 13.3371 98.1946 13.5227C98.0024 13.7083 97.7554 13.8625 97.4538 13.9851C97.1522 14.1077 96.791 14.169 96.37 14.169ZM96.6932 12.9759C97.1042 12.9759 97.4555 12.8946 97.7472 12.7322C98.0421 12.5698 98.2659 12.3577 98.4183 12.0959C98.5741 11.8307 98.652 11.5473 98.652 11.2457V10.2614C98.599 10.3144 98.4962 10.3641 98.3438 10.4105C98.1946 10.4536 98.0239 10.4917 97.8317 10.5249C97.6394 10.5547 97.4522 10.5829 97.2699 10.6094C97.0876 10.6326 96.9351 10.6525 96.8125 10.669C96.5241 10.7055 96.2607 10.7668 96.022 10.853C95.7867 10.9392 95.5978 11.0634 95.4553 11.2259C95.3161 11.3849 95.2464 11.5971 95.2464 11.8622C95.2464 12.2301 95.3823 12.5085 95.6541 12.6974C95.9259 12.883 96.2723 12.9759 96.6932 12.9759ZM104.977 14.1491C104.361 14.1491 103.81 13.9917 103.327 13.6768C102.846 13.3587 102.468 12.9062 102.193 12.3196C101.921 11.7296 101.785 11.022 101.785 10.1967C101.785 9.37145 101.923 8.66548 102.198 8.07884C102.476 7.49219 102.858 7.04309 103.341 6.73153C103.825 6.41998 104.374 6.2642 104.987 6.2642C105.461 6.2642 105.842 6.34375 106.131 6.50284C106.422 6.65862 106.648 6.84091 106.807 7.04972C106.969 7.25852 107.095 7.44247 107.184 7.60156H107.274V3.81818H108.76V14H107.309V12.8118H107.184C107.095 12.9742 106.966 13.1598 106.797 13.3686C106.631 13.5774 106.402 13.7597 106.111 13.9155C105.819 14.0713 105.441 14.1491 104.977 14.1491ZM105.305 12.8814C105.733 12.8814 106.094 12.7687 106.389 12.5433C106.687 12.3146 106.913 11.9981 107.065 11.5938C107.221 11.1894 107.299 10.7187 107.299 10.1818C107.299 9.65151 107.223 9.1875 107.07 8.78977C106.918 8.39205 106.694 8.08215 106.399 7.86009C106.104 7.63802 105.739 7.52699 105.305 7.52699C104.858 7.52699 104.485 7.64299 104.187 7.875C103.888 8.10701 103.663 8.42353 103.51 8.82457C103.361 9.22562 103.287 9.67803 103.287 10.1818C103.287 10.6922 103.363 11.1513 103.515 11.5589C103.668 11.9666 103.893 12.2898 104.192 12.5284C104.493 12.7637 104.864 12.8814 105.305 12.8814ZM117.804 14.1541C117.088 14.1541 116.463 13.9901 115.93 13.6619C115.396 13.3338 114.982 12.8748 114.687 12.2848C114.392 11.6948 114.244 11.0054 114.244 10.2166C114.244 9.42448 114.392 8.73177 114.687 8.13849C114.982 7.54522 115.396 7.08452 115.93 6.75639C116.463 6.42827 117.088 6.2642 117.804 6.2642C118.52 6.2642 119.144 6.42827 119.678 6.75639C120.212 7.08452 120.626 7.54522 120.921 8.13849C121.216 8.73177 121.363 9.42448 121.363 10.2166C121.363 11.0054 121.216 11.6948 120.921 12.2848C120.626 12.8748 120.212 13.3338 119.678 13.6619C119.144 13.9901 118.52 14.1541 117.804 14.1541ZM117.809 12.9062C118.273 12.9062 118.657 12.7836 118.962 12.5384C119.267 12.2931 119.492 11.9666 119.638 11.5589C119.787 11.1513 119.862 10.7022 119.862 10.2116C119.862 9.72443 119.787 9.27699 119.638 8.86932C119.492 8.45833 119.267 8.12855 118.962 7.87997C118.657 7.63139 118.273 7.5071 117.809 7.5071C117.341 7.5071 116.954 7.63139 116.645 7.87997C116.34 8.12855 116.113 8.45833 115.964 8.86932C115.818 9.27699 115.746 9.72443 115.746 10.2116C115.746 10.7022 115.818 11.1513 115.964 11.5589C116.113 11.9666 116.34 12.2931 116.645 12.5384C116.954 12.7836 117.341 12.9062 117.809 12.9062ZM124.509 9.46591V14H123.023V6.36364H124.45V7.60653H124.544C124.72 7.20218 124.995 6.87737 125.369 6.6321C125.747 6.38684 126.223 6.2642 126.796 6.2642C127.317 6.2642 127.772 6.37358 128.163 6.59233C128.554 6.80777 128.858 7.12926 129.073 7.55682C129.289 7.98437 129.396 8.51302 129.396 9.14276V14H127.91V9.32173C127.91 8.76823 127.766 8.3357 127.477 8.02415C127.189 7.70928 126.793 7.55185 126.289 7.55185C125.944 7.55185 125.638 7.62642 125.369 7.77557C125.104 7.92472 124.894 8.14347 124.738 8.43182C124.585 8.71686 124.509 9.06155 124.509 9.46591ZM138.66 6.36364V7.55682H134.488V6.36364H138.66ZM135.607 4.53409H137.094V11.7578C137.094 12.0462 137.137 12.2633 137.223 12.4091C137.309 12.5516 137.42 12.6494 137.556 12.7024C137.695 12.7521 137.846 12.777 138.008 12.777C138.128 12.777 138.232 12.7687 138.322 12.7521C138.411 12.7356 138.481 12.7223 138.53 12.7124L138.799 13.9403C138.713 13.9735 138.59 14.0066 138.431 14.0398C138.272 14.0762 138.073 14.0961 137.834 14.0994C137.443 14.1061 137.079 14.0365 136.741 13.8906C136.403 13.7448 136.129 13.5194 135.92 13.2145C135.711 12.9096 135.607 12.5268 135.607 12.0661V4.53409ZM141.955 9.46591V14H140.468V3.81818H141.935V7.60653H142.029C142.208 7.19555 142.482 6.86908 142.849 6.62713C143.217 6.38518 143.698 6.2642 144.291 6.2642C144.815 6.2642 145.272 6.37192 145.663 6.58736C146.058 6.80279 146.363 7.12429 146.578 7.55185C146.797 7.97609 146.906 8.50639 146.906 9.14276V14H145.42V9.32173C145.42 8.7616 145.276 8.32741 144.987 8.01918C144.699 7.70762 144.298 7.55185 143.784 7.55185C143.433 7.55185 143.118 7.62642 142.839 7.77557C142.564 7.92472 142.347 8.14347 142.188 8.43182C142.032 8.71686 141.955 9.06155 141.955 9.46591ZM152.181 14.1541C151.429 14.1541 150.781 13.9934 150.237 13.6719C149.697 13.3471 149.279 12.8913 148.984 12.3047C148.693 11.7147 148.547 11.0237 148.547 10.2315C148.547 9.44934 148.693 8.75994 148.984 8.16335C149.279 7.56676 149.69 7.10109 150.217 6.76633C150.748 6.43158 151.367 6.2642 152.077 6.2642C152.508 6.2642 152.925 6.33546 153.33 6.47798C153.734 6.6205 154.097 6.84422 154.418 7.14915C154.74 7.45407 154.993 7.85014 155.179 8.33736C155.365 8.82126 155.457 9.40956 155.457 10.1023V10.6293H149.387V9.51562H154.001C154.001 9.12453 153.921 8.77817 153.762 8.47656C153.603 8.17164 153.379 7.93134 153.091 7.75568C152.806 7.58002 152.471 7.49219 152.087 7.49219C151.669 7.49219 151.304 7.59493 150.993 7.80043C150.685 8.0026 150.446 8.26776 150.277 8.59588C150.111 8.92069 150.028 9.27367 150.028 9.65483V10.5249C150.028 11.0353 150.118 11.4695 150.297 11.8274C150.479 12.1854 150.733 12.4588 151.058 12.6477C151.382 12.8333 151.762 12.9261 152.196 12.9261C152.478 12.9261 152.735 12.8864 152.967 12.8068C153.199 12.724 153.399 12.6013 153.568 12.4389C153.737 12.2765 153.866 12.076 153.956 11.8374L155.363 12.0909C155.25 12.5052 155.048 12.8681 154.756 13.1797C154.468 13.4879 154.105 13.7282 153.668 13.9006C153.233 14.0696 152.738 14.1541 152.181 14.1541Z" fill="white"/>
<path d="M45.392 37H42.5966L48.8778 19.5455H51.9205L58.2017 37H55.4062L50.4716 22.7159H50.3352L45.392 37ZM45.8608 30.1648H54.929V32.3807H45.8608V30.1648ZM60.5178 41.9091V23.9091H63.0064V26.0312H63.2195C63.3672 25.7585 63.5803 25.4432 63.8587 25.0852C64.1371 24.7273 64.5234 24.4148 65.0178 24.1477C65.5121 23.875 66.1655 23.7386 66.978 23.7386C68.0348 23.7386 68.978 24.0057 69.8075 24.5398C70.6371 25.0739 71.2876 25.8437 71.7592 26.8494C72.2365 27.8551 72.4751 29.0653 72.4751 30.4801C72.4751 31.8949 72.2393 33.108 71.7678 34.1193C71.2962 35.125 70.6484 35.9006 69.8246 36.446C69.0007 36.9858 68.0604 37.2557 67.0036 37.2557C66.2081 37.2557 65.5575 37.1222 65.0518 36.8551C64.5518 36.5881 64.1598 36.2756 63.8757 35.9176C63.5916 35.5597 63.3729 35.2415 63.2195 34.9631H63.0661V41.9091H60.5178ZM63.0149 30.4545C63.0149 31.375 63.1484 32.1818 63.4155 32.875C63.6825 33.5682 64.0689 34.1108 64.5746 34.5028C65.0803 34.8892 65.6996 35.0824 66.4325 35.0824C67.1939 35.0824 67.8303 34.8807 68.3416 34.4773C68.853 34.0682 69.2393 33.5142 69.5007 32.8153C69.7678 32.1165 69.9013 31.3295 69.9013 30.4545C69.9013 29.5909 69.7706 28.8153 69.5092 28.1278C69.2536 27.4403 68.8672 26.8977 68.3501 26.5C67.8388 26.1023 67.1996 25.9034 66.4325 25.9034C65.6939 25.9034 65.0689 26.0937 64.5575 26.4744C64.0518 26.8551 63.6683 27.3864 63.407 28.0682C63.1456 28.75 63.0149 29.5455 63.0149 30.4545ZM75.3303 41.9091V23.9091H77.8189V26.0312H78.032C78.1797 25.7585 78.3928 25.4432 78.6712 25.0852C78.9496 24.7273 79.3359 24.4148 79.8303 24.1477C80.3246 23.875 80.978 23.7386 81.7905 23.7386C82.8473 23.7386 83.7905 24.0057 84.62 24.5398C85.4496 25.0739 86.1001 25.8437 86.5717 26.8494C87.049 27.8551 87.2876 29.0653 87.2876 30.4801C87.2876 31.8949 87.0518 33.108 86.5803 34.1193C86.1087 35.125 85.4609 35.9006 84.6371 36.446C83.8132 36.9858 82.8729 37.2557 81.8161 37.2557C81.0206 37.2557 80.37 37.1222 79.8643 36.8551C79.3643 36.5881 78.9723 36.2756 78.6882 35.9176C78.4041 35.5597 78.1854 35.2415 78.032 34.9631H77.8786V41.9091H75.3303ZM77.8274 30.4545C77.8274 31.375 77.9609 32.1818 78.228 32.875C78.495 33.5682 78.8814 34.1108 79.3871 34.5028C79.8928 34.8892 80.5121 35.0824 81.245 35.0824C82.0064 35.0824 82.6428 34.8807 83.1541 34.4773C83.6655 34.0682 84.0518 33.5142 84.3132 32.8153C84.5803 32.1165 84.7138 31.3295 84.7138 30.4545C84.7138 29.5909 84.5831 28.8153 84.3217 28.1278C84.0661 27.4403 83.6797 26.8977 83.1626 26.5C82.6513 26.1023 82.0121 25.9034 81.245 25.9034C80.5064 25.9034 79.8814 26.0937 79.37 26.4744C78.8643 26.8551 78.4808 27.3864 78.2195 28.0682C77.9581 28.75 77.8274 29.5455 77.8274 30.4545ZM106.219 24.1307C106.128 23.3239 105.753 22.6989 105.094 22.2557C104.435 21.8068 103.605 21.5824 102.605 21.5824C101.889 21.5824 101.27 21.696 100.747 21.9233C100.224 22.1449 99.8182 22.4517 99.5284 22.8438C99.2443 23.2301 99.1023 23.6705 99.1023 24.1648C99.1023 24.5795 99.1989 24.9375 99.392 25.2386C99.5909 25.5398 99.8494 25.7926 100.168 25.9972C100.491 26.196 100.838 26.3636 101.207 26.5C101.577 26.6307 101.932 26.7386 102.273 26.8239L103.977 27.267C104.534 27.4034 105.105 27.5881 105.69 27.821C106.276 28.054 106.818 28.3608 107.318 28.7415C107.818 29.1222 108.222 29.5938 108.528 30.1562C108.841 30.7188 108.997 31.392 108.997 32.1761C108.997 33.1648 108.741 34.0426 108.23 34.8097C107.724 35.5767 106.989 36.1818 106.023 36.625C105.063 37.0682 103.901 37.2898 102.537 37.2898C101.23 37.2898 100.099 37.0824 99.1449 36.6676C98.1903 36.2528 97.4432 35.6648 96.9034 34.9034C96.3636 34.1364 96.0653 33.2273 96.0085 32.1761H98.6506C98.7017 32.8068 98.9063 33.3324 99.2642 33.7528C99.6278 34.1676 100.091 34.4773 100.653 34.6818C101.222 34.8807 101.844 34.9801 102.52 34.9801C103.264 34.9801 103.926 34.8636 104.506 34.6307C105.091 34.392 105.551 34.0625 105.886 33.642C106.222 33.2159 106.389 32.7187 106.389 32.1506C106.389 31.6335 106.241 31.2102 105.946 30.8807C105.656 30.5511 105.261 30.2784 104.761 30.0625C104.267 29.8466 103.707 29.6562 103.082 29.4915L101.02 28.929C99.6222 28.5483 98.5142 27.9886 97.696 27.25C96.8835 26.5114 96.4773 25.5341 96.4773 24.3182C96.4773 23.3125 96.75 22.4347 97.2955 21.6847C97.8409 20.9347 98.5795 20.3523 99.5114 19.9375C100.443 19.517 101.494 19.3068 102.665 19.3068C103.847 19.3068 104.889 19.5142 105.793 19.929C106.702 20.3438 107.418 20.9148 107.94 21.642C108.463 22.3636 108.736 23.1932 108.759 24.1307H106.219ZM118.05 23.9091V25.9545H110.9V23.9091H118.05ZM112.817 20.7727H115.366V33.1562C115.366 33.6506 115.44 34.0227 115.587 34.2727C115.735 34.517 115.925 34.6847 116.158 34.7756C116.397 34.8608 116.656 34.9034 116.934 34.9034C117.138 34.9034 117.317 34.8892 117.471 34.8608C117.624 34.8324 117.744 34.8097 117.829 34.7926L118.289 36.8977C118.141 36.9545 117.931 37.0114 117.658 37.0682C117.386 37.1307 117.045 37.1648 116.636 37.1705C115.965 37.1818 115.34 37.0625 114.761 36.8125C114.181 36.5625 113.712 36.1761 113.354 35.6534C112.996 35.1307 112.817 34.4744 112.817 33.6847V20.7727ZM126.243 37.2642C125.016 37.2642 123.945 36.983 123.03 36.4205C122.115 35.858 121.405 35.071 120.899 34.0597C120.393 33.0483 120.141 31.8665 120.141 30.5142C120.141 29.1562 120.393 27.9687 120.899 26.9517C121.405 25.9347 122.115 25.1449 123.03 24.5824C123.945 24.0199 125.016 23.7386 126.243 23.7386C127.47 23.7386 128.541 24.0199 129.456 24.5824C130.371 25.1449 131.081 25.9347 131.587 26.9517C132.092 27.9687 132.345 29.1562 132.345 30.5142C132.345 31.8665 132.092 33.0483 131.587 34.0597C131.081 35.071 130.371 35.858 129.456 36.4205C128.541 36.983 127.47 37.2642 126.243 37.2642ZM126.251 35.125C127.047 35.125 127.706 34.9148 128.229 34.4943C128.751 34.0739 129.138 33.5142 129.388 32.8153C129.643 32.1165 129.771 31.3466 129.771 30.5057C129.771 29.6705 129.643 28.9034 129.388 28.2045C129.138 27.5 128.751 26.9347 128.229 26.5085C127.706 26.0824 127.047 25.8693 126.251 25.8693C125.45 25.8693 124.786 26.0824 124.257 26.5085C123.734 26.9347 123.345 27.5 123.089 28.2045C122.839 28.9034 122.714 29.6705 122.714 30.5057C122.714 31.3466 122.839 32.1165 123.089 32.8153C123.345 33.5142 123.734 34.0739 124.257 34.4943C124.786 34.9148 125.45 35.125 126.251 35.125ZM135.19 37V23.9091H137.653V25.9886H137.789C138.028 25.2841 138.448 24.7301 139.05 24.3267C139.658 23.9176 140.346 23.7131 141.113 23.7131C141.272 23.7131 141.46 23.7187 141.675 23.7301C141.897 23.7415 142.07 23.7557 142.195 23.7727V26.2102C142.093 26.1818 141.911 26.1506 141.65 26.1165C141.388 26.0767 141.127 26.0568 140.866 26.0568C140.263 26.0568 139.727 26.1847 139.255 26.4403C138.789 26.6903 138.42 27.0398 138.147 27.4886C137.874 27.9318 137.738 28.4375 137.738 29.0057V37H135.19ZM149.574 37.2642C148.284 37.2642 147.173 36.9886 146.241 36.4375C145.315 35.8807 144.599 35.0994 144.094 34.0938C143.594 33.0824 143.344 31.8977 143.344 30.5398C143.344 29.1989 143.594 28.017 144.094 26.9943C144.599 25.9716 145.304 25.1733 146.207 24.5994C147.116 24.0256 148.179 23.7386 149.395 23.7386C150.134 23.7386 150.849 23.8608 151.543 24.1051C152.236 24.3494 152.858 24.733 153.409 25.2557C153.96 25.7784 154.395 26.4574 154.713 27.2926C155.031 28.1222 155.19 29.1307 155.19 30.3182V31.2216H144.784V29.3125H152.693C152.693 28.642 152.557 28.0483 152.284 27.5312C152.011 27.0085 151.628 26.5966 151.134 26.2955C150.645 25.9943 150.071 25.8438 149.412 25.8438C148.696 25.8438 148.071 26.0199 147.537 26.3722C147.009 26.7187 146.599 27.1733 146.31 27.7358C146.026 28.2926 145.884 28.8977 145.884 29.5511V31.0426C145.884 31.9176 146.037 32.6619 146.344 33.2756C146.656 33.8892 147.091 34.358 147.648 34.6818C148.205 35 148.855 35.1591 149.599 35.1591C150.082 35.1591 150.523 35.0909 150.92 34.9545C151.318 34.8125 151.662 34.6023 151.952 34.3239C152.241 34.0455 152.463 33.7017 152.616 33.2926L155.028 33.7273C154.835 34.4375 154.489 35.0597 153.989 35.5938C153.494 36.1222 152.872 36.5341 152.122 36.8295C151.378 37.1193 150.528 37.2642 149.574 37.2642Z" fill="white"/>
</svg>
