<svg width="172" height="225" viewBox="0 0 172 225" fill="none" xmlns="http://www.w3.org/2000/svg">
<path d="M172 204C172 215.046 163.046 224 152 224H20.9959C9.95023 224 0.995898 215.046 0.995898 204V65.8531V65.8531C0.995898 63.1728 3.16868 61 5.84895 61H152C163.046 61 172 69.9543 172 81V204Z" fill="#672F4D"/>
<mask id="mask0_127_756" style="mask-type:luminance" maskUnits="userSpaceOnUse" x="0" y="61" width="172" height="163">
<path d="M172 204C172 215.046 163.046 224 152 224H20.9959C9.95023 224 0.995898 215.046 0.995898 204V65.8531V65.8531C0.995898 63.1728 3.16868 61 5.84895 61H152C163.046 61 172 69.9543 172 81V204Z" fill="white"/>
</mask>
<g mask="url(#mask0_127_756)">
<path d="M158.695 167.94C154.726 167.201 149.505 166.981 147.39 169.24C144.521 172.303 150.653 176.308 148.509 179.602C146.993 181.932 141.784 182.51 138.308 181.295C134.831 180.08 132.842 177.664 131.563 175.277C130.874 173.991 130.307 172.642 129.023 171.556C127.739 170.47 125.493 169.7 123.458 170.116C121.713 170.472 120.589 171.615 120.34 172.769C120.09 173.922 120.565 175.088 121.146 176.192C122.626 179.008 124.828 181.67 127.638 184.041C129.539 185.646 131.793 187.219 132.362 189.195C132.93 191.171 130.789 193.616 127.638 193.458C125.503 193.351 123.799 192.125 121.66 192.057C118.221 191.948 116.449 195.023 118.056 196.958C119.663 198.893 123.081 199.866 126.218 200.768C131.478 202.281 136.86 204.111 139.945 207.212C143.16 210.444 143.337 214.499 145.286 218.116C148.315 223.735 155.987 228.248 165.036 229.735C170.743 230.672 177.906 230.072 180.806 226.811C185.142 221.936 176.884 215.303 181.212 210.426C182.954 208.462 186.414 207.291 188.098 205.307C190.275 202.743 188.934 199.574 187.18 196.882C185.426 194.19 183.249 191.397 183.905 188.513C184.348 186.565 186.049 184.832 186.957 182.95C190.815 174.953 167.607 169.599 158.695 167.94Z" fill="#E6CAE2"/>
<path d="M-7.92273 210.982C-7.92273 214.752 -6.96772 218.546 -4.44625 221.347C-2.50112 223.509 -0.188021 225.528 2.53863 227.346C8.60175 231.39 17.5309 234.378 26.0479 233C34.3854 231.65 40.0477 226.351 41.2957 220.941C42.5437 215.532 40.1592 210.05 37.0712 204.947C34.6682 200.975 31.7851 197.006 31.4428 192.757C31.1004 188.508 34.0461 183.798 40.2334 182.172C45.5728 180.769 51.5963 181.971 57.2729 182.657C62.9493 183.344 69.8954 183.167 73.1025 180.112C76.5177 176.859 73.3627 172.283 68.5561 169.841C63.7496 167.4 57.6303 166.256 52.4756 164.121C47.3205 161.985 42.9404 158.106 44.7493 154.368C46.2083 151.353 51.178 149.576 56.0126 148.863C60.8473 148.151 65.9264 148.192 70.6725 147.27C75.4185 146.348 80.0613 144.063 80.5172 140.922C80.9731 137.782 74.8795 134.711 70.8777 136.576C68.6115 137.632 68.0606 139.609 66.5123 141.099C63.4975 144.001 56.815 144.632 51.7817 143.267C46.7487 141.902 43.1425 139.012 40.4061 136.001C37.6697 132.989 35.565 129.735 32.3542 126.919C26.7607 122.013 17.3901 118.715 7.67387 117.932C-1.51288 117.192 -7.92273 125.514 -7.92273 134.731V210.982Z" fill="#E6CAE2"/>
<path d="M163.961 141.294V141.294C170.89 147.519 181.918 142.601 181.918 133.287V80.0318C181.918 68.9861 172.964 60.0317 161.918 60.0317H72.0091C71.2099 60.0317 70.7881 61.0018 71.2902 61.6237V61.6237C74.9558 66.1651 76.2571 71.6834 73.2505 76.4163C70.244 81.1492 62.3371 84.7306 54.3741 84.0625C52.9236 83.9408 51.374 83.698 50.0556 84.101C47.7562 84.8032 47.8274 87.0682 49.5145 88.2842C51.2016 89.5002 53.8101 89.9707 56.2179 90.5064C74.9582 94.6775 88.6731 106.685 89.1054 119.3C89.1844 121.606 88.8694 123.958 89.8301 126.181C90.7908 128.405 93.4345 130.541 97.0365 130.82C101.101 131.135 104.626 129.063 106.998 126.943C109.371 124.822 111.466 122.367 115.149 121.23C120.659 119.528 127.612 121.688 130.808 125.01C134.004 128.331 134.323 132.431 134.189 136.323C134.128 138.083 134.706 140.418 137.453 140.642C140.645 140.903 141.78 138.098 143.792 136.502C146.414 134.423 151.598 134.349 155.293 135.608C158.986 136.868 161.54 139.119 163.961 141.294Z" fill="#E6CAE2"/>
<path d="M107.061 165.594C106.399 162.6 106.964 159.199 110.465 157.151C112.617 155.891 115.544 155.34 118.055 154.386C120.567 153.433 122.852 151.714 122.237 149.896C121.668 148.212 118.727 147.198 116.017 147.235C113.306 147.271 110.796 148.102 108.434 148.948C102.825 150.959 96.8745 151.949 91.6082 148.93C90.0049 148.011 88.1273 146.974 85.9935 147.184C84.0591 147.374 82.7287 148.563 82.1989 149.76C81.3121 151.764 82.1295 154.039 84.2975 155.6C86.9692 157.524 90.5921 158.53 92.5108 160.904C94.925 163.891 93.2711 166.837 90.9636 169.667C88.9495 172.138 86.6566 174.791 87.3783 177.536C88.4813 181.732 98.6167 184.573 104.174 182.088C112.754 178.25 108.209 170.792 107.061 165.594Z" fill="#E6CAE2"/>
<path d="M12.1597 108.836C18.9178 108.737 25.6927 105.414 26.035 101.124C26.376 96.8488 20.7578 92.6345 23.1187 88.6256C24.614 86.0867 28.7738 84.6927 31.962 82.8915C35.1502 81.0904 37.4584 77.7828 34.5449 75.8027C32.0106 74.0803 27.3678 74.7528 24.4368 76.1987C21.5058 77.6446 19.3361 79.704 16.0976 80.8553C12.8592 82.0065 7.76425 81.6648 6.66196 79.4133C5.6821 77.412 8.38671 75.5445 9.99312 73.7141C13.7997 69.3764 10.762 63.1921 3.7484 61.0006C1.32664 60.2438 -2.06473 60.0749 -3.65643 61.4598C-4.52137 62.2126 -4.58909 63.2093 -4.62363 64.1412C-4.96462 73.3529 -5.30628 82.5655 -5.36407 91.7802C-5.38699 95.434 -7.21229 101.492 -3.58358 104.349C-0.0718423 107.114 6.6647 108.916 12.1597 108.836Z" fill="#E6CAE2"/>
</g>
<mask id="mask1_127_756" style="mask-type:luminance" maskUnits="userSpaceOnUse" x="0" y="61" width="172" height="163">
<path d="M172 204C172 215.046 163.046 224 152 224H20.9959C9.95023 224 0.995898 215.046 0.995898 204V65.8531V65.8531C0.995898 63.1728 3.16868 61 5.84895 61H152C163.046 61 172 69.9543 172 81V204Z" fill="white"/>
</mask>
<g mask="url(#mask1_127_756)">
<path d="M61.1186 76.906C68.2197 73.0705 74.6799 68.5239 82.8314 65.8516C88.1616 64.1042 94.5144 63.3131 100.307 64.378C104.796 65.2035 109.313 67.9819 113.287 64.2839C115.475 62.2477 113.403 60.0118 110.802 58.4457C110.268 58.1246 109.703 57.8335 109.113 57.5677C107.292 56.7472 105.276 56.519 103.278 56.519H-6.05914C-7.07374 56.519 -7.89623 57.3415 -7.89623 58.3561V58.3561C-7.89623 59.1377 -7.39979 59.8297 -6.67143 60.1132C-0.11723 62.6649 5.30291 66.9293 10.2925 70.9639C17.3508 76.6713 25.6137 82.716 36.4605 83.4349C45.4499 84.0308 54.0175 80.7415 61.1186 76.906Z" fill="#6B9CC8"/>
<path d="M165.674 230.099C144.494 230.162 123.314 230.145 102.134 230.048C96.6331 230.023 91.1323 229.992 85.6311 229.956C81.9511 229.932 77.3329 230.66 75.09 228.648C70.7472 224.752 74.7087 217.623 77.4335 213.831C82.0318 207.433 92.8557 202.282 104.138 203.191C111.005 203.744 116.998 206.385 121.744 209.485C126.491 212.585 130.276 216.191 134.789 219.42C136.234 220.454 137.817 221.477 139.859 222.008C141.901 222.538 144.517 222.455 146.048 221.47C148.784 219.71 146.501 216.591 148.454 214.474C149.721 213.1 152.575 212.503 155.124 212.703C157.673 212.903 159.961 213.755 162.011 214.708C166.186 216.647 169.744 219.087 172.424 221.851C174.58 224.074 175.94 227.26 172.813 228.992C170.946 230.027 168.187 230.091 165.674 230.099Z" fill="#FFCE59"/>
<path d="M177.908 179.057C178.652 178.587 178.71 177.847 178.722 177.18C178.76 175.032 178.797 172.884 178.834 170.736C178.85 169.866 178.84 168.937 178.088 168.209C176.991 167.145 174.755 166.89 172.774 166.704C166.729 166.137 160.641 165.306 155.277 163.446C149.913 161.587 145.301 158.571 143.705 154.824C143.069 153.33 142.932 151.715 143.707 150.248C144.28 149.163 145.389 148.174 146.894 147.535C147.545 147.258 148.337 146.872 149.055 147.143C150.578 147.719 149.128 149.22 149.008 149.982C148.687 152.03 150.042 154.047 151.839 155.76C154.505 158.302 158.479 160.478 163.232 160.938C169.599 161.554 175.891 158.885 179.195 155.371V155.371C179.604 154.935 179.807 154.35 179.807 153.752V116.801C179.807 111.064 177.397 105.448 172.299 102.817C168.572 100.894 164.387 99.2856 160.246 97.9717C153.369 95.7899 144.581 100.442 141.911 104.201C138.737 108.67 139.823 114.002 143.151 118.425C146.48 122.848 151.829 126.515 157.32 129.959C159.087 131.067 160.911 132.19 162.01 133.604C163.109 135.018 163.351 136.812 161.958 138.118C160.334 139.641 157.164 140.039 154.428 140.641C147.893 142.079 142.996 145.129 140.663 149.235C136.897 155.864 139.454 163.605 146.201 169.199C152.948 174.792 163.472 178.295 174.42 179.422C175.63 179.547 177.039 179.607 177.908 179.057Z" fill="#ED6B6E"/>
<path d="M-3.45017 129.294C-3.45017 130.356 -2.56334 131.175 -1.54963 130.861V130.861C9.58 127.412 16.0518 118.789 13.2645 111.123C12.683 109.524 11.7497 107.978 11.3386 106.358C10.9275 104.738 11.1006 102.971 12.5637 101.619C14.2392 100.071 17.3638 99.344 20.3191 99.4024C23.2743 99.4609 26.0932 100.199 28.7051 101.079C36.3168 103.645 42.8016 107.545 47.2536 112.232C48.2009 113.23 48.8354 114.798 47.2053 115.332C46.1708 115.67 44.9235 115.287 43.9857 114.849C40.7681 113.346 38.5389 111.166 36.0555 109.179C33.5719 107.193 30.5516 105.278 26.6698 104.683C22.7877 104.089 17.9828 105.35 17.1302 107.829C16.6124 109.334 17.5977 110.866 18.5622 112.28C20.5865 115.247 22.6108 118.214 24.6352 121.182C26.8753 124.466 29.5669 128.044 34.7583 129.432C39.6716 130.746 45.6985 129.541 49.2577 127.02C52.817 124.498 54.1098 120.913 53.6139 117.54C53.1183 114.167 50.9972 110.971 48.4249 108.004C44.3345 103.286 39.0289 99.0173 32.9289 95.284C27.284 91.829 20.9644 88.8289 14.2364 86.2794V86.2794C4.69167 82.6622 -3.45017 89.5923 -3.45017 99.7995V129.294Z" fill="#AA92F7"/>
<path d="M152.845 180.529C150.101 179.469 147.234 178.185 144.225 178.397C141.726 178.572 139.568 179.806 138.262 181.375C136.955 182.944 136.404 184.819 136.157 186.686C135.128 194.476 139.358 202.722 147.202 208.215C149.128 209.563 151.677 210.828 154.153 210.353C157.383 209.734 158.288 206.652 157.995 204.134C157.529 200.132 155.448 196.192 152.096 192.962C151.311 192.205 150.446 191.473 149.936 190.601C149.425 189.729 149.333 188.659 150.069 187.924C151.042 186.953 153.116 186.946 154.569 187.587C156.021 188.228 156.984 189.339 157.837 190.426C160.733 194.123 163.047 198.07 166.328 201.591C169.608 205.112 174.097 208.273 179.594 209.354C180.364 209.505 181.227 209.605 181.89 209.309C183.253 208.699 182.677 207.129 182.024 206.001C180.013 202.527 178.754 198.832 178.295 195.107C177.989 192.621 179.866 186.562 176.746 184.795C174.727 183.652 169.72 184.586 167.249 184.24C162.268 183.543 157.391 182.286 152.845 180.529Z" fill="#6B9CC8"/>
<path d="M42.0288 133.596C46.4725 133.035 50.8861 132.104 55.4102 132.256C56.8473 132.305 58.3125 132.472 59.5437 132.946C60.775 133.419 61.7394 134.244 61.7876 135.158C61.8352 136.061 60.9836 136.915 59.8368 137.45C58.6901 137.985 57.282 138.243 55.8822 138.403C50.7083 138.997 45.3343 138.375 40.4238 137.182C37.7743 136.538 34.7281 135.734 31.9216 134.769C30.6549 134.334 30.9504 133.458 32.272 133.675V133.675C35.4544 134.2 38.8427 133.998 42.0288 133.596Z" fill="#ED6B6E"/>
<path d="M43.6078 145.038C44.8065 145.936 45.9612 146.92 46.3274 148.074C46.6937 149.228 46.0514 150.589 44.403 151.126C43.2877 151.49 41.9101 151.415 40.7695 151.085C39.6289 150.755 38.6911 150.196 37.8569 149.601C32.0079 145.43 30.4104 139.265 24.01 135.436C26.8425 137.13 30.7572 138.028 33.9379 139.443C37.518 141.036 40.7797 142.92 43.6078 145.038Z" fill="#ED6B6E"/>
<path d="M138.526 166.614C138.217 166.248 137.932 165.877 137.676 165.5C136.65 163.987 136.693 162.433 135.07 160.995C133.213 159.349 129.341 158.359 126.793 159.575C125.447 160.218 124.805 161.333 124.804 162.403C124.803 163.474 125.366 164.512 126.049 165.491C128.33 168.764 133.65 171.492 138.449 173.206C141.043 174.132 143.821 174.851 146.698 175.33C148.101 175.563 149.526 175.74 150.965 175.856V175.856C151.578 175.905 151.726 175.006 151.148 174.794C147.705 173.532 144.626 171.868 142.095 169.921C140.774 168.906 139.524 167.792 138.526 166.614Z" fill="#AA92F7"/>
<path d="M129.727 173.78C129.067 173.821 128.431 173.925 127.844 174.123C126.098 174.713 125.704 176.19 127.259 177.019C128.57 177.718 130.435 177.934 132.091 177.951C135.374 177.985 138.629 177.603 141.904 177.446C145.179 177.289 148.593 177.375 151.552 178.28C150.064 177.825 148.773 177.175 147.265 176.73C145.678 176.262 144.063 175.83 142.417 175.451C140.021 174.898 137.558 174.455 135.043 174.181C133.412 174.003 131.484 173.67 129.727 173.78Z" fill="#AA92F7"/>
</g>
<mask id="mask2_127_756" style="mask-type:luminance" maskUnits="userSpaceOnUse" x="0" y="61" width="172" height="163">
<path d="M172 204C172 215.046 163.046 224 152 224H20.9959C9.95023 224 0.995898 215.046 0.995898 204V65.8531V65.8531C0.995898 63.1728 3.16868 61 5.84895 61H152C163.046 61 172 69.9543 172 81V204Z" fill="white"/>
</mask>
<g mask="url(#mask2_127_756)">
<path d="M40.293 233.765C51.6654 233.683 63.0379 233.601 74.4107 233.519C87.4385 233.425 81.8524 227.413 83.5813 221.303C85.2349 215.459 89.5507 209.905 96.0451 205.62C98.1119 204.257 104.741 198.726 106.128 197.412C111.574 192.249 112.835 185.185 108.18 179.719C103.524 174.253 92.6117 171.018 83.3323 172.982C75.791 174.579 70.1021 179.112 62.2266 179.798C57.2186 180.234 51.3453 179.153 47.5836 181.298C44.0653 183.305 44.8663 187.154 47.9717 189.419C53.46 193.422 63.2376 193.449 71.3761 192.249C79.5145 191.049 87.6926 188.934 95.9408 189.78C98.0623 189.998 100.299 190.487 101.488 191.624C102.678 192.762 102.112 194.655 100.036 195.008C99.1379 195.161 98.1915 195.007 97.2791 194.893C95.5841 194.68 93.8508 194.622 92.1322 194.703C84.3187 194.264 76.8075 196.573 69.3986 198.273C61.8234 200.012 52.792 201.038 46.1728 198.122C43.4528 196.924 41.4493 195.174 38.8418 193.878C36.2344 192.583 32.5007 191.788 29.6411 192.847C25.1721 194.502 26.5111 198.83 29.0269 201.702C32.5992 205.781 37.4064 209.472 39.7899 213.887C42.1733 218.302 41.3624 223.931 35.3701 226.631C33.5243 227.462 31.1381 228.09 30.4223 229.454C29.6774 230.873 31.2739 232.443 33.3779 233.113C35.482 233.784 37.9393 233.782 40.293 233.765Z" fill="#FDF5E0"/>
<path d="M38.2409 232.623C49.6134 232.542 60.9858 232.46 72.3586 232.378C85.3864 232.284 79.8004 226.272 81.5292 220.162C83.1829 214.318 87.4987 208.764 93.9931 204.479C96.0598 203.116 102.689 197.585 104.075 196.271C109.522 191.108 110.783 184.044 106.128 178.578C101.472 173.112 90.5596 169.877 81.2803 171.841C73.739 173.438 68.05 177.971 60.1746 178.657C55.1666 179.093 49.2933 178.012 45.5315 180.157C42.0133 182.164 42.8143 186.013 45.9197 188.278C51.4079 192.281 61.1856 192.309 69.324 191.108C77.4624 189.908 85.6405 187.793 93.8887 188.639C96.0102 188.857 98.2473 189.346 99.4365 190.483C100.626 191.62 100.06 193.514 97.9843 193.867C97.0858 194.02 96.1395 193.866 95.227 193.751C93.532 193.539 91.7987 193.481 90.0801 193.562C82.2666 193.123 74.7554 195.432 67.3465 197.132C59.7714 198.871 50.74 199.897 44.1207 196.981C41.4007 195.783 39.3973 194.032 36.7898 192.737C34.1823 191.442 30.4486 190.647 27.5891 191.706C23.1201 193.361 24.459 197.689 26.9748 200.561C30.5471 204.64 35.3544 208.331 37.7378 212.746C40.1213 217.161 39.3104 222.79 33.3181 225.49C31.4722 226.321 29.0861 226.949 28.3702 228.313C27.6253 229.732 29.2218 231.302 31.3259 231.972C33.4299 232.643 35.8872 232.64 38.2409 232.623Z" fill="#ED6B6E"/>
</g>
<mask id="mask3_127_756" style="mask-type:luminance" maskUnits="userSpaceOnUse" x="0" y="61" width="172" height="163">
<path d="M172 204C172 215.046 163.046 224 152 224H20.9959C9.95023 224 0.995898 215.046 0.995898 204V65.8531V65.8531C0.995898 63.1728 3.16868 61 5.84895 61H152C163.046 61 172 69.9543 172 81V204Z" fill="white"/>
</mask>
<g mask="url(#mask3_127_756)">
<path d="M135.066 76.2117C135.203 79.5932 132.582 82.7446 130.86 85.9548C129.138 89.1648 128.475 93.0359 131.952 95.6348C135.182 98.0494 139.715 97.9848 144.18 98.4908C150.277 99.1817 155.564 100.682 160.213 103.334C164.409 105.726 167.634 108.673 170.424 111.764C170.837 112.221 178.851 119.495 178.867 118.303C179.103 99.9067 178.648 81.6479 178.574 63.2567C178.569 62.1172 178.51 60.8774 177.343 59.9995C175.903 58.9166 173.352 58.7886 171.09 58.7523C162.666 58.6171 154.237 58.5917 145.811 58.6762C141.442 58.7199 137.074 58.7933 132.707 58.8961C129.394 58.9742 123.283 58.4245 120.31 59.2791C113.452 61.2499 122.224 64.477 125.017 65.7908C130.319 68.2854 134.891 71.9066 135.066 76.2117Z" fill="#FDF5E0"/>
<path d="M135.066 74.2557C135.203 77.6372 132.582 80.7885 130.86 83.9987C129.138 87.2088 128.475 91.0799 131.952 93.6788C135.182 96.0933 139.715 96.0288 144.18 96.5347C150.277 97.2256 155.564 98.7261 160.213 101.378C164.409 103.77 167.634 106.717 170.424 109.808C170.837 110.265 178.851 117.539 178.867 116.347C179.103 97.9507 178.648 79.6918 178.574 61.3007C178.57 60.1614 178.51 58.9213 177.343 58.0435C175.903 56.9605 173.352 56.8325 171.09 56.7962C162.666 56.661 154.237 56.6356 145.811 56.7201C141.442 56.7638 137.074 56.8373 132.707 56.9401C129.394 57.0181 123.283 56.4685 120.31 57.323C113.452 59.2938 122.224 62.521 125.017 63.8348C130.319 66.3293 134.891 69.9505 135.066 74.2557Z" fill="#AA92F7"/>
</g>
<mask id="mask4_127_756" style="mask-type:luminance" maskUnits="userSpaceOnUse" x="0" y="61" width="172" height="163">
<path d="M172 204C172 215.046 163.046 224 152 224H20.9959C9.95023 224 0.995898 215.046 0.995898 204V65.8531V65.8531C0.995898 63.1728 3.16868 61 5.84895 61H152C163.046 61 172 69.9543 172 81V204Z" fill="white"/>
</mask>
<g mask="url(#mask4_127_756)">
<path d="M97.1936 110.972C100.438 109.542 101.212 106.689 100.907 104.187C100.493 100.796 98.5965 97.4837 95.4853 94.7166C93.2944 92.7682 90.3859 90.3004 92.4137 88.2818C93.7985 86.9033 96.9275 86.6644 99.3623 87.1943C101.797 87.7239 103.797 88.8267 105.98 89.6928C115.279 93.382 128.59 92.2625 136.058 87.163C140.133 84.3805 142.222 80.5819 142.235 76.7966C142.46 74.6433 141.954 72.451 140.656 70.4827C137.372 65.5031 129.23 60.82 120.99 59.308C112.663 57.7802 101.078 59.2996 92.3002 59.3228C69.1992 59.3841 41.8816 57.2562 18.7807 57.2562C29.9808 57.1004 38.2105 70.9958 49.3877 71.4746C55.3783 71.7312 60.2557 68.5493 65.9601 67.3578C74.0869 65.6605 83.0133 68.2283 89.4482 71.8101C93.4907 74.0604 96.9217 76.6995 100.522 79.2229C104.314 81.8796 108.368 84.1358 112.796 86.346C113.236 86.5655 113.704 86.8116 113.832 87.1576C113.996 87.5983 113.512 88.061 112.865 88.2514C111.879 88.5413 110.397 88.369 109.416 88.1492C105.138 87.191 101.269 85.6445 97.5883 83.9836C93.9654 82.3484 91.0262 80.1601 87.2282 78.6861C83.9959 77.4317 79.8935 76.7901 76.3913 77.7068C71.5379 78.9771 69.5351 82.6696 69.0494 85.9911C67.8373 94.2837 72.8956 102.857 82.3884 108.599C84.3885 109.809 86.6276 110.918 89.2453 111.477C91.8638 112.035 94.9244 111.972 97.1936 110.972Z" fill="#FDF5E0"/>
<path d="M97.1936 108.864C100.438 107.434 101.212 104.58 100.907 102.079C100.493 98.688 98.5965 95.3754 95.4853 92.6083C93.2944 90.6599 90.3859 88.1921 92.4137 86.1735C93.7985 84.7952 96.9275 84.5561 99.3623 85.086C101.797 85.6156 103.797 86.7183 105.98 87.5844C115.279 91.2737 128.59 90.1542 136.058 85.0547C140.133 82.2721 142.222 78.4736 142.235 74.6885C142.46 72.5352 141.954 70.3429 140.656 68.3745C137.372 63.395 129.23 58.7119 120.99 57.1999C112.663 55.6721 101.078 57.1914 92.3001 57.2147C69.1992 57.276 46.0965 57.3983 22.9953 57.3983C34.1953 57.2425 38.2102 68.8879 49.3877 69.3667C55.3783 69.6233 60.2557 66.4414 65.96 65.2499C74.0868 63.5526 83.0133 66.1204 89.4481 69.7022C93.4907 71.9525 96.9217 74.5916 100.522 77.115C104.314 79.7717 108.368 82.0279 112.796 84.2381C113.236 84.4576 113.704 84.7037 113.832 85.0497C113.996 85.4904 113.511 85.9531 112.865 86.1435C111.879 86.4334 110.397 86.2611 109.416 86.0414C105.138 85.0831 101.269 83.5366 97.5883 81.8757C93.9654 80.2405 91.0262 78.0522 87.2282 76.5782C83.9958 75.3238 79.8935 74.6822 76.3913 75.5989C71.5378 76.8692 69.535 80.5617 69.0494 83.8832C67.8373 92.1758 72.8956 100.749 82.3884 106.492C84.3885 107.701 86.6276 108.81 89.2453 109.369C91.8637 109.927 94.9244 109.864 97.1936 108.864Z" fill="#FFCE59"/>
</g>
<mask id="mask5_127_756" style="mask-type:luminance" maskUnits="userSpaceOnUse" x="0" y="61" width="172" height="163">
<path d="M172 204C172 215.046 163.046 224 152 224H20.9959C9.95023 224 0.995898 215.046 0.995898 204V65.8531V65.8531C0.995898 63.1728 3.16868 61 5.84895 61H152C163.046 61 172 69.9543 172 81V204Z" fill="white"/>
</mask>
<g mask="url(#mask5_127_756)">
<path d="M43.5975 227.735C49.6514 224.596 52.9361 219.163 50.5875 214.427C48.0549 209.32 40.2106 206.219 34.0719 202.551C26.7902 198.199 21.4463 192.552 18.8108 186.425C17.8573 184.209 17.2554 181.848 18.1617 179.623C19.068 177.398 21.7931 175.348 25.3664 174.994C28.8788 174.646 32.4563 175.937 35.9352 175.473C37.6412 175.245 39.0981 174.595 40.18 173.728C40.3995 173.552 40.6245 173.383 40.8491 173.214V173.214C41.9986 172.347 42.553 171.21 42.6857 170.08C42.9108 168.16 42.3793 166.016 41.5414 164.178C36.5053 153.125 24.2867 143.455 8.34741 137.906C5.31038 136.849 1.57805 135.933 -1.50687 136.933C-3.91529 137.714 -5.1732 139.509 -5.20911 141.22C-5.28538 144.835 -0.799251 147.897 4.18791 149.669C9.17474 151.441 14.8422 152.332 19.8642 154.064C21.4292 154.604 23.0199 155.188 24.4533 155.874C25.8377 156.536 27.9199 158.179 24.47 157.6C17.2786 156.392 9.55402 156.662 3.11914 159.226C-6.68726 163.133 -11.3724 170.644 -13.4816 177.876C-17.0782 190.206 -14.786 203.118 -7.29637 214.702C-1.26985 224.024 4.22074 229.705 21.4781 231.214C29.2192 231.891 37.5436 230.874 43.5975 227.735Z" fill="#FDF5E0"/>
<path d="M40.8614 227.735C46.9153 224.596 50.2 219.163 47.8514 214.427C45.3188 209.32 37.4745 206.219 31.3358 202.551C24.0541 198.199 18.7103 192.552 16.0747 186.425C15.1212 184.209 14.5193 181.848 15.4256 179.623C16.3319 177.398 19.0571 175.348 22.6304 174.994C26.1428 174.646 29.7202 175.937 33.1991 175.473C34.9051 175.245 36.362 174.595 37.444 173.728C37.6635 173.552 37.8884 173.383 38.1131 173.214V173.214C39.2626 172.347 39.817 171.21 39.9497 170.08C40.1747 168.16 39.6432 166.016 38.8053 164.178C33.7692 153.125 21.5506 143.455 5.61135 137.906C2.57431 136.849 -1.15802 135.933 -4.24293 136.933C-6.65136 137.714 -7.90927 139.509 -7.94518 141.22C-8.02144 144.835 -3.53532 147.897 1.45185 149.669C6.43867 151.441 12.1061 152.332 17.1281 154.064C18.6932 154.604 20.2838 155.188 21.7172 155.874C23.1017 156.536 25.1838 158.179 21.734 157.6C14.5425 156.392 6.81796 156.662 0.383071 159.226C-9.42333 163.133 -14.1085 170.644 -16.2177 177.876C-19.8142 190.206 -17.5221 203.118 -10.0324 214.702C-4.00591 224.024 1.48468 229.705 18.7421 231.214C26.4831 231.891 34.8076 230.874 40.8614 227.735Z" fill="#6B9CC8"/>
</g>
<mask id="mask6_127_756" style="mask-type:luminance" maskUnits="userSpaceOnUse" x="0" y="61" width="172" height="163">
<path d="M172 204C172 215.046 163.046 224 152 224H20.9959C9.95023 224 0.995898 215.046 0.995898 204V65.8531V65.8531C0.995898 63.1728 3.16868 61 5.84895 61H152C163.046 61 172 69.9543 172 81V204Z" fill="white"/>
</mask>
<g mask="url(#mask6_127_756)">
<path d="M167.166 208.695C166.617 207.638 166.248 206.495 165.11 205.649C163.972 204.803 161.702 204.433 160.499 205.243C159.736 205.756 159.561 206.619 158.563 206.929C157.627 207.221 156.454 206.81 155.958 206.226C155.463 205.643 155.459 204.949 155.444 204.286C155.363 200.732 154.609 197.184 153.202 193.744C152.914 193.038 152.466 192.242 151.389 191.989C149.996 191.663 148.532 192.527 148.187 193.445C147.842 194.362 148.198 195.322 148.164 196.265C148.131 197.209 147.492 198.283 146.067 198.545C144.737 198.79 143.324 198.18 142.687 197.399C142.049 196.618 141.982 195.708 141.85 194.832C141.432 192.05 140.191 189.324 138.265 186.813C137.287 185.536 136.131 184.315 134.817 183.167C133.568 182.076 132.742 181.009 130.632 180.462C130.071 180.316 129.376 180.23 128.9 180.468C128.45 180.692 128.394 181.13 128.611 181.467C128.827 181.804 129.254 182.064 129.66 182.321C135.363 185.919 138.738 190.387 139.164 195.515C139.267 196.754 139.201 198.011 139.66 199.217C140.119 200.424 141.213 201.61 142.989 202.125C144.765 202.64 147.241 202.228 147.951 201.072C148.211 200.65 148.241 200.156 148.702 199.811C149.289 199.37 150.418 199.352 151.192 199.654C151.967 199.956 152.431 200.501 152.695 201.054C153.293 202.308 153.02 203.653 152.992 204.964C152.963 206.274 153.265 207.699 154.717 208.631C156.169 209.563 159.082 209.601 160.006 208.428C160.261 208.105 160.358 207.715 160.779 207.473C161.322 207.16 162.216 207.231 162.808 207.505C163.399 207.779 163.761 208.206 164.102 208.617C165.315 210.079 166.528 211.541 167.741 213.003C168.051 213.377 168.371 213.8 168.181 214.205C167.821 214.975 165.943 214.954 165.043 214.389C164.144 213.824 163.849 212.988 163.247 212.281C162.645 211.574 161.367 210.935 160.201 211.246C158.697 211.648 158.964 213.076 158.056 213.938C156.742 215.185 153.438 214.681 152.099 213.445C150.759 212.208 150.69 210.614 150.266 209.137C149.843 207.661 148.726 206.043 146.461 205.617C144.562 205.26 142.557 205.778 140.658 205.388C139.002 205.048 138.417 203.83 138.236 202.793C138.148 202.285 138.101 201.675 137.403 201.421C137.025 201.284 136.518 201.308 136.176 201.48C134.996 202.074 135.735 203.828 136.189 204.539C136.832 205.546 137.992 206.427 139.494 206.956C141.24 207.571 143.329 207.733 145.007 208.419C149.551 210.277 149.028 214.897 153.111 217.147C154.025 217.65 155.187 218.013 156.397 217.997C157.606 217.981 158.837 217.523 159.239 216.798C159.458 216.402 159.429 215.956 159.733 215.584C160.485 214.664 162.772 214.806 163.938 215.53C165.104 216.254 165.563 217.307 166.343 218.217C167.413 219.464 169.239 220.499 171.43 220.781C176.208 221.395 179.785 217.816 176.29 215.527C175.005 214.686 173.07 214.287 171.704 213.478C169.574 212.216 168.07 210.438 167.166 208.695Z" fill="#231F20"/>
<path d="M8.23357 75.6017C8.9812 76.7422 9.54175 77.9875 10.9139 78.8632C12.286 79.7388 14.848 80.0255 16.0717 79.0651C16.8481 78.4559 16.9264 77.4914 17.9897 77.0943C18.9877 76.7216 20.3407 77.1134 20.9665 77.7324C21.5924 78.3514 21.6889 79.1196 21.7939 79.8525C22.3561 83.7817 23.6629 87.6678 25.6767 91.4001C26.0898 92.1657 26.6918 93.0238 27.9172 93.2452C29.502 93.5317 31.0079 92.4961 31.2675 91.462C31.5271 90.4279 31.0062 89.3845 30.9176 88.3389C30.829 87.2931 31.3927 86.07 32.9358 85.7027C34.375 85.3601 36.0197 85.9602 36.8292 86.7902C37.6388 87.6202 37.834 88.6241 38.096 89.5862C38.9288 92.6432 40.6659 95.5935 43.1304 98.2693C44.3832 99.6294 45.8244 100.919 47.4322 102.119C48.9599 103.26 50.0153 104.397 52.4241 104.889C53.0643 105.02 53.8445 105.078 54.3404 104.789C54.8086 104.516 54.812 104.028 54.5278 103.667C54.2433 103.306 53.7367 103.041 53.2531 102.779C46.4619 99.1024 42.1327 94.3384 40.9792 88.686C40.7004 87.3201 40.6064 85.9248 39.9377 84.6147C39.2694 83.3044 37.9011 82.0506 35.8665 81.5757C33.8319 81.1011 31.1468 81.6898 30.5137 83.0073C30.2825 83.4883 30.315 84.0366 29.8509 84.4439C29.2596 84.9633 28.0126 85.0441 27.1152 84.751C26.2181 84.4578 25.6312 83.8801 25.2663 83.2824C24.4372 81.9258 24.5607 80.4232 24.4177 78.9708C24.2748 77.5181 23.7512 75.9577 22.0203 75.0044C20.2894 74.0512 17.0598 74.1655 16.1931 75.5128C15.9544 75.884 15.8987 76.3206 15.4647 76.6118C14.9058 76.9869 13.9065 76.9567 13.2153 76.6849C12.5237 76.4132 12.0671 75.9607 11.6345 75.5232C10.0975 73.9704 8.56053 72.4175 7.02355 70.8647C6.63058 70.4678 6.2212 70.0166 6.37681 69.5583C6.67299 68.6861 8.75446 68.6083 9.82528 69.1853C10.8961 69.7624 11.3332 70.6723 12.0938 71.4221C12.8545 72.1719 14.3531 72.8118 15.6025 72.4045C17.2147 71.8787 16.7291 70.3129 17.6193 69.3101C18.9077 67.8592 22.6314 68.2397 24.2782 69.5359C25.925 70.8321 26.214 72.5931 26.8788 74.2044C27.5437 75.8157 28.9955 77.5468 31.5585 77.8963C33.7084 78.1895 35.8586 77.5083 38.0122 77.838C39.8902 78.1256 40.7001 79.4424 41.0376 80.5803C41.2032 81.1376 41.3359 81.8109 42.1423 82.0541C42.5787 82.1856 43.1372 82.1314 43.4919 81.923C44.7197 81.2017 43.6684 79.3007 43.0709 78.5376C42.2254 77.4579 40.8246 76.5449 39.0923 76.04C37.0782 75.4532 34.7443 75.3865 32.7952 74.7167C27.5191 72.9041 27.4835 67.7627 22.666 65.4922C21.5873 64.9838 20.2528 64.6448 18.9162 64.7276C17.5796 64.8104 16.2783 65.3829 15.9301 66.2072C15.7403 66.6569 15.8313 67.1491 15.544 67.5773C14.8343 68.635 12.2843 68.6011 10.8975 67.8624C9.51063 67.1237 8.86253 65.9827 7.87789 65.018C6.52867 63.6955 4.36888 62.6475 1.90745 62.4534C-3.46276 62.0296 -6.94543 66.1837 -2.77327 68.529C-1.23971 69.3909 0.955639 69.7289 2.57471 70.5513C5.10009 71.8346 7.00063 73.7211 8.23357 75.6017Z" fill="#231F20"/>
<path d="M141.447 101.604C141.805 101.602 142.148 101.405 142.131 101.169C142.115 100.935 141.831 100.732 141.447 100.734C141.372 100.735 141.296 100.735 141.219 100.736C140.862 100.738 140.519 100.934 140.535 101.171C140.552 101.404 140.836 101.608 141.219 101.605C141.296 101.605 141.372 101.604 141.447 101.604Z" fill="#231F20"/>
<path d="M140.079 103.765V103.693C140.079 103.466 139.765 103.248 139.395 103.258C139.025 103.269 138.711 103.449 138.711 103.693V103.765C138.711 103.993 139.026 104.21 139.395 104.2C139.766 104.189 140.079 104.009 140.079 103.765Z" fill="#231F20"/>
<path d="M137.571 101.81C137.571 101.25 136.203 101.249 136.203 101.81C136.203 102.369 137.571 102.37 137.571 101.81Z" fill="#231F20"/>
<path d="M132.855 99.6044C132.992 99.3936 132.708 99.1176 132.378 99.0698V99.0698C132.183 99.0418 131.982 99.0404 131.789 99.0746C131.736 99.0839 131.687 99.0975 131.642 99.1157C131.303 99.2548 131.241 99.4873 131.397 99.7103C131.512 99.8742 131.835 99.975 132.109 99.9687C132.481 99.96 132.719 99.8146 132.855 99.6044Z" fill="#231F20"/>
<path d="M137.115 99.129C137.099 98.8934 136.815 98.6943 136.431 98.6943H136.317C135.96 98.6943 135.617 98.8943 135.633 99.129C135.65 99.3644 135.934 99.5637 136.317 99.5637H136.431C136.789 99.5637 137.132 99.3637 137.115 99.129Z" fill="#231F20"/>
<path d="M144.069 98.6217C144.053 98.3861 143.769 98.187 143.385 98.187H143.271C142.914 98.187 142.571 98.387 142.587 98.6217C142.604 98.8573 142.888 99.0563 143.271 99.0563H143.385C143.743 99.0563 144.086 98.8564 144.069 98.6217Z" fill="#231F20"/>
<path d="M133.695 102.244V102.172C133.695 101.945 133.38 101.727 133.011 101.737C132.64 101.748 132.327 101.928 132.327 102.172V102.244C132.327 102.472 132.642 102.689 133.011 102.679C133.382 102.668 133.695 102.488 133.695 102.244Z" fill="#231F20"/>
<path d="M136.516 106.362C136.592 106.151 136.415 105.868 136.038 105.827C136.001 105.823 135.964 105.819 135.927 105.815C135.576 105.777 135.174 105.874 135.086 106.119C135.01 106.33 135.187 106.612 135.564 106.653C135.601 106.658 135.638 106.661 135.675 106.666C136.026 106.703 136.428 106.606 136.516 106.362Z" fill="#231F20"/>
<path d="M131.529 105.504V105.432C131.529 105.204 131.215 104.986 130.845 104.997C130.474 105.007 130.161 105.188 130.161 105.432V105.504C130.161 105.731 130.476 105.949 130.845 105.939C131.216 105.928 131.529 105.748 131.529 105.504Z" fill="#231F20"/>
<path d="M6.15044 123.753C6.22637 123.705 6.30229 123.656 6.37856 123.608C6.63198 123.447 6.6508 123.152 6.37856 122.993C6.10563 122.834 5.68154 122.822 5.41136 122.993C5.33543 123.042 5.25951 123.09 5.18324 123.138C4.92981 123.299 4.911 123.594 5.18324 123.753C5.45616 123.912 5.87991 123.925 6.15044 123.753Z" fill="#231F20"/>
<path d="M11.3667 126.343V126.198C11.3667 125.971 11.0521 125.753 10.6827 125.764C10.3119 125.774 9.99867 125.955 9.99867 126.198V126.343C9.99867 126.571 10.3133 126.788 10.6827 126.778C11.0534 126.767 11.3667 126.587 11.3667 126.343Z" fill="#231F20"/>
<path d="M8.17466 127.212C8.15791 126.977 7.87404 126.778 7.49065 126.778H7.26253C6.90479 126.778 6.5621 126.978 6.57852 127.212C6.59493 127.448 6.87914 127.647 7.26253 127.647H7.49065C7.84839 127.647 8.19108 127.447 8.17466 127.212Z" fill="#231F20"/>
<path d="M9.9908 132.854C10.5804 132.742 11.0336 132.367 10.8653 131.967C10.7159 131.612 10.1673 131.396 9.60057 131.42C8.94768 131.447 8.45417 131.719 8.39808 132.139V132.139C8.38152 132.262 8.45401 132.384 8.52096 132.489C8.52261 132.491 8.52428 132.494 8.52599 132.496C8.75992 132.847 9.45966 132.954 9.9908 132.854Z" fill="#231F20"/>
<path d="M12.702 129.534C12.7772 129.324 12.6014 129.04 12.2242 128.999C12.1503 128.992 12.0764 128.983 12.0026 128.976C11.651 128.938 11.2488 129.034 11.1612 129.279C11.086 129.489 11.2618 129.774 11.639 129.814C11.7129 129.822 11.7868 129.83 11.8606 129.838C12.2119 129.875 12.6141 129.779 12.702 129.534Z" fill="#231F20"/>
<path d="M18.8909 133.153V133.008C18.8909 132.781 18.5762 132.563 18.2069 132.574C17.8361 132.584 17.5228 132.765 17.5228 133.008V133.153C17.5228 133.381 17.8375 133.598 18.2069 133.588C18.5776 133.577 18.8909 133.397 18.8909 133.153Z" fill="#231F20"/>
<path d="M14.2143 135.095C14.9384 134.98 15.0294 134.356 14.424 134.116V134.116C14.1116 133.992 13.7267 134.015 13.4421 134.194V134.194C12.8699 134.555 13.4058 135.224 14.2143 135.095Z" fill="#231F20"/>
<path d="M11.6352 123.734C11.6024 123.683 11.5582 123.634 11.5047 123.591C11.1452 123.301 10.4722 123.246 10.2138 123.629V123.629C10.0855 123.82 10.0599 124.035 10.3174 124.192C10.47 124.286 10.6649 124.338 10.8769 124.34C11.3469 124.347 11.8359 124.046 11.6352 123.734Z" fill="#231F20"/>
<path d="M15.9772 127.504C15.9444 127.453 15.9002 127.404 15.8465 127.361C15.487 127.071 14.8142 127.016 14.5562 127.4V127.4C14.428 127.59 14.4023 127.805 14.6598 127.963C14.8124 128.056 15.0073 128.108 15.2194 128.111C15.6889 128.117 16.178 127.817 15.9772 127.504Z" fill="#231F20"/>
<path d="M13.9382 137.425C13.9054 137.374 13.8611 137.325 13.8075 137.282C13.448 136.992 12.7752 136.937 12.5172 137.32V137.32C12.3889 137.511 12.3633 137.726 12.6208 137.883C12.7733 137.977 12.9683 138.028 13.1803 138.031C13.6496 138.038 14.1386 137.737 13.9382 137.425Z" fill="#231F20"/>
<path d="M13.9382 81.6659C13.9054 81.6148 13.8612 81.5662 13.8075 81.5229C13.4481 81.2328 12.775 81.1781 12.5172 81.5614V81.5614C12.3889 81.752 12.3633 81.9671 12.6208 82.1247C12.7733 82.2179 12.9683 82.2699 13.1803 82.2727C13.6496 82.279 14.1386 81.9782 13.9382 81.6659Z" fill="#231F20"/>
<path d="M15.9267 130.834C15.9267 130.275 14.5586 130.274 14.5586 130.834C14.5586 131.394 15.9267 131.395 15.9267 130.834Z" fill="#231F20"/>
<path d="M2.93408 135.609C2.93408 135.049 1.56605 135.049 1.56605 135.609C1.56605 136.168 2.93408 136.169 2.93408 135.609Z" fill="#231F20"/>
<path d="M8.06052 137.568C8.06052 137.008 6.69248 137.008 6.69248 137.568C6.69248 138.127 8.06052 138.128 8.06052 137.568Z" fill="#231F20"/>
<path d="M7.49042 130.553C7.64124 130.457 7.73973 130.322 7.74281 130.187C7.74726 129.999 7.59096 129.864 7.35976 129.759C7.29693 129.731 7.22549 129.713 7.15043 129.704C6.66279 129.647 5.88479 130.129 6.24175 130.466V130.466C6.53519 130.744 7.11216 130.792 7.49042 130.553Z" fill="#231F20"/>
<path d="M8.26292 135.592C8.55157 135.54 8.77285 135.395 8.84536 135.211C8.93702 134.976 8.77423 134.754 8.46437 134.626C8.44756 134.619 8.43024 134.613 8.41248 134.607C8.10715 134.509 7.72997 134.509 7.47938 134.709V134.709C7.23998 134.9 7.17226 135.116 7.35284 135.339C7.51461 135.538 7.92194 135.654 8.26292 135.592Z" fill="#231F20"/>
<path d="M11.6304 84.9364C12.14 84.8482 12.4933 84.5345 12.3801 84.1975C12.1656 83.5585 10.6297 83.5472 10.354 84.1662V84.1662C10.2922 84.3054 10.3395 84.4818 10.4225 84.6095C10.428 84.6179 10.4337 84.6262 10.4399 84.6345C10.643 84.911 11.1933 85.012 11.6304 84.9364Z" fill="#231F20"/>
<path d="M7.20748 79.9408C7.71707 79.8526 8.07037 79.5389 7.95717 79.2019C7.74273 78.5629 6.20677 78.5516 5.93111 79.1706V79.1706C5.86934 79.3098 5.91649 79.4862 5.99959 79.6139C6.00504 79.6222 6.01083 79.6306 6.01696 79.6389C6.22011 79.9151 6.7704 80.0164 7.20748 79.9408Z" fill="#231F20"/>
<path d="M2.41599 74.9745C2.92558 74.8862 3.27887 74.5726 3.16566 74.2355C2.95123 73.5966 1.41527 73.5853 1.13961 74.2044V74.2044C1.07783 74.3437 1.12505 74.5201 1.20813 74.6478C1.21356 74.6562 1.21933 74.6645 1.22545 74.6728C1.42826 74.9488 1.9789 75.0501 2.41599 74.9745Z" fill="#231F20"/>
<path d="M16.8388 124.413V124.268C16.8388 124.041 16.5242 123.823 16.1548 123.833C15.7841 123.844 15.4708 124.024 15.4708 124.268V124.413C15.4708 124.64 15.7854 124.858 16.1548 124.848C16.5255 124.837 16.8388 124.657 16.8388 124.413Z" fill="#231F20"/>
<path d="M6.46469 75.9408V75.7959C6.46469 75.5686 6.15004 75.3506 5.78067 75.3612C5.40994 75.3716 5.09666 75.5523 5.09666 75.7959V75.9408C5.09666 76.1682 5.41131 76.3859 5.78067 76.3755C6.15107 76.3651 6.46469 76.1845 6.46469 75.9408Z" fill="#231F20"/>
<path d="M4.98611 77.4355V77.2905C4.98611 77.0632 4.67147 76.8452 4.3021 76.8558C3.93136 76.8663 3.61808 77.0469 3.61808 77.2905V77.4355C3.61808 77.6628 3.93273 77.8806 4.3021 77.8701C4.67249 77.8597 4.98611 77.6793 4.98611 77.4355Z" fill="#231F20"/>
<path d="M8.85942 81.8813V81.7363C8.85942 81.509 8.54477 81.291 8.1754 81.3016C7.80467 81.3121 7.49139 81.4927 7.49139 81.7363V81.8813C7.49139 82.1086 7.80604 82.3264 8.1754 82.3159C8.5458 82.3055 8.85942 82.1251 8.85942 81.8813Z" fill="#231F20"/>
<path d="M4.30209 80.0375V79.8925C4.30209 79.6652 3.98745 79.4474 3.61808 79.4579C3.24734 79.4685 2.93406 79.6489 2.93406 79.8925V80.0375C2.93406 80.2648 3.24871 80.4826 3.61808 80.4722C3.98847 80.4615 4.30209 80.2811 4.30209 80.0375Z" fill="#231F20"/>
<path d="M0.995911 77.9428V77.7978C0.995911 77.5705 0.681263 77.3525 0.311894 77.3632C-0.0588427 77.3736 -0.372122 77.5542 -0.372122 77.7978V77.9428C-0.372122 78.1701 -0.0574746 78.3879 0.311894 78.3775C0.682631 78.367 0.995911 78.1866 0.995911 77.9428Z" fill="#231F20"/>
<path d="M20.036 137.419C20.2877 137.256 20.2754 137.051 20.1389 136.856C20.0281 136.698 19.7121 136.623 19.4405 136.647C19.1023 136.63 18.8516 136.759 18.7192 136.961C18.514 137.274 19.0096 137.574 19.4768 137.568C19.6851 137.565 19.8892 137.515 20.036 137.419Z" fill="#231F20"/>
<path d="M3.51689 129.721C3.76861 129.557 3.7563 129.353 3.61983 129.157C3.50902 128.999 3.19267 128.924 2.92111 128.948C2.58287 128.932 2.33217 129.06 2.19981 129.263C1.99461 129.575 2.49018 129.875 2.95736 129.869C3.16564 129.866 3.37017 129.816 3.51689 129.721Z" fill="#231F20"/>
<path d="M16.1548 83.7104C16.1548 83.151 14.7868 83.1501 14.7868 83.7104C14.7868 84.2698 16.1548 84.2707 16.1548 83.7104Z" fill="#231F20"/>
<path d="M3.61809 132.573C3.61809 132.013 2.25005 132.012 2.25005 132.573C2.25005 133.132 3.61809 133.133 3.61809 132.573Z" fill="#231F20"/>
<path d="M134.014 97.0852C134.32 96.9137 134.319 96.6635 134.168 96.444V96.444C134.023 96.2329 133.751 96.0972 133.51 96.0096C133.461 95.9918 133.408 95.9784 133.352 95.9702C132.987 95.9172 132.618 96.04 132.511 96.2738C132.435 96.4395 132.387 96.6244 132.462 96.7941C132.552 96.9978 132.79 97.1806 133.125 97.2303C133.443 97.2779 133.769 97.2219 134.014 97.0852Z" fill="#231F20"/>
<path d="M125.975 103.18C126.169 102.961 126.131 102.647 125.82 102.477C125.549 102.329 125.115 102.295 124.852 102.477C124.837 102.488 124.822 102.499 124.809 102.511C124.676 102.624 124.54 102.771 124.481 102.936V102.936C124.406 103.145 124.581 103.431 124.959 103.47C125.382 103.514 125.76 103.424 125.975 103.18Z" fill="#231F20"/>
<path d="M24.865 177.808C24.9628 177.719 25.0087 177.61 25.0186 177.503C25.033 177.348 24.918 177.226 24.7734 177.111V177.111C24.5663 176.946 24.2693 176.941 24.005 176.959C23.9892 176.96 23.9733 176.962 23.9573 176.963C23.602 177 23.351 177.22 23.3055 177.435C23.2572 177.663 23.4084 177.89 23.7337 178.004C24.141 178.146 24.6126 178.038 24.865 177.808Z" fill="#231F20"/>
<path d="M20.4904 181.226V181.136C20.4904 180.577 19.1223 180.576 19.1223 181.136V181.226C19.1223 181.785 20.4904 181.786 20.4904 181.226Z" fill="#231F20"/>
<path d="M27.1087 182.993V182.993C27.2663 182.533 26.4792 182.26 26.0041 182.362C25.9615 182.372 25.9195 182.384 25.8788 182.399C25.3641 182.595 25.3897 183.021 25.8381 183.241C26.2697 183.453 26.9808 183.366 27.1087 182.993Z" fill="#231F20"/>
<path d="M22.9983 185.862V185.772C22.9983 185.213 21.6303 185.212 21.6303 185.772V185.862C21.6303 186.422 22.9983 186.423 22.9983 185.862Z" fill="#231F20"/>
<path d="M24.4616 180.908V180.908C24.8239 180.58 24.0501 180.087 23.5651 180.143C23.491 180.152 23.4183 180.17 23.3504 180.198C22.9113 180.382 22.8398 180.752 23.2143 180.991C23.3644 181.087 23.5761 181.149 23.7899 181.151C24.0833 181.154 24.2984 181.055 24.4616 180.908Z" fill="#231F20"/>
<path d="M31.5503 178.485C31.7069 178.297 31.6546 177.988 31.3051 177.891C31.1498 177.847 30.9942 177.804 30.8389 177.76C30.5123 177.669 30.0892 177.693 29.9032 177.916C29.7466 178.105 29.7989 178.413 30.1484 178.511C30.3037 178.554 30.4593 178.598 30.6146 178.641C30.9412 178.733 31.3643 178.709 31.5503 178.485Z" fill="#231F20"/>
<path d="M38.9588 179.252V179.107C38.9588 178.88 38.6442 178.662 38.2748 178.673C37.9041 178.683 37.5908 178.864 37.5908 179.107V179.252C37.5908 179.48 37.9054 179.697 38.2748 179.687C38.6455 179.676 38.9588 179.496 38.9588 179.252Z" fill="#231F20"/>
<path d="M33.4868 181.281C33.4704 181.045 33.1861 180.846 32.8028 180.846H32.5746C32.2169 180.846 31.8742 181.046 31.8906 181.281C31.907 181.516 32.1912 181.716 32.5746 181.716H32.8028C33.1605 181.716 33.5032 181.516 33.4868 181.281Z" fill="#231F20"/>
<path d="M28.6986 186.207C28.6986 185.648 27.3305 185.647 27.3305 186.207C27.3305 186.767 28.6986 186.768 28.6986 186.207Z" fill="#231F20"/>
<path d="M34.0768 185.151C34.3938 185.044 34.5163 184.747 34.3223 184.556C34.3208 184.555 34.3194 184.553 34.3178 184.552C34.1291 184.37 33.8837 184.19 33.6352 184.107V184.107C33.3076 183.997 32.8921 184.053 32.6995 184.263C32.469 184.514 32.5531 184.827 32.8698 185.032C33.1937 185.241 33.6708 185.287 34.0768 185.151Z" fill="#231F20"/>
<path d="M44.4249 176.102C44.6859 175.921 44.6814 175.668 44.4249 175.487C44.3531 175.437 44.281 175.386 44.2091 175.336C43.9684 175.166 43.4831 175.168 43.2419 175.336C42.981 175.516 42.9854 175.77 43.2419 175.95C43.3141 176.001 43.3859 176.051 43.4577 176.102C43.6982 176.271 44.1835 176.269 44.4249 176.102Z" fill="#231F20"/>
<path d="M38.0509 176.274C38.3023 176.111 38.2862 175.907 38.1545 175.711C38.0478 175.552 37.7297 175.478 37.4582 175.502C37.1196 175.484 36.8641 175.613 36.7335 175.816C36.5324 176.129 37.0218 176.429 37.4914 176.422C37.7 176.419 37.9042 176.37 38.0509 176.274Z" fill="#231F20"/>
<path d="M25.0504 189.395C25.0504 188.836 23.6824 188.835 23.6824 189.395C23.6824 189.954 25.0504 189.955 25.0504 189.395Z" fill="#231F20"/>
<path d="M145.967 212.677C146.29 212.545 146.391 212.298 146.212 212.082L145.975 211.796C145.808 211.594 145.34 211.516 145.039 211.64C144.716 211.772 144.615 212.019 144.794 212.234C144.873 212.33 144.952 212.425 145.031 212.521C145.198 212.723 145.666 212.8 145.967 212.677Z" fill="#231F20"/>
<path d="M145.209 216.199C145.209 215.64 143.841 215.639 143.841 216.199C143.841 216.759 145.209 216.759 145.209 216.199Z" fill="#231F20"/>
<path d="M141.333 213.591V213.446C141.333 213.219 141.019 213.001 140.649 213.012C140.278 213.022 139.965 213.203 139.965 213.446V213.591C139.965 213.819 140.28 214.036 140.649 214.026C141.02 214.015 141.333 213.835 141.333 213.591Z" fill="#231F20"/>
<path d="M144.297 219.821H144.156C143.276 219.821 143.274 220.691 144.156 220.691H144.297C145.178 220.691 145.179 219.821 144.297 219.821Z" fill="#231F20"/>
<path d="M149.998 217.938C149.998 217.379 148.63 217.378 148.63 217.938C148.63 218.497 149.998 218.498 149.998 217.938Z" fill="#231F20"/>
<path d="M140.421 218.082C140.421 217.523 139.053 217.522 139.053 218.082C139.053 218.642 140.421 218.643 140.421 218.082Z" fill="#231F20"/>
<path d="M135.776 215.446C135.926 215.395 136.076 215.345 136.226 215.294C136.543 215.187 136.666 214.891 136.471 214.7C136.264 214.495 135.874 214.43 135.536 214.543C135.385 214.594 135.235 214.645 135.085 214.695C134.768 214.802 134.645 215.098 134.84 215.29C135.047 215.495 135.437 215.56 135.776 215.446Z" fill="#231F20"/>
<path d="M141.105 209.824H140.964C140.084 209.824 140.082 210.693 140.964 210.693H141.105C141.986 210.693 141.987 209.824 141.105 209.824Z" fill="#231F20"/>
<path d="M136.773 210.983V210.838C136.773 210.611 136.459 210.393 136.089 210.404C135.718 210.414 135.405 210.595 135.405 210.838V210.983C135.405 211.211 135.72 211.428 136.089 211.418C136.46 211.407 136.773 211.227 136.773 210.983Z" fill="#231F20"/>
<path d="M134.949 206.347H134.808C133.928 206.347 133.926 207.216 134.808 207.216H134.949C135.83 207.216 135.831 206.347 134.949 206.347Z" fill="#231F20"/>
<path d="M128.48 205.73V205.73C128.663 205.39 128.086 205.085 127.699 205.065C127.626 205.061 127.55 205.063 127.472 205.072C126.848 205.14 126.612 205.696 127.051 205.97C127.527 206.267 128.275 206.111 128.48 205.73Z" fill="#231F20"/>
<path d="M132.059 209.344C132.382 209.212 132.483 208.965 132.304 208.75C132.225 208.654 132.146 208.559 132.067 208.463C131.9 208.262 131.432 208.184 131.131 208.307C130.808 208.439 130.707 208.686 130.886 208.902L131.123 209.188C131.29 209.39 131.758 209.468 132.059 209.344Z" fill="#231F20"/>
<path d="M141.079 222.624C141.203 222.36 141.046 222.132 140.708 221.972V221.972C140.507 221.877 140.269 221.868 140.051 221.909C140.043 221.91 140.036 221.912 140.028 221.913C139.642 221.997 139.382 222.21 139.395 222.474C139.409 222.744 139.705 222.98 140.134 223.016C140.555 223.052 140.957 222.883 141.079 222.624Z" fill="#231F20"/>
<path d="M136.101 218.818C136.35 218.654 136.375 218.363 136.101 218.203V218.203C136.039 218.167 135.98 218.127 135.92 218.09C135.917 218.088 135.913 218.085 135.909 218.083C135.636 217.924 135.212 217.912 134.942 218.083C134.629 218.281 134.634 218.616 134.956 218.81C135.276 219.003 135.781 219.027 136.101 218.818Z" fill="#231F20"/>
<path d="M132.16 213.277C132.493 213.196 132.759 212.981 132.638 212.742V212.742C132.476 212.426 132.077 212.215 131.726 212.161C131.724 212.161 131.721 212.161 131.719 212.16C131.331 212.104 131.012 212.236 130.878 212.464C130.606 212.925 131.432 213.454 132.16 213.277Z" fill="#231F20"/>
<path d="M39.421 183.137V183.137C39.5786 182.677 38.7915 182.404 38.3163 182.507C38.2738 182.516 38.2318 182.528 38.1911 182.544C37.6764 182.739 37.702 183.166 38.1504 183.386C38.582 183.598 39.293 183.51 39.421 183.137Z" fill="#231F20"/>
<path d="M38.5029 186.642V186.497C38.5029 186.27 38.1883 186.052 37.8189 186.062C37.4482 186.073 37.1349 186.253 37.1349 186.497V186.642C37.1349 186.869 37.4495 187.087 37.8189 187.077C38.1893 187.066 38.5029 186.886 38.5029 186.642Z" fill="#231F20"/>
<path d="M32.8027 188.816V188.526C32.8027 188.299 32.488 188.081 32.1186 188.091C31.7479 188.102 31.4346 188.282 31.4346 188.526V188.816C31.4346 189.043 31.7493 189.261 32.1186 189.25C32.4894 189.24 32.8027 189.059 32.8027 188.816Z" fill="#231F20"/>
<path d="M19.606 178.256C19.8567 178.083 19.8765 177.813 19.606 177.641L19.3779 177.496C19.1244 177.335 18.6603 177.323 18.4107 177.496C18.16 177.67 18.1405 177.939 18.4107 178.111L18.6388 178.256C18.8922 178.417 19.3563 178.429 19.606 178.256Z" fill="#231F20"/>
<path d="M19.3378 184.364C19.6018 184.181 19.5906 183.931 19.3378 183.749C19.267 183.698 19.1962 183.647 19.1254 183.595C18.8884 183.424 18.3969 183.43 18.1579 183.595C17.8939 183.778 17.9051 184.028 18.1579 184.21C18.2287 184.261 18.2995 184.312 18.3703 184.364C18.6076 184.535 19.0988 184.529 19.3378 184.364Z" fill="#231F20"/>
<path d="M129.021 101.013V100.868C129.021 100.64 128.706 100.422 128.337 100.433C127.966 100.443 127.653 100.624 127.653 100.868V101.013C127.653 101.24 127.967 101.458 128.337 101.447C128.708 101.437 129.021 101.256 129.021 101.013Z" fill="#231F20"/>
<path d="M129.254 98.0346C129.506 97.8708 129.494 97.6665 129.357 97.4713C129.246 97.3131 128.93 97.2381 128.659 97.2622C128.32 97.2455 128.07 97.3744 127.937 97.5765C127.732 97.8893 128.228 98.1894 128.695 98.1829C128.903 98.18 129.107 98.1303 129.254 98.0346Z" fill="#231F20"/>
<path d="M128.891 94.459C129.36 94.4083 129.712 94.1488 129.725 93.8483C129.739 93.5477 129.36 93.2967 128.917 93.2326C128.658 93.1952 128.398 93.2139 128.16 93.2882C127.913 93.3651 127.783 93.4977 127.681 93.6535V93.6535C127.613 93.7574 127.614 93.9122 127.673 94.021C127.675 94.0236 127.676 94.0261 127.678 94.0287C127.875 94.3625 128.343 94.5181 128.891 94.459Z" fill="#231F20"/>
<path d="M141.111 107.216V107.216C141.269 106.756 140.482 106.483 140.007 106.586C139.964 106.595 139.922 106.607 139.881 106.622C139.367 106.818 139.392 107.244 139.841 107.465C140.272 107.676 140.983 107.589 141.111 107.216Z" fill="#231F20"/>
<path d="M138.498 111.832C138.823 111.736 138.93 111.422 138.743 111.238C138.74 111.235 138.737 111.232 138.734 111.229C138.545 111.05 138.298 110.871 138.051 110.788V110.788C137.739 110.683 137.29 110.727 137.116 110.944C136.91 111.198 136.962 111.506 137.293 111.711C137.634 111.921 138.073 111.958 138.498 111.832Z" fill="#231F20"/>
<path d="M80.6838 70.0063V69.8613C80.6838 69.634 80.3692 69.4162 79.9998 69.4266C79.6291 69.4373 79.3158 69.6177 79.3158 69.8613V70.0063C79.3158 70.2336 79.6304 70.4514 79.9998 70.4409C80.3706 70.4305 80.6838 70.2499 80.6838 70.0063Z" fill="#231F20"/>
<path d="M78.625 72.5531C78.6958 72.372 78.6027 72.1736 78.3835 72.0497C78.1013 71.8904 77.7426 71.8757 77.4119 71.9806C77.4022 71.9837 77.3927 71.987 77.3833 71.9904C77.074 72.1046 76.9732 72.5829 77.2415 72.7746V72.7746C77.6506 73.0666 78.4779 72.9291 78.625 72.5531Z" fill="#231F20"/>
<path d="M75.8503 69.0562C75.8746 69.0408 75.8992 69.0251 75.9235 69.0097C76.547 68.6137 75.5798 67.9987 74.9563 68.3951C74.932 68.4105 74.9074 68.4262 74.8831 68.4416C74.2596 68.8376 75.2268 69.4526 75.8503 69.0562Z" fill="#231F20"/>
<path d="M86.7569 72.2095C87.3914 71.787 86.656 71.0248 85.7702 71.2157C85.7481 71.2204 85.7264 71.2258 85.7052 71.2319C85.4412 71.307 85.1636 71.4883 85.1112 71.7577V71.7577C85.0585 72.0296 85.4043 72.2632 85.7767 72.3503C86.1126 72.4288 86.5086 72.3747 86.7569 72.2095Z" fill="#231F20"/>
<path d="M86.6119 76.0914C86.5952 75.8558 86.3113 75.6567 85.9279 75.6567H85.6998C85.342 75.6567 84.9994 75.8567 85.0158 76.0914C85.0322 76.327 85.3164 76.5261 85.6998 76.5261H85.9279C86.286 76.5261 86.6287 76.3261 86.6119 76.0914Z" fill="#231F20"/>
<path d="M83.4518 73.6L83.5951 73.4268C83.7617 73.2258 83.6864 72.9452 83.3499 72.8322C83.0342 72.7264 82.5917 72.7733 82.4142 72.9883C82.3663 73.0461 82.3188 73.1037 82.2709 73.1615C82.1047 73.3627 82.1796 73.6433 82.5164 73.7561C82.8318 73.8619 83.274 73.815 83.4518 73.6Z" fill="#231F20"/>
<path d="M92.2732 75.3359V75.3359C92.3279 75.2248 92.32 75.0847 92.2896 74.9647C92.2893 74.9639 92.2891 74.9631 92.2889 74.9623C92.0649 74.0966 89.7697 74.2246 89.7345 75.0955C89.6986 75.9844 91.8662 76.1626 92.2732 75.3359Z" fill="#231F20"/>
<path d="M78.7563 75.4542C78.9226 75.2545 78.8501 74.9715 78.5111 74.8596C78.3603 74.8098 78.2095 74.7601 78.059 74.7101C77.7416 74.6053 77.3014 74.6514 77.1232 74.8661C76.957 75.0659 77.0295 75.3488 77.3685 75.4608C77.5193 75.5105 77.6701 75.5605 77.8206 75.6103C78.1376 75.715 78.5782 75.6687 78.7563 75.4542Z" fill="#231F20"/>
<path d="M72.9367 78.1846C73.1884 78.0207 73.1761 77.8164 73.0396 77.6212C72.9288 77.463 72.6128 77.388 72.3413 77.4121C72.003 77.3954 71.7523 77.5243 71.62 77.7264C71.4148 78.0392 71.9103 78.3393 72.3775 78.3328C72.5858 78.3299 72.79 78.28 72.9367 78.1846Z" fill="#231F20"/>
<path d="M74.2995 72.994V72.9043C74.2995 72.3448 72.9315 72.344 72.9315 72.9043V72.994C72.9315 73.5534 74.2995 73.5543 74.2995 72.994Z" fill="#231F20"/>
<path d="M69.1599 81.8104C69.1558 81.5176 68.6934 81.2092 68.2036 81.3383C68.0316 81.3835 67.8927 81.4318 67.7949 81.5381V81.5381C67.6545 81.6906 67.6769 81.966 67.8296 82.1064C67.9159 82.1858 68.046 82.248 68.2077 82.2853C68.6975 82.3976 69.164 82.1131 69.1599 81.8104Z" fill="#231F20"/>
<path d="M69.1309 75.5688C69.8426 75.378 69.7968 74.6447 69.006 74.5367C68.9963 74.5353 68.9865 74.5341 68.9767 74.5331C68.7109 74.5042 68.4085 74.5107 68.2016 74.6801V74.6801C68.0665 74.7903 67.9588 74.899 67.9615 75.0454C67.9636 75.15 68.0101 75.2584 68.098 75.3473C68.3142 75.5666 68.7495 75.6711 69.1309 75.5688Z" fill="#231F20"/>
<path d="M62.47 79.8806C62.891 79.806 63.1913 79.5491 63.1321 79.2699C63.0811 79.0295 62.8113 78.8489 62.4412 78.7922C62.0613 78.7339 61.6026 78.8335 61.4238 79.0667C61.4215 79.0696 61.4192 79.0726 61.4171 79.0756C61.3013 79.235 61.2933 79.4952 61.4378 79.6291V79.6291C61.6741 79.8469 62.0589 79.9534 62.47 79.8806Z" fill="#231F20"/>
<path d="M96.8721 78.2098V78.1201C96.8721 77.5607 95.5041 77.5598 95.5041 78.1201V78.2098C95.5041 78.7693 96.8721 78.7701 96.8721 78.2098Z" fill="#231F20"/>
</g>
<mask id="mask7_127_756" style="mask-type:luminance" maskUnits="userSpaceOnUse" x="0" y="61" width="172" height="163">
<path d="M172 204C172 215.046 163.046 224 152 224H20.9959C9.95023 224 0.995898 215.046 0.995898 204V65.8531V65.8531C0.995898 63.1728 3.16868 61 5.84895 61H152C163.046 61 172 69.9543 172 81V204Z" fill="white"/>
</mask>
<g mask="url(#mask7_127_756)">
<path d="M39.9763 53.5116C39.6507 57.1124 44.3146 60.3104 49.6931 61.4616C55.0715 62.6128 60.9588 62.1421 66.5123 61.3984C72.0659 60.6547 77.6211 59.6452 83.294 59.7551C93.8107 59.959 103.306 64.0194 110.332 68.9964C117.358 73.9731 122.468 79.8989 128.545 85.357C132.159 88.6029 136.62 91.8927 142.742 92.7137C146.869 93.2673 151.243 92.6083 155.33 93.2673C161.311 94.2314 165.649 97.8369 171.704 98.5887C177.603 99.3207 183.769 96.9363 186.506 93.5361C189.243 90.1359 188.957 85.9929 186.914 82.4013C184.87 78.8096 181.229 75.6798 177.378 72.7478C173.527 69.8157 169.398 67.0084 166.14 63.7993C162.676 60.3882 160.192 56.5247 155.786 53.5855C147.997 48.3903 135.628 47.077 124.386 47.7405C121.426 47.9152 118.424 48.2173 115.776 49.0749C113.127 49.9325 110.853 51.4274 110.236 53.2749C109.482 55.5306 111.31 57.8561 113.845 59.5063C116.38 61.1565 119.584 62.3136 122.477 63.7063C128.335 66.5272 132.954 70.3775 135.681 74.7153C137.479 77.5749 139.084 81.0575 143.675 82.044C148.305 83.0389 153.752 80.8439 158.12 82.2387C159.67 82.7338 160.865 83.6355 162.499 84.0058C165.7 84.7315 169.333 82.9081 169.809 80.7695C170.284 78.631 168.306 76.5181 165.646 75.1738C162.986 73.8296 159.712 73.0959 156.538 72.3229C150.755 70.9141 144.497 68.9088 145.074 64.3906C145.305 62.5787 146.143 60.7546 145.585 58.9716C144.808 56.488 141.392 54.6043 137.639 53.7515C133.888 52.8987 129.806 52.8989 125.822 52.9387" stroke="white" stroke-width="2" stroke-miterlimit="10" stroke-linecap="round" stroke-linejoin="round" stroke-dasharray="5 7 5 7"/>
<path d="M138.796 236.688C131.986 219.953 108.091 206.586 81.1045 204.416C74.3461 203.873 67.4693 203.971 60.7683 203.192C54.0674 202.413 47.2953 200.592 43.2958 197.088C36.942 191.52 39.2557 183.435 33.5889 177.575C30.2701 174.143 24.2552 171.824 17.9318 171.54C11.6081 171.255 5.13933 173.011 1.09166 176.112C-4.56823 180.448 -5.09253 186.606 -4.21185 192.212C-3.33118 197.817 -1.31984 203.48 -2.89513 209.023C-4.1031 213.273 -7.3508 217.167 -9.36181 221.293C-11.3728 225.418 -11.9946 230.196 -8.26191 233.805C-5.70745 236.274 -1.48058 237.832 2.78426 239.011C19.2773 243.569 37.967 243.661 55.8551 242.474C69.8449 241.546 84.1802 240.562 98.0513 239.122C108.019 238.087 112.695 231.591 109.54 225.405C105.198 216.891 93.8282 215.716 81.9886 214.23C67.1697 212.37 51.3152 211.467 39.0423 205.872C33.8615 203.51 28.6096 200.197 22.2897 200.734C16.4714 201.228 12.4443 205.244 12.9935 208.958C13.5425 212.672 17.7683 215.861 22.8817 217.693C27.9951 219.525 33.9193 220.199 39.7489 220.636C43.9125 220.949 48.1571 221.165 52.0714 222.119C55.9857 223.074 59.6117 224.914 60.8415 227.461C62.0673 229.999 60.6565 232.86 57.8801 234.844C55.1037 236.827 51.1377 238.014 47.0716 238.622" stroke="white" stroke-width="2" stroke-miterlimit="10" stroke-linecap="round" stroke-linejoin="round" stroke-dasharray="5 7 5 7"/>
<path d="M-28.3019 66.6113C-16.8241 71.8195 -4.80016 77.4515 0.636403 85.7212C5.41973 92.9971 4.37387 101.285 7.67356 108.886C12.026 118.913 23.5739 127.008 35.7712 133.945C38.2046 135.328 40.9311 137.264 39.7396 139.196C38.4324 141.315 33.6809 141.332 30.2998 140.581C22.7178 138.897 16.4782 135.306 11.7558 131.177C7.03366 127.049 3.66967 122.369 0.310468 117.734C-1.06338 115.838 -2.55659 113.854 -5.24853 112.658C-7.94048 111.462 -12.2122 111.435 -14.0652 113.158C-15.3179 114.323 -15.1172 115.866 -14.8008 117.263C-12.534 127.262 -7.11864 136.532 4.19294 143.84C15.9902 151.462 34.0205 155.555 50.2467 152.732C62.7728 150.552 73.5625 144.577 86.5277 144.097C91.6653 143.907 96.9062 144.607 101.923 143.877C110.352 142.651 116.469 137.19 116.34 131.696C116.211 126.201 110.374 121.07 102.531 118.756C92.2255 115.716 79.3852 117.119 69.7994 113.243C63.7198 110.785 60.0152 106.616 55.6583 102.969C51.3012 99.322 45.2466 95.8496 38.0418 95.9331C31.4849 96.0089 25.644 99.2724 23.6324 103.239C21.6207 107.205 23.0181 111.651 26.2887 115.263C29.5594 118.875 34.5428 121.745 39.8736 124.172C53.0799 130.186 68.9505 133.809 85.1593 134.511C87.4754 134.611 89.8564 134.648 92.0573 134.179C94.2581 133.71 96.2711 132.64 96.8023 131.204C97.8266 128.435 93.2556 126.17 89.0784 125.147C80.3667 123.014 70.8353 122.692 61.8275 121.132C52.82 119.573 43.6477 116.26 40.5512 110.663C38.6386 107.206 38.9779 102.916 34.5684 100.554" stroke="white" stroke-width="2" stroke-miterlimit="10" stroke-linecap="round" stroke-linejoin="round" stroke-dasharray="5 7 5 7"/>
<path d="M183.445 149.749C169.204 143.14 166.602 129.46 152.136 123.051C150.643 122.39 148.73 121.805 147.069 122.278C145.492 122.726 144.846 124.004 145.186 125.08C145.527 126.156 146.623 127.066 147.742 127.903C152.007 131.089 157.066 133.822 161.231 137.061C165.396 140.3 168.712 144.246 168.56 148.428C168.477 150.702 167.377 152.907 166.86 155.158C166.342 157.409 166.493 159.88 168.611 161.714C171.477 164.195 176.964 164.733 181.799 164.541C188.37 164.281 195.337 162.824 199.028 159.359C202.455 156.143 202.311 151.797 200.088 148.179C198.312 145.289 195.084 141.792 191.212 139.832C187.799 138.106 184.836 137.106 182.08 134.757C176.054 129.621 172.173 123.587 165.716 118.639C160.971 115.003 153.592 111.906 146.473 113.264C139.985 114.5 136.294 119.186 136.663 123.484C137.032 127.782 140.589 131.702 144.605 135.168C148.621 138.633 153.225 141.873 156.241 145.727C158.666 148.828 159.65 153.072 155.556 155.358C152.551 157.035 147.986 156.925 144.143 156.22C140.301 155.513 136.639 154.309 132.654 154.087C126.058 153.719 119.553 156.273 116.202 159.902C112.851 163.532 112.381 168.037 113.889 172.134C115.396 176.232 118.733 179.971 122.594 183.389C130.271 190.184 140.563 196.082 153.081 198.671C158.642 199.821 165.387 200.146 169.741 197.665C173.572 195.482 174.273 191.829 173.794 188.574C172.521 179.938 164.353 171.826 152.546 167.474C149.287 166.272 145.343 165.332 141.812 166.168C137.685 167.146 135.679 170.385 136.597 173.122C137.514 175.86 140.723 178.084 144.354 179.669C147.986 181.253 152.099 182.324 155.951 183.683C159.802 185.041 163.52 186.778 165.61 189.242" stroke="white" stroke-width="2" stroke-miterlimit="10" stroke-linecap="round" stroke-linejoin="round" stroke-dasharray="5 7 5 7"/>
</g>
<path d="M98.3532 49.8267C96.9079 49.5738 95.8035 48.7803 95.1375 47.6676C93.4366 52.8967 91.1098 56.6612 88.5179 59.2988L90.3177 71.4738C91.7922 71.6123 93.2313 71.7753 94.6322 71.9608V71.9589C96.7691 72.1555 98.821 72.4214 100.759 72.7252C101.015 72.1273 101.909 72.0239 102.096 72.8545L102.116 72.9467C110.244 74.3325 116.03 76.3137 116.663 76.5353L116.715 76.5536L116.728 76.5579L116.729 76.559C120.239 77.813 123.375 80.5281 125.441 84.4513L125.506 84.3609C126.115 83.5383 127.124 84.7434 126.518 85.5611C126.408 85.7101 126.302 85.8643 126.193 86.0147L136.508 108.664C140.133 108.301 143.535 106.303 145.884 102.729C148.036 99.4515 148.922 95.4175 148.66 91.4003C148.655 91.3049 148.662 91.2133 148.651 91.1158C147.713 82.8545 151.46 80.1335 151.46 80.1335L151.448 80.1196C152.451 79.2726 153.373 78.2606 154.167 77.053C158.935 69.7942 157.543 58.8245 151.055 52.5519C147.892 49.493 144.102 48.1284 140.495 48.3619L140.499 48.3495C140.499 48.3495 140.445 48.3593 140.349 48.3663L140.204 48.3725C139.35 48.3929 136.82 48.1005 135.358 44.1513L135.351 44.1624C134.208 40.8793 132.265 37.8847 129.596 35.6738C122.729 29.9846 113.726 31.6169 109.488 39.3179C109.36 39.5509 109.256 39.7954 109.139 40.0344L109.125 40.0191C108.593 41.0977 107.969 41.8538 107.312 42.3766C107.252 43.0317 107.095 43.7124 106.825 44.4017C105.429 47.9726 101.637 50.4015 98.3532 49.8267Z" fill="#672F4D"/>
<path d="M102.342 211.443H94.6323V191.306C89.6642 191.731 84.0056 191.973 77.9961 191.973C71.713 191.973 65.8127 191.709 60.6851 191.247V211.443H52.6895C52.6895 212.537 51.258 212.536 51.258 211.443H39.1685L38.0878 224.037H114.516C114.516 224.037 114.893 219.216 115.144 211.443H103.774C103.774 212.537 102.342 212.536 102.342 211.443Z" fill="#E6CAE2"/>
<path d="M97.7037 42.116C97.4618 42.473 97.4096 42.9675 97.7037 43.3163C97.9543 43.6133 98.4725 43.6753 98.716 43.3163C99.1842 42.6255 99.7892 42.1096 100.449 41.7113C100.611 42.4148 100.649 43.1331 100.526 43.8229C100.373 44.6866 100.053 45.4196 99.5793 46.0311C99.3181 46.3686 99.2978 46.8975 99.5793 47.2313C99.8443 47.5454 100.329 47.5703 100.592 47.2313C101.869 45.5812 102.341 43.2244 101.777 41.09C102.24 40.9408 102.724 40.8648 103.188 41.049C103.642 41.2296 103.95 41.6564 103.913 42.2352C103.884 42.6929 104.263 43.0839 104.629 43.0839C105.04 43.0839 105.315 42.6942 105.344 42.2352C105.409 41.2297 104.922 40.2851 104.218 39.7587C103.478 39.206 102.566 39.1623 101.731 39.3544C100.969 39.5295 100.209 39.9144 99.5303 40.3542C98.8399 40.8016 98.198 41.387 97.7037 42.116Z" fill="#BC3634"/>
<path d="M56.4016 40.3844C55.7102 39.9291 54.9334 39.5354 54.1551 39.3545C53.3356 39.1639 52.4474 39.2065 51.713 39.7254C50.9837 40.2406 50.4763 41.2119 50.5416 42.2354C50.5708 42.6926 50.8497 43.0841 51.2574 43.0841C51.6221 43.0841 52.0025 42.6951 51.9731 42.2354C51.9379 41.6842 52.2154 41.2601 52.6479 41.0683C53.1225 40.8577 53.63 40.9361 54.1089 41.0906C53.5451 43.225 54.0172 45.5817 55.2945 47.2316C55.556 47.5694 56.0417 47.5459 56.3068 47.2316C56.5905 46.8953 56.569 46.37 56.3068 46.0314C55.8343 45.4209 55.513 44.6873 55.3596 43.8233C55.2374 43.1341 55.2756 42.4154 55.4374 41.7116C56.097 42.1099 56.7017 42.6257 57.17 43.3166C57.4124 43.6741 57.9298 43.616 58.1823 43.3166C58.4803 42.9632 58.4253 42.4748 58.1823 42.1164C57.6988 41.4031 57.0742 40.8273 56.4016 40.3844Z" fill="#BC3634"/>
<path d="M94.6323 137.438C91.0474 137.126 87.8436 136.255 87.7822 135.301C87.7312 134.506 88.9811 133.68 90.9709 133.036C89.5906 133.03 88.3477 132.935 87.3282 132.759V140.451C87.3282 141.677 86.49 142.671 85.4558 142.671H83.729H69.8616H68.1349C67.1008 142.671 66.2626 141.677 66.2626 140.451V136.564C64.8383 137.01 62.7981 137.35 60.6852 137.49V191.247C65.8127 191.709 71.713 191.973 77.9961 191.973C84.0056 191.973 89.6642 191.731 94.6323 191.306V137.438Z" fill="#FCC105"/>
<path d="M65.0313 133.036C65.4816 133.182 65.8949 133.336 66.2626 133.498V133.007C65.8677 133.026 65.4547 133.034 65.0313 133.036Z" fill="#FCC105"/>
<path d="M87.3282 128.695V129.148C87.7994 128.985 88.3185 128.832 88.8771 128.689C88.3436 128.703 87.8246 128.706 87.3282 128.695Z" fill="#FCC105"/>
<path d="M60.6852 118.448C62.2897 118.45 63.9582 118.52 65.5693 118.665C65.8035 118.686 66.0319 118.712 66.2624 118.735V102.709C66.2624 101.483 67.1007 100.489 68.1348 100.489H69.8615H83.7289H85.4557C86.4897 100.489 87.3281 101.483 87.3281 102.709V119.035C88.318 118.889 89.3549 118.763 90.4327 118.665C91.8158 118.54 93.241 118.472 94.6322 118.453V71.9611C93.2314 71.7757 91.7923 71.6126 90.3177 71.4741L90.9745 75.9173C91.0188 76.128 91.0421 76.3419 91.0421 76.5583C91.0421 80.0716 85.0503 82.9197 77.6588 82.9197C70.2674 82.9197 64.2755 80.0716 64.2755 76.5583C64.2755 76.3026 64.311 76.0509 64.3727 75.8029L64.9198 71.5494C63.4715 71.6948 62.0595 71.8641 60.6853 72.0549L60.6852 118.448Z" fill="#FCC105"/>
<path d="M64.2755 76.5581C64.2755 80.0714 70.2674 82.9195 77.6588 82.9195C85.0503 82.9195 91.0421 80.0714 91.0421 76.5581C91.0421 76.3418 91.0188 76.128 90.9745 75.917L90.3177 71.4739L88.5179 59.2989C91.1098 56.6612 93.4366 52.8967 95.1375 47.6677C95.8034 48.7803 96.9079 49.5739 98.3532 49.8268C101.637 50.4015 105.429 47.9727 106.825 44.4019C107.094 43.7126 107.252 43.0319 107.312 42.3768C107.561 39.638 106.056 37.3593 103.406 36.8956C101.251 36.5183 98.8795 37.4409 97.1072 39.1259C97.1202 39.0407 97.1327 38.9543 97.1453 38.8684C89.9205 32.1451 88.8039 21.8442 88.8039 21.8442C81.4247 35.2727 58.4419 38.7944 58.4198 38.7978L58.4199 38.799C56.6939 37.323 54.4922 36.5434 52.4796 36.8956C49.1962 37.4703 47.6655 40.8311 49.0609 44.4019C50.4564 47.9727 54.2492 50.4017 57.5327 49.8268C58.5942 49.641 59.469 49.1607 60.1243 48.4795C61.6014 54.0408 63.7388 57.9973 66.3263 60.6108L64.9196 71.5491L64.3725 75.8026C64.3108 76.0508 64.2755 76.3024 64.2755 76.5581ZM58.1822 43.3164C57.9297 43.6158 57.4123 43.6739 57.1699 43.3164C56.7016 42.6256 56.0969 42.1097 55.4373 41.7114C55.2755 42.4152 55.2372 43.1339 55.3595 43.8231C55.5127 44.6871 55.8342 45.4207 56.3067 46.0312C56.5688 46.3698 56.5904 46.8951 56.3067 47.2314C56.0416 47.5457 55.5559 47.5692 55.2944 47.2314C54.0171 45.5815 53.5451 43.2248 54.1088 41.0904C53.6299 40.9359 53.1224 40.8577 52.6478 41.0681C52.2152 41.26 51.9378 41.684 51.973 42.2352C52.0023 42.6947 51.6219 43.0839 51.2572 43.0839C50.8497 43.0839 50.5707 42.6924 50.5415 42.2352C50.4762 41.2117 50.9836 40.2405 51.7129 39.7253C52.4473 39.2063 53.3356 39.1637 54.155 39.3543C54.9334 39.5352 55.7101 39.9289 56.4014 40.3842C57.0741 40.8272 57.6987 41.4031 58.1821 42.1159C58.4252 42.4746 58.4801 42.9631 58.1822 43.3164ZM86.8358 62.6175C83.504 65.7734 79.2614 67.1476 75.0391 66.4579C74.6568 66.3954 74.4435 65.8094 74.5393 65.4139C74.656 64.9322 75.0339 64.758 75.4197 64.8212C79.0788 65.4189 82.9394 64.1492 85.8235 61.4173C86.5368 60.7417 87.5554 61.9359 86.8358 62.6175ZM85.3645 41.0527C85.3645 42.3453 84.8407 43.3934 84.1948 43.3934C83.5488 43.3934 83.0251 42.3455 83.0251 41.0527C83.0252 39.76 83.5488 38.712 84.1948 38.712C84.8407 38.712 85.3645 39.76 85.3645 41.0527ZM83.5914 52.6025C83.9687 52.6025 84.3205 52.9928 84.3071 53.4512C84.2548 55.2605 83.5559 57.0426 82.3531 58.1786C81.064 59.3958 79.3836 59.8391 77.7776 59.4066C77.3989 59.3047 77.1786 58.7898 77.2776 58.3626C77.3833 57.9065 77.7814 57.6684 78.1581 57.7697C79.255 58.0651 80.5087 57.7651 81.4082 56.914C82.3106 56.0602 82.8377 54.7605 82.8756 53.4511C82.889 52.9915 83.1927 52.6025 83.5914 52.6025ZM99.5302 40.3543C100.209 39.9145 100.969 39.5295 101.731 39.3546C102.566 39.1625 103.478 39.2063 104.218 39.7588C104.922 40.2852 105.409 41.2298 105.344 42.2354C105.315 42.6943 105.04 43.0841 104.629 43.0841C104.263 43.0841 103.884 42.693 103.913 42.2354C103.95 41.6567 103.642 41.2298 103.188 41.0492C102.724 40.8651 102.24 40.9409 101.777 41.0901C102.341 43.2245 101.869 45.5814 100.592 47.2314C100.329 47.5704 99.8442 47.5456 99.5792 47.2314C99.2977 46.8976 99.318 46.3687 99.5792 46.0312C100.053 45.4197 100.373 44.6867 100.526 43.8231C100.649 43.1332 100.61 42.4148 100.449 41.7114C99.7891 42.1097 99.1841 42.6255 98.7159 43.3164C98.4725 43.6755 97.9543 43.6135 97.7036 43.3164C97.4095 42.9675 97.4617 42.4731 97.7036 42.1162C98.198 41.3871 98.8399 40.8018 99.5302 40.3543ZM86.6254 45.3956C86.9112 43.4381 88.4811 42.1258 90.132 42.4648C91.7828 42.8038 92.8895 44.6653 92.6037 46.6229C92.3179 48.5805 90.7479 49.8926 89.0971 49.5536C87.4462 49.2147 86.3396 47.353 86.6254 45.3956ZM73.3839 47.0859C73.9914 46.7968 74.6549 46.745 75.2218 46.3352C75.7653 45.9423 76.1728 45.3424 76.4666 44.6802C77.2252 42.9698 77.0224 40.9104 76.6909 39.0959C76.4961 38.0292 77.8765 37.5776 78.0714 38.6448C78.6366 41.7398 78.634 45.4326 76.285 47.5226C75.8022 47.9522 75.2609 48.2262 74.6784 48.4034C74.1382 48.5676 73.4814 48.6673 73.3288 49.4184C72.9823 51.1241 74.9527 51.7928 75.9704 52.0217C76.8758 52.2254 76.4901 53.861 75.5898 53.6584C74.1874 53.343 72.7134 52.6421 72.1013 50.9874C71.5376 49.464 72.0669 47.7127 73.3839 47.0859ZM71.2022 38.712C71.8482 38.712 72.3719 39.76 72.3719 41.0526C72.3719 42.3453 71.8482 43.3933 71.2022 43.3933C70.5562 43.3933 70.0325 42.3452 70.0325 41.0526C70.0325 39.76 70.5562 38.712 71.2022 38.712ZM65.3401 49.2456C63.6892 48.9066 62.5826 47.0451 62.8683 45.0875C63.1542 43.1299 64.7241 41.8178 66.375 42.1566C68.0258 42.4956 69.1325 44.3571 68.8466 46.3147C68.561 48.2723 66.9909 49.5844 65.3401 49.2456Z" fill="#ED6B6E"/>
<path d="M85.8236 61.4171C82.9394 64.1489 79.0789 65.4187 75.4198 64.8209C75.034 64.7579 74.6561 64.9319 74.5394 65.4136C74.4437 65.8092 74.6569 66.3951 75.0392 66.4576C79.2615 67.1475 83.5041 65.7731 86.8359 62.6173C87.5554 61.9357 86.5368 60.7416 85.8236 61.4171Z" fill="#BC3634"/>
<path d="M83.025 41.0526C83.025 42.3452 83.5487 43.3933 84.1946 43.3933C84.8407 43.3933 85.3644 42.3453 85.3644 41.0526C85.3644 39.7599 84.8406 38.7119 84.1946 38.7119C83.5487 38.7119 83.025 39.7599 83.025 41.0526Z" fill="#3A0F10"/>
<path d="M71.2022 43.3932C71.8482 43.3932 72.3719 42.3452 72.3719 41.0525C72.3719 39.7599 71.8482 38.7119 71.2022 38.7119C70.5562 38.7119 70.0325 39.7599 70.0325 41.0525C70.0325 42.3452 70.5562 43.3932 71.2022 43.3932Z" fill="#3A0F10"/>
<path d="M89.0971 49.5538C90.748 49.8927 92.3179 48.5806 92.6037 46.623C92.8895 44.6654 91.783 42.8039 90.132 42.4649C88.4811 42.1261 86.9111 43.4382 86.6254 45.3957C86.3396 47.3531 87.4462 49.2148 89.0971 49.5538Z" fill="#F0868F"/>
<path d="M68.8466 46.3149C69.1325 44.3573 68.0259 42.4957 66.375 42.1568C64.7241 41.818 63.1542 43.1301 62.8683 45.0877C62.5826 47.0452 63.6892 48.9068 65.3401 49.2458C66.9909 49.5845 68.561 48.2723 68.8466 46.3149Z" fill="#F0868F"/>
<path d="M72.1011 50.9872C72.7132 52.6419 74.1872 53.3427 75.5896 53.6583C76.4899 53.8608 76.8756 52.2252 75.9702 52.0215C74.9526 51.7926 72.9821 51.124 73.3286 49.4183C73.4812 48.6671 74.138 48.5676 74.6782 48.4032C75.2608 48.226 75.802 47.952 76.2848 47.5224C78.6337 45.4324 78.6364 41.7396 78.0711 38.6446C77.8763 37.5774 76.496 38.029 76.6907 39.0957C77.0222 40.9102 77.2251 42.9696 76.4664 44.68C76.1726 45.3424 75.7651 45.9421 75.2216 46.335C74.6546 46.7448 73.9911 46.7966 73.3837 47.0857C72.0669 47.7125 71.5376 49.4638 72.1011 50.9872Z" fill="#BC3634"/>
<path d="M81.4083 56.9145C80.5087 57.7656 79.255 58.0656 78.1582 57.7702C77.7815 57.6689 77.3834 57.9069 77.2777 58.3631C77.1786 58.7903 77.399 59.305 77.7777 59.4071C79.3837 59.8395 81.0642 59.3961 82.3532 58.1791C83.556 57.0431 84.2551 55.261 84.3072 53.4517C84.3205 52.9933 83.9687 52.603 83.5915 52.603C83.1927 52.603 82.889 52.9918 82.8758 53.4517C82.8379 54.761 82.3107 56.0607 81.4083 56.9145Z" fill="#BC3634"/>
<path d="M51.258 211.328C51.1566 208.729 51.258 206.096 51.258 203.495C51.258 198.139 51.258 192.783 51.258 187.427C51.258 181.236 51.258 175.045 51.258 168.855C51.258 163.74 51.258 158.625 51.258 153.509C51.258 151.925 51.258 150.341 51.258 148.757C48.0895 151.413 44.921 154.07 41.7525 156.726C38.3485 159.58 34.9446 162.434 31.5408 165.287C31.5047 187.167 31.9678 206.001 32.7806 211.443H39.1685H51.258V211.328Z" fill="#6B9CC8"/>
<path d="M54.4946 73.3058C54.1558 74.8133 53.8168 76.3208 53.478 77.8282C52.0091 84.3624 50.5401 90.8966 49.0712 97.4307C48.1748 101.418 47.2784 105.406 46.3819 109.393C48.3911 112.657 50.4003 115.921 52.4095 119.185L52.4609 119.289C54.099 118.751 57.2418 118.444 60.6853 118.448V72.0546V72.0542C58.5899 72.247 56.5162 72.5596 54.5135 72.9429C54.5283 73.0535 54.524 73.175 54.4946 73.3058Z" fill="#6B9CC8"/>
<path d="M60.6852 137.49C59.3616 137.577 58.0118 137.586 56.7678 137.493L56.8099 137.573C57.3702 138.915 57.8965 140.336 58.0409 141.838C58.098 142.431 58.1206 142.944 57.698 143.358C57.3077 143.74 56.8596 144.061 56.4468 144.407C55.1967 145.455 53.9465 146.503 52.6965 147.551C52.7787 150.048 52.6896 152.574 52.6896 155.07C52.6896 160.426 52.6896 165.782 52.6896 171.138C52.6896 177.329 52.6896 183.519 52.6896 189.71C52.6896 194.825 52.6896 199.94 52.6896 205.055C52.6896 207.185 52.6896 209.314 52.6896 211.444H60.6853V191.247L60.6852 137.49Z" fill="#6B9CC8"/>
<path d="M36.6674 94.4648C37.2203 90.9724 37.8108 87.4874 38.4356 84.0095C38.6277 82.94 40.0074 83.3954 39.816 84.4608C39.2056 87.8582 38.6164 91.2611 38.0689 94.6737C37.9539 95.3907 37.8481 96.1089 37.738 96.8264L37.7329 96.8601C36.1739 107.028 35.1028 117.263 34.5394 127.582C38.1371 125.212 41.735 122.842 45.3329 120.473C45.5504 120.329 45.8392 120.307 46.0553 120.473C46.7177 120.979 47.3335 121.584 47.9291 122.198L50.2268 120.661C50.5222 120.409 50.8289 120.189 51.144 119.994C49.1594 116.77 47.1748 113.546 45.1902 110.322C44.8092 109.703 44.9355 109.236 45.0879 108.558C45.356 107.365 45.6241 106.173 45.8921 104.98C46.8345 100.788 47.7769 96.5966 48.7193 92.4047C50.1552 86.0174 51.5912 79.63 53.0271 73.2427C47.6536 74.3836 42.9274 75.9814 39.9221 77.1154C38.7517 77.4367 37.6093 77.8951 36.5168 78.4929L36.5117 78.4951L36.5114 78.4955C34.146 79.7908 32.0119 81.7212 30.3032 84.2098C30.3539 84.2503 30.4037 84.2978 30.4507 84.3613C32.7662 87.4872 34.8006 90.9319 36.6674 94.4648Z" fill="#6B9CC8"/>
<path d="M8.13298 170.762C10.6224 172.356 13.3138 173.064 15.9531 172.987C18.7798 173.247 21.6971 172.418 24.2258 170.385L30.0976 165.462C29.9179 165.095 29.9259 164.57 30.2991 164.257C31.4022 163.332 32.5053 162.408 33.6084 161.483C38.3877 157.476 43.167 153.469 47.9463 149.462C50.8405 147.036 53.7348 144.609 56.629 142.183C56.6183 142.015 56.6082 141.851 56.5823 141.682C56.4076 140.543 56.0037 139.459 55.5737 138.43C55.3666 137.934 55.5837 137.469 55.9007 137.259C53.6555 130.534 50.4079 126.081 48.1818 123.607C47.9272 123.899 47.5077 124.011 47.1674 123.656C46.6816 123.15 46.1845 122.646 45.6545 122.202C44.3012 123.093 42.9479 123.985 41.5946 124.876C35.1484 129.122 28.7019 133.367 22.2555 137.613C18.18 140.297 14.1045 142.982 10.029 145.666C9.22207 146.197 8.50099 144.731 9.30644 144.2C10.7932 143.221 12.28 142.242 13.7668 141.262C20.2131 137.017 26.6596 132.771 33.1059 128.525L33.198 128.465C33.1187 128.336 33.0737 128.167 33.085 127.956C33.2645 124.593 33.485 121.233 33.7638 117.88C34.3479 110.856 35.2228 103.885 36.2776 96.9492C34.2463 92.9757 32.0309 89.0628 29.4429 85.5679C29.0923 86.1739 28.7637 86.8061 28.4626 87.4674L1.86336 145.871C-2.20156 154.797 0.605193 165.941 8.13298 170.762Z" fill="#6B9CC8"/>
<path d="M118.705 161.036C113.737 156.871 108.77 152.706 103.802 148.542C103.838 150.715 103.774 152.903 103.774 155.07C103.774 160.426 103.774 165.782 103.774 171.138C103.774 177.329 103.774 183.519 103.774 189.71C103.774 194.825 103.774 199.94 103.774 205.055C103.774 207.185 103.774 209.314 103.774 211.443H115.145H120.325C121.221 206.061 122.326 186.764 122.848 164.372C122.739 164.364 122.624 164.321 122.508 164.223C121.24 163.161 119.972 162.098 118.705 161.036Z" fill="#6B9CC8"/>
<path d="M103.799 80.4335C105.718 88.9659 107.636 97.4982 109.554 106.031C109.779 107.029 110.018 108.025 110.228 109.029C110.413 109.913 109.98 110.386 109.554 111.079C107.802 113.925 106.05 116.771 104.298 119.617C104.408 119.683 104.496 119.752 104.565 119.823C104.984 120.054 105.389 120.331 105.776 120.66L107.659 121.92C108.17 121.403 108.7 120.902 109.262 120.472C109.479 120.307 109.767 120.329 109.985 120.472C111.472 121.452 112.959 122.431 114.445 123.41C116.747 124.926 119.049 126.442 121.351 127.958C121.188 125.083 121.002 122.21 120.773 119.342C119.837 107.607 118.21 95.9859 116.141 84.4605C115.949 83.3934 117.33 82.9414 117.521 84.0092C118.146 87.4913 118.737 90.9819 119.279 94.4836C121.131 90.9777 123.149 87.5594 125.441 84.4514C123.375 80.5282 120.239 77.8129 116.729 76.5591L116.728 76.558L116.715 76.5536L116.663 76.5354C116.03 76.3138 110.244 74.3325 102.116 72.9468C102.677 75.4424 103.239 77.9379 103.799 80.4335Z" fill="#6B9CC8"/>
<path d="M102.855 119.097C104.846 115.862 106.837 112.628 108.828 109.393C108.519 108.017 108.209 106.64 107.9 105.264C106.431 98.7298 104.962 92.1956 103.493 85.6614C102.567 81.5429 101.641 77.4243 100.715 73.3059C100.665 73.0812 100.69 72.8864 100.759 72.7253C98.8211 72.4215 96.7692 72.1556 94.6323 71.959V71.961V118.453C97.9016 118.41 100.976 118.647 102.855 119.097Z" fill="#6B9CC8"/>
<path d="M94.6323 137.438V191.306V211.443H102.342V211.328C102.241 208.729 102.342 206.096 102.342 203.494C102.342 198.139 102.342 192.783 102.342 187.426C102.342 181.236 102.342 175.045 102.342 168.855C102.342 163.74 102.342 158.625 102.342 153.509C102.342 151.445 102.342 149.381 102.342 147.317C100.984 146.179 99.6267 145.04 98.269 143.902C97.8753 143.572 97.3069 143.241 97.2589 142.62C97.2225 142.148 97.3412 141.613 97.4244 141.156C97.6535 139.898 98.0684 138.694 98.5366 137.534C97.272 137.59 95.9277 137.551 94.6323 137.438Z" fill="#6B9CC8"/>
<path d="M119.652 97.0006C121.205 107.573 122.254 118.229 122.841 128.94C126.489 131.342 130.136 133.745 133.784 136.147C137.86 138.832 141.935 141.516 146.011 144.2C146.817 144.731 146.094 146.197 145.288 145.666C143.801 144.687 142.315 143.707 140.828 142.728C134.382 138.482 127.935 134.237 121.489 129.991C117.547 127.395 113.605 124.798 109.663 122.202C109.133 122.647 108.636 123.15 108.15 123.656C107.809 124.012 107.39 123.899 107.135 123.607C104.961 126.024 101.813 130.332 99.5751 136.8C99.9086 137 100.147 137.477 99.9336 137.988C99.4144 139.232 98.802 140.773 98.7084 142.199C99.6151 142.959 100.522 143.719 101.429 144.48C105.886 148.217 110.344 151.954 114.802 155.692C117.611 158.047 120.421 160.402 123.23 162.758C123.604 163.071 123.611 163.595 123.431 163.962L131.092 170.384C133.516 172.334 136.297 173.178 139.013 173.016C141.737 173.161 144.528 172.462 147.103 170.814C154.675 165.964 157.499 154.754 153.409 145.774L136.508 108.664L126.193 86.0146C123.732 89.4113 121.605 93.1764 119.652 97.0006Z" fill="#6B9CC8"/>
<path d="M67.125 128.689C67.4246 128.766 67.7137 128.845 67.9893 128.928V128.701C67.7065 128.701 67.4184 128.697 67.125 128.689Z" fill="#004F59"/>
<path d="M68.1349 142.671H69.8616C68.8276 142.671 67.9893 141.677 67.9893 140.451V135.72C67.6795 136.024 67.0708 136.311 66.2626 136.564V140.451C66.2626 141.677 67.1008 142.671 68.1349 142.671Z" fill="#004F59"/>
<path d="M66.2626 133.007V133.498C67.0912 133.863 67.6858 134.263 67.9893 134.669V132.861C67.4573 132.929 66.8791 132.978 66.2626 133.007Z" fill="#004F59"/>
<path d="M67.9893 102.709C67.9893 101.483 68.8277 100.489 69.8616 100.489H68.1349C67.1008 100.489 66.2626 101.483 66.2626 102.709V118.735C66.8497 118.795 67.429 118.861 67.9893 118.936V102.709Z" fill="#004F59"/>
<path d="M67.9893 102.709V118.936C73.4267 119.665 77.4618 121.052 77.3836 122.27C77.3185 123.282 74.2631 124.149 70.0625 124.319C72.8787 125.017 74.7379 125.992 74.6788 126.913C74.6079 128.014 71.8148 128.701 67.9894 128.701V128.928C70.2087 129.593 71.6121 130.439 71.5602 131.243C71.5105 132.018 70.1251 132.589 67.9894 132.861V134.669C68.1465 134.879 68.2334 135.091 68.22 135.301C68.2108 135.443 68.1288 135.583 67.9894 135.72V140.451C67.9894 141.677 68.8278 142.671 69.8617 142.671H83.7291H85.4559C86.49 142.671 87.3283 141.677 87.3283 140.451V132.759C85.5859 132.459 84.4864 131.931 84.4421 131.243C84.3959 130.525 85.5109 129.774 87.3283 129.147V128.695C83.8579 128.618 81.3901 127.947 81.3236 126.912C81.2644 125.992 83.1236 125.016 85.9399 124.319C81.7392 124.148 78.6838 123.281 78.6188 122.27C78.5438 121.104 82.2432 119.785 87.3283 119.035V102.709C87.3283 101.483 86.4901 100.489 85.4559 100.489H83.7291H69.8616C68.8277 100.489 67.9893 101.483 67.9893 102.709ZM72.035 103.436C72.9068 103.436 73.6135 104.274 73.6135 105.307C73.6135 106.341 72.9068 107.179 72.035 107.179C71.1632 107.179 70.4565 106.341 70.4565 105.307C70.4565 104.274 71.1632 103.436 72.035 103.436ZM72.035 109.561C72.9068 109.561 73.6135 110.399 73.6135 111.433C73.6135 112.466 72.9068 113.304 72.035 113.304C71.1632 113.304 70.4565 112.466 70.4565 111.433C70.4565 110.399 71.1632 109.561 72.035 109.561ZM72.035 115.686C72.9068 115.686 73.6135 116.524 73.6135 117.558C73.6135 118.591 72.9068 119.429 72.035 119.429C71.1632 119.429 70.4565 118.591 70.4565 117.558C70.4565 116.524 71.1632 115.686 72.035 115.686Z" fill="#007E96"/>
<path d="M72.035 107.179C72.9068 107.179 73.6135 106.341 73.6135 105.307C73.6135 104.274 72.9068 103.436 72.035 103.436C71.1632 103.436 70.4565 104.274 70.4565 105.307C70.4565 106.341 71.1632 107.179 72.035 107.179Z" fill="#004F59"/>
<path d="M73.6125 111.495C73.6458 110.462 72.9667 109.592 72.0955 109.553C71.2244 109.513 70.4911 110.318 70.4577 111.351C70.4243 112.384 71.1035 113.254 71.9746 113.293C72.8458 113.333 73.5791 112.528 73.6125 111.495Z" fill="#004F59"/>
<path d="M73.6127 117.62C73.6461 116.587 72.9669 115.717 72.0958 115.678C71.2246 115.638 70.4914 116.443 70.458 117.476C70.4246 118.509 71.1037 119.379 71.9749 119.418C72.846 119.458 73.5793 118.653 73.6127 117.62Z" fill="#004F59"/>
<path d="M78.6187 122.27C78.6837 123.282 81.7391 124.149 85.9397 124.319C83.1235 125.017 81.2643 125.992 81.3235 126.913C81.39 127.948 83.8578 128.618 87.3282 128.695C87.8246 128.706 88.3436 128.703 88.8771 128.689C88.3185 128.832 87.7994 128.985 87.3282 129.148C85.5109 129.774 84.3958 130.525 84.442 131.243C84.4863 131.932 85.5858 132.459 87.3282 132.759C88.3477 132.935 89.5906 133.03 90.9709 133.036C88.9811 133.681 87.7311 134.506 87.7822 135.301C87.8436 136.255 91.0474 137.126 94.6323 137.438C95.9277 137.551 97.272 137.59 98.5366 137.535C98.5907 137.401 98.6423 137.265 98.6976 137.132C98.8922 136.666 99.2726 136.619 99.5752 136.8C101.813 130.333 104.961 126.024 107.136 123.608C106.875 123.309 106.787 122.822 107.138 122.457C107.31 122.277 107.483 122.098 107.658 121.921L105.776 120.661C105.389 120.332 104.983 120.055 104.565 119.823C104.496 119.752 104.407 119.684 104.298 119.617C104.211 119.759 104.124 119.901 104.037 120.043C103.498 120.917 102.257 120.069 102.8 119.186L102.855 119.098C100.976 118.648 97.9016 118.411 94.6322 118.454C93.241 118.472 91.8158 118.54 90.4327 118.665C89.355 118.763 88.318 118.89 87.3281 119.036C82.243 119.786 78.5437 121.104 78.6187 122.27Z" fill="#ED6B6E"/>
<path d="M123.23 162.758C120.421 160.403 117.611 158.047 114.802 155.692C110.344 151.954 105.886 148.217 101.429 144.48C100.522 143.719 99.6152 142.959 98.7085 142.199C98.8022 140.774 99.4146 139.232 99.9337 137.988C100.147 137.477 99.9087 137 99.5752 136.8C99.2726 136.619 98.8922 136.666 98.6976 137.132C98.6422 137.264 98.5907 137.4 98.5366 137.534C98.0684 138.694 97.6535 139.898 97.4244 141.156C97.3412 141.613 97.2225 142.148 97.2589 142.62C97.3069 143.241 97.8753 143.572 98.269 143.902C99.6267 145.04 100.984 146.179 102.342 147.317C102.342 149.381 102.342 151.445 102.342 153.51C102.342 158.625 102.342 163.74 102.342 168.855C102.342 175.045 102.342 181.236 102.342 187.427C102.342 192.783 102.342 198.139 102.342 203.495C102.342 206.096 102.241 208.729 102.342 211.328V211.443C102.342 212.536 103.774 212.537 103.774 211.443C103.774 209.314 103.774 207.184 103.774 205.055C103.774 199.94 103.774 194.825 103.774 189.71C103.774 183.519 103.774 177.329 103.774 171.138C103.774 165.782 103.774 160.426 103.774 155.07C103.774 152.903 103.837 150.715 103.802 148.541C108.77 152.706 113.737 156.871 118.705 161.036C119.972 162.098 121.24 163.161 122.507 164.224C122.624 164.321 122.739 164.364 122.848 164.372C123.093 164.39 123.307 164.216 123.431 163.963C123.611 163.595 123.603 163.071 123.23 162.758Z" fill="#155D8A"/>
<path d="M56.7679 137.493C58.0118 137.586 59.3617 137.578 60.6853 137.49C62.7982 137.35 64.8383 137.011 66.2627 136.564C67.071 136.311 67.6796 136.024 67.9894 135.72C68.1288 135.583 68.2108 135.443 68.22 135.301C68.2334 135.091 68.1465 134.879 67.9894 134.669C67.6859 134.263 67.0912 133.864 66.2627 133.498C65.895 133.336 65.4816 133.182 65.0314 133.036C65.4549 133.034 65.8678 133.026 66.2627 133.007C66.8792 132.978 67.4574 132.929 67.9894 132.861C70.1251 132.589 71.5105 132.018 71.5602 131.243C71.612 130.439 70.2087 129.593 67.9894 128.928C67.7139 128.845 67.4248 128.766 67.1251 128.689C67.4184 128.697 67.7066 128.701 67.9894 128.701C71.8148 128.701 74.608 128.014 74.6788 126.913C74.738 125.992 72.8788 125.017 70.0624 124.319C74.2631 124.149 77.3185 123.282 77.3836 122.27C77.4619 121.052 73.4267 119.665 67.9893 118.936C67.429 118.861 66.8497 118.795 66.2625 118.735C66.0318 118.712 65.8036 118.686 65.5694 118.665C63.9583 118.52 62.2898 118.45 60.6853 118.448C57.2418 118.444 54.099 118.751 52.4609 119.289C52.8524 120.133 51.69 120.881 51.1734 120.042L51.144 119.994C50.8289 120.189 50.5222 120.409 50.2268 120.661L47.9291 122.198C48.0127 122.284 48.0971 122.37 48.1799 122.456C48.5308 122.822 48.4431 123.309 48.1821 123.607C50.4082 126.081 53.656 130.534 55.901 137.259C56.1889 137.069 56.5569 137.093 56.7679 137.493Z" fill="#ED6B6E"/>
<path d="M41.7525 156.726C44.921 154.07 48.0895 151.414 51.258 148.757C51.258 150.341 51.258 151.926 51.258 153.51C51.258 158.625 51.258 163.74 51.258 168.855C51.258 175.046 51.258 181.236 51.258 187.427C51.258 192.783 51.258 198.139 51.258 203.495C51.258 206.096 51.1566 208.73 51.258 211.329V211.444C51.258 212.536 52.6895 212.538 52.6895 211.444C52.6895 209.314 52.6895 207.185 52.6895 205.055C52.6895 199.94 52.6895 194.825 52.6895 189.71C52.6895 183.519 52.6895 177.329 52.6895 171.138C52.6895 165.782 52.6895 160.426 52.6895 155.07C52.6895 152.574 52.7785 150.048 52.6964 147.551C53.9464 146.503 55.1966 145.455 56.4467 144.407C56.8595 144.061 57.3075 143.74 57.6978 143.358C58.1205 142.944 58.0978 142.432 58.0408 141.839C57.8963 140.336 57.3701 138.915 56.8098 137.573L56.7677 137.493C56.5567 137.093 56.1887 137.068 55.9007 137.259C55.5837 137.469 55.3666 137.933 55.5737 138.43C56.0037 139.459 56.4075 140.543 56.5823 141.682C56.6082 141.851 56.6183 142.015 56.629 142.183C53.7348 144.609 50.8405 147.036 47.9463 149.462C43.167 153.469 38.3877 157.476 33.6084 161.483C32.5052 162.408 31.4022 163.332 30.2991 164.257C29.9258 164.57 29.9179 165.095 30.0976 165.462C30.2772 165.829 30.6443 166.039 31.0216 165.723C31.1948 165.578 31.3678 165.433 31.5408 165.288C34.9447 162.434 38.3485 159.58 41.7525 156.726Z" fill="#155D8A"/>
<path d="M36.2779 96.9492C35.2231 103.885 34.3483 110.856 33.7642 117.88C33.4852 121.233 33.2649 124.593 33.0853 127.956C33.0741 128.167 33.1191 128.336 33.1983 128.465L33.1063 128.525C26.6599 132.771 20.2134 137.017 13.7671 141.263C12.2804 142.242 10.7935 143.221 9.30677 144.2C8.50121 144.731 9.2224 146.197 10.0293 145.666C14.1048 142.982 18.1803 140.297 22.2558 137.613C28.7022 133.367 35.1486 129.122 41.595 124.876C42.9482 123.985 44.3015 123.093 45.6549 122.202C46.1848 122.646 46.6819 123.15 47.1677 123.656C47.5081 124.011 47.9276 123.899 48.1821 123.607C48.4431 123.309 48.531 122.822 48.1799 122.456C48.0972 122.37 48.0128 122.284 47.9291 122.198C47.3334 121.584 46.7177 120.979 46.0553 120.473C45.8392 120.307 45.5504 120.329 45.3329 120.473C41.735 122.842 38.1371 125.212 34.5394 127.581C35.1028 117.263 36.1739 107.028 37.7329 96.86L37.738 96.8263C37.8481 96.1087 37.9539 95.3905 38.0689 94.6737C38.6164 91.2611 39.2057 87.8581 39.816 84.4607C40.0074 83.3953 38.6277 82.9399 38.4356 84.0094C37.8108 87.4873 37.2203 90.9723 36.6674 94.4648C34.8006 90.932 32.7663 87.4873 30.4507 84.3612C30.4038 84.2979 30.354 84.2502 30.3032 84.2098C29.6951 83.7261 28.8792 84.8063 29.4384 85.5615L29.4432 85.5681C32.0312 89.0629 34.2466 92.9756 36.2779 96.9492Z" fill="#155D8A"/>
<path d="M119.279 94.4836C118.737 90.982 118.146 87.4914 117.521 84.0093C117.329 82.9413 115.949 83.3933 116.141 84.4606C118.21 95.9859 119.837 107.607 120.773 119.342C121.002 122.21 121.188 125.083 121.351 127.958C119.049 126.442 116.747 124.926 114.445 123.41C112.958 122.431 111.472 121.452 109.985 120.473C109.767 120.329 109.479 120.307 109.262 120.473C108.7 120.902 108.17 121.403 107.658 121.92C107.483 122.098 107.31 122.277 107.138 122.456C106.787 122.822 106.875 123.308 107.136 123.607C107.39 123.899 107.81 124.011 108.15 123.656C108.636 123.15 109.133 122.646 109.663 122.202C113.605 124.798 117.547 127.395 121.489 129.991C127.935 134.237 134.382 138.482 140.828 142.728C142.315 143.707 143.802 144.686 145.288 145.666C146.095 146.197 146.817 144.731 146.011 144.2C141.935 141.516 137.86 138.832 133.784 136.147C130.137 133.745 126.489 131.342 122.841 128.94C122.254 118.229 121.205 107.573 119.652 97.0005C121.605 93.1764 123.733 89.4112 126.193 86.0147C126.302 85.8643 126.408 85.7101 126.518 85.5612C127.124 84.7434 126.115 83.5383 125.506 84.3609L125.441 84.4513C123.148 87.5595 121.131 90.9779 119.279 94.4836Z" fill="#155D8A"/>
<path d="M88.804 21.8442C88.804 21.8442 89.9206 32.145 97.1454 38.8683L97.1473 38.8702C97.1473 38.8702 109.066 2.08197 92.6488 0.608463C76.2313 -0.865047 53.1819 -1.19318 55.0062 18.2564C56.8308 37.7059 58.4195 38.7978 58.4195 38.7978L58.4199 38.7976C58.4419 38.7943 81.4247 35.2727 88.804 21.8442Z" fill="#672F4D"/>
<path d="M48.7193 92.4046C47.7769 96.5965 46.8346 100.788 45.8922 104.98C45.6241 106.173 45.356 107.365 45.0879 108.558C44.9355 109.236 44.8091 109.703 45.1902 110.322C47.1748 113.546 49.1594 116.77 51.144 119.994L51.1734 120.042C51.69 120.881 52.8524 120.133 52.4609 119.289L52.4095 119.185C50.4003 115.921 48.3911 112.657 46.3819 109.393C47.2784 105.406 48.1748 101.418 49.0712 97.4308C50.5401 90.8967 52.009 84.3625 53.478 77.8283C53.8168 76.3209 54.1558 74.8134 54.4946 73.3059C54.5241 73.1751 54.5284 73.0536 54.5135 72.943C54.4075 72.1608 53.3224 71.9293 53.1143 72.8546C53.0853 72.984 53.0562 73.1132 53.0271 73.2426C51.591 79.63 50.1552 86.0174 48.7193 92.4046Z" fill="#155D8A"/>
<path d="M100.715 73.3061C101.641 77.4245 102.567 81.5431 103.493 85.6616C104.962 92.1958 106.431 98.73 107.9 105.264C108.209 106.641 108.519 108.017 108.828 109.393C106.837 112.628 104.846 115.863 102.855 119.097L102.801 119.185C102.257 120.069 103.498 120.917 104.037 120.042C104.124 119.9 104.211 119.759 104.298 119.617C106.05 116.771 107.802 113.925 109.554 111.079C109.98 110.387 110.413 109.914 110.228 109.029C110.018 108.026 109.778 107.03 109.554 106.031C107.636 97.4985 105.718 88.9661 103.799 80.4338C103.238 77.9382 102.677 75.4426 102.116 72.947L102.096 72.8548C101.909 72.0241 101.015 72.1277 100.759 72.7255C100.69 72.8866 100.665 73.0814 100.715 73.3061Z" fill="#155D8A"/>
</svg>
