<svg width="100%" height="100%" viewBox="0 0 171 224" fill="none" xmlns="http://www.w3.org/2000/svg">
<path d="M151 58.0361C162.046 58.0361 171 66.9904 171 78.0361V204C171 215.045 162.046 224 151 224H16.734V224C14.1195 224 12 221.88 12 219.266V78.0361C12 66.9904 20.9543 58.0361 32 58.0361H151Z" fill="#C25D51"/>
<mask id="mask0_127_757" style="mask-type:luminance" maskUnits="userSpaceOnUse" x="12" y="58" width="159" height="166">
<path d="M151 58.0361C162.046 58.0361 171 66.9904 171 78.0361V204C171 215.045 162.046 224 151 224H16.734V224C14.1195 224 12 221.88 12 219.266V78.0361C12 66.9904 20.9543 58.0361 32 58.0361H151Z" fill="white"/>
</mask>
<g mask="url(#mask0_127_757)">
<path d="M116.315 70.9488C115.595 74.8011 115.38 79.8677 117.583 81.9203C120.572 84.7049 124.478 78.7541 127.692 80.8349C129.964 82.3063 130.528 87.3613 129.343 90.7353C128.158 94.1094 125.801 96.0398 123.473 97.2812C122.219 97.9501 120.903 98.5004 119.843 99.7465C118.783 100.993 118.033 103.172 118.438 105.148C118.786 106.84 119.901 107.932 121.026 108.174C122.151 108.416 123.288 107.955 124.365 107.391C127.112 105.955 129.709 103.818 132.022 101.091C133.587 99.2453 135.122 97.0582 137.049 96.5062C138.977 95.9542 141.362 98.0324 141.207 101.091C141.103 103.163 139.907 104.817 139.841 106.893C139.734 110.23 142.734 111.949 144.621 110.39C146.509 108.83 147.458 105.513 148.338 102.469C149.814 97.3639 151.599 92.14 154.623 89.1464C157.776 86.0263 161.732 85.8547 165.261 83.9623C170.742 81.0228 175.144 73.5773 176.594 64.7952C177.509 59.256 176.923 52.3041 173.742 49.4894C168.986 45.2819 162.517 53.2962 157.759 49.096C155.844 47.4052 154.701 44.0474 152.766 42.4127C150.264 40.2996 147.174 41.6011 144.548 43.3036C141.922 45.006 139.197 47.1187 136.384 46.4821C134.483 46.0519 132.793 44.4009 130.957 43.5197C123.156 39.7755 117.933 62.2998 116.315 70.9488Z" fill="#F6A88A"/>
<path d="M158.185 232.656C161.939 232.656 165.72 231.712 168.507 229.197C170.58 227.327 172.517 225.11 174.265 222.503C178.209 216.618 181.124 207.952 179.779 199.687C178.463 191.595 173.293 186.099 168.017 184.888C162.74 183.677 157.392 185.991 152.414 188.988C148.541 191.32 144.669 194.118 140.524 194.451C136.379 194.783 131.785 191.924 130.199 185.919C128.83 180.737 130.002 174.891 130.672 169.382C131.342 163.873 131.169 157.131 128.19 154.019C125.017 150.704 120.552 153.766 118.171 158.431C115.789 163.096 114.674 169.035 112.59 174.038C110.507 179.041 106.723 183.292 103.077 181.536C100.136 180.12 98.4023 175.297 97.7076 170.605C97.0128 165.913 97.0523 160.983 96.1532 156.377C95.2541 151.771 93.0245 147.265 89.9613 146.823C86.8979 146.38 83.9019 152.294 85.7213 156.178C86.7514 158.378 88.6798 158.912 90.1337 160.415C92.9647 163.341 93.5801 169.826 92.2484 174.711C90.9166 179.596 88.098 183.096 85.1604 185.752C82.2227 188.407 79.0484 190.45 76.3013 193.566C71.5907 198.91 68.3999 207.806 67.573 217.078C66.7552 226.249 75.08 232.656 84.2878 232.656H158.185Z" fill="#F6A88A"/>
<path d="M90.3236 65.838V65.838C96.3832 59.1265 91.6207 48.4102 82.5784 48.4102H31.0553C20.0096 48.4102 11.0553 57.3645 11.0553 68.4102V155.074C11.0553 155.853 12.0005 156.266 12.6082 155.777V155.777C17.0382 152.22 22.4211 150.957 27.0378 153.875C31.6545 156.793 35.1481 164.467 34.4964 172.195C34.3777 173.603 34.1409 175.106 34.5339 176.386C35.2189 178.618 37.4283 178.549 38.6145 176.911C39.8006 175.274 40.2596 172.742 40.7822 170.405C44.8509 152.217 56.5641 138.907 68.8696 138.487C71.1185 138.411 73.4124 138.716 75.5816 137.784C77.7505 136.852 79.8347 134.286 80.1065 130.79C80.4132 126.845 78.3927 123.424 76.3242 121.122C74.2557 118.819 71.861 116.786 70.7516 113.212C69.0912 107.864 71.1985 101.115 74.4387 98.0137C77.6789 94.9122 81.6778 94.6022 85.4745 94.7326C87.1909 94.7917 89.4688 94.2307 89.6876 91.5647C89.9418 88.4671 87.2062 87.3648 85.6494 85.4121C83.6212 82.8682 83.5485 77.8365 84.7773 74.251C86.0062 70.6662 88.2019 68.188 90.3236 65.838Z" fill="#F6A88A"/>
<path d="M114.028 121.061C111.107 121.704 107.789 121.155 105.791 117.757C104.563 115.669 104.025 112.828 103.094 110.391C102.164 107.953 100.488 105.736 98.715 106.332C97.0718 106.884 96.083 109.739 96.1186 112.369C96.1543 115 96.9645 117.437 97.7903 119.729C99.7515 125.172 100.717 130.947 97.772 136.058C96.8755 137.614 95.8638 139.437 96.0688 141.508C96.2547 143.385 97.4142 144.676 98.5821 145.19C100.537 146.051 102.756 145.258 104.279 143.154C106.156 140.561 107.136 137.045 109.452 135.182C112.367 132.839 115.24 134.445 118 136.684C120.41 138.639 122.999 140.864 125.676 140.164C129.769 139.093 132.541 129.257 130.116 123.863C126.373 115.536 119.098 119.947 114.028 121.061Z" fill="#F6A88A"/>
<path d="M58.6616 213.165C58.5656 206.606 55.3239 200.031 51.139 199.699C46.969 199.368 42.8581 204.821 38.9475 202.529C36.471 201.078 35.1112 197.041 33.3541 193.947C31.5973 190.852 28.3709 188.612 26.4393 191.44C24.7592 193.899 25.4152 198.405 26.8256 201.25C28.236 204.095 30.2449 206.2 31.3679 209.343C32.4909 212.486 32.1576 217.431 29.9613 218.501C28.0092 219.452 26.1875 216.827 24.402 215.268C20.1707 211.574 14.1382 214.522 12.0004 221.329C11.2622 223.679 11.0975 226.97 12.4484 228.515C13.1828 229.355 14.155 229.42 15.064 229.454C24.0497 229.785 33.0361 230.116 42.0247 230.173C45.5889 230.195 51.4982 231.966 54.2853 228.444C56.9824 225.036 58.7396 218.498 58.6616 213.165Z" fill="#F6A88A"/>
</g>
<mask id="mask1_127_757" style="mask-type:luminance" maskUnits="userSpaceOnUse" x="12" y="58" width="159" height="166">
<path d="M151 58.0361C162.046 58.0361 171 66.9904 171 78.0361V204C171 215.045 162.046 224 151 224H16.734V224C14.1195 224 12 221.88 12 219.266V78.0361C12 66.9904 20.9543 58.0361 32 58.0361H151Z" fill="white"/>
</mask>
<g mask="url(#mask1_127_757)">
<path d="M27.5159 165.65C23.7745 158.758 19.3394 152.488 16.7327 144.577C15.0282 139.404 14.2565 133.238 15.2953 127.617C16.1005 123.26 18.8107 118.876 15.2035 115.019C13.2173 112.895 11.0362 114.906 9.50858 117.431C9.21224 117.921 8.9421 118.438 8.69429 118.977C7.85617 120.8 7.6292 122.829 7.6292 124.836V230.837C7.6292 231.827 8.43206 232.63 9.42244 232.63V232.63C10.1844 232.63 10.8591 232.147 11.1368 231.437C13.626 225.078 17.7848 219.819 21.7196 214.978C27.2869 208.127 33.1833 200.108 33.8845 189.581C34.4659 180.856 31.2572 172.541 27.5159 165.65Z" fill="#007E96"/>
<path d="M176.949 64.1762C177.011 84.7315 176.994 105.287 176.9 125.843C176.875 131.182 176.845 136.52 176.81 141.859C176.787 145.431 177.497 149.913 175.534 152.09C171.734 156.305 164.779 152.46 161.081 149.815C154.84 145.353 149.815 134.848 150.702 123.898C151.241 117.233 153.817 111.417 156.842 106.811C159.866 102.204 163.383 98.5303 166.533 94.1506C167.541 92.7485 168.539 91.212 169.057 89.2304C169.574 87.2485 169.493 84.7095 168.532 83.2232C166.815 80.5684 163.773 82.7834 161.708 80.8881C160.367 79.6583 159.785 76.8883 159.98 74.4145C160.175 71.9406 161.007 69.7207 161.936 67.7311C163.828 63.679 166.208 60.2263 168.904 57.6253C171.072 55.5325 174.18 54.2121 175.87 57.2472C176.879 59.0589 176.942 61.7372 176.949 64.1762Z" fill="#FFCE59"/>
<path d="M127.16 52.3022C126.702 51.5799 125.98 51.5238 125.329 51.5125C123.234 51.476 121.139 51.4395 119.043 51.4033C118.194 51.3884 117.288 51.3983 116.578 52.1273C115.54 53.1927 115.291 55.3629 115.11 57.2854C114.557 63.1516 113.746 69.0609 111.932 74.2665C110.119 79.4721 107.177 83.9485 103.521 85.4976C102.064 86.1149 100.489 86.2477 99.0574 85.4956C97.9991 84.9393 97.0349 83.8625 96.4114 82.4027C96.1413 81.7703 95.7644 81.0019 96.0292 80.3052C96.591 78.8268 98.0546 80.2345 98.7983 80.3504C100.796 80.6617 102.764 79.3466 104.434 77.6033C106.914 75.0156 109.037 71.159 109.485 66.5462C110.086 60.366 107.483 54.2596 104.055 51.0535V51.0535C103.63 50.6559 103.06 50.459 102.478 50.459H66.6224C60.9035 50.459 55.3007 52.8557 52.689 57.9435C50.8579 61.5107 49.3228 65.4976 48.0644 69.4439C45.9361 76.1183 50.4735 84.6472 54.1411 87.2385C58.5001 90.3185 63.7017 89.2653 68.0159 86.0346C72.3301 82.8036 75.9072 77.6126 79.2665 72.2835C80.3473 70.5691 81.4425 68.7983 82.8222 67.7318C84.2019 66.6657 85.9517 66.4307 87.2256 67.7819C88.7113 69.3579 89.0997 72.4352 89.6867 75.0903C91.0893 81.4324 94.0643 86.1853 98.0697 88.4494C104.536 92.1046 112.087 89.6234 117.543 83.0752C123 76.5269 126.417 66.3125 127.516 55.6875C127.638 54.5135 127.696 53.1459 127.16 52.3022Z" fill="#EC6428"/>
<path d="M78.6273 228.315C79.6576 228.315 80.453 227.454 80.1463 226.47V226.47C76.7825 215.669 68.3712 209.388 60.8929 212.093C59.3335 212.657 57.8249 213.563 56.2446 213.962C54.6644 214.361 52.9406 214.193 51.622 212.773C50.1119 211.147 49.403 208.114 49.46 205.246C49.517 202.378 50.2365 199.642 51.0954 197.107C53.5984 189.72 57.4023 183.426 61.9752 179.106C62.9483 178.186 64.4776 177.571 64.9983 179.153C65.3288 180.157 64.9548 181.367 64.5275 182.277C63.0617 185.4 60.9353 187.564 58.997 189.974C57.0589 192.384 55.191 195.315 54.6112 199.083C54.0316 202.85 55.2618 207.514 57.6799 208.341C59.1482 208.844 60.6423 207.887 62.0214 206.951C64.9158 204.987 67.8103 203.022 70.7049 201.057C73.908 198.883 77.3984 196.271 78.7527 191.233C80.0344 186.464 78.8593 180.615 76.3997 177.161C73.9398 173.706 70.4423 172.452 67.1524 172.933C63.8624 173.414 60.7447 175.472 57.8505 177.969C53.248 181.939 49.0843 187.088 45.4426 193.008C42.0724 198.487 39.146 204.62 36.659 211.15V211.15C33.1313 220.411 39.8532 228.315 49.7637 228.315H78.6273Z" fill="#F3966F"/>
<path d="M128.596 76.627C127.562 79.2901 126.31 82.0719 126.516 84.9926C126.687 87.4183 127.89 89.5118 129.421 90.78C130.952 92.0487 132.781 92.5827 134.602 92.8224C142.2 93.8215 150.244 89.7159 155.602 82.1031C156.918 80.2337 158.151 77.7605 157.688 75.3574C157.085 72.2227 154.078 71.344 151.622 71.6285C147.718 72.0806 143.874 74.1 140.723 77.3539C139.986 78.1157 139.272 78.9545 138.421 79.45C137.57 79.9456 136.526 80.0352 135.809 79.3203C134.863 78.3766 134.856 76.3634 135.481 74.9534C136.106 73.5437 137.189 72.6094 138.25 71.7822C141.857 68.9708 145.706 66.7253 149.141 63.5414C152.576 60.3576 155.659 56.001 156.713 50.6656C156.861 49.9188 156.959 49.0814 156.669 48.4377C156.074 47.1147 154.543 47.674 153.443 48.3076C150.054 50.2594 146.449 51.4812 142.816 51.9266C140.391 52.224 134.481 50.4024 132.757 53.4303C131.642 55.3893 132.553 60.249 132.216 62.6469C131.536 67.4811 130.31 72.2147 128.596 76.627Z" fill="#007E96"/>
<path d="M82.8148 184.176C82.2679 179.864 81.3592 175.58 81.5078 171.189C81.5551 169.795 81.7181 168.373 82.1801 167.178C82.642 165.983 83.4464 165.047 84.3378 165C85.2191 164.954 86.0521 165.78 86.5738 166.893C87.0955 168.006 87.3474 169.373 87.504 170.731C88.083 175.753 87.4767 180.968 86.3124 185.734C85.684 188.306 84.8993 191.264 83.9579 193.989C83.5319 195.222 82.679 194.933 82.892 193.646V193.646C83.4033 190.557 83.2072 187.269 82.8148 184.176Z" fill="#EC6428"/>
<path d="M93.9757 182.644C94.8515 181.48 95.8112 180.36 96.937 180.004C98.0627 179.649 99.3906 180.272 99.9147 181.872C100.269 182.954 100.197 184.291 99.8742 185.398C99.552 186.505 99.0067 187.415 98.4265 188.225C94.3584 193.902 88.3444 195.452 84.6089 201.664C86.2621 198.915 87.1381 195.115 88.5182 192.028C90.0722 188.554 91.9094 185.388 93.9757 182.644Z" fill="#EC6428"/>
<path d="M115.022 90.5233C114.665 90.8237 114.303 91.1005 113.935 91.3485C112.459 92.3442 110.944 92.3024 109.541 93.8777C107.935 95.6798 106.969 99.4375 108.156 101.91C108.784 103.218 109.87 103.841 110.915 103.841C111.959 103.842 112.972 103.296 113.927 102.633C117.12 100.419 119.78 95.2556 121.452 90.598C122.356 88.0813 123.057 85.3851 123.524 82.5922C123.752 81.2313 123.924 79.8475 124.037 78.4518V78.4518C124.086 77.8537 123.209 77.7092 123.002 78.2722C121.771 81.6143 120.148 84.603 118.248 87.0603C117.258 88.3419 116.171 89.5551 115.022 90.5233Z" fill="#F3966F"/>
<path d="M122.013 99.0638C122.053 99.7041 122.154 100.321 122.347 100.891C122.922 102.586 124.363 102.968 125.172 101.459C125.853 100.187 126.065 98.3767 126.081 96.7692C126.114 93.5827 125.742 90.4234 125.589 87.2452C125.436 84.0673 125.519 80.7537 126.402 77.8818C125.958 79.3257 125.324 80.5787 124.89 82.0422C124.434 83.583 124.012 85.15 123.642 86.7469C123.103 89.0724 122.671 91.4636 122.404 93.9036C122.23 95.4869 121.905 97.358 122.013 99.0638Z" fill="#F3966F"/>
</g>
<mask id="mask2_127_757" style="mask-type:luminance" maskUnits="userSpaceOnUse" x="12" y="58" width="159" height="166">
<path d="M151 58.0361C162.046 58.0361 171 66.9904 171 78.0361V204C171 215.045 162.046 224 151 224H16.734V224C14.1195 224 12 221.88 12 219.266V78.0361C12 66.9904 20.9543 58.0361 32 58.0361H151Z" fill="white"/>
</mask>
<g mask="url(#mask2_127_757)">
<path d="M180.525 185.861C180.445 174.824 180.366 163.787 180.286 152.749C180.194 140.105 174.33 145.527 168.37 143.849C162.669 142.244 157.251 138.055 153.072 131.752C151.742 129.747 146.347 123.313 145.064 121.967C140.029 116.681 133.138 115.457 127.806 119.975C122.474 124.494 119.318 135.085 121.234 144.091C122.792 151.41 127.214 156.931 127.883 164.574C128.308 169.435 127.253 175.135 129.346 178.786C131.304 182.2 135.059 181.423 137.268 178.409C141.173 173.082 141.199 163.593 140.029 155.694C138.858 147.796 136.795 139.859 137.62 131.854C137.832 129.795 138.309 127.624 139.419 126.47C140.528 125.315 142.375 125.864 142.72 127.879C142.869 128.751 142.718 129.669 142.607 130.555C142.4 132.2 142.343 133.882 142.422 135.55C141.994 143.133 144.246 150.423 145.905 157.614C147.601 164.965 148.602 173.731 145.758 180.155C144.589 182.795 142.881 184.739 141.618 187.27C140.354 189.8 139.579 193.424 140.612 196.199C142.226 200.536 146.448 199.237 149.25 196.795C153.228 193.328 156.829 188.663 161.135 186.35C165.442 184.036 170.933 184.823 173.566 190.639C174.378 192.43 174.99 194.746 176.32 195.441C177.704 196.164 179.236 194.615 179.89 192.573C180.544 190.53 180.542 188.146 180.525 185.861Z" fill="#FDF5E0"/>
<path d="M179.412 187.853C179.332 176.816 179.252 165.778 179.172 154.741C179.081 142.097 173.217 147.519 167.257 145.841C161.556 144.236 156.138 140.047 151.958 133.744C150.628 131.738 145.234 125.305 143.951 123.959C138.915 118.673 132.024 117.449 126.692 121.967C121.36 126.485 118.205 137.076 120.121 146.082C121.679 153.401 126.101 158.923 126.769 166.566C127.195 171.426 126.14 177.126 128.233 180.777C130.191 184.192 133.945 183.414 136.155 180.401C140.06 175.074 140.086 165.585 138.916 157.686C137.745 149.788 135.682 141.851 136.507 133.845C136.719 131.786 137.196 129.615 138.306 128.461C139.415 127.307 141.262 127.856 141.607 129.871C141.756 130.743 141.605 131.661 141.494 132.547C141.287 134.192 141.23 135.874 141.309 137.542C140.881 145.125 143.133 152.415 144.792 159.605C146.488 166.957 147.489 175.722 144.644 182.146C143.476 184.786 141.768 186.731 140.504 189.261C139.241 191.792 138.466 195.416 139.499 198.191C141.113 202.528 145.335 201.229 148.136 198.787C152.115 195.32 155.715 190.654 160.022 188.341C164.329 186.028 169.82 186.815 172.453 192.631C173.264 194.422 173.876 196.738 175.207 197.433C176.591 198.156 178.123 196.606 178.776 194.564C179.431 192.522 179.429 190.137 179.412 187.853Z" fill="#EC6428"/>
</g>
<mask id="mask3_127_757" style="mask-type:luminance" maskUnits="userSpaceOnUse" x="12" y="58" width="159" height="166">
<path d="M151 58.0361C162.046 58.0361 171 66.9904 171 78.0361V204C171 215.045 162.046 224 151 224H16.734V224C14.1195 224 12 221.88 12 219.266V78.0361C12 66.9904 20.9543 58.0361 32 58.0361H151Z" fill="white"/>
</mask>
<g mask="url(#mask3_127_757)">
<path d="M26.8383 93.882C30.1368 93.7489 33.2108 96.2921 36.3423 97.9637C39.4735 99.6353 43.2496 100.279 45.7847 96.9039C48.1401 93.7688 48.0771 89.3695 48.5706 85.0358C49.2446 79.1192 50.7082 73.9883 53.2946 69.4757C55.6285 65.4037 58.503 62.2732 61.5183 59.5654C61.9639 59.1651 69.0598 51.387 67.8966 51.3721C49.9518 51.1427 32.1411 51.5842 14.2012 51.6559C13.0897 51.6605 11.8802 51.7186 11.0239 52.8512C9.96755 54.2482 9.84269 56.7244 9.80728 58.9191C9.67542 67.0948 9.65061 75.2755 9.73308 83.4532C9.77569 87.6936 9.84735 91.9333 9.94763 96.1713C10.0237 99.3867 9.48759 105.317 10.3212 108.203C12.2436 114.858 15.3916 106.346 16.6731 103.634C19.1064 98.4888 22.6388 94.0516 26.8383 93.882Z" fill="#FDF5E0"/>
<path d="M24.9303 93.882C28.2288 93.7489 31.3028 96.2921 34.4343 97.9637C37.5655 99.6353 41.3417 100.279 43.8767 96.9039C46.2321 93.7688 46.1691 89.3695 46.6626 85.0358C47.3366 79.1192 48.8002 73.9883 51.3866 69.4757C53.7205 65.4037 56.5951 62.2732 59.6103 59.5654C60.056 59.1651 67.1518 51.387 65.9886 51.3721C48.0438 51.1427 30.2331 51.5842 12.2932 51.6559C11.1819 51.6602 9.97222 51.7186 9.11596 52.8512C8.05956 54.2482 7.93469 56.7244 7.89929 58.9191C7.76742 67.0948 7.74262 75.2755 7.82509 83.4532C7.8677 87.6936 7.93936 91.9333 8.03963 96.1713C8.11574 99.3867 7.57959 105.317 8.41318 108.203C10.3356 114.858 13.4836 106.346 14.7651 103.634C17.1985 98.4888 20.7308 94.0516 24.9303 93.882Z" fill="#F3966F"/>
</g>
<mask id="mask4_127_757" style="mask-type:luminance" maskUnits="userSpaceOnUse" x="12" y="58" width="159" height="166">
<path d="M151 58.0361C162.046 58.0361 171 66.9904 171 78.0361V204C171 215.045 162.046 224 151 224H16.734V224C14.1195 224 12 221.88 12 219.266V78.0361C12 66.9904 20.9543 58.0361 32 58.0361H151Z" fill="white"/>
</mask>
<g mask="url(#mask4_127_757)">
<path d="M60.7458 130.638C59.3508 127.489 56.5673 126.738 54.1269 127.034C50.8195 127.436 47.5882 129.276 44.889 132.296C42.9885 134.422 40.5812 137.245 38.6121 135.277C37.2674 133.933 37.0344 130.896 37.5513 128.533C38.0679 126.17 39.1436 124.229 39.9884 122.111C43.5871 113.086 42.4951 100.167 37.5208 92.9186C34.8065 88.9637 31.1012 86.9369 27.4088 86.9243C25.3083 86.7056 23.1698 87.1972 21.2498 88.4568C16.3924 91.6437 11.8242 99.5455 10.3494 107.543C8.859 115.625 10.3411 126.868 10.3638 135.387C10.4236 157.807 8.34787 184.319 8.34787 206.739C8.19586 195.87 21.7503 187.882 22.2173 177.035C22.4677 171.221 19.3638 166.487 18.2016 160.951C16.5459 153.063 19.0507 144.4 22.5447 138.155C24.7397 134.232 27.314 130.902 29.7756 127.407C32.367 123.728 34.5678 119.792 36.7239 115.495C36.938 115.068 37.178 114.614 37.5155 114.49C37.9454 114.331 38.3967 114.801 38.5825 115.429C38.8653 116.386 38.6972 117.823 38.4828 118.775C37.5481 122.928 36.0395 126.683 34.4194 130.255C32.8243 133.771 30.6897 136.623 29.2519 140.31C28.0283 143.447 27.4024 147.428 28.2966 150.827C29.5358 155.537 33.1377 157.481 36.3777 157.952C44.4667 159.129 52.8299 154.22 58.4312 145.007C59.6114 143.066 60.693 140.892 61.2376 138.352C61.7823 135.811 61.7212 132.84 60.7458 130.638Z" fill="#FDF5E0"/>
<path d="M58.6894 130.638C57.2944 127.489 54.5109 126.738 52.0705 127.034C48.7631 127.436 45.5318 129.276 42.8326 132.296C40.9321 134.422 38.5248 137.245 36.5557 135.277C35.2112 133.933 34.978 130.896 35.4949 128.533C36.0115 126.17 37.0872 124.229 37.932 122.111C41.5307 113.086 40.4387 100.167 35.4644 92.9186C32.7501 88.9637 29.0448 86.9369 25.3526 86.9243C23.2521 86.7056 21.1137 87.1972 19.1936 88.4568C14.3362 91.6437 9.76806 99.5455 8.29317 107.543C6.80281 115.625 8.2849 126.868 8.30759 135.387C8.36737 157.807 8.48673 180.229 8.48673 202.649C8.33472 191.779 19.6943 187.883 20.1614 177.035C20.4117 171.221 17.3078 166.487 16.1457 160.951C14.4899 153.063 16.9947 144.4 20.4887 138.155C22.6837 134.232 25.258 130.902 27.7196 127.407C30.3111 123.728 32.5118 119.792 34.6679 115.495C34.882 115.068 35.122 114.614 35.4595 114.49C35.8894 114.331 36.3408 114.801 36.5265 115.429C36.8093 116.386 36.6412 117.823 36.4268 118.775C35.4921 122.928 33.9835 126.683 32.3634 130.255C30.7684 133.771 28.6337 136.623 27.1959 140.31C25.9723 143.447 25.3465 147.428 26.2407 150.827C27.4798 155.537 31.0817 157.481 34.3217 157.952C42.4108 159.129 50.7739 154.22 56.3752 145.007C57.5554 143.066 58.637 140.892 59.1817 138.352C59.7261 135.811 59.6648 132.84 58.6894 130.638Z" fill="#FFCE59"/>
</g>
<mask id="mask5_127_757" style="mask-type:luminance" maskUnits="userSpaceOnUse" x="12" y="58" width="159" height="166">
<path d="M151 58.0361C162.046 58.0361 171 66.9904 171 78.0361V204C171 215.045 162.046 224 151 224H16.734V224C14.1195 224 12 221.88 12 219.266V78.0361C12 66.9904 20.9543 58.0361 32 58.0361H151Z" fill="white"/>
</mask>
<g mask="url(#mask5_127_757)">
<path d="M174.643 182.654C171.581 176.779 166.282 173.591 161.662 175.871C156.68 178.328 153.655 185.942 150.077 191.899C145.832 198.966 140.324 204.153 134.347 206.711C132.185 207.636 129.882 208.22 127.712 207.341C125.541 206.461 123.541 203.816 123.196 200.348C122.857 196.939 124.116 193.467 123.664 190.091C123.442 188.435 122.807 187.021 121.961 185.971C121.79 185.758 121.625 185.54 121.46 185.322V185.322C120.615 184.206 119.505 183.668 118.403 183.539C116.53 183.321 114.439 183.837 112.645 184.65C101.864 189.538 92.4313 201.396 87.0185 216.866C85.9872 219.813 85.094 223.435 86.0696 226.429C86.8313 228.767 88.5822 229.988 90.2509 230.022C93.7777 230.096 96.7644 225.743 98.4928 220.902C100.221 216.063 101.091 210.562 102.78 205.688C103.306 204.169 103.877 202.626 104.545 201.234C105.191 199.891 106.794 197.87 106.229 201.218C105.051 208.198 105.314 215.694 107.815 221.94C111.626 231.457 118.953 236.004 126.008 238.051C138.035 241.542 150.63 239.317 161.93 232.048C171.023 226.199 176.565 220.871 178.037 204.122C178.697 196.609 177.705 188.53 174.643 182.654Z" fill="#FDF5E0"/>
<path d="M174.643 185.31C171.581 179.434 166.282 176.246 161.662 178.526C156.68 180.984 153.655 188.597 150.077 194.555C145.832 201.622 140.324 206.808 134.347 209.366C132.185 210.291 129.882 210.875 127.712 209.996C125.541 209.116 123.541 206.471 123.196 203.003C122.857 199.595 124.116 196.123 123.664 192.746C123.442 191.09 122.807 189.676 121.961 188.626C121.79 188.413 121.625 188.195 121.46 187.977V187.977C120.615 186.861 119.505 186.323 118.403 186.195C116.53 185.976 114.439 186.492 112.645 187.305C101.864 192.193 92.4313 204.051 87.0185 219.521C85.9872 222.468 85.094 226.091 86.0696 229.085C86.8313 231.422 88.5822 232.643 90.2509 232.678C93.7777 232.752 96.7644 228.398 98.4928 223.558C100.221 218.718 101.091 213.217 102.78 208.343C103.306 206.825 103.877 205.281 104.545 203.89C105.191 202.546 106.794 200.525 106.229 203.873C105.051 210.853 105.314 218.35 107.815 224.595C111.626 234.112 118.953 238.659 126.008 240.706C138.035 244.197 150.63 241.972 161.93 234.703C171.023 228.855 176.565 223.526 178.037 206.777C178.697 199.264 177.705 191.185 174.643 185.31Z" fill="#007E96"/>
</g>
<mask id="mask6_127_757" style="mask-type:luminance" maskUnits="userSpaceOnUse" x="12" y="58" width="159" height="166">
<path d="M151 58.0361C162.046 58.0361 171 66.9904 171 78.0361V204C171 215.045 162.046 224 151 224H16.734V224C14.1195 224 12 221.88 12 219.266V78.0361C12 66.9904 20.9543 58.0361 32 58.0361H151Z" fill="white"/>
</mask>
<g mask="url(#mask6_127_757)">
<path d="M156.071 62.7277C155.04 63.2601 153.925 63.6183 153.099 64.7229C152.274 65.8273 151.914 68.0309 152.703 69.1983C153.204 69.9388 154.046 70.1081 154.348 71.0767C154.633 71.9858 154.232 73.124 153.663 73.605C153.094 74.0859 152.417 74.0896 151.77 74.1042C148.303 74.1829 144.843 74.9148 141.487 76.2796C140.798 76.5595 140.021 76.9946 139.775 78.0395C139.457 79.3915 140.3 80.8124 141.195 81.147C142.09 81.4816 143.026 81.1367 143.946 81.1693C144.866 81.2018 145.914 81.8212 146.17 83.205C146.409 84.4955 145.814 85.8667 145.052 86.4854C144.29 87.1041 143.402 87.1692 142.548 87.297C139.834 87.7026 137.175 88.9078 134.726 90.7762C133.48 91.7259 132.289 92.8475 131.169 94.1231C130.105 95.3353 129.064 96.1365 128.53 98.1849C128.388 98.7295 128.304 99.4034 128.536 99.8657C128.755 100.303 129.183 100.357 129.511 100.147C129.839 99.9364 130.094 99.5225 130.344 99.1282C133.854 93.5926 138.212 90.3179 143.214 89.9043C144.423 89.8044 145.649 89.8684 146.826 89.423C148.002 88.9775 149.159 87.916 149.662 86.192C150.164 84.468 149.762 82.0655 148.635 81.3757C148.224 81.1238 147.742 81.0946 147.404 80.6475C146.974 80.0776 146.957 78.9819 147.252 78.2304C147.546 77.4789 148.078 77.0281 148.617 76.7722C149.841 76.1914 151.152 76.4566 152.431 76.4841C153.71 76.5117 155.099 76.2186 156.008 74.8095C156.917 73.4005 156.954 70.5728 155.811 69.6763C155.496 69.4293 155.115 69.3351 154.878 68.9261C154.573 68.3997 154.643 67.5317 154.91 66.9575C155.178 66.3832 155.594 66.0324 155.995 65.7011C157.421 64.5238 158.847 63.3464 160.273 62.1691C160.637 61.8684 161.05 61.5583 161.445 61.7422C162.197 62.0918 162.177 63.9147 161.625 64.7877C161.074 65.6606 160.258 65.9464 159.569 66.5309C158.88 67.1155 158.255 68.3552 158.559 69.4868C158.951 70.9472 160.344 70.688 161.185 71.5693C162.401 72.8442 161.91 76.051 160.704 77.3508C159.498 78.6506 157.943 78.718 156.502 79.1289C155.062 79.5398 153.484 80.6239 153.068 82.8219C152.72 84.6655 153.226 86.6116 152.845 88.4544C152.513 90.0616 151.325 90.6295 150.314 90.8048C149.818 90.8904 149.223 90.9359 148.975 91.6134C148.842 91.9798 148.865 92.4724 149.033 92.8037C149.613 93.9495 151.323 93.2322 152.017 92.7914C152.999 92.1673 153.859 91.0418 154.375 89.5843C154.974 87.8898 155.132 85.8624 155.802 84.233C157.614 79.823 162.121 80.3305 164.315 76.3686C164.806 75.4814 165.16 74.3535 165.144 73.1794C165.129 72.0054 164.682 70.8108 163.975 70.4211C163.589 70.2087 163.154 70.2362 162.791 69.9412C161.894 69.2119 162.032 66.9923 162.738 65.8605C163.444 64.7286 164.472 64.2831 165.359 63.526C166.575 62.4881 167.585 60.7152 167.86 58.5896C168.459 53.9522 164.968 50.4809 162.735 53.8726C161.915 55.1193 161.526 56.9977 160.736 58.323C159.505 60.3906 157.771 61.8498 156.071 62.7277Z" fill="#231F20"/>
<path d="M26.2434 216.976C27.356 216.25 28.5708 215.706 29.4249 214.375C30.2791 213.043 30.5587 210.556 29.6219 209.369C29.0276 208.615 28.0868 208.539 27.6995 207.507C27.3359 206.539 27.7181 205.226 28.3219 204.618C28.9257 204.011 29.6751 203.917 30.39 203.815C34.2227 203.27 38.0135 202.001 41.6542 200.047C42.401 199.646 43.238 199.062 43.454 197.872C43.7334 196.334 42.7233 194.873 41.7146 194.621C40.7059 194.369 39.6881 194.875 38.6681 194.96C37.648 195.046 36.4549 194.499 36.0966 193.002C35.7625 191.605 36.3478 190.009 37.1574 189.223C37.967 188.437 38.9463 188.248 39.8848 187.994C42.8668 187.185 45.7447 185.5 48.3548 183.108C49.6815 181.892 50.9395 180.493 52.1102 178.933C53.2226 177.45 54.332 176.426 54.8119 174.088C54.9396 173.467 54.9964 172.709 54.7146 172.228C54.4486 171.774 53.9726 171.77 53.6205 172.046C53.2684 172.322 53.0091 172.814 52.7538 173.283C49.1674 179.874 44.5204 184.076 39.0067 185.196C37.6743 185.466 36.3132 185.557 35.0353 186.206C33.7571 186.855 32.5341 188.183 32.0709 190.158C31.6079 192.132 32.1822 194.738 33.4673 195.352C33.9365 195.577 34.4714 195.545 34.8687 195.996C35.3753 196.57 35.4542 197.78 35.1682 198.651C34.8822 199.522 34.3187 200.091 33.7357 200.445C32.4124 201.25 30.9467 201.13 29.5299 201.269C28.1129 201.408 26.5907 201.916 25.6609 203.596C24.731 205.275 24.8426 208.41 26.1567 209.251C26.5188 209.483 26.9447 209.537 27.2288 209.958C27.5947 210.5 27.5653 211.47 27.3001 212.141C27.0351 212.812 26.5937 213.255 26.1669 213.675C24.6522 215.167 23.1374 216.659 21.6227 218.15C21.2356 218.532 20.7955 218.929 20.3484 218.778C19.4976 218.49 19.4217 216.47 19.9846 215.431C20.5474 214.392 21.4351 213.968 22.1665 213.229C22.8979 212.491 23.522 211.037 23.1247 209.824C22.6119 208.259 21.0844 208.731 20.1063 207.867C18.6909 206.616 19.0622 203.002 20.3265 201.404C21.5909 199.806 23.3087 199.525 24.8805 198.88C26.4523 198.235 28.1408 196.826 28.4817 194.338C28.7677 192.252 28.1033 190.165 28.4249 188.075C28.7054 186.252 29.9899 185.466 31.0999 185.139C31.6435 184.978 32.3003 184.849 32.5375 184.067C32.6658 183.643 32.613 183.101 32.4097 182.757C31.7061 181.565 29.8517 182.586 29.1074 183.165C28.0541 183.986 27.1635 185.346 26.6711 187.027C26.0987 188.981 26.0336 191.247 25.3802 193.138C23.6121 198.259 18.5968 198.293 16.3821 202.969C15.8862 204.016 15.5555 205.311 15.6362 206.608C15.717 207.905 16.2754 209.168 17.0795 209.506C17.5182 209.69 17.9983 209.602 18.416 209.881C19.4478 210.57 19.4147 213.045 18.6941 214.391C17.9735 215.736 16.8605 216.365 15.9195 217.321C14.6295 218.631 13.6072 220.727 13.4179 223.116C13.0045 228.327 17.0566 231.708 19.3443 227.658C20.1851 226.17 20.5148 224.039 21.317 222.468C22.5689 220.017 24.409 218.173 26.2434 216.976Z" fill="#231F20"/>
<path d="M51.6073 87.6884C51.6052 87.3412 51.4138 87.0082 51.1833 87.0245C50.9554 87.0404 50.757 87.3163 50.7593 87.6884C50.7598 87.762 50.7602 87.8357 50.7608 87.9097C50.7629 88.2569 50.9544 88.5899 51.1848 88.5736C51.4127 88.5577 51.6111 88.2818 51.6088 87.9097C51.6082 87.8357 51.6078 87.762 51.6073 87.6884Z" fill="#231F20"/>
<path d="M53.7159 89.0161H53.6453C53.4235 89.0161 53.2109 89.3215 53.2213 89.68C53.2315 90.0398 53.4076 90.3438 53.6453 90.3438H53.7159C53.9376 90.3438 54.1501 90.0384 54.1399 89.68C54.1297 89.3205 53.9537 89.0161 53.7159 89.0161Z" fill="#231F20"/>
<path d="M51.8079 91.4502C51.2622 91.4502 51.2613 92.7779 51.8079 92.7779C52.3536 92.7779 52.3546 91.4502 51.8079 91.4502Z" fill="#231F20"/>
<path d="M49.6571 96.0272C49.4515 95.8947 49.1822 96.1702 49.1356 96.4909V96.4909C49.1083 96.6795 49.1069 96.8746 49.1402 97.0623C49.1493 97.1133 49.1626 97.1614 49.1803 97.2045C49.316 97.5338 49.5428 97.5945 49.7604 97.4425C49.9202 97.331 50.0186 97.0173 50.0124 96.7521C50.0039 96.391 49.8621 96.1593 49.6571 96.0272Z" fill="#231F20"/>
<path d="M49.1933 91.8931C48.9635 91.9094 48.7693 92.1849 48.7693 92.557V92.6675C48.7693 93.0147 48.9643 93.3473 49.1933 93.3314C49.4229 93.3151 49.6173 93.0396 49.6173 92.6675V92.557C49.6173 92.2098 49.4222 91.8772 49.1933 91.8931Z" fill="#231F20"/>
<path d="M48.6987 85.1441C48.4689 85.1604 48.2747 85.4359 48.2747 85.808V85.9185C48.2747 86.2657 48.4697 86.5983 48.6987 86.5824C48.9285 86.5661 49.1227 86.2906 49.1227 85.9185V85.808C49.1227 85.4605 48.9276 85.1279 48.6987 85.1441Z" fill="#231F20"/>
<path d="M52.2319 95.2124H52.1613C51.9396 95.2124 51.7269 95.5178 51.7373 95.8763C51.7475 96.2361 51.9237 96.5401 52.1613 96.5401H52.2319C52.4537 96.5401 52.6661 96.2347 52.6559 95.8763C52.6457 95.5164 52.4698 95.2124 52.2319 95.2124Z" fill="#231F20"/>
<path d="M56.2488 92.4742C56.0432 92.4009 55.7674 92.5718 55.7273 92.9379C55.7233 92.9738 55.7195 93.0096 55.7157 93.0455C55.6783 93.3863 55.7733 93.777 56.0118 93.862C56.2175 93.9354 56.4933 93.7644 56.5333 93.3983C56.5374 93.3624 56.5412 93.3266 56.5452 93.2908C56.5821 92.9499 56.4871 92.5592 56.2488 92.4742Z" fill="#231F20"/>
<path d="M55.4119 97.3145H55.3413C55.1195 97.3145 54.9069 97.6198 54.9173 97.9783C54.9274 98.3381 55.1036 98.6422 55.3413 98.6422H55.4119C55.6336 98.6422 55.846 98.3368 55.8359 97.9783C55.8257 97.6188 55.6497 97.3145 55.4119 97.3145Z" fill="#231F20"/>
<path d="M73.2129 218.997C73.1658 218.924 73.1186 218.85 73.0715 218.776C72.9144 218.53 72.6267 218.512 72.472 218.776C72.3166 219.041 72.3045 219.452 72.472 219.715C72.519 219.788 72.5661 219.862 72.6134 219.936C72.7704 220.182 73.0581 220.2 73.2131 219.936C73.3681 219.671 73.3804 219.26 73.2129 218.997Z" fill="#231F20"/>
<path d="M75.7397 213.935H75.5983C75.3766 213.935 75.1639 214.24 75.1743 214.599C75.1845 214.959 75.3607 215.263 75.5983 215.263H75.7397C75.9615 215.263 76.1739 214.957 76.1637 214.599C76.1533 214.239 75.9774 213.935 75.7397 213.935Z" fill="#231F20"/>
<path d="M76.5877 217.033C76.3579 217.049 76.1637 217.325 76.1637 217.697V217.918C76.1637 218.265 76.3588 218.598 76.5877 218.582C76.8175 218.566 77.0117 218.29 77.0117 217.918V217.697C77.0117 217.349 76.8167 217.017 76.5877 217.033Z" fill="#231F20"/>
<path d="M82.0904 215.27C81.9818 214.698 81.6157 214.258 81.2256 214.421C80.8794 214.566 80.6687 215.099 80.6916 215.649C80.7179 216.282 80.9833 216.761 81.3931 216.816V216.816C81.5128 216.832 81.6326 216.761 81.7344 216.696C81.7369 216.695 81.7394 216.693 81.7419 216.692C82.084 216.464 82.1881 215.785 82.0904 215.27Z" fill="#231F20"/>
<path d="M78.8521 212.639C78.6471 212.566 78.37 212.737 78.3306 213.103C78.3229 213.175 78.3151 213.246 78.3075 213.318C78.2708 213.659 78.3647 214.05 78.6036 214.134C78.8086 214.207 79.0859 214.037 79.1251 213.671C79.1328 213.599 79.1406 213.527 79.1483 213.456C79.1849 213.115 79.091 212.724 78.8521 212.639Z" fill="#231F20"/>
<path d="M82.3823 206.632H82.2409C82.0191 206.632 81.8067 206.938 81.8169 207.296C81.8273 207.656 82.0032 207.96 82.2409 207.96H82.3823C82.604 207.96 82.8165 207.655 82.8063 207.296C82.7959 206.936 82.6199 206.632 82.3823 206.632Z" fill="#231F20"/>
<path d="M84.2768 211.171C84.164 210.469 83.5553 210.38 83.3213 210.968V210.968C83.2007 211.271 83.2236 211.645 83.3976 211.921V211.921C83.7497 212.476 84.4027 211.956 84.2768 211.171Z" fill="#231F20"/>
<path d="M73.1942 213.674C73.1445 213.706 73.0971 213.749 73.0549 213.801C72.7721 214.149 72.7195 214.804 73.0921 215.054V215.054C73.278 215.178 73.4879 215.203 73.6416 214.953C73.7325 214.805 73.7832 214.616 73.7859 214.41C73.7923 213.954 73.4991 213.479 73.1942 213.674Z" fill="#231F20"/>
<path d="M76.872 209.46C76.8222 209.492 76.7748 209.535 76.7325 209.587C76.45 209.936 76.3972 210.59 76.7698 210.84V210.84C76.9558 210.964 77.1656 210.989 77.3193 210.739C77.4103 210.591 77.461 210.402 77.4637 210.196C77.4699 209.74 77.1767 209.266 76.872 209.46Z" fill="#231F20"/>
<path d="M86.549 211.439C86.4992 211.471 86.4517 211.514 86.4095 211.566C86.1269 211.914 86.0741 212.569 86.4468 212.818V212.818C86.6327 212.943 86.8426 212.968 86.9963 212.718C87.0872 212.57 87.1379 212.381 87.1407 212.175C87.147 211.719 86.8538 211.245 86.549 211.439Z" fill="#231F20"/>
<path d="M32.1587 211.439C32.1089 211.471 32.0614 211.514 32.0192 211.566C31.7365 211.914 31.6838 212.569 32.0567 212.818V212.818C32.2426 212.943 32.4525 212.968 32.6062 212.718C32.6971 212.57 32.7478 212.381 32.7506 212.175C32.7567 211.719 32.4633 211.245 32.1587 211.439Z" fill="#231F20"/>
<path d="M80.1209 209.509C79.5752 209.509 79.5744 210.837 80.1209 210.837C80.6666 210.837 80.6675 209.509 80.1209 209.509Z" fill="#231F20"/>
<path d="M84.7779 222.119C84.2322 222.119 84.2314 223.446 84.7779 223.446C85.3236 223.446 85.3246 222.119 84.7779 222.119Z" fill="#231F20"/>
<path d="M86.6887 217.144C86.143 217.144 86.1421 218.471 86.6887 218.471C87.2344 218.471 87.2352 217.144 86.6887 217.144Z" fill="#231F20"/>
<path d="M79.8459 217.697C79.7529 217.551 79.6214 217.455 79.4889 217.452C79.306 217.448 79.1748 217.6 79.0721 217.824C79.0446 217.884 79.0271 217.953 79.0185 218.025C78.962 218.5 79.433 219.256 79.762 218.909V218.909C80.0323 218.624 80.0794 218.064 79.8459 217.697Z" fill="#231F20"/>
<path d="M84.7618 216.947C84.7107 216.667 84.5697 216.452 84.3893 216.382C84.161 216.293 83.9441 216.451 83.819 216.752C83.8123 216.768 83.8062 216.785 83.8006 216.802C83.7054 217.098 83.7058 217.465 83.9005 217.708V217.708C84.0866 217.94 84.2969 218.006 84.5142 217.831C84.7086 217.674 84.822 217.278 84.7618 216.947Z" fill="#231F20"/>
<path d="M35.3493 213.679C35.2632 213.184 34.9573 212.841 34.6285 212.951C34.0052 213.159 33.9942 214.65 34.5979 214.918V214.918C34.7339 214.978 34.9057 214.932 35.0305 214.851C35.0386 214.846 35.0467 214.84 35.0548 214.834C35.3245 214.637 35.423 214.103 35.3493 213.679Z" fill="#231F20"/>
<path d="M30.4758 217.971C30.3897 217.477 30.0838 217.134 29.755 217.244C29.1317 217.452 29.1207 218.943 29.7245 219.21V219.21C29.8604 219.27 30.0323 219.224 30.157 219.144C30.1651 219.138 30.1732 219.133 30.1814 219.127C30.4508 218.93 30.5496 218.396 30.4758 217.971Z" fill="#231F20"/>
<path d="M25.6316 222.622C25.5455 222.127 25.2396 221.784 24.9108 221.894C24.2875 222.102 24.2765 223.593 24.8805 223.86V223.86C25.0164 223.92 25.1882 223.875 25.313 223.794C25.3211 223.789 25.3292 223.783 25.3373 223.777C25.6066 223.58 25.7054 223.046 25.6316 222.622Z" fill="#231F20"/>
<path d="M73.8567 208.624H73.7153C73.4936 208.624 73.2812 208.929 73.2913 209.288C73.3015 209.648 73.4777 209.952 73.7153 209.952H73.8567C74.0785 209.952 74.2909 209.646 74.2807 209.288C74.2704 208.928 74.0944 208.624 73.8567 208.624Z" fill="#231F20"/>
<path d="M26.5739 218.692H26.4325C26.2108 218.692 25.9981 218.998 26.0085 219.356C26.0187 219.716 26.1949 220.02 26.4325 220.02H26.5739C26.7957 220.02 27.0081 219.715 26.9979 219.356C26.9877 218.997 26.8116 218.692 26.5739 218.692Z" fill="#231F20"/>
<path d="M28.0321 220.127H27.8907C27.6689 220.127 27.4563 220.433 27.4667 220.791C27.4769 221.151 27.653 221.455 27.8907 221.455H28.0321C28.2538 221.455 28.4663 221.15 28.4561 220.791C28.4459 220.432 28.2699 220.127 28.0321 220.127Z" fill="#231F20"/>
<path d="M32.369 216.368H32.2276C32.0058 216.368 31.7932 216.674 31.8036 217.032C31.8137 217.392 31.9899 217.696 32.2276 217.696H32.369C32.5907 217.696 32.8031 217.391 32.793 217.032C32.7828 216.673 32.6068 216.368 32.369 216.368Z" fill="#231F20"/>
<path d="M30.5701 220.792H30.4287C30.207 220.792 29.9946 221.097 30.0047 221.455C30.0151 221.815 30.1911 222.119 30.4287 222.119H30.5701C30.7919 222.119 31.0043 221.814 30.9941 221.455C30.9838 221.096 30.8078 220.792 30.5701 220.792Z" fill="#231F20"/>
<path d="M86.5441 205.521C86.3842 205.277 86.1849 205.289 85.9946 205.421C85.8402 205.529 85.7671 205.836 85.7906 206.099C85.7743 206.427 85.9 206.671 86.0972 206.799C86.4022 206.998 86.695 206.517 86.6886 206.064C86.6857 205.862 86.6371 205.664 86.5441 205.521Z" fill="#231F20"/>
<path d="M79.0344 221.553C78.8746 221.309 78.6753 221.321 78.4849 221.453C78.3306 221.561 78.2574 221.868 78.281 222.131C78.2646 222.46 78.3904 222.703 78.5875 222.831C78.8926 223.03 79.1854 222.549 79.179 222.096C79.176 221.894 79.1275 221.695 79.0344 221.553Z" fill="#231F20"/>
<path d="M34.1529 209.288C33.6072 209.288 33.6064 210.616 34.1529 210.616C34.6986 210.616 34.6995 209.288 34.1529 209.288Z" fill="#231F20"/>
<path d="M81.8167 221.455C81.271 221.455 81.2702 222.783 81.8167 222.783C82.3622 222.783 82.3632 221.455 81.8167 221.455Z" fill="#231F20"/>
<path d="M47.1996 94.903C47.0324 94.6056 46.7884 94.6063 46.5742 94.7533V94.7533C46.3688 94.8939 46.2362 95.1577 46.1506 95.3915C46.1332 95.4388 46.12 95.4902 46.1121 95.545C46.0604 95.8998 46.1801 96.258 46.4082 96.3615C46.5698 96.4349 46.7502 96.4817 46.9158 96.409C47.1144 96.3217 47.2927 96.0903 47.3413 95.7657C47.3877 95.4567 47.333 95.14 47.1996 94.903Z" fill="#231F20"/>
<path d="M53.1454 102.705C52.931 102.516 52.6249 102.553 52.4593 102.856C52.315 103.119 52.2819 103.539 52.4593 103.795C52.4698 103.81 52.4808 103.824 52.4923 103.837C52.6034 103.966 52.7464 104.098 52.9067 104.155V104.155C53.1108 104.228 53.39 104.058 53.4282 103.691C53.471 103.281 53.3828 102.913 53.1454 102.705Z" fill="#231F20"/>
<path d="M125.941 200.834C125.854 200.739 125.749 200.695 125.644 200.685C125.493 200.671 125.374 200.783 125.262 200.923V200.923C125.101 201.124 125.095 201.413 125.113 201.669C125.115 201.684 125.116 201.7 125.117 201.715C125.153 202.06 125.368 202.304 125.577 202.348C125.8 202.395 126.021 202.248 126.132 201.932C126.271 201.537 126.166 201.079 125.941 200.834Z" fill="#231F20"/>
<path d="M129.275 205.08H129.188C128.642 205.08 128.641 206.408 129.188 206.408H129.275C129.821 206.408 129.822 205.08 129.275 205.08Z" fill="#231F20"/>
<path d="M130.999 198.657V198.657C130.551 198.504 130.283 199.269 130.384 199.731C130.393 199.772 130.405 199.812 130.42 199.851C130.611 200.35 131.027 200.325 131.242 199.89C131.448 199.471 131.363 198.781 130.999 198.657Z" fill="#231F20"/>
<path d="M133.798 202.646H133.71C133.165 202.646 133.164 203.974 133.71 203.974H133.798C134.344 203.974 134.345 202.646 133.798 202.646Z" fill="#231F20"/>
<path d="M128.965 201.226V201.226C128.645 200.874 128.164 201.626 128.22 202.098C128.228 202.169 128.246 202.239 128.273 202.305C128.453 202.731 128.813 202.8 129.046 202.437C129.14 202.291 129.201 202.085 129.203 201.878C129.205 201.593 129.109 201.384 128.965 201.226Z" fill="#231F20"/>
<path d="M126.602 194.347C126.418 194.195 126.117 194.245 126.022 194.585C125.98 194.735 125.937 194.886 125.895 195.037C125.806 195.354 125.829 195.765 126.047 195.945C126.231 196.097 126.532 196.046 126.627 195.707C126.67 195.556 126.712 195.405 126.754 195.255C126.843 194.938 126.82 194.527 126.602 194.347Z" fill="#231F20"/>
<path d="M127.351 187.156H127.209C126.988 187.156 126.775 187.462 126.785 187.82C126.796 188.18 126.972 188.484 127.209 188.484H127.351C127.572 188.484 127.785 188.179 127.775 187.82C127.764 187.46 127.588 187.156 127.351 187.156Z" fill="#231F20"/>
<path d="M129.329 192.467C129.099 192.483 128.905 192.759 128.905 193.131V193.352C128.905 193.699 129.1 194.032 129.329 194.016C129.559 194 129.753 193.724 129.753 193.352V193.131C129.753 192.784 129.558 192.451 129.329 192.467Z" fill="#231F20"/>
<path d="M134.135 197.114C133.589 197.114 133.588 198.441 134.135 198.441C134.68 198.441 134.681 197.114 134.135 197.114Z" fill="#231F20"/>
<path d="M133.104 191.895C133 191.587 132.71 191.468 132.524 191.656C132.523 191.658 132.521 191.659 132.52 191.66C132.342 191.843 132.167 192.081 132.086 192.323V192.323C131.978 192.641 132.033 193.044 132.238 193.231C132.483 193.455 132.788 193.373 132.988 193.066C133.192 192.752 133.237 192.289 133.104 191.895Z" fill="#231F20"/>
<path d="M124.278 181.851C124.101 181.598 123.854 181.602 123.678 181.851C123.629 181.921 123.579 181.991 123.53 182.061C123.365 182.295 123.367 182.766 123.53 183C123.706 183.253 123.953 183.248 124.129 183C124.179 182.93 124.228 182.86 124.278 182.79C124.442 182.557 124.44 182.086 124.278 181.851Z" fill="#231F20"/>
<path d="M124.446 188.037C124.286 187.793 124.087 187.809 123.896 187.937C123.741 188.04 123.669 188.349 123.692 188.612C123.675 188.941 123.8 189.189 123.998 189.316C124.304 189.511 124.596 189.036 124.59 188.58C124.587 188.378 124.539 188.18 124.446 188.037Z" fill="#231F20"/>
<path d="M137.244 200.654C136.698 200.654 136.697 201.982 137.244 201.982C137.79 201.982 137.791 200.654 137.244 200.654Z" fill="#231F20"/>
<path d="M159.955 83.3021C159.826 82.9887 159.585 82.8905 159.375 83.0641L159.095 83.2945C158.899 83.4564 158.823 83.9105 158.943 84.2026C159.072 84.5159 159.313 84.6142 159.523 84.4409C159.616 84.3643 159.71 84.2872 159.803 84.2106C160 84.0486 160.075 83.5942 159.955 83.3021Z" fill="#231F20"/>
<path d="M163.391 84.0371C162.845 84.0371 162.844 85.3648 163.391 85.3648C163.936 85.3648 163.937 84.0371 163.391 84.0371Z" fill="#231F20"/>
<path d="M160.847 87.7993H160.705C160.484 87.7993 160.271 88.1047 160.281 88.4632C160.291 88.823 160.468 89.127 160.705 89.127H160.847C161.068 89.127 161.281 88.8217 161.271 88.4632C161.26 88.1034 161.084 87.7993 160.847 87.7993Z" fill="#231F20"/>
<path d="M166.924 84.9225V85.0596C166.924 85.914 167.772 85.9153 167.772 85.0596V84.9225C167.772 84.0682 166.924 84.0668 166.924 84.9225Z" fill="#231F20"/>
<path d="M165.087 79.3901C164.541 79.3901 164.54 80.7178 165.087 80.7178C165.632 80.7178 165.633 79.3901 165.087 79.3901Z" fill="#231F20"/>
<path d="M165.228 88.6841C164.682 88.6841 164.681 90.0118 165.228 90.0118C165.774 90.0118 165.775 88.6841 165.228 88.6841Z" fill="#231F20"/>
<path d="M162.656 93.193C162.606 93.0472 162.557 92.9015 162.508 92.7558C162.404 92.4484 162.114 92.329 161.928 92.5178C161.728 92.7193 161.664 93.0974 161.775 93.426C161.825 93.5717 161.874 93.7174 161.923 93.8631C162.027 94.1705 162.317 94.29 162.503 94.1011C162.703 93.8996 162.767 93.5216 162.656 93.193Z" fill="#231F20"/>
<path d="M157.172 88.0207V88.1578C157.172 89.0121 158.02 89.0135 158.02 88.1578V88.0207C158.02 87.1663 157.172 87.165 157.172 88.0207Z" fill="#231F20"/>
<path d="M158.303 92.2251H158.161C157.94 92.2251 157.727 92.5305 157.737 92.889C157.747 93.2488 157.924 93.5528 158.161 93.5528H158.303C158.524 93.5528 158.737 93.2474 158.727 92.889C158.716 92.5291 158.54 92.2251 158.303 92.2251Z" fill="#231F20"/>
<path d="M153.78 93.9948V94.1319C153.78 94.9863 154.628 94.9876 154.628 94.1319V93.9948C154.628 93.1404 153.78 93.1391 153.78 93.9948Z" fill="#231F20"/>
<path d="M153.179 100.274V100.274C152.846 100.096 152.548 100.657 152.529 101.033C152.526 101.103 152.528 101.177 152.536 101.252C152.602 101.858 153.145 102.087 153.412 101.661C153.702 101.198 153.55 100.472 153.179 100.274Z" fill="#231F20"/>
<path d="M156.704 96.8002C156.576 96.4869 156.334 96.3886 156.124 96.5619C156.031 96.6386 155.938 96.7156 155.845 96.7923C155.648 96.9542 155.572 97.4083 155.693 97.7004C155.821 98.0138 156.062 98.112 156.273 97.9384L156.552 97.7081C156.749 97.5464 156.825 97.0923 156.704 96.8002Z" fill="#231F20"/>
<path d="M169.657 88.0461C169.4 87.9253 169.177 88.0776 169.022 88.4062V88.4062C168.929 88.6007 168.92 88.8321 168.96 89.0438C168.961 89.051 168.963 89.0582 168.964 89.0654C169.046 89.4408 169.254 89.6931 169.512 89.6802C169.775 89.6669 170.004 89.3791 170.04 88.9632C170.075 88.5546 169.91 88.1646 169.657 88.0461Z" fill="#231F20"/>
<path d="M165.945 92.8779C165.785 92.636 165.502 92.6111 165.345 92.8779V92.8779C165.31 92.9372 165.271 92.9945 165.235 93.0528C165.233 93.0564 165.231 93.0601 165.228 93.0638C165.073 93.329 165.061 93.74 165.228 94.0025C165.421 94.3059 165.748 94.3016 165.938 93.9889C166.126 93.6779 166.149 93.1883 165.945 92.8779Z" fill="#231F20"/>
<path d="M160.54 96.7022C160.461 96.3789 160.251 96.1207 160.019 96.2385V96.2385C159.71 96.3948 159.504 96.7824 159.452 97.1241C159.451 97.1261 159.451 97.1281 159.451 97.13C159.396 97.5071 159.524 97.8161 159.747 97.9466C160.197 98.2101 160.712 97.4089 160.54 96.7022Z" fill="#231F20"/>
<path d="M131.14 186.708V186.708C130.692 186.555 130.424 187.319 130.526 187.782C130.535 187.822 130.546 187.863 130.561 187.901C130.752 188.401 131.168 188.376 131.383 187.941C131.589 187.522 131.504 186.832 131.14 186.708Z" fill="#231F20"/>
<path d="M134.559 187.599H134.417C134.196 187.599 133.983 187.904 133.993 188.262C134.004 188.622 134.18 188.926 134.417 188.926H134.559C134.78 188.926 134.993 188.621 134.983 188.262C134.972 187.903 134.796 187.599 134.559 187.599Z" fill="#231F20"/>
<path d="M136.679 193.131H136.396C136.174 193.131 135.962 193.436 135.972 193.795C135.982 194.155 136.158 194.459 136.396 194.459H136.679C136.9 194.459 137.113 194.153 137.103 193.795C137.092 193.435 136.916 193.131 136.679 193.131Z" fill="#231F20"/>
<path d="M126.378 205.939C126.209 205.695 125.946 205.676 125.779 205.939L125.637 206.16C125.48 206.406 125.469 206.857 125.637 207.099C125.807 207.342 126.07 207.361 126.237 207.099L126.378 206.877C126.536 206.632 126.547 206.181 126.378 205.939Z" fill="#231F20"/>
<path d="M132.336 206.199C132.158 205.943 131.915 205.954 131.737 206.199C131.687 206.268 131.637 206.336 131.587 206.405C131.42 206.635 131.426 207.112 131.587 207.344C131.765 207.6 132.009 207.589 132.187 207.344C132.237 207.275 132.286 207.207 132.336 207.138C132.503 206.908 132.498 206.431 132.336 206.199Z" fill="#231F20"/>
<path d="M51.0307 99.7485H50.8893C50.6675 99.7485 50.4549 100.054 50.4653 100.412C50.4755 100.772 50.6516 101.076 50.8893 101.076H51.0307C51.2525 101.076 51.4649 100.771 51.4547 100.412C51.4443 100.053 51.2684 99.7485 51.0307 99.7485Z" fill="#231F20"/>
<path d="M48.1257 99.5223C47.9658 99.278 47.7665 99.2899 47.5762 99.4224C47.4218 99.5299 47.3487 99.8366 47.3722 100.1C47.3559 100.428 47.4816 100.672 47.6788 100.8C47.9838 100.999 48.2766 100.518 48.2702 100.065C48.2675 99.8632 48.2189 99.6647 48.1257 99.5223Z" fill="#231F20"/>
<path d="M44.6378 99.8744C44.5884 99.4196 44.3353 99.0777 44.0421 99.0648C43.7489 99.0518 43.504 99.4193 43.4415 99.8495C43.405 100.1 43.4233 100.353 43.4958 100.584C43.5708 100.824 43.7001 100.95 43.8521 101.049V101.049C43.9536 101.115 44.1043 101.114 44.2106 101.056C44.2131 101.055 44.2156 101.054 44.2181 101.052C44.5437 100.86 44.6955 100.406 44.6378 99.8744Z" fill="#231F20"/>
<path d="M57.0816 88.0145V88.0145C56.6338 87.8618 56.3657 88.6261 56.467 89.0883C56.4759 89.129 56.4877 89.1691 56.5026 89.2081C56.6934 89.7077 57.1093 89.6828 57.3241 89.2476C57.5306 88.8287 57.4454 88.1386 57.0816 88.0145Z" fill="#231F20"/>
<path d="M61.5851 90.5514C61.4912 90.2357 61.1851 90.1315 61.0051 90.3134C61.0024 90.3161 60.9997 90.3189 60.9971 90.3216C60.8223 90.505 60.647 90.7445 60.566 90.9846V90.9846C60.4636 91.2879 60.5073 91.7238 60.7182 91.8927C60.9663 92.0919 61.2671 92.0418 61.4664 91.7201C61.6712 91.3892 61.7076 90.9633 61.5851 90.5514Z" fill="#231F20"/>
<path d="M20.7853 146.661H20.6439C20.4221 146.661 20.2097 146.967 20.2199 147.325C20.2303 147.685 20.4062 147.989 20.6439 147.989H20.7853C21.007 147.989 21.2194 147.683 21.2093 147.325C21.1991 146.965 21.0229 146.661 20.7853 146.661Z" fill="#231F20"/>
<path d="M23.2697 148.659C23.0931 148.591 22.8995 148.681 22.7787 148.894C22.6233 149.168 22.6089 149.516 22.7113 149.837C22.7142 149.846 22.7174 149.855 22.7207 149.864C22.8322 150.165 23.2984 150.263 23.4857 150.002V150.002C23.7706 149.605 23.6365 148.802 23.2697 148.659Z" fill="#231F20"/>
<path d="M19.8584 151.352C19.8434 151.328 19.8281 151.304 19.813 151.281C19.4268 150.676 18.8268 151.614 19.2135 152.22C19.2286 152.243 19.2438 152.267 19.2589 152.291C19.6451 152.896 20.2451 151.957 19.8584 151.352Z" fill="#231F20"/>
<path d="M22.9343 140.767C22.5222 140.151 21.7787 140.865 21.9649 141.725C21.9694 141.746 21.9746 141.767 21.9805 141.787C22.0537 142.044 22.2313 142.314 22.4936 142.364V142.364C22.7588 142.415 22.9867 142.08 23.0717 141.718C23.1482 141.392 23.0954 141.008 22.9343 140.767Z" fill="#231F20"/>
<path d="M26.7213 140.907C26.4915 140.924 26.2973 141.199 26.2973 141.571V141.793C26.2973 142.14 26.4923 142.472 26.7213 142.456C26.9511 142.44 27.1453 142.165 27.1453 141.793V141.571C27.1453 141.224 26.9503 140.891 26.7213 140.907Z" fill="#231F20"/>
<path d="M24.2907 143.974L24.1218 143.835C23.9257 143.674 23.652 143.747 23.5417 144.073C23.4385 144.38 23.4843 144.809 23.6939 144.981C23.7503 145.028 23.8065 145.074 23.8629 145.12C24.0592 145.282 24.3329 145.209 24.4429 144.882C24.5462 144.576 24.5004 144.147 24.2907 143.974Z" fill="#231F20"/>
<path d="M25.9837 135.413V135.413C25.8753 135.36 25.7388 135.368 25.6217 135.397C25.6209 135.397 25.6201 135.398 25.6193 135.398C24.7749 135.615 24.8998 137.843 25.7493 137.877C26.6163 137.912 26.7902 135.808 25.9837 135.413Z" fill="#231F20"/>
<path d="M26.0993 148.531C25.9044 148.37 25.6284 148.44 25.5192 148.769C25.4707 148.916 25.4221 149.062 25.3734 149.208C25.2712 149.516 25.3161 149.943 25.5256 150.116C25.7204 150.278 25.9965 150.207 26.1056 149.878C26.1542 149.732 26.2029 149.586 26.2515 149.44C26.3537 149.132 26.3085 148.704 26.0993 148.531Z" fill="#231F20"/>
<path d="M28.7631 154.18C28.6032 153.936 28.4039 153.948 28.2135 154.08C28.0592 154.188 27.9861 154.494 28.0096 154.758C27.9933 155.086 28.119 155.329 28.3162 155.458C28.6212 155.657 28.914 155.176 28.9076 154.723C28.9049 154.521 28.8561 154.322 28.7631 154.18Z" fill="#231F20"/>
<path d="M23.6994 152.857H23.6119C23.0662 152.857 23.0653 154.185 23.6119 154.185H23.6994C24.2451 154.185 24.246 152.857 23.6994 152.857Z" fill="#231F20"/>
<path d="M32.2996 157.845C32.0141 157.849 31.7132 158.298 31.8392 158.773C31.8833 158.94 31.9303 159.075 32.034 159.17V159.17C32.1831 159.306 32.4513 159.285 32.5884 159.136C32.6658 159.052 32.7265 158.926 32.7629 158.769C32.8725 158.294 32.595 157.841 32.2996 157.845Z" fill="#231F20"/>
<path d="M26.2112 157.873C26.0251 157.183 25.3098 157.227 25.2044 157.994C25.2031 158.004 25.202 158.013 25.2009 158.023C25.1727 158.281 25.1793 158.575 25.3443 158.775V158.775C25.4518 158.906 25.5578 159.011 25.7007 159.008C25.8027 159.006 25.9085 158.961 25.9952 158.876C26.2091 158.666 26.3111 158.243 26.2112 157.873Z" fill="#231F20"/>
<path d="M30.4171 164.338C30.3444 163.929 30.0938 163.638 29.8214 163.695C29.5869 163.745 29.4107 164.007 29.3554 164.366C29.2986 164.734 29.3957 165.18 29.6231 165.353C29.6261 165.355 29.629 165.358 29.632 165.36C29.7877 165.472 30.041 165.48 30.1718 165.34V165.34C30.3842 165.11 30.4881 164.737 30.4171 164.338Z" fill="#231F20"/>
<path d="M28.7875 130.95H28.6999C28.1542 130.95 28.1534 132.277 28.6999 132.277H28.7875C29.3331 132.277 29.334 130.95 28.7875 130.95Z" fill="#231F20"/>
</g>
<mask id="mask7_127_757" style="mask-type:luminance" maskUnits="userSpaceOnUse" x="12" y="58" width="159" height="166">
<path d="M151 58.0361C162.046 58.0361 171 66.9904 171 78.0361V204C171 215.045 162.046 224 151 224H16.734V224C14.1195 224 12 221.88 12 219.266V78.0361C12 66.9904 20.9543 58.0361 32 58.0361H151Z" fill="white"/>
</mask>
<g mask="url(#mask7_127_757)">
<path d="M4.69511 186.169C8.20753 186.485 11.3271 181.958 12.4501 176.738C13.573 171.518 13.1138 165.805 12.3884 160.415C11.6629 155.025 10.6782 149.633 10.7855 144.128C10.9843 133.921 14.9451 124.706 19.7999 117.887C24.6545 111.067 30.4349 106.108 35.759 100.211C38.9253 96.7032 42.1343 92.3736 42.9353 86.4318C43.4752 82.4271 42.8324 78.1817 43.4752 74.2145C44.4156 68.4101 47.9327 64.2006 48.666 58.3232C49.38 52.5984 47.0542 46.6144 43.7375 43.958C40.4207 41.3016 36.3794 41.5791 32.8759 43.5624C29.3723 45.5456 26.3193 49.0796 23.4592 52.8171C20.5991 56.5547 17.8607 60.5613 14.7303 63.7239C11.403 67.0857 7.63428 69.4962 4.76719 73.7727C-0.300454 81.3314 -1.58157 93.3358 -0.934334 104.247C-0.763886 107.12 -0.469206 110.033 0.367346 112.604C1.2039 115.174 2.66203 117.381 4.46425 117.98C6.66459 118.711 8.93299 116.937 10.5427 114.477C12.1524 112.017 13.2811 108.907 14.6396 106.1C17.3914 100.414 21.1472 95.9318 25.3785 93.2847C28.168 91.5395 31.5651 89.982 32.5273 85.5269C33.4979 81.033 31.3567 75.7464 32.7173 71.5076C33.2002 70.0033 34.0798 68.8433 34.441 67.2576C35.1489 64.1508 33.3702 60.6247 31.2842 60.163C29.1981 59.7013 27.137 61.6212 25.8258 64.2029C24.5146 66.7846 23.7989 69.9622 23.0448 73.0421C21.6706 78.6547 19.7145 84.7286 15.3072 84.169C13.5398 83.9446 11.7604 83.1314 10.0212 83.6728C7.59845 84.4269 5.76105 87.7425 4.92916 91.3841C4.09727 95.0254 4.09749 98.9866 4.13628 102.853" stroke="white" stroke-width="2" stroke-miterlimit="10" stroke-linecap="round" stroke-linejoin="round" stroke-dasharray="5 7 5 7"/>
<path d="M183.376 90.2617C167.052 96.8711 154.014 120.062 151.897 146.253C151.367 152.812 151.463 159.486 150.702 165.989C149.942 172.493 148.167 179.065 144.748 182.947C139.317 189.113 131.431 186.868 125.715 192.368C122.367 195.589 120.105 201.426 119.827 207.563C119.55 213.7 121.263 219.979 124.287 223.907C128.517 229.4 134.524 229.909 139.992 229.054C145.46 228.199 150.983 226.247 156.391 227.776C160.537 228.949 164.335 232.101 168.359 234.052C172.383 236.004 177.044 236.607 180.564 232.985C182.973 230.506 184.493 226.403 185.642 222.264C190.088 206.257 190.178 188.119 189.021 170.758C188.115 157.18 187.156 143.268 185.751 129.805C184.742 120.132 178.405 115.593 172.37 118.655C164.066 122.87 162.919 133.904 161.47 145.395C159.656 159.777 158.775 175.164 153.316 187.075C151.012 192.103 147.781 197.2 148.305 203.334C148.786 208.98 152.705 212.889 156.327 212.356C159.95 211.823 163.061 207.722 164.848 202.759C166.635 197.797 167.292 192.047 167.719 186.389C168.024 182.348 168.234 178.229 169.166 174.43C170.097 170.631 171.891 167.112 174.376 165.918C176.851 164.729 179.643 166.098 181.578 168.792C183.512 171.487 184.67 175.336 185.263 179.282" stroke="white" stroke-width="2" stroke-miterlimit="10" stroke-linecap="round" stroke-linejoin="round" stroke-dasharray="5 7 5 7"/>
<path d="M17.4736 252.434C22.554 241.295 28.0478 229.625 36.1146 224.349C43.2119 219.707 51.2963 220.722 58.7112 217.519C68.4921 213.295 76.3884 202.088 83.1546 190.25C84.5044 187.888 86.3923 185.242 88.2768 186.398C90.3438 187.667 90.3607 192.278 89.6283 195.56C87.9859 202.918 84.4822 208.974 80.455 213.557C76.4279 218.14 71.8635 221.405 67.3413 224.665C65.4921 225.999 63.5567 227.448 62.3903 230.06C61.2239 232.673 61.1974 236.819 62.8783 238.617C64.0146 239.833 65.5198 239.638 66.8821 239.331C76.6358 237.131 85.6783 231.875 92.807 220.897C100.242 209.448 104.235 191.949 101.481 176.201C99.3546 164.044 93.5261 153.572 93.0578 140.989C92.8723 136.003 93.5549 130.917 92.8432 126.048C91.6473 117.867 86.3206 111.931 80.9608 112.056C75.6011 112.181 70.5957 117.846 68.3388 125.458C65.3735 135.46 66.7416 147.921 62.9612 157.225C60.5635 163.125 56.4969 166.72 52.9393 170.949C49.3815 175.178 45.9944 181.054 46.0758 188.046C46.1498 194.41 49.3332 200.078 53.2024 202.031C57.0716 203.983 61.4077 202.627 64.9311 199.453C68.4545 196.279 71.2544 191.442 73.6223 186.268C79.4879 173.451 83.0221 158.048 83.7069 142.317C83.8046 140.07 83.8409 137.759 83.3834 135.623C82.9259 133.487 81.8818 131.533 80.4811 131.018C77.7798 130.024 75.571 134.46 74.5733 138.514C72.4925 146.969 72.1781 156.219 70.6568 164.962C69.1357 173.704 65.9042 182.605 60.4445 185.611C57.0723 187.467 52.8872 187.138 50.5838 191.417" stroke="white" stroke-width="2" stroke-miterlimit="10" stroke-linecap="round" stroke-linejoin="round" stroke-dasharray="5 7 5 7"/>
<path d="M98.5711 46.929C92.1241 60.7505 78.78 63.2751 72.5288 77.3153C71.8836 78.7642 71.3134 80.621 71.774 82.2332C72.2112 83.7633 73.4584 84.3907 74.508 84.0601C75.5576 83.7295 76.4453 82.666 77.2608 81.5799C80.3687 77.4408 83.0351 72.5306 86.1947 68.4884C89.3544 64.4462 93.2036 61.2281 97.2827 61.3755C99.5011 61.4555 101.652 62.523 103.848 63.0255C106.043 63.5281 108.453 63.381 110.242 61.3257C112.663 58.5442 113.187 53.2191 113 48.5266C112.747 42.149 111.325 35.3873 107.945 31.8051C104.808 28.4795 100.569 28.6193 97.04 30.7768C94.221 32.5002 90.8091 35.6332 88.8979 39.3913C87.2136 42.7036 86.238 45.5788 83.9467 48.2538C78.9371 54.102 73.0507 57.8687 68.2247 64.1352C64.6782 68.7403 61.6572 75.9016 62.9811 82.8114C64.1876 89.1077 68.7586 92.6899 72.9509 92.332C77.1432 91.9742 80.9668 88.5222 84.3475 84.6244C87.7283 80.7265 90.8886 76.2581 94.648 73.3315C97.6726 70.9772 101.813 70.0229 104.042 73.9961C105.679 76.9127 105.572 81.3429 104.883 85.0721C104.194 88.8013 103.019 92.3553 102.803 96.2226C102.444 102.624 104.936 108.938 108.475 112.19C112.015 115.442 116.411 115.898 120.407 114.435C124.404 112.972 128.052 109.734 131.386 105.987C138.014 98.5358 143.767 88.5467 146.292 76.3979C147.415 71.0011 147.731 64.4545 145.311 60.2287C143.182 56.5111 139.619 55.8303 136.444 56.2957C128.019 57.5308 120.107 65.4582 115.861 76.917C114.689 80.0803 113.772 83.9084 114.587 87.3349C115.541 91.3406 118.7 93.287 121.371 92.3964C124.042 91.5059 126.211 88.3921 127.756 84.8677C129.302 81.3433 130.347 77.3508 131.672 73.613C132.998 69.8752 134.692 66.2665 137.095 64.2384" stroke="white" stroke-width="2" stroke-miterlimit="10" stroke-linecap="round" stroke-linejoin="round" stroke-dasharray="5 7 5 7"/>
</g>
<g clip-path="url(#clip0_127_757)">
<path d="M115.482 140.96C115.316 139.898 115.367 138.783 115.343 137.713C115.115 127.691 114.713 117.621 113.289 107.691H99.7065H96.8351C94.4151 107.691 92.6869 105.302 93.402 102.946L93.6863 102.009L82.9142 118.144C83.5555 119.157 84.1533 120.194 84.6946 121.252C84.8784 121.612 84.8201 121.99 84.5627 122.294L84.4644 122.41C83.7478 123.284 83.0144 124.144 82.2844 125.007L84.1177 128.017C84.7596 129.072 85.8692 129.736 87.0851 129.795L97.3898 130.292C100.452 130.439 102.018 134.101 100.041 136.488L93.3861 144.523C92.6009 145.471 92.3236 146.752 92.6447 147.949L95.3655 158.091C96.1739 161.105 93.2412 163.755 90.4027 162.576L80.8493 158.608C79.7221 158.14 78.441 158.267 77.4237 158.948L68.8006 164.72C66.2385 166.435 62.8592 164.411 63.0822 161.295L63.8327 150.808C63.9082 149.752 63.5421 148.725 62.8444 147.963C59.7076 151.671 56.5709 155.378 53.434 159.086C52.1761 160.572 50.9182 162.059 49.6603 163.546C48.9278 164.411 48.2252 165.297 47.3796 166.054C43.4569 169.565 38.0545 171.221 32.9047 170.373C28.6751 169.677 24.8816 167.287 22.2684 163.874L17.4533 223.938H17.4639C-28.9048 223.938 17.4639 226.557 17.4639 223.938C70.7774 223.938 116.916 226.66 117.146 223.938C117.146 223.938 120.076 183.926 116.413 141.548C116.009 141.658 115.567 141.5 115.482 140.96Z" fill="#007E96"/>
<path d="M98.9081 84.2776L99.0183 84.4361L99.8154 81.8096C99.1637 82.2466 98.4496 82.6892 97.6811 83.1302C98.133 83.4581 98.5489 83.8344 98.9081 84.2776Z" fill="#007E96"/>
<path d="M42.7239 77.974C42.668 78.178 42.6389 78.3849 42.6389 78.5945C42.6389 81.9948 50.1631 84.7514 59.4447 84.7514C68.7262 84.7514 76.2503 81.9948 76.2503 78.5945V72.8117V67.1786C71.7182 68.9306 66.5142 68.6416 62.2172 66.337C58.2574 64.2134 55.2649 60.4707 53.8959 56.146C53.5612 55.0887 55.1905 54.6402 55.5226 55.6889C56.7614 59.6025 59.4948 62.9356 63.0685 64.8523C67.0358 66.9801 71.7993 67.1165 75.9484 65.4672C76.5177 65.2409 76.9042 65.6662 76.9568 66.1531C85.5964 63.3741 92.1456 53.034 93.0149 30.8655C77.2258 34.0962 58.3981 20.7749 58.3981 20.7749C62.435 31.062 53.9806 36.7572 51.6302 38.1049C50.2287 35.7375 47.5532 34.0159 44.82 33.6049C44.034 33.4866 43.244 33.4709 42.4784 33.586C38.7815 34.1422 37.0581 37.3949 38.6292 40.851C40.2002 44.307 44.471 46.6579 48.1679 46.1016C48.4088 46.0654 48.6402 46.0165 48.8641 45.9581L42.8832 77.1428L42.7239 77.974ZM56.4151 43.834C56.4151 41.9112 57.9443 40.3526 59.8308 40.3526C61.7173 40.3526 63.2465 41.9113 63.2465 43.834C63.2465 45.7568 61.7173 47.3156 59.8308 47.3156C57.9443 47.3156 56.4151 45.7568 56.4151 43.834ZM68.8119 59.1354C66.7064 59.3866 64.543 58.7648 62.8768 57.4295L62.7659 57.3388C61.1613 56.0043 60.1012 54.0497 59.8497 51.9532C59.6803 50.5374 60.6685 49.2497 62.0576 49.0765C63.4464 48.9038 64.7095 49.9108 64.8797 51.3267C64.9737 52.1147 65.3943 52.8676 66.0087 53.3694C66.621 53.8601 67.4487 54.0979 68.2226 54.0056C69.6126 53.8396 70.8708 54.8534 71.0337 56.2701C71.1964 57.6869 70.2015 58.9696 68.8119 59.1354ZM64.8198 39.5797C64.8198 38.3285 65.4093 37.3143 66.1368 37.3143C66.8643 37.3143 67.454 38.3285 67.454 39.5797C67.454 40.8308 66.8643 41.845 66.1368 41.845C65.4093 41.845 64.8198 40.8308 64.8198 39.5797ZM86.2381 40.3526C88.1245 40.3526 89.6538 41.9113 89.6538 43.834C89.6538 45.7568 88.1245 47.3156 86.2381 47.3156C84.3516 47.3156 82.8223 45.7568 82.8223 43.834C82.8223 41.9112 84.3516 40.3526 86.2381 40.3526ZM80.7657 37.3143C81.4932 37.3143 82.0829 38.3285 82.0829 39.5797C82.0829 40.8308 81.4932 41.845 80.7657 41.845C80.0383 41.845 79.4487 40.8308 79.4487 39.5797C79.4488 38.3285 80.0385 37.3143 80.7657 37.3143ZM76.4741 38.0544C75.8022 39.7462 75.222 41.6483 75.7504 43.4653C75.9606 44.1879 76.3364 44.8659 76.8981 45.3644C77.4441 45.8489 78.1574 46.0148 78.7647 46.3937C80.0941 47.2235 80.479 48.9588 79.6679 50.3197C78.7234 51.9048 76.8597 52.2924 75.1743 52.3217C74.0867 52.3405 74.0901 50.6211 75.1743 50.6022C76.2661 50.5833 78.757 50.2432 78.3914 48.5275C78.2548 47.8859 77.5526 47.6836 77.0332 47.4456C76.43 47.1692 75.8802 46.7997 75.4282 46.3029C73.2197 43.8758 73.7315 40.4071 74.8476 37.5973C75.2504 36.5832 76.8813 37.0292 76.4741 38.0544ZM47.733 39.8274C47.2173 39.1735 46.5541 38.6832 45.8307 38.302C45.6585 38.9696 45.6255 39.6422 45.7573 40.2806C45.8454 40.7083 45.9843 41.1006 46.132 41.3934C46.3448 41.8153 46.55 42.1076 46.8141 42.4009C47.123 42.744 47.1483 43.276 46.8141 43.6168C46.5017 43.9352 45.9294 43.9589 45.6212 43.6168C44.1831 42.0198 43.6437 39.7414 44.2655 37.6724C43.7435 37.5318 43.194 37.4648 42.6779 37.6614C42.1988 37.8438 41.9079 38.2474 41.9455 38.7542C41.9801 39.2197 41.5319 39.6138 41.1021 39.6138C40.6217 39.6138 40.293 39.2172 40.2587 38.7542C40.1842 37.7506 40.7645 36.797 41.5962 36.2919C42.4321 35.7842 43.4423 35.7427 44.3749 35.9291C45.2544 36.1049 46.1322 36.4877 46.9132 36.9298C47.6731 37.36 48.3797 37.9196 48.9257 38.6118C49.2121 38.9749 49.2769 39.4696 48.9257 39.8277C48.6282 40.1307 48.0186 40.1895 47.733 39.8274Z" fill="#F3966F"/>
<path d="M75.9484 65.4668C71.7993 67.1162 67.036 66.9797 63.0685 64.8519C59.4948 62.9352 56.7614 59.6021 55.5226 55.6885C55.1905 54.6397 53.5613 55.0883 53.8959 56.1457C55.2649 60.4703 58.2573 64.213 62.2171 66.3366C66.5142 68.6413 71.7183 68.9304 76.2503 67.1782L76.3967 67.1246C76.8353 66.9502 76.9978 66.5327 76.9567 66.1525C76.9042 65.6657 76.5176 65.2404 75.9484 65.4668Z" fill="#DD514C"/>
<path d="M66.1367 41.8452C66.8642 41.8452 67.4539 40.831 67.4539 39.5798C67.4539 38.3287 66.8642 37.3145 66.1367 37.3145C65.4093 37.3145 64.8196 38.3287 64.8196 39.5798C64.8198 40.831 65.4093 41.8452 66.1367 41.8452Z" fill="#3A0F10"/>
<path d="M80.7657 41.8452C81.4932 41.8452 82.0829 40.831 82.0829 39.5798C82.0829 38.3287 81.4932 37.3145 80.7657 37.3145C80.0383 37.3145 79.4486 38.3287 79.4486 39.5798C79.4488 40.831 80.0385 41.8452 80.7657 41.8452Z" fill="#3A0F10"/>
<path d="M63.2465 43.8339C63.2465 41.9111 61.7173 40.3525 59.8308 40.3525C57.9443 40.3525 56.4151 41.9113 56.4151 43.8339C56.4151 45.7568 57.9443 47.3155 59.8308 47.3155C61.7173 47.3155 63.2465 45.7568 63.2465 43.8339Z" fill="#F8BBA6"/>
<path d="M86.238 47.3155C88.1245 47.3155 89.6538 45.7568 89.6538 43.8339C89.6538 41.9111 88.1245 40.3525 86.238 40.3525C84.3516 40.3525 82.8223 41.9113 82.8223 43.8339C82.8223 45.7568 84.3516 47.3155 86.238 47.3155Z" fill="#F8BBA6"/>
<path d="M68.2226 54.0059C67.4486 54.0984 66.6209 53.8605 66.0087 53.3697C65.3942 52.8678 64.9737 52.1151 64.8797 51.3271C64.7095 49.9112 63.4464 48.9042 62.0575 49.0769C60.6685 49.2499 59.6804 50.5378 59.8497 51.9535C60.1012 54.05 61.1612 56.0047 62.7659 57.3391L62.8768 57.4298C64.543 58.7653 66.7064 59.387 68.8119 59.1358C70.2015 58.97 71.1964 57.6872 71.0337 56.2706C70.8708 54.8537 69.6126 53.84 68.2226 54.0059Z" fill="white"/>
<path d="M74.8474 37.5975C73.7314 40.4072 73.2197 43.8759 75.4281 46.303C75.8802 46.7999 76.43 47.1693 77.0331 47.4457C77.5526 47.6838 78.2547 47.886 78.3913 48.5276C78.7568 50.2435 76.2659 50.5835 75.1742 50.6023C74.0899 50.6211 74.0865 52.3406 75.1742 52.3218C76.8596 52.2927 78.7233 51.9049 79.6678 50.3199C80.4787 48.959 80.0939 47.2236 78.7646 46.3939C78.1571 46.0149 77.444 45.8491 76.898 45.3645C76.3363 44.866 75.9604 44.1881 75.7502 43.4654C75.2219 41.6483 75.802 39.7462 76.474 38.0546C76.8813 37.0293 75.2504 36.5834 74.8474 37.5975Z" fill="#DD514C"/>
<path d="M51.6302 38.105C53.9806 36.7572 62.435 31.0621 58.3981 20.775C58.3981 20.775 77.2258 34.0963 93.0149 30.8656C94.4227 30.5777 95.8089 30.1715 97.1527 29.5989C113.57 22.604 103.125 -4.94691 81.5431 8.43088C81.5431 8.43088 39.3794 -11.0455 49.6065 10.4425C49.6065 10.4425 36.412 22.1388 44.82 33.605C47.5532 34.0161 50.2287 35.7376 51.6302 38.105Z" fill="#C25D51"/>
<path d="M48.9257 38.6116C48.3797 37.9193 47.6731 37.3597 46.9132 36.9296C46.1322 36.4875 45.2543 36.1047 44.3749 35.9289C43.4422 35.7425 42.4321 35.784 41.5962 36.2917C40.7646 36.7968 40.1841 37.7504 40.2587 38.754C40.2932 39.217 40.6217 39.6136 41.1021 39.6136C41.5319 39.6136 41.9801 39.2195 41.9455 38.754C41.9079 38.2472 42.1988 37.8436 42.6779 37.6612C43.194 37.4647 43.7434 37.5316 44.2654 37.6722C43.6437 39.7412 44.1831 42.0196 45.6212 43.6166C45.9294 43.9587 46.5017 43.935 46.8141 43.6166C47.1483 43.2759 47.123 42.7439 46.8141 42.4007C46.5499 42.1075 46.3448 41.8151 46.132 41.3932C45.9843 41.1004 45.8456 40.7081 45.7572 40.2805C45.6255 39.642 45.6585 38.9694 45.8307 38.3018C46.5541 38.683 47.2173 39.1735 47.733 39.8272C48.0186 40.1893 48.6283 40.1305 48.9259 39.8272C49.2768 39.4694 49.2122 38.9745 48.9257 38.6116Z" fill="#DD514C"/>
<path d="M125.368 111.708C125.572 112.077 125.537 112.559 125.056 112.799C124.074 113.29 123.112 113.821 122.193 114.428C121.997 114.557 121.807 114.693 121.617 114.829C121.859 115.919 122.103 117.009 122.345 118.1C123.598 123.72 124.85 129.34 126.103 134.961C126.884 138.466 127.665 141.971 128.446 145.476C128.686 146.555 127.06 147.011 126.819 145.933C126.532 144.647 126.246 143.36 125.959 142.074C124.707 136.454 123.454 130.833 122.202 125.213C121.421 121.708 120.64 118.203 119.859 114.698C119.797 114.421 119.841 114.053 120.076 113.861C121.33 112.835 122.766 112.033 124.205 111.314C124.315 111.259 124.424 111.232 124.528 111.224L123.469 102.602C123.02 102.507 122.588 102.37 122.166 102.209L121.286 105.111C120.821 106.645 119.429 107.691 117.853 107.691H114.987C115.322 110.089 115.603 112.496 115.835 114.906C116.387 120.638 116.698 126.393 116.884 132.148C116.946 134.095 116.992 136.041 117.036 137.988C117.05 138.591 117.063 139.194 117.083 139.797C117.09 139.993 117.099 140.19 117.108 140.386C117.117 140.578 117.142 140.714 117.109 140.503C117.193 141.044 116.832 141.429 116.427 141.545L132.435 161.599C132.544 161.743 132.657 161.882 132.772 162.021L133.009 162.318V162.296C136.307 166.094 141.548 167.874 146.662 166.413C153.79 164.376 157.949 156.835 155.951 149.57L142.194 108.863C141.741 108.826 141.294 108.798 140.853 108.778C134.137 108.469 128.846 110.109 125.368 111.708Z" fill="#007E96"/>
<path d="M120.076 113.861C119.841 114.053 119.797 114.421 119.859 114.698C120.64 118.203 121.421 121.708 122.202 125.213C123.454 130.833 124.707 136.454 125.959 142.074C126.246 143.36 126.532 144.646 126.819 145.933C127.06 147.011 128.686 146.555 128.446 145.476C127.665 141.971 126.884 138.466 126.103 134.961C124.85 129.34 123.598 123.72 122.345 118.099C122.102 117.009 121.859 115.919 121.617 114.829C121.807 114.693 121.997 114.557 122.193 114.428C123.112 113.821 124.074 113.29 125.056 112.799C125.537 112.559 125.572 112.077 125.368 111.708C125.206 111.413 124.892 111.193 124.528 111.223C124.424 111.232 124.315 111.259 124.205 111.314C122.766 112.033 121.33 112.835 120.076 113.861Z" fill="#004A54"/>
<path d="M117.109 140.503C117.142 140.714 117.117 140.577 117.108 140.386C117.099 140.189 117.09 139.993 117.083 139.796C117.063 139.194 117.05 138.591 117.036 137.988C116.992 136.041 116.946 134.094 116.884 132.148C116.698 126.392 116.388 120.638 115.835 114.906C115.603 112.495 115.322 110.089 114.987 107.691H114.982H113.289C114.713 117.622 115.115 127.691 115.343 137.713C115.368 138.784 115.316 139.898 115.482 140.96C115.567 141.5 116.01 141.658 116.413 141.548L116.427 141.545C116.832 141.429 117.193 141.043 117.109 140.503Z" fill="#004A54"/>
<path d="M65.3874 144.958C64.5397 145.96 63.692 146.962 62.8443 147.964C63.5419 148.725 63.9082 149.753 63.8326 150.808L63.0821 161.295C62.859 164.411 66.2383 166.435 68.8004 164.72L77.4235 158.948C78.441 158.267 79.722 158.14 80.8492 158.608L90.4025 162.577C93.241 163.756 96.1738 161.106 95.3654 158.092L92.6446 147.949C92.3235 146.753 92.6007 145.471 93.386 144.523L100.041 136.489C102.018 134.102 100.451 130.44 97.3897 130.292L87.085 129.795C85.8692 129.737 84.7595 129.072 84.1176 128.018L82.2843 125.007C80.8018 126.76 79.3089 128.504 77.8271 130.255C73.6805 135.156 69.5339 140.057 65.3874 144.958Z" fill="#EC6428"/>
<path d="M82.9141 118.144L93.6862 102.009L99.0185 84.4359L98.9082 84.2774C98.549 83.8343 98.133 83.4579 97.6813 83.13C98.4497 82.689 99.1637 82.2463 99.8155 81.8093L101.375 76.6699C99.1478 76.8617 95.6695 77.9301 91.954 79.6731C87.7975 81.6229 84.4683 83.8903 83.0913 85.5633C83.0079 85.6312 82.9219 85.6915 82.8392 85.7611C78.4293 89.4755 76.2563 94.5779 77.0128 98.5253L70.1022 106.111C75.3545 108.769 79.7329 113.122 82.9141 118.144Z" fill="#F3966F"/>
<path d="M20.7001 159.363C20.9765 160.076 21.3 160.756 21.6594 161.406C22.022 161.207 22.5146 161.232 22.7998 161.685C23.4371 162.696 24.1699 163.625 25.0139 164.465C28.3805 167.817 33.2479 169.454 37.9109 168.732C41.4353 168.187 45.055 166.335 47.4092 163.581C49.6925 160.91 51.9493 158.215 54.219 155.532C58.2953 150.714 62.3717 145.896 66.4482 141.078C70.3481 136.469 74.248 131.86 78.1479 127.25C79.747 125.36 81.3459 123.471 82.945 121.581C81.7725 119.369 80.4109 117.266 78.8061 115.353C76.6107 112.737 74.0377 110.447 71.1475 108.66C70.3079 108.141 69.4426 107.662 68.5497 107.244C68.315 107.135 68.2155 107.084 68.1148 107.04C67.2486 107.908 66.3823 108.775 65.516 109.643C61.2218 113.943 56.9277 118.244 52.6335 122.544C49.9435 125.238 47.2535 127.932 44.5637 130.626C44.0747 131.115 43.3815 130.833 43.154 130.246C42.6442 128.931 42.1346 127.616 41.6248 126.3C39.3955 120.547 37.1662 114.794 34.9367 109.041C33.5372 105.429 32.1375 101.817 30.7378 98.2048C30.3382 97.1737 31.9703 96.7305 32.3644 97.7477C32.8742 99.0631 33.3838 100.378 33.8935 101.694C36.1229 107.447 38.3523 113.2 40.5816 118.953C41.8146 122.135 43.0477 125.317 44.2806 128.499C44.972 127.806 45.6635 127.114 46.3549 126.422C50.6491 122.121 54.9433 117.821 59.2375 113.52C61.9274 110.826 64.6174 108.132 67.3073 105.438C67.5116 105.234 67.8469 105.118 68.128 105.217C68.628 105.394 69.1147 105.621 69.593 105.85C69.7649 105.933 69.9321 106.025 70.1022 106.111L77.0128 98.5251C76.2563 94.5777 78.4293 89.4753 82.8392 85.7609C82.922 85.6911 83.008 85.6309 83.0913 85.5631C84.4683 83.8901 87.7975 81.6227 91.954 79.6729C95.6697 77.9299 99.1478 76.8615 101.375 76.6697L101.643 75.7868C97.5524 73.3805 88.2426 72.3329 76.2504 72.8114V78.594C76.2504 81.9944 68.7262 84.751 59.4448 84.751C50.1633 84.751 42.6391 81.9944 42.6391 78.594C42.6391 78.3846 42.6681 78.1777 42.724 77.9736L42.8832 77.1424C27.3475 80.4521 14.9014 85.026 9.3848 89.3166C1.97365 93.0716 -1.50903 102.049 1.58711 110.039L20.7001 159.363Z" fill="#007E96"/>
<path d="M32.9046 170.374C38.0544 171.221 43.4569 169.566 47.3794 166.054C48.2252 165.297 48.9278 164.412 49.6602 163.546C50.9181 162.059 52.1759 160.573 53.4339 159.086C56.5707 155.379 59.7074 151.671 62.8443 147.964C63.692 146.962 64.5397 145.96 65.3874 144.958C69.534 140.057 73.6805 135.156 77.8271 130.255C79.3089 128.504 80.8018 126.76 82.2843 125.007C83.0142 124.144 83.7477 123.284 84.4642 122.411L84.5626 122.294C84.8201 121.99 84.8784 121.612 84.6944 121.253C84.1532 120.194 83.5554 119.157 82.914 118.145C79.7328 113.122 75.3544 108.769 70.1019 106.111C69.9319 106.025 69.7646 105.933 69.5927 105.851C69.1145 105.621 68.6277 105.394 68.1277 105.218C67.8466 105.118 67.5114 105.234 67.307 105.439C64.617 108.133 61.927 110.826 59.2372 113.52C54.943 117.821 50.6488 122.121 46.3546 126.422C45.6632 127.114 44.9717 127.807 44.2803 128.499C43.0474 125.317 41.8145 122.135 40.5814 118.953C38.3521 113.2 36.1226 107.447 33.8933 101.694C33.3835 100.379 32.8739 99.0632 32.3641 97.748C31.97 96.7307 30.338 97.1739 30.7375 98.2051C32.1372 101.817 33.5369 105.429 34.9365 109.041C37.1659 114.794 39.3952 120.547 41.6246 126.301C42.1343 127.616 42.6441 128.931 43.1537 130.247C43.3812 130.834 44.0745 131.116 44.5634 130.626C47.2534 127.932 49.9434 125.238 52.6332 122.544C56.9274 118.244 61.2216 113.943 65.5157 109.643C66.3822 108.775 67.2483 107.908 68.1146 107.04C68.2151 107.084 68.3147 107.135 68.5494 107.245C69.4423 107.662 70.3076 108.141 71.1473 108.66C74.0374 110.447 76.6103 112.738 78.8058 115.354C80.4105 117.266 81.7722 119.369 82.9447 121.581C81.3457 123.471 79.7467 125.361 78.1477 127.251C74.2477 131.86 70.3478 136.469 66.4479 141.079C62.3715 145.897 58.295 150.715 54.2187 155.533C51.9488 158.215 49.6922 160.91 47.4089 163.581C45.0548 166.335 41.4351 168.188 37.9106 168.733C33.2476 169.454 28.3802 167.817 25.0136 164.465C24.1698 163.625 23.437 162.696 22.7996 161.685C22.5142 161.233 22.0216 161.207 21.6591 161.407C21.2783 161.616 21.0412 162.074 21.343 162.553C21.6309 163.009 21.9418 163.449 22.268 163.875C24.8815 167.287 28.6749 169.677 32.9046 170.374Z" fill="#004A54"/>
<path d="M99.8155 81.8095L99.0185 84.436L93.6863 102.009L93.402 102.946C92.6869 105.303 94.4151 107.691 96.8351 107.691H99.7065C97.2865 107.691 95.5583 105.303 96.2733 102.946L107.833 64.8501C108.299 63.3157 109.691 62.2695 111.266 62.2695H108.395C106.819 62.2695 105.427 63.3157 104.962 64.8501L101.643 75.7871L101.375 76.6701L99.8155 81.8095Z" fill="#EC6428"/>
<path d="M107.833 64.85L96.2732 102.946C95.5581 105.302 97.2865 107.691 99.7063 107.691H113.289H114.982H114.987H117.853C119.428 107.691 120.82 106.645 121.286 105.11L122.166 102.209C121.367 101.906 120.623 101.491 119.949 100.982C119.007 100.419 117.914 99.5524 116.654 98.2678C112.518 94.0528 108.174 86.986 109.166 85.9757C109.742 85.3881 111.392 86.027 113.482 87.4881C112.245 85.9788 111.277 84.577 110.665 83.4252C110.288 84.7887 109.263 85.6953 108.322 85.4602C107.352 85.2177 106.845 83.8567 107.191 82.4202C107.536 80.9838 108.603 80.0159 109.573 80.2584C109.81 80.3177 110.019 80.4456 110.195 80.6233C110.893 80.0823 112.873 81.0091 115.334 82.8874C113.696 81.0418 112.39 79.2879 111.562 77.8605C111.105 78.3398 110.544 78.584 110.008 78.4501C109.038 78.2076 108.531 76.8467 108.877 75.4104C109.222 73.9738 110.289 73.0059 111.259 73.2484C111.857 73.3979 112.276 73.9733 112.431 74.7277C114.277 75.4591 117.255 77.6928 120.304 80.7387C117.801 77.65 116.489 74.9951 117.246 74.2235C118.237 73.2131 122.393 75.8112 126.529 80.0262C127.164 80.6743 127.757 81.3212 128.311 81.9586L132.845 67.0142C133.56 64.6577 131.832 62.269 129.412 62.269H126.541H111.266C109.69 62.2695 108.298 63.3156 107.833 64.85ZM110.563 68.4007C110.908 66.9643 111.975 65.9964 112.946 66.2389C113.916 66.4814 114.422 67.8424 114.077 69.2789C113.731 70.7152 112.665 71.6832 111.694 71.4407C110.724 71.1982 110.218 69.837 110.563 68.4007Z" fill="#FCC105"/>
<path d="M111.694 71.4402C112.665 71.6826 113.731 70.7147 114.077 69.2784C114.422 67.8419 113.916 66.4809 112.945 66.2384C111.975 65.9959 110.908 66.9639 110.563 68.4002C110.218 69.8366 110.724 71.1977 111.694 71.4402Z" fill="#EC6428"/>
<path d="M110.763 74.6636C111.052 74.3691 111.641 74.4145 112.432 74.728C112.277 73.9735 111.857 73.3981 111.259 73.2486C110.289 73.0062 109.222 73.974 108.877 75.4106C108.532 76.8469 109.038 78.208 110.008 78.4503C110.544 78.5842 111.105 78.3401 111.562 77.8607C110.653 76.2933 110.316 75.1191 110.763 74.6636Z" fill="#EC6428"/>
<path d="M110.127 80.6674L110.195 80.6233C110.019 80.4456 109.811 80.3177 109.574 80.2584C108.603 80.0159 107.537 80.9839 107.191 82.4203C106.846 83.8566 107.352 85.2176 108.322 85.4603C109.263 85.6953 110.288 84.7888 110.665 83.4252C109.953 82.0851 109.719 81.0831 110.127 80.6674Z" fill="#EC6428"/>
<path d="M133.009 89.0025L132.974 88.7931C132.727 88.3856 132.453 87.998 132.149 87.6362C131.585 86.1927 130.209 84.1427 128.311 81.9589C127.758 81.3217 127.165 80.6747 126.529 80.0266C122.394 75.8115 118.238 73.2135 117.246 74.2238C116.489 74.9954 117.802 77.6504 120.304 80.739C117.255 77.6933 114.278 75.4596 112.432 74.7281C111.641 74.4148 111.052 74.3693 110.763 74.6637C110.316 75.1192 110.653 76.2936 111.562 77.861C112.39 79.2884 113.697 81.0423 115.334 82.8879C112.874 81.0096 110.893 80.0828 110.195 80.6238L110.127 80.6679C109.719 81.0835 109.953 82.0856 110.665 83.4256C111.277 84.5775 112.245 85.9792 113.482 87.4884C111.392 86.0272 109.742 85.3885 109.166 85.976C108.175 86.9862 112.518 94.053 116.654 98.2682C117.914 99.5527 119.007 100.42 119.949 100.982C120.623 101.492 121.367 101.906 122.166 102.21C122.588 102.37 123.02 102.507 123.469 102.602L124.528 111.224C124.892 111.194 125.206 111.413 125.368 111.708C128.846 110.109 134.137 108.469 140.853 108.778L133.009 89.0025Z" fill="#F3966F"/>
</g>
<defs>
<clipPath id="clip0_127_757">
<rect width="156" height="224" fill="white"/>
</clipPath>
</defs>
</svg>
